%FSLAX25Y25*%
%MOIN*%
G70*
G01*
G75*
G04 Layer_Color=8388736*
%ADD10R,0.04921X0.04921*%
%ADD11R,0.03150X0.03150*%
%ADD12R,0.31496X0.08661*%
%ADD13R,0.06299X0.08583*%
%ADD14R,0.02362X0.07874*%
%ADD15R,0.04921X0.04921*%
%ADD16R,0.02362X0.05906*%
%ADD17R,0.04921X0.04331*%
%ADD18R,0.03150X0.03150*%
%ADD19R,0.07874X0.03937*%
G04:AMPARAMS|DCode=20|XSize=78.74mil|YSize=39.37mil|CornerRadius=9.84mil|HoleSize=0mil|Usage=FLASHONLY|Rotation=0.000|XOffset=0mil|YOffset=0mil|HoleType=Round|Shape=RoundedRectangle|*
%AMROUNDEDRECTD20*
21,1,0.07874,0.01969,0,0,0.0*
21,1,0.05906,0.03937,0,0,0.0*
1,1,0.01969,0.02953,-0.00984*
1,1,0.01969,-0.02953,-0.00984*
1,1,0.01969,-0.02953,0.00984*
1,1,0.01969,0.02953,0.00984*
%
%ADD20ROUNDEDRECTD20*%
%ADD21R,0.07874X0.03543*%
%ADD22R,0.02756X0.07874*%
%ADD23R,0.03150X0.07874*%
%ADD24R,0.05276X0.07087*%
%ADD25R,0.03937X0.04921*%
%ADD26R,0.06102X0.02362*%
%ADD27O,0.06102X0.02362*%
%ADD28C,0.03937*%
%ADD29C,0.01575*%
%ADD30C,0.01000*%
%ADD31C,0.05906*%
%ADD32C,0.02362*%
%ADD33C,0.03150*%
%ADD34C,0.02756*%
%ADD35C,0.06000*%
%ADD36R,0.06000X0.06000*%
%ADD37R,0.07284X0.07284*%
%ADD38C,0.07284*%
%ADD39R,0.07284X0.07284*%
%ADD40C,0.07874*%
%ADD41C,0.06693*%
%ADD42R,0.06693X0.06693*%
%ADD43R,0.07874X0.07874*%
%ADD44C,0.05906*%
%ADD45R,0.05906X0.05906*%
%ADD46C,0.04724*%
%ADD47C,0.02756*%
%ADD48C,0.03937*%
%ADD49C,0.04331*%
%ADD50C,0.00984*%
%ADD51C,0.00787*%
%ADD52C,0.01008*%
%ADD53C,0.00591*%
%ADD54R,0.05721X0.05721*%
%ADD55R,0.03950X0.03950*%
%ADD56R,0.32296X0.09461*%
%ADD57R,0.07099X0.09383*%
%ADD58R,0.03162X0.08674*%
%ADD59R,0.05721X0.05721*%
%ADD60R,0.03162X0.06706*%
%ADD61R,0.05721X0.05131*%
%ADD62R,0.03950X0.03950*%
%ADD63R,0.08674X0.04737*%
G04:AMPARAMS|DCode=64|XSize=86.74mil|YSize=47.37mil|CornerRadius=13.84mil|HoleSize=0mil|Usage=FLASHONLY|Rotation=0.000|XOffset=0mil|YOffset=0mil|HoleType=Round|Shape=RoundedRectangle|*
%AMROUNDEDRECTD64*
21,1,0.08674,0.01969,0,0,0.0*
21,1,0.05906,0.04737,0,0,0.0*
1,1,0.02769,0.02953,-0.00984*
1,1,0.02769,-0.02953,-0.00984*
1,1,0.02769,-0.02953,0.00984*
1,1,0.02769,0.02953,0.00984*
%
%ADD64ROUNDEDRECTD64*%
%ADD65R,0.08674X0.04343*%
%ADD66R,0.03556X0.08674*%
%ADD67R,0.03950X0.08674*%
%ADD68R,0.06076X0.07887*%
%ADD69R,0.04737X0.05721*%
%ADD70R,0.06902X0.03162*%
%ADD71O,0.06902X0.03162*%
%ADD72C,0.06800*%
%ADD73R,0.06800X0.06800*%
%ADD74C,0.00800*%
%ADD75R,0.08083X0.08083*%
%ADD76C,0.08083*%
%ADD77R,0.08083X0.08083*%
%ADD78C,0.08674*%
%ADD79C,0.07493*%
%ADD80R,0.07493X0.07493*%
%ADD81R,0.00800X0.00800*%
%ADD82R,0.08674X0.08674*%
%ADD83C,0.06706*%
%ADD84R,0.06706X0.06706*%
%ADD85C,0.05524*%
%ADD86C,0.03556*%
%ADD87C,0.04737*%
%ADD88C,0.05131*%
D54*
X268929Y210106D02*
D03*
X277394D02*
D03*
X237858Y211606D02*
D03*
X229394D02*
D03*
X187929Y145106D02*
D03*
X196394D02*
D03*
X98358Y269106D02*
D03*
X89894D02*
D03*
X37429Y111606D02*
D03*
X45894D02*
D03*
X72358Y60106D02*
D03*
X63894D02*
D03*
X128358Y115606D02*
D03*
X119894D02*
D03*
X73929Y215606D02*
D03*
X82394D02*
D03*
X106358Y140606D02*
D03*
X97894D02*
D03*
X89429Y149106D02*
D03*
X97894D02*
D03*
X101894Y42606D02*
D03*
X93429D02*
D03*
X92965Y34606D02*
D03*
X101429D02*
D03*
X46429Y16106D02*
D03*
X54894D02*
D03*
X55358Y7606D02*
D03*
X46894D02*
D03*
D55*
X270394Y146106D02*
D03*
X276890D02*
D03*
X208394Y211606D02*
D03*
X214890D02*
D03*
X232894Y144606D02*
D03*
X226398D02*
D03*
X16394Y112106D02*
D03*
X9898D02*
D03*
D56*
X86394Y101547D02*
D03*
Y79106D02*
D03*
D57*
X9894Y146106D02*
D03*
Y182327D02*
D03*
Y209606D02*
D03*
Y245827D02*
D03*
D58*
X129713Y161248D02*
D03*
X124713D02*
D03*
X119713D02*
D03*
X114713D02*
D03*
X109713D02*
D03*
X104713D02*
D03*
X99713D02*
D03*
X94713D02*
D03*
X89713D02*
D03*
X84713D02*
D03*
X79713D02*
D03*
X74713D02*
D03*
X69713D02*
D03*
X64713D02*
D03*
Y198256D02*
D03*
X69713D02*
D03*
X74713D02*
D03*
X79713D02*
D03*
X84713D02*
D03*
X89713D02*
D03*
X94713D02*
D03*
X99713D02*
D03*
X104713D02*
D03*
X109713D02*
D03*
X114713D02*
D03*
X119713D02*
D03*
X124713D02*
D03*
X129713D02*
D03*
D59*
X41394Y170642D02*
D03*
Y179106D02*
D03*
X140894Y258142D02*
D03*
Y266606D02*
D03*
X150394Y258142D02*
D03*
Y266606D02*
D03*
X131394Y267571D02*
D03*
Y259106D02*
D03*
X26894Y147071D02*
D03*
Y138606D02*
D03*
X18394Y147071D02*
D03*
Y138606D02*
D03*
X30394Y207642D02*
D03*
Y216106D02*
D03*
X18894Y207642D02*
D03*
Y216106D02*
D03*
X174894Y62571D02*
D03*
Y54106D02*
D03*
X166894Y62571D02*
D03*
Y54106D02*
D03*
X16535Y335630D02*
D03*
Y327165D02*
D03*
X21894Y21142D02*
D03*
Y29606D02*
D03*
X93429Y52142D02*
D03*
Y60606D02*
D03*
X101929Y52642D02*
D03*
Y61106D02*
D03*
X92394Y16142D02*
D03*
Y24606D02*
D03*
X33894Y24642D02*
D03*
Y33106D02*
D03*
X253394Y282642D02*
D03*
Y291106D02*
D03*
D60*
X136394Y103106D02*
D03*
X131394D02*
D03*
X126394D02*
D03*
X121394D02*
D03*
X136394Y81650D02*
D03*
X131394D02*
D03*
X126394D02*
D03*
X121394D02*
D03*
D61*
X9642Y126606D02*
D03*
X18894D02*
D03*
D62*
X7894Y262106D02*
D03*
Y255610D02*
D03*
D63*
X237827Y247106D02*
D03*
D64*
X172827Y292106D02*
D03*
Y282106D02*
D03*
Y267106D02*
D03*
Y252106D02*
D03*
Y287106D02*
D03*
Y277106D02*
D03*
Y272106D02*
D03*
Y262106D02*
D03*
Y257106D02*
D03*
Y247106D02*
D03*
X237827Y267106D02*
D03*
Y272106D02*
D03*
Y262106D02*
D03*
Y257106D02*
D03*
Y252106D02*
D03*
Y307106D02*
D03*
Y302106D02*
D03*
Y297106D02*
D03*
Y359606D02*
D03*
X172827D02*
D03*
D65*
X30315Y299606D02*
D03*
Y351575D02*
D03*
Y346850D02*
D03*
Y342126D02*
D03*
Y337402D02*
D03*
Y332677D02*
D03*
Y327953D02*
D03*
Y323228D02*
D03*
Y318504D02*
D03*
Y313779D02*
D03*
Y309055D02*
D03*
Y304331D02*
D03*
X83071D02*
D03*
Y309055D02*
D03*
Y313779D02*
D03*
Y318504D02*
D03*
Y323228D02*
D03*
Y327953D02*
D03*
Y332677D02*
D03*
Y337402D02*
D03*
Y342126D02*
D03*
Y346850D02*
D03*
Y351575D02*
D03*
Y299606D02*
D03*
D66*
X72835Y288583D02*
D03*
X40551D02*
D03*
X44488D02*
D03*
X68898D02*
D03*
D67*
X49606D02*
D03*
X54331D02*
D03*
X59055D02*
D03*
X63779D02*
D03*
D68*
X53394Y60106D02*
D03*
X42134D02*
D03*
D69*
X51268Y78606D02*
D03*
X43394D02*
D03*
X51268Y87606D02*
D03*
X43394D02*
D03*
D70*
X46394Y41606D02*
D03*
D71*
Y36606D02*
D03*
Y31606D02*
D03*
Y26606D02*
D03*
X67654Y41606D02*
D03*
Y36606D02*
D03*
Y31606D02*
D03*
Y26606D02*
D03*
D72*
X59449Y241496D02*
D03*
X46457D02*
D03*
D73*
X59449Y231496D02*
D03*
X46457D02*
D03*
D74*
X9055Y8268D02*
D03*
X280709Y9843D02*
D03*
X279134Y357087D02*
D03*
X8268Y357874D02*
D03*
X268898Y179134D02*
D03*
X161811D02*
D03*
D75*
X8394Y42606D02*
D03*
D76*
Y22606D02*
D03*
X125894Y65606D02*
D03*
D77*
X145894D02*
D03*
D78*
X190894Y13106D02*
D03*
X180894D02*
D03*
X170894D02*
D03*
X160894D02*
D03*
X150894D02*
D03*
Y23106D02*
D03*
X160894D02*
D03*
X170894D02*
D03*
X180894D02*
D03*
X190894D02*
D03*
X78894Y122606D02*
D03*
X68894D02*
D03*
X100894Y237606D02*
D03*
X110894D02*
D03*
X120894D02*
D03*
X130894D02*
D03*
X140894D02*
D03*
D79*
X114894Y320106D02*
D03*
Y310106D02*
D03*
X145394Y320106D02*
D03*
Y310106D02*
D03*
D80*
X114894Y300106D02*
D03*
X145394D02*
D03*
D81*
X235039Y179134D02*
D03*
X195669D02*
D03*
D82*
X88894Y122606D02*
D03*
X150894Y237606D02*
D03*
D83*
X8394Y76106D02*
D03*
X8787Y231201D02*
D03*
X43307Y298819D02*
D03*
X176378Y42126D02*
D03*
X159449D02*
D03*
X102488Y132776D02*
D03*
X198721Y257980D02*
D03*
X181890Y321654D02*
D03*
X102756Y5906D02*
D03*
X110630Y50787D02*
D03*
X93827Y89862D02*
D03*
X217449Y257972D02*
D03*
X212894Y300106D02*
D03*
X8394Y287106D02*
D03*
X45894Y324106D02*
D03*
D84*
X8394Y66106D02*
D03*
D85*
X9843Y118898D02*
D03*
X42520Y216142D02*
D03*
X70866Y222835D02*
D03*
X122441Y92913D02*
D03*
D86*
X119685Y125591D02*
D03*
X124594Y141071D02*
D03*
X131287Y109181D02*
D03*
X103150Y153937D02*
D03*
X79921Y134646D02*
D03*
X91524Y137921D02*
D03*
X80106Y153276D02*
D03*
X108846Y98551D02*
D03*
X152547Y55244D02*
D03*
X143492Y46583D02*
D03*
X143886Y30835D02*
D03*
X59449Y257087D02*
D03*
X41972Y318685D02*
D03*
X226563Y226504D02*
D03*
X106878Y211150D02*
D03*
X165146Y263512D02*
D03*
X118295D02*
D03*
X33791Y147630D02*
D03*
X56626Y166921D02*
D03*
X98394Y291106D02*
D03*
X93894Y314106D02*
D03*
X44394Y207106D02*
D03*
X64894Y186606D02*
D03*
X74803Y297244D02*
D03*
X70866Y299606D02*
D03*
X79713Y207606D02*
D03*
X74894D02*
D03*
D87*
X67716Y214173D02*
D03*
X58661Y205512D02*
D03*
D88*
X3543Y298425D02*
D03*
M02*
