%FSLAX25Y25*%
%MOIN*%
G70*
G01*
G75*
G04 Layer_Color=8421504*
%ADD10R,0.04921X0.04921*%
%ADD11R,0.03150X0.03150*%
%ADD12R,0.31496X0.08661*%
%ADD13R,0.06299X0.08583*%
%ADD14R,0.02362X0.07874*%
%ADD15R,0.04921X0.04921*%
%ADD16R,0.02362X0.05906*%
%ADD17R,0.04921X0.04331*%
%ADD18R,0.03150X0.03150*%
%ADD19R,0.07874X0.03937*%
G04:AMPARAMS|DCode=20|XSize=78.74mil|YSize=39.37mil|CornerRadius=9.84mil|HoleSize=0mil|Usage=FLASHONLY|Rotation=0.000|XOffset=0mil|YOffset=0mil|HoleType=Round|Shape=RoundedRectangle|*
%AMROUNDEDRECTD20*
21,1,0.07874,0.01969,0,0,0.0*
21,1,0.05906,0.03937,0,0,0.0*
1,1,0.01969,0.02953,-0.00984*
1,1,0.01969,-0.02953,-0.00984*
1,1,0.01969,-0.02953,0.00984*
1,1,0.01969,0.02953,0.00984*
%
%ADD20ROUNDEDRECTD20*%
%ADD21R,0.07874X0.03543*%
%ADD22R,0.02756X0.07874*%
%ADD23R,0.03150X0.07874*%
%ADD24R,0.05276X0.07087*%
%ADD25R,0.03937X0.04921*%
%ADD26R,0.06102X0.02362*%
%ADD27O,0.06102X0.02362*%
%ADD28C,0.03937*%
%ADD29C,0.01575*%
%ADD30C,0.01000*%
%ADD31C,0.05906*%
%ADD32C,0.02362*%
%ADD33C,0.03150*%
%ADD34C,0.02756*%
%ADD35C,0.06000*%
%ADD36R,0.06000X0.06000*%
%ADD37R,0.07284X0.07284*%
%ADD38C,0.07284*%
%ADD39R,0.07284X0.07284*%
%ADD40C,0.07874*%
%ADD41C,0.06693*%
%ADD42R,0.06693X0.06693*%
%ADD43R,0.07874X0.07874*%
%ADD44C,0.05906*%
%ADD45R,0.05906X0.05906*%
%ADD46C,0.04724*%
%ADD47C,0.02756*%
%ADD48C,0.03937*%
%ADD49C,0.04331*%
%ADD50C,0.00984*%
%ADD51C,0.00787*%
%ADD52C,0.01008*%
%ADD53C,0.00591*%
D10*
X268929Y210106D02*
D03*
X277394D02*
D03*
X237858Y211606D02*
D03*
X229394D02*
D03*
X187929Y145106D02*
D03*
X196394D02*
D03*
X98358Y269106D02*
D03*
X89894D02*
D03*
X37429Y111606D02*
D03*
X45894D02*
D03*
X72358Y60106D02*
D03*
X63894D02*
D03*
X128358Y115606D02*
D03*
X119894D02*
D03*
X73929Y215606D02*
D03*
X82394D02*
D03*
X106358Y140606D02*
D03*
X97894D02*
D03*
X89429Y149106D02*
D03*
X97894D02*
D03*
X101894Y42606D02*
D03*
X93429D02*
D03*
X92965Y34606D02*
D03*
X101429D02*
D03*
X46429Y16106D02*
D03*
X54894D02*
D03*
X55358Y7606D02*
D03*
X46894D02*
D03*
D11*
X270394Y146106D02*
D03*
X276890D02*
D03*
X208394Y211606D02*
D03*
X214890D02*
D03*
X232894Y144606D02*
D03*
X226398D02*
D03*
X16394Y112106D02*
D03*
X9898D02*
D03*
D12*
X86394Y101547D02*
D03*
Y79106D02*
D03*
D13*
X9894Y146106D02*
D03*
Y182327D02*
D03*
Y209606D02*
D03*
Y245827D02*
D03*
D14*
X129713Y161248D02*
D03*
X124713D02*
D03*
X119713D02*
D03*
X114713D02*
D03*
X109713D02*
D03*
X104713D02*
D03*
X99713D02*
D03*
X94713D02*
D03*
X89713D02*
D03*
X84713D02*
D03*
X79713D02*
D03*
X74713D02*
D03*
X69713D02*
D03*
X64713D02*
D03*
Y198256D02*
D03*
X69713D02*
D03*
X74713D02*
D03*
X79713D02*
D03*
X84713D02*
D03*
X89713D02*
D03*
X94713D02*
D03*
X99713D02*
D03*
X104713D02*
D03*
X109713D02*
D03*
X114713D02*
D03*
X119713D02*
D03*
X124713D02*
D03*
X129713D02*
D03*
D15*
X41394Y170642D02*
D03*
Y179106D02*
D03*
X140894Y258142D02*
D03*
Y266606D02*
D03*
X150394Y258142D02*
D03*
Y266606D02*
D03*
X131394Y267571D02*
D03*
Y259106D02*
D03*
X26894Y147071D02*
D03*
Y138606D02*
D03*
X18394Y147071D02*
D03*
Y138606D02*
D03*
X30394Y207642D02*
D03*
Y216106D02*
D03*
X18894Y207642D02*
D03*
Y216106D02*
D03*
X174894Y62571D02*
D03*
Y54106D02*
D03*
X166894Y62571D02*
D03*
Y54106D02*
D03*
X16535Y335630D02*
D03*
Y327165D02*
D03*
X21894Y21142D02*
D03*
Y29606D02*
D03*
X93429Y52142D02*
D03*
Y60606D02*
D03*
X101929Y52642D02*
D03*
Y61106D02*
D03*
X92394Y16142D02*
D03*
Y24606D02*
D03*
X33894Y24642D02*
D03*
Y33106D02*
D03*
X253394Y282642D02*
D03*
Y291106D02*
D03*
D16*
X136394Y103106D02*
D03*
X131394D02*
D03*
X126394D02*
D03*
X121394D02*
D03*
X136394Y81650D02*
D03*
X131394D02*
D03*
X126394D02*
D03*
X121394D02*
D03*
D17*
X9642Y126606D02*
D03*
X18894D02*
D03*
D18*
X7894Y262106D02*
D03*
Y255610D02*
D03*
D19*
X237827Y247106D02*
D03*
D20*
X172827Y292106D02*
D03*
Y282106D02*
D03*
Y267106D02*
D03*
Y252106D02*
D03*
Y287106D02*
D03*
Y277106D02*
D03*
Y272106D02*
D03*
Y262106D02*
D03*
Y257106D02*
D03*
Y247106D02*
D03*
X237827Y267106D02*
D03*
Y272106D02*
D03*
Y262106D02*
D03*
Y257106D02*
D03*
Y252106D02*
D03*
Y307106D02*
D03*
Y302106D02*
D03*
Y297106D02*
D03*
Y359606D02*
D03*
X172827D02*
D03*
D21*
X30315Y299606D02*
D03*
Y351575D02*
D03*
Y346850D02*
D03*
Y342126D02*
D03*
Y337402D02*
D03*
Y332677D02*
D03*
Y327953D02*
D03*
Y323228D02*
D03*
Y318504D02*
D03*
Y313779D02*
D03*
Y309055D02*
D03*
Y304331D02*
D03*
X83071D02*
D03*
Y309055D02*
D03*
Y313779D02*
D03*
Y318504D02*
D03*
Y323228D02*
D03*
Y327953D02*
D03*
Y332677D02*
D03*
Y337402D02*
D03*
Y342126D02*
D03*
Y346850D02*
D03*
Y351575D02*
D03*
Y299606D02*
D03*
D22*
X72835Y288583D02*
D03*
X40551D02*
D03*
X44488D02*
D03*
X68898D02*
D03*
D23*
X49606D02*
D03*
X54331D02*
D03*
X59055D02*
D03*
X63779D02*
D03*
D24*
X53394Y60106D02*
D03*
X42134D02*
D03*
D25*
X51268Y78606D02*
D03*
X43394D02*
D03*
X51268Y87606D02*
D03*
X43394D02*
D03*
D26*
X46394Y41606D02*
D03*
D27*
Y36606D02*
D03*
Y31606D02*
D03*
Y26606D02*
D03*
X67654Y41606D02*
D03*
Y36606D02*
D03*
Y31606D02*
D03*
Y26606D02*
D03*
M02*
