%FSLAX25Y25*%
%MOIN*%
G70*
G01*
G75*
%ADD10R,0.04921X0.04921*%
%ADD11R,0.03150X0.03150*%
%ADD12R,0.31496X0.08661*%
%ADD13R,0.06299X0.08583*%
%ADD14R,0.02362X0.07874*%
%ADD15R,0.04921X0.04921*%
%ADD16R,0.02362X0.05906*%
%ADD17R,0.04921X0.04331*%
%ADD18R,0.03150X0.03150*%
%ADD19R,0.07874X0.03937*%
G04:AMPARAMS|DCode=20|XSize=78.74mil|YSize=39.37mil|CornerRadius=9.84mil|HoleSize=0mil|Usage=FLASHONLY|Rotation=0.000|XOffset=0mil|YOffset=0mil|HoleType=Round|Shape=RoundedRectangle|*
%AMROUNDEDRECTD20*
21,1,0.07874,0.01969,0,0,0.0*
21,1,0.05906,0.03937,0,0,0.0*
1,1,0.01969,0.02953,-0.00984*
1,1,0.01969,-0.02953,-0.00984*
1,1,0.01969,-0.02953,0.00984*
1,1,0.01969,0.02953,0.00984*
%
%ADD20ROUNDEDRECTD20*%
%ADD21R,0.07874X0.03543*%
%ADD22R,0.02756X0.07874*%
%ADD23R,0.03150X0.07874*%
%ADD24R,0.05276X0.07087*%
%ADD25R,0.03937X0.04921*%
%ADD26R,0.06102X0.02362*%
%ADD27O,0.06102X0.02362*%
%ADD28C,0.03937*%
%ADD29C,0.01575*%
%ADD30C,0.01000*%
%ADD31C,0.05906*%
%ADD32C,0.02362*%
%ADD33C,0.03150*%
%ADD34C,0.02756*%
%ADD35C,0.06000*%
%ADD36R,0.06000X0.06000*%
%ADD37R,0.07284X0.07284*%
%ADD38C,0.07284*%
%ADD39R,0.07284X0.07284*%
%ADD40C,0.07874*%
%ADD41C,0.06693*%
%ADD42R,0.06693X0.06693*%
%ADD43R,0.07874X0.07874*%
%ADD44C,0.05906*%
%ADD45R,0.05906X0.05906*%
%ADD46C,0.04724*%
%ADD47C,0.02756*%
%ADD48C,0.03937*%
%ADD49C,0.04331*%
%ADD50C,0.00984*%
%ADD51C,0.00787*%
%ADD52C,0.01008*%
%ADD53C,0.00591*%
D30*
X145480Y197862D02*
X145356Y198846D01*
X144991Y199768D01*
X144408Y200571D01*
X143644Y201203D01*
X142746Y201625D01*
X141772Y201811D01*
X140782Y201749D01*
X139839Y201442D01*
X139002Y200911D01*
X138323Y200188D01*
X137845Y199319D01*
X137598Y198358D01*
Y197366D01*
X137845Y196406D01*
X138323Y195537D01*
X139002Y194814D01*
X139839Y194282D01*
X140782Y193976D01*
X141772Y193913D01*
X142746Y194099D01*
X143644Y194521D01*
X144408Y195154D01*
X144991Y195956D01*
X145356Y196878D01*
X145480Y197862D01*
X131853Y185081D02*
X130847Y185022D01*
X129867Y184789D01*
X128943Y184387D01*
X128104Y183829D01*
X127376Y183133D01*
X126781Y182319D01*
X126338Y181415D01*
X126060Y180446D01*
X125957Y179444D01*
X126030Y178439D01*
X126279Y177463D01*
X126695Y176545D01*
X127265Y175715D01*
X127972Y174997D01*
X128794Y174415D01*
X129705Y173985D01*
X130677Y173722D01*
X131681Y173633D01*
X143529Y102713D02*
X143219Y103667D01*
X142407Y104256D01*
X141404D01*
X140592Y103667D01*
X140282Y102713D01*
X140592Y101759D01*
X141404Y101169D01*
X142407D01*
X143219Y101759D01*
X143529Y102713D01*
X54331Y231102D02*
Y242520D01*
X64961Y231102D02*
Y242520D01*
X41339Y231102D02*
Y242520D01*
X51968Y231102D02*
Y242520D01*
X269606Y148862D02*
X277480D01*
X269606Y143350D02*
X277480D01*
X279842Y145319D02*
Y146894D01*
X43307Y226378D02*
X63386D01*
X131839Y35705D02*
X163335D01*
X179476D02*
X210972D01*
X131445Y665D02*
X210972D01*
X131445D02*
Y35705D01*
X210972Y665D02*
Y35705D01*
X6744Y152012D02*
Y176421D01*
X13043Y168547D02*
Y176421D01*
Y152012D02*
Y168547D01*
X61799Y192744D02*
X131878D01*
X61799Y166760D02*
Y192744D01*
Y166760D02*
X131878D01*
Y192744D01*
X109776Y294201D02*
X120012D01*
X109776Y325697D02*
X120012D01*
X109776Y294201D02*
Y325697D01*
X120012Y294201D02*
Y325697D01*
X140276Y294201D02*
X150512D01*
X140276Y325697D02*
X150512D01*
X140276Y294201D02*
Y325697D01*
X150512Y294201D02*
Y325697D01*
X207606Y214362D02*
X215480D01*
X207606Y208850D02*
X215480D01*
X217843Y210819D02*
Y212394D01*
X225807Y141850D02*
X233681D01*
X225807Y147362D02*
X233681D01*
X223445Y143819D02*
Y145394D01*
X60941Y130480D02*
X96768D01*
X5902Y124244D02*
Y128969D01*
X9445Y130150D02*
X19681D01*
X9445Y123063D02*
X19681D01*
X9307Y109350D02*
X17181D01*
X9307Y114862D02*
X17181D01*
X6945Y111319D02*
Y112894D01*
X10650Y255020D02*
Y262894D01*
X5138Y255020D02*
Y262894D01*
X7106Y252658D02*
X8681D01*
X6744Y215512D02*
Y239921D01*
X13043Y232047D02*
Y239921D01*
Y215512D02*
Y232047D01*
X173221Y363248D02*
Y366398D01*
X237787Y363248D02*
Y366398D01*
X173221D02*
X237787D01*
Y275453D02*
Y293563D01*
X173221Y296319D02*
Y355374D01*
Y240020D02*
X237787D01*
Y311280D02*
Y354980D01*
Y240020D02*
Y243563D01*
X173221Y240020D02*
Y243563D01*
X27165Y284646D02*
Y285039D01*
Y284646D02*
X36614D01*
X76772Y285039D02*
X87008D01*
X27165D02*
Y295276D01*
X87008Y285039D02*
Y295669D01*
X27165Y355118D02*
Y366535D01*
X86614Y355118D02*
Y366535D01*
X46307Y56563D02*
X49457D01*
X46307Y63650D02*
X49457D01*
X39220Y54988D02*
X41976D01*
X38039Y56169D02*
X39220Y54988D01*
X37646Y56563D02*
X38039Y56169D01*
X37646Y56563D02*
Y63256D01*
Y64043D01*
X38827Y65224D01*
X41976D01*
X39457Y76638D02*
Y80575D01*
X46543Y76638D02*
X48118D01*
X46543Y80575D02*
X48118D01*
X39457Y85638D02*
Y89575D01*
X46543Y85638D02*
X48118D01*
X46543Y89575D02*
X48118D01*
X92626Y245480D02*
X159161D01*
X48818Y270079D02*
X44882D01*
Y268111D01*
X45538Y267455D01*
X46194D01*
X46850Y268111D01*
Y270079D01*
Y268111D01*
X47506Y267455D01*
X48162D01*
X48818Y268111D01*
Y270079D01*
Y266143D02*
Y263519D01*
Y264831D01*
X44882D01*
X44226Y262207D02*
Y259583D01*
X48818Y258272D02*
X44882D01*
Y255648D01*
X48818Y254336D02*
X44882D01*
Y252368D01*
X45538Y251712D01*
X48162D01*
X48818Y252368D01*
Y254336D01*
X61416Y272047D02*
X57480D01*
Y270079D01*
X58136Y269423D01*
X58792D01*
X59448Y270079D01*
Y272047D01*
Y270079D01*
X60104Y269423D01*
X60760D01*
X61416Y270079D01*
Y272047D01*
Y268111D02*
Y265488D01*
Y266800D01*
X57480D01*
X56824Y264176D02*
Y261552D01*
X57480Y260240D02*
X61416D01*
Y258272D01*
X60760Y257616D01*
X59448D01*
X58792Y258272D01*
Y260240D01*
Y258928D02*
X57480Y257616D01*
X60760Y253680D02*
X61416Y254336D01*
Y255648D01*
X60760Y256304D01*
X60104D01*
X59448Y255648D01*
Y254336D01*
X58792Y253680D01*
X58136D01*
X57480Y254336D01*
Y255648D01*
X58136Y256304D01*
X61416Y252368D02*
Y249745D01*
Y251057D01*
X57480D01*
X43944Y53454D02*
Y48456D01*
X44943Y47456D01*
X46943D01*
X47942Y48456D01*
Y53454D01*
X49942Y52455D02*
X50941Y53454D01*
X52941D01*
X53940Y52455D01*
Y51455D01*
X52941Y50455D01*
X51941D01*
X52941D01*
X53940Y49456D01*
Y48456D01*
X52941Y47456D01*
X50941D01*
X49942Y48456D01*
X153329Y99983D02*
Y102606D01*
X151362D01*
Y101294D01*
Y102606D01*
X149394D01*
Y98671D02*
Y97359D01*
Y98015D01*
X153329D01*
Y98671D01*
X152017Y94735D02*
Y93423D01*
X151362Y92767D01*
X149394D01*
Y94735D01*
X150050Y95391D01*
X150706Y94735D01*
Y92767D01*
X149394Y91455D02*
Y89487D01*
X150050Y88831D01*
X150706Y89487D01*
Y90799D01*
X151362Y91455D01*
X152017Y90799D01*
Y88831D01*
X153329Y87519D02*
X149394D01*
X151362D01*
X152017Y86863D01*
Y85551D01*
X151362Y84895D01*
X149394D01*
X147392Y170106D02*
X142393D01*
X141394Y169107D01*
Y167107D01*
X142393Y166108D01*
X147392D01*
X141394Y164108D02*
Y162109D01*
Y163109D01*
X147392D01*
X146392Y164108D01*
X16142Y49606D02*
X20077D01*
Y47638D01*
X19421Y46982D01*
X18110D01*
X17454Y47638D01*
Y49606D01*
X20077Y45671D02*
X16142D01*
X17454Y44359D01*
X16142Y43047D01*
X20077D01*
X16142Y41735D02*
X20077D01*
Y39767D01*
X19421Y39111D01*
X18110D01*
X17454Y39767D01*
Y41735D01*
Y40423D02*
X16142Y39111D01*
X120079Y57085D02*
Y53150D01*
X122703D01*
X124014D02*
X125326D01*
X124670D01*
Y55773D01*
X124014D01*
X128606Y51838D02*
X129262D01*
X129918Y52494D01*
Y55773D01*
X127950D01*
X127294Y55117D01*
Y53806D01*
X127950Y53150D01*
X129918D01*
X131230Y57085D02*
Y53150D01*
Y55117D01*
X131886Y55773D01*
X133198D01*
X133854Y55117D01*
Y53150D01*
X135822Y56429D02*
Y55773D01*
X135166D01*
X136478D01*
X135822D01*
Y53806D01*
X136478Y53150D01*
X18634Y182809D02*
X19290Y183465D01*
Y184777D01*
X18634Y185433D01*
X17978D01*
X17322Y184777D01*
Y183465D01*
X16666Y182809D01*
X16010D01*
X15354Y183465D01*
Y184777D01*
X16010Y185433D01*
X19290Y178874D02*
Y181497D01*
X15354D01*
Y178874D01*
X17322Y181497D02*
Y180185D01*
X18634Y174938D02*
X19290Y175594D01*
Y176906D01*
X18634Y177562D01*
X16010D01*
X15354Y176906D01*
Y175594D01*
X16010Y174938D01*
X16535Y250394D02*
X20471D01*
X19159Y249082D01*
X20471Y247770D01*
X16535D01*
Y246458D02*
X19159D01*
X20471Y245146D01*
X19159Y243834D01*
X16535D01*
X18503D01*
Y246458D01*
X20471Y242522D02*
Y241210D01*
Y241866D01*
X16535D01*
Y242522D01*
Y241210D01*
Y239242D02*
X20471D01*
X16535Y236619D01*
X20471D01*
X97894Y27106D02*
X103892D01*
Y24107D01*
X102892Y23108D01*
X100893D01*
X99893Y24107D01*
Y27106D01*
Y25107D02*
X97894Y23108D01*
Y21108D02*
Y19109D01*
Y20109D01*
X103892D01*
X102892Y21108D01*
X98893Y16110D02*
X97894Y15110D01*
Y13111D01*
X98893Y12111D01*
X102892D01*
X103892Y13111D01*
Y15110D01*
X102892Y16110D01*
X101892D01*
X100893Y15110D01*
Y12111D01*
X108929Y31606D02*
Y37604D01*
X111928D01*
X112928Y36605D01*
Y34605D01*
X111928Y33606D01*
X108929D01*
X110928D02*
X112928Y31606D01*
X114927D02*
X116927D01*
X115927D01*
Y37604D01*
X114927Y36605D01*
X119926D02*
X120925Y37604D01*
X122925D01*
X123924Y36605D01*
Y35605D01*
X122925Y34605D01*
X123924Y33606D01*
Y32606D01*
X122925Y31606D01*
X120925D01*
X119926Y32606D01*
Y33606D01*
X120925Y34605D01*
X119926Y35605D01*
Y36605D01*
X120925Y34605D02*
X122925D01*
X108929Y40106D02*
Y46104D01*
X111928D01*
X112928Y45105D01*
Y43105D01*
X111928Y42106D01*
X108929D01*
X110928D02*
X112928Y40106D01*
X114927D02*
X116927D01*
X115927D01*
Y46104D01*
X114927Y45105D01*
X119926Y46104D02*
X123924D01*
Y45105D01*
X119926Y41106D01*
Y40106D01*
X62394Y5106D02*
Y11104D01*
X65393D01*
X66392Y10105D01*
Y8105D01*
X65393Y7106D01*
X62394D01*
X64393D02*
X66392Y5106D01*
X68392D02*
X70391D01*
X69391D01*
Y11104D01*
X68392Y10105D01*
X77389Y11104D02*
X75389Y10105D01*
X73390Y8105D01*
Y6106D01*
X74390Y5106D01*
X76389D01*
X77389Y6106D01*
Y7106D01*
X76389Y8105D01*
X73390D01*
X31890Y52756D02*
X36613D01*
Y50394D01*
X35825Y49607D01*
X34251D01*
X33464Y50394D01*
Y52756D01*
Y51182D02*
X31890Y49607D01*
Y48033D02*
Y46459D01*
Y47246D01*
X36613D01*
X35825Y48033D01*
X36613Y40949D02*
Y44097D01*
X34251D01*
X35038Y42523D01*
Y41736D01*
X34251Y40949D01*
X32677D01*
X31890Y41736D01*
Y43310D01*
X32677Y44097D01*
X67894Y265606D02*
Y271604D01*
X70893D01*
X71892Y270605D01*
Y268605D01*
X70893Y267606D01*
X67894D01*
X69893D02*
X71892Y265606D01*
X73892D02*
X75891D01*
X74891D01*
Y271604D01*
X73892Y270605D01*
X81889Y265606D02*
Y271604D01*
X78890Y268605D01*
X82889D01*
X38976Y201181D02*
X44974D01*
Y198182D01*
X43975Y197182D01*
X41975D01*
X40976Y198182D01*
Y201181D01*
Y199182D02*
X38976Y197182D01*
Y195183D02*
Y193184D01*
Y194183D01*
X44974D01*
X43975Y195183D01*
Y190185D02*
X44974Y189185D01*
Y187186D01*
X43975Y186186D01*
X42975D01*
X41975Y187186D01*
Y188185D01*
Y187186D01*
X40976Y186186D01*
X39976D01*
X38976Y187186D01*
Y189185D01*
X39976Y190185D01*
X35894Y100106D02*
Y106104D01*
X38893D01*
X39892Y105105D01*
Y103105D01*
X38893Y102106D01*
X35894D01*
X37893D02*
X39892Y100106D01*
X41892D02*
X43891D01*
X42891D01*
Y106104D01*
X41892Y105105D01*
X50889Y100106D02*
X46890D01*
X50889Y104105D01*
Y105105D01*
X49889Y106104D01*
X47890D01*
X46890Y105105D01*
X227894Y216106D02*
Y222104D01*
X230893D01*
X231892Y221105D01*
Y219105D01*
X230893Y218106D01*
X227894D01*
X229893D02*
X231892Y216106D01*
X233892D02*
X235891D01*
X234891D01*
Y222104D01*
X233892Y221105D01*
X238890Y216106D02*
X240890D01*
X239890D01*
Y222104D01*
X238890Y221105D01*
X248425Y207087D02*
Y213085D01*
X251424D01*
X252424Y212085D01*
Y210086D01*
X251424Y209086D01*
X248425D01*
X250425D02*
X252424Y207087D01*
X254423D02*
X256423D01*
X255423D01*
Y213085D01*
X254423Y212085D01*
X259422D02*
X260421Y213085D01*
X262421D01*
X263420Y212085D01*
Y208086D01*
X262421Y207087D01*
X260421D01*
X259422Y208086D01*
Y212085D01*
X171394Y142606D02*
Y148604D01*
X174393D01*
X175392Y147605D01*
Y145605D01*
X174393Y144606D01*
X171394D01*
X173393D02*
X175392Y142606D01*
X177392Y143606D02*
X178391Y142606D01*
X180391D01*
X181391Y143606D01*
Y147605D01*
X180391Y148604D01*
X178391D01*
X177392Y147605D01*
Y146605D01*
X178391Y145605D01*
X181391D01*
X251494Y298506D02*
Y304504D01*
X254493D01*
X255492Y303505D01*
Y301505D01*
X254493Y300506D01*
X251494D01*
X253493D02*
X255492Y298506D01*
X257492Y303505D02*
X258491Y304504D01*
X260491D01*
X261491Y303505D01*
Y302505D01*
X260491Y301505D01*
X261491Y300506D01*
Y299506D01*
X260491Y298506D01*
X258491D01*
X257492Y299506D01*
Y300506D01*
X258491Y301505D01*
X257492Y302505D01*
Y303505D01*
X258491Y301505D02*
X260491D01*
X172047Y77953D02*
X178045D01*
Y74954D01*
X177046Y73954D01*
X175046D01*
X174047Y74954D01*
Y77953D01*
Y75953D02*
X172047Y73954D01*
X178045Y71955D02*
Y67956D01*
X177046D01*
X173047Y71955D01*
X172047D01*
X164173Y78740D02*
X170171D01*
Y75741D01*
X169172Y74741D01*
X167172D01*
X166173Y75741D01*
Y78740D01*
Y76741D02*
X164173Y74741D01*
X170171Y68743D02*
X169172Y70743D01*
X167172Y72742D01*
X165173D01*
X164173Y71742D01*
Y69743D01*
X165173Y68743D01*
X166173D01*
X167172Y69743D01*
Y72742D01*
X13315Y351240D02*
X19313D01*
Y348241D01*
X18313Y347241D01*
X16314D01*
X15314Y348241D01*
Y351240D01*
Y349241D02*
X13315Y347241D01*
X19313Y341243D02*
Y345242D01*
X16314D01*
X17314Y343243D01*
Y342243D01*
X16314Y341243D01*
X14315D01*
X13315Y342243D01*
Y344242D01*
X14315Y345242D01*
X24409Y161811D02*
X30408D01*
Y158812D01*
X29408Y157812D01*
X27408D01*
X26409Y158812D01*
Y161811D01*
Y159812D02*
X24409Y157812D01*
Y152814D02*
X30408D01*
X27408Y155813D01*
Y151814D01*
X147638Y283858D02*
X153636D01*
Y280859D01*
X152636Y279860D01*
X150637D01*
X149637Y280859D01*
Y283858D01*
Y281859D02*
X147638Y279860D01*
X152636Y277860D02*
X153636Y276860D01*
Y274861D01*
X152636Y273862D01*
X151637D01*
X150637Y274861D01*
Y275861D01*
Y274861D01*
X149637Y273862D01*
X148637D01*
X147638Y274861D01*
Y276860D01*
X148637Y277860D01*
X138189Y283858D02*
X144187D01*
Y280859D01*
X143187Y279860D01*
X141188D01*
X140188Y280859D01*
Y283858D01*
Y281859D02*
X138189Y279860D01*
Y273862D02*
Y277860D01*
X142188Y273862D01*
X143187D01*
X144187Y274861D01*
Y276860D01*
X143187Y277860D01*
X27953Y203150D02*
X33951D01*
Y200151D01*
X32951Y199151D01*
X30952D01*
X29952Y200151D01*
Y203150D01*
Y201150D02*
X27953Y199151D01*
Y197152D02*
Y195152D01*
Y196152D01*
X33951D01*
X32951Y197152D01*
X50394Y123606D02*
Y129604D01*
X52393Y127605D01*
X54392Y129604D01*
Y123606D01*
X56392D02*
X58391D01*
X57391D01*
Y129604D01*
X56392Y128605D01*
X57894Y112104D02*
Y106106D01*
X61892D01*
X63892D02*
X65891D01*
X64891D01*
Y112104D01*
X63892Y111105D01*
X157085Y317717D02*
X153150D01*
Y315749D01*
X153806Y315093D01*
X156429D01*
X157085Y315749D01*
Y317717D01*
Y311157D02*
Y313781D01*
X153150D01*
Y311157D01*
X155117Y313781D02*
Y312469D01*
X157085Y309845D02*
X153150D01*
Y307877D01*
X153806Y307221D01*
X154462D01*
X155117Y307877D01*
Y309845D01*
Y307877D01*
X155773Y307221D01*
X156429D01*
X157085Y307877D01*
Y309845D01*
Y305909D02*
X153806D01*
X153150Y305253D01*
Y303941D01*
X153806Y303286D01*
X157085D01*
X156429Y299350D02*
X157085Y300006D01*
Y301318D01*
X156429Y301974D01*
X153806D01*
X153150Y301318D01*
Y300006D01*
X153806Y299350D01*
X155117D01*
Y300662D01*
X153150Y295414D02*
Y298038D01*
X155773Y295414D01*
X156429D01*
X157085Y296070D01*
Y297382D01*
X156429Y298038D01*
X164303Y357219D02*
X164959Y357875D01*
Y359187D01*
X164303Y359842D01*
X161680D01*
X161024Y359187D01*
Y357875D01*
X161680Y357219D01*
X162991D01*
Y358531D01*
X161024Y355907D02*
X164959D01*
Y353939D01*
X164303Y353283D01*
X162991D01*
X162336Y353939D01*
Y355907D01*
X164303Y349347D02*
X164959Y350003D01*
Y351315D01*
X164303Y351971D01*
X163647D01*
X162991Y351315D01*
Y350003D01*
X162336Y349347D01*
X161680D01*
X161024Y350003D01*
Y351315D01*
X161680Y351971D01*
X182677Y39370D02*
Y43306D01*
X183989Y41994D01*
X185301Y43306D01*
Y39370D01*
X187269Y41994D02*
X188581D01*
X189237Y41338D01*
Y39370D01*
X187269D01*
X186613Y40026D01*
X187269Y40682D01*
X189237D01*
X191860Y38058D02*
X192517D01*
X193173Y38714D01*
Y41994D01*
X191205D01*
X190549Y41338D01*
Y40026D01*
X191205Y39370D01*
X193173D01*
X194484D02*
Y41994D01*
X196452D01*
X197108Y41338D01*
Y39370D01*
X200388D02*
X199076D01*
X198420Y40026D01*
Y41338D01*
X199076Y41994D01*
X200388D01*
X201044Y41338D01*
Y40682D01*
X198420D01*
X203012Y42650D02*
Y41994D01*
X202356D01*
X203668D01*
X203012D01*
Y40026D01*
X203668Y39370D01*
X206292D02*
X207604D01*
X208260Y40026D01*
Y41338D01*
X207604Y41994D01*
X206292D01*
X205636Y41338D01*
Y40026D01*
X206292Y39370D01*
X209571D02*
Y41994D01*
X210227D01*
X210883Y41338D01*
Y39370D01*
Y41338D01*
X211539Y41994D01*
X212195Y41338D01*
Y39370D01*
X215475D02*
X214163D01*
X213507Y40026D01*
Y41338D01*
X214163Y41994D01*
X215475D01*
X216131Y41338D01*
Y40682D01*
X213507D01*
X218099Y42650D02*
Y41994D01*
X217443D01*
X218755D01*
X218099D01*
Y40026D01*
X218755Y39370D01*
X222691D02*
X221379D01*
X220723Y40026D01*
Y41338D01*
X221379Y41994D01*
X222691D01*
X223346Y41338D01*
Y40682D01*
X220723D01*
X224658Y41994D02*
Y39370D01*
Y40682D01*
X225314Y41338D01*
X225970Y41994D01*
X226626D01*
X127164Y315354D02*
X123228D01*
Y313387D01*
X123884Y312731D01*
X126508D01*
X127164Y313387D01*
Y315354D01*
Y308795D02*
Y311419D01*
X123228D01*
Y308795D01*
X125196Y311419D02*
Y310107D01*
X127164Y307483D02*
X123228D01*
Y305515D01*
X123884Y304859D01*
X124540D01*
X125196Y305515D01*
Y307483D01*
Y305515D01*
X125852Y304859D01*
X126508D01*
X127164Y305515D01*
Y307483D01*
Y303547D02*
X123884D01*
X123228Y302891D01*
Y301579D01*
X123884Y300923D01*
X127164D01*
X126508Y296988D02*
X127164Y297643D01*
Y298955D01*
X126508Y299611D01*
X123884D01*
X123228Y298955D01*
Y297643D01*
X123884Y296988D01*
X125196D01*
Y298300D01*
X123228Y295676D02*
Y294364D01*
Y295020D01*
X127164D01*
X126508Y295676D01*
X95668Y363386D02*
X91732D01*
Y361418D01*
X92388Y360762D01*
X93044D01*
X93700Y361418D01*
Y363386D01*
Y361418D01*
X94356Y360762D01*
X95012D01*
X95668Y361418D01*
Y363386D01*
X91732Y359450D02*
Y358138D01*
Y358794D01*
X95668D01*
Y359450D01*
X94356Y356170D02*
X92388D01*
X91732Y355514D01*
Y353547D01*
X94356D01*
X91732Y350267D02*
Y351579D01*
X92388Y352235D01*
X93700D01*
X94356Y351579D01*
Y350267D01*
X93700Y349611D01*
X93044D01*
Y352235D01*
X95012Y347643D02*
X94356D01*
Y348299D01*
Y346987D01*
Y347643D01*
X92388D01*
X91732Y346987D01*
Y344363D02*
Y343051D01*
X92388Y342395D01*
X93700D01*
X94356Y343051D01*
Y344363D01*
X93700Y345019D01*
X92388D01*
X91732Y344363D01*
Y340427D02*
Y339115D01*
X92388Y338459D01*
X93700D01*
X94356Y339115D01*
Y340427D01*
X93700Y341083D01*
X92388D01*
X91732Y340427D01*
X95012Y336492D02*
X94356D01*
Y337148D01*
Y335836D01*
Y336492D01*
X92388D01*
X91732Y335836D01*
X95668Y333868D02*
X91732D01*
X93700D01*
X94356Y333212D01*
Y331900D01*
X93700Y331244D01*
X91732D01*
X93094Y252942D02*
X94406D01*
X93750D01*
Y249006D01*
X93094D01*
X94406D01*
X98997Y252286D02*
X98341Y252942D01*
X97029D01*
X96373Y252286D01*
Y249662D01*
X97029Y249006D01*
X98341D01*
X98997Y249662D01*
X102933Y252286D02*
X102277Y252942D01*
X100965D01*
X100309Y252286D01*
Y251630D01*
X100965Y250974D01*
X102277D01*
X102933Y250318D01*
Y249662D01*
X102277Y249006D01*
X100965D01*
X100309Y249662D01*
X104245Y249006D02*
Y252942D01*
X106213D01*
X106869Y252286D01*
Y250974D01*
X106213Y250318D01*
X104245D01*
X25984Y65841D02*
Y59842D01*
X28983D01*
X29983Y60842D01*
Y64841D01*
X28983Y65841D01*
X25984D01*
X31982D02*
X35981D01*
Y64841D01*
X31982Y60842D01*
Y59842D01*
X12691Y277559D02*
X6693D01*
Y274560D01*
X7693Y273560D01*
X11691D01*
X12691Y274560D01*
Y277559D01*
Y267562D02*
X11691Y269562D01*
X9692Y271561D01*
X7693D01*
X6693Y270561D01*
Y268562D01*
X7693Y267562D01*
X8692D01*
X9692Y268562D01*
Y271561D01*
X24394Y130604D02*
Y124606D01*
X27393D01*
X28392Y125606D01*
Y129605D01*
X27393Y130604D01*
X24394D01*
X34391D02*
X30392D01*
Y127605D01*
X32391Y128605D01*
X33391D01*
X34391Y127605D01*
Y125606D01*
X33391Y124606D01*
X31391D01*
X30392Y125606D01*
X21394Y116104D02*
Y110106D01*
X24393D01*
X25392Y111106D01*
Y115105D01*
X24393Y116104D01*
X21394D01*
X30391Y110106D02*
Y116104D01*
X27392Y113105D01*
X31391D01*
X193894Y215604D02*
Y209606D01*
X196893D01*
X197892Y210606D01*
Y214605D01*
X196893Y215604D01*
X193894D01*
X199892Y214605D02*
X200891Y215604D01*
X202891D01*
X203890Y214605D01*
Y213605D01*
X202891Y212605D01*
X201891D01*
X202891D01*
X203890Y211606D01*
Y210606D01*
X202891Y209606D01*
X200891D01*
X199892Y210606D01*
X255394Y149104D02*
Y143106D01*
X258393D01*
X259392Y144106D01*
Y148105D01*
X258393Y149104D01*
X255394D01*
X265390Y143106D02*
X261392D01*
X265390Y147105D01*
Y148105D01*
X264391Y149104D01*
X262391D01*
X261392Y148105D01*
X210894Y147104D02*
Y141106D01*
X213893D01*
X214892Y142106D01*
Y146105D01*
X213893Y147104D01*
X210894D01*
X216892Y141106D02*
X218891D01*
X217891D01*
Y147104D01*
X216892Y146105D01*
X25892Y80605D02*
X24893Y81604D01*
X22893D01*
X21894Y80605D01*
Y76606D01*
X22893Y75606D01*
X24893D01*
X25892Y76606D01*
X27892Y75606D02*
X29891D01*
X28891D01*
Y81604D01*
X27892Y80605D01*
X35889Y75606D02*
Y81604D01*
X32890Y78605D01*
X36889D01*
X25892Y90105D02*
X24893Y91104D01*
X22893D01*
X21894Y90105D01*
Y86106D01*
X22893Y85106D01*
X24893D01*
X25892Y86106D01*
X27892Y85106D02*
X29891D01*
X28891D01*
Y91104D01*
X27892Y90105D01*
X32890D02*
X33890Y91104D01*
X35889D01*
X36889Y90105D01*
Y89105D01*
X35889Y88105D01*
X34890D01*
X35889D01*
X36889Y87106D01*
Y86106D01*
X35889Y85106D01*
X33890D01*
X32890Y86106D01*
X62892Y70105D02*
X61893Y71104D01*
X59893D01*
X58894Y70105D01*
Y66106D01*
X59893Y65106D01*
X61893D01*
X62892Y66106D01*
X64892Y65106D02*
X66891D01*
X65891D01*
Y71104D01*
X64892Y70105D01*
X73889Y65106D02*
X69890D01*
X73889Y69105D01*
Y70105D01*
X72889Y71104D01*
X70890D01*
X69890Y70105D01*
X86494Y58993D02*
X87494Y59993D01*
Y61992D01*
X86494Y62992D01*
X82496D01*
X81496Y61992D01*
Y59993D01*
X82496Y58993D01*
X81496Y56994D02*
Y54995D01*
Y55994D01*
X87494D01*
X86494Y56994D01*
X81496Y51996D02*
Y49996D01*
Y50996D01*
X87494D01*
X86494Y51996D01*
X112427Y62608D02*
X113427Y63607D01*
Y65607D01*
X112427Y66606D01*
X108429D01*
X107429Y65607D01*
Y63607D01*
X108429Y62608D01*
X107429Y60608D02*
Y58609D01*
Y59609D01*
X113427D01*
X112427Y60608D01*
Y55610D02*
X113427Y54610D01*
Y52611D01*
X112427Y51611D01*
X108429D01*
X107429Y52611D01*
Y54610D01*
X108429Y55610D01*
X112427D01*
X66392Y18605D02*
X65393Y19604D01*
X63393D01*
X62394Y18605D01*
Y14606D01*
X63393Y13606D01*
X65393D01*
X66392Y14606D01*
X68392D02*
X69391Y13606D01*
X71391D01*
X72391Y14606D01*
Y18605D01*
X71391Y19604D01*
X69391D01*
X68392Y18605D01*
Y17605D01*
X69391Y16605D01*
X72391D01*
X22571Y14305D02*
X23227Y14961D01*
Y16273D01*
X22571Y16929D01*
X19947D01*
X19291Y16273D01*
Y14961D01*
X19947Y14305D01*
X22571Y12993D02*
X23227Y12337D01*
Y11026D01*
X22571Y10370D01*
X21915D01*
X21259Y11026D01*
X20603Y10370D01*
X19947D01*
X19291Y11026D01*
Y12337D01*
X19947Y12993D01*
X20603D01*
X21259Y12337D01*
X21915Y12993D01*
X22571D01*
X21259Y12337D02*
Y11026D01*
X137857Y117991D02*
X136857Y118990D01*
X134858D01*
X133858Y117991D01*
Y113992D01*
X134858Y112992D01*
X136857D01*
X137857Y113992D01*
X139856Y118990D02*
X143855D01*
Y117991D01*
X139856Y113992D01*
Y112992D01*
X20353Y158600D02*
X21352Y159599D01*
Y161599D01*
X20353Y162598D01*
X16354D01*
X15354Y161599D01*
Y159599D01*
X16354Y158600D01*
X21352Y152602D02*
X20353Y154601D01*
X18353Y156600D01*
X16354D01*
X15354Y155601D01*
Y153601D01*
X16354Y152602D01*
X17354D01*
X18353Y153601D01*
Y156600D01*
X77392Y151605D02*
X76393Y152604D01*
X74393D01*
X73394Y151605D01*
Y147606D01*
X74393Y146606D01*
X76393D01*
X77392Y147606D01*
X83390Y152604D02*
X79392D01*
Y149605D01*
X81391Y150605D01*
X82391D01*
X83390Y149605D01*
Y147606D01*
X82391Y146606D01*
X80391D01*
X79392Y147606D01*
X133345Y279860D02*
X134344Y280859D01*
Y282859D01*
X133345Y283858D01*
X129346D01*
X128347Y282859D01*
Y280859D01*
X129346Y279860D01*
X128347Y274861D02*
X134344D01*
X131345Y277860D01*
Y273862D01*
X82892Y142605D02*
X81893Y143604D01*
X79893D01*
X78894Y142605D01*
Y138606D01*
X79893Y137606D01*
X81893D01*
X82892Y138606D01*
X84892Y142605D02*
X85891Y143604D01*
X87891D01*
X88890Y142605D01*
Y141605D01*
X87891Y140605D01*
X86891D01*
X87891D01*
X88890Y139606D01*
Y138606D01*
X87891Y137606D01*
X85891D01*
X84892Y138606D01*
X93392Y217605D02*
X92393Y218604D01*
X90393D01*
X89394Y217605D01*
Y213606D01*
X90393Y212606D01*
X92393D01*
X93392Y213606D01*
X99391Y212606D02*
X95392D01*
X99391Y216605D01*
Y217605D01*
X98391Y218604D01*
X96391D01*
X95392Y217605D01*
X21534Y197576D02*
X22534Y198576D01*
Y200575D01*
X21534Y201575D01*
X17535D01*
X16535Y200575D01*
Y198576D01*
X17535Y197576D01*
X16535Y195577D02*
Y193577D01*
Y194577D01*
X22534D01*
X21534Y195577D01*
X11116Y98032D02*
X5118D01*
Y95033D01*
X6118Y94033D01*
X7118D01*
X8117Y95033D01*
Y98032D01*
Y95033D01*
X9117Y94033D01*
X10116D01*
X11116Y95033D01*
Y98032D01*
Y92033D02*
Y88035D01*
Y90034D01*
X5118D01*
Y86035D02*
Y84036D01*
Y85036D01*
X11116D01*
X10116Y86035D01*
X217717Y22835D02*
Y27558D01*
X219291Y25983D01*
X220865Y27558D01*
Y22835D01*
X223227Y25983D02*
X224801D01*
X225588Y25196D01*
Y22835D01*
X223227D01*
X222439Y23622D01*
X223227Y24409D01*
X225588D01*
X230311Y27558D02*
Y22835D01*
X227949D01*
X227162Y23622D01*
Y25196D01*
X227949Y25983D01*
X230311D01*
X234247Y22835D02*
X232672D01*
X231885Y23622D01*
Y25196D01*
X232672Y25983D01*
X234247D01*
X235034Y25196D01*
Y24409D01*
X231885D01*
X241331Y22835D02*
X242905D01*
X242118D01*
Y25983D01*
X241331D01*
X245267Y22835D02*
Y25983D01*
X247628D01*
X248415Y25196D01*
Y22835D01*
X257861Y27558D02*
X254712D01*
Y25196D01*
X256287D01*
X254712D01*
Y22835D01*
X259435Y25983D02*
Y22835D01*
Y24409D01*
X260223Y25196D01*
X261010Y25983D01*
X261797D01*
X264945D02*
X266520D01*
X267307Y25196D01*
Y22835D01*
X264945D01*
X264158Y23622D01*
X264945Y24409D01*
X267307D01*
X268881Y22835D02*
Y25983D01*
X271242D01*
X272030Y25196D01*
Y22835D01*
X276752Y25983D02*
X274391D01*
X273604Y25196D01*
Y23622D01*
X274391Y22835D01*
X276752D01*
X280688D02*
X279114D01*
X278327Y23622D01*
Y25196D01*
X279114Y25983D01*
X280688D01*
X281475Y25196D01*
Y24409D01*
X278327D01*
X181892Y130106D02*
X177893D01*
X175894Y128107D01*
X177893Y126108D01*
X181892D01*
X175894Y124108D02*
X176893D01*
Y123109D01*
X175894D01*
Y124108D01*
X181892Y116111D02*
Y118110D01*
X180892Y119110D01*
X176893D01*
X175894Y118110D01*
Y116111D01*
X176893Y115111D01*
X180892D01*
X181892Y116111D01*
X175894Y113112D02*
X179892D01*
Y112112D01*
X178893Y111112D01*
X175894D01*
X178893D01*
X179892Y110113D01*
X178893Y109113D01*
X175894D01*
Y107114D02*
X179892D01*
Y104115D01*
X178893Y103115D01*
X175894D01*
Y98117D02*
Y100116D01*
X176893Y101116D01*
X178893D01*
X179892Y100116D01*
Y98117D01*
X178893Y97117D01*
X177893D01*
Y101116D01*
X175894Y95118D02*
Y92119D01*
X176893Y91119D01*
X177893Y92119D01*
Y94118D01*
X178893Y95118D01*
X179892Y94118D01*
Y91119D01*
X192892Y126108D02*
Y130106D01*
X189893D01*
Y128107D01*
Y130106D01*
X186894D01*
Y124108D02*
X187893D01*
Y123109D01*
X186894D01*
Y124108D01*
X192892Y119110D02*
X186894D01*
X189893D01*
Y115111D01*
X192892D01*
X186894D01*
Y110113D02*
Y112112D01*
X187893Y113112D01*
X189893D01*
X190892Y112112D01*
Y110113D01*
X189893Y109113D01*
X188893D01*
Y113112D01*
X190892Y107114D02*
X186894D01*
X188893D01*
X189893Y106114D01*
X190892Y105114D01*
Y104115D01*
X192892Y101116D02*
X186894D01*
Y98117D01*
X187893Y97117D01*
X188893D01*
X189893D01*
X190892Y98117D01*
Y101116D01*
X186894Y95118D02*
Y93118D01*
Y94118D01*
X190892D01*
Y95118D01*
X186894Y90119D02*
X190892D01*
Y87120D01*
X189893Y86120D01*
X186894D01*
Y81122D02*
Y83122D01*
X187893Y84121D01*
X189893D01*
X190892Y83122D01*
Y81122D01*
X189893Y80123D01*
X188893D01*
Y84121D01*
X191892Y77123D02*
X190892D01*
Y78123D01*
Y76124D01*
Y77123D01*
X187893D01*
X186894Y76124D01*
X217394Y130106D02*
X221329D01*
Y128138D01*
X220673Y127482D01*
X219362D01*
X218706Y128138D01*
Y130106D01*
Y128794D02*
X217394Y127482D01*
Y124203D02*
Y125515D01*
X218050Y126171D01*
X219362D01*
X220018Y125515D01*
Y124203D01*
X219362Y123547D01*
X218706D01*
Y126171D01*
X220018Y122235D02*
X217394Y120923D01*
X220018Y119611D01*
X217394Y118299D02*
X218050D01*
Y117643D01*
X217394D01*
Y118299D01*
Y112396D02*
Y115019D01*
X220018Y112396D01*
X220673D01*
X221329Y113051D01*
Y114363D01*
X220673Y115019D01*
X219362Y107148D02*
Y104524D01*
X220673Y96653D02*
X221329Y97308D01*
Y98620D01*
X220673Y99276D01*
X220018D01*
X219362Y98620D01*
Y97308D01*
X218706Y96653D01*
X218050D01*
X217394Y97308D01*
Y98620D01*
X218050Y99276D01*
X217394Y93373D02*
Y94685D01*
X218050Y95341D01*
X219362D01*
X220018Y94685D01*
Y93373D01*
X219362Y92717D01*
X218706D01*
Y95341D01*
X216082Y91405D02*
X220018D01*
Y89437D01*
X219362Y88781D01*
X218050D01*
X217394Y89437D01*
Y91405D01*
Y87469D02*
X218050D01*
Y86813D01*
X217394D01*
Y87469D01*
Y77630D02*
Y80254D01*
X220018Y77630D01*
X220673D01*
X221329Y78286D01*
Y79598D01*
X220673Y80254D01*
Y76318D02*
X221329Y75662D01*
Y74350D01*
X220673Y73694D01*
X218050D01*
X217394Y74350D01*
Y75662D01*
X218050Y76318D01*
X220673D01*
X217394Y72382D02*
Y71070D01*
Y71726D01*
X221329D01*
X220673Y72382D01*
Y69102D02*
X221329Y68446D01*
Y67134D01*
X220673Y66479D01*
X220018D01*
X219362Y67134D01*
X218706Y66479D01*
X218050D01*
X217394Y67134D01*
Y68446D01*
X218050Y69102D01*
X218706D01*
X219362Y68446D01*
X220018Y69102D01*
X220673D01*
X219362Y68446D02*
Y67134D01*
X233453Y127359D02*
X234765Y128671D01*
Y131294D01*
X233453Y132606D01*
X228206D01*
X226894Y131294D01*
Y128671D01*
X228206Y127359D01*
X226894Y123423D02*
Y120799D01*
X228206Y119487D01*
X230829D01*
X232141Y120799D01*
Y123423D01*
X230829Y124735D01*
X228206D01*
X226894Y123423D01*
Y116863D02*
X232141D01*
Y115551D01*
X230829Y114240D01*
X226894D01*
X230829D01*
X232141Y112928D01*
X230829Y111616D01*
X226894D01*
X224270Y108992D02*
X232141D01*
Y105056D01*
X230829Y103744D01*
X228206D01*
X226894Y105056D01*
Y108992D01*
X232141Y99809D02*
Y97185D01*
X230829Y95873D01*
X226894D01*
Y99809D01*
X228206Y101120D01*
X229518Y99809D01*
Y95873D01*
X226894Y93249D02*
Y89313D01*
X228206Y88001D01*
X229518Y89313D01*
Y91937D01*
X230829Y93249D01*
X232141Y91937D01*
Y88001D01*
X226894Y85377D02*
Y81442D01*
X228206Y80130D01*
X229518Y81442D01*
Y84066D01*
X230829Y85377D01*
X232141Y84066D01*
Y80130D01*
X234765Y77506D02*
Y74882D01*
Y76194D01*
X226894D01*
Y77506D01*
Y74882D01*
X234765Y67011D02*
Y69634D01*
X233453Y70946D01*
X228206D01*
X226894Y69634D01*
Y67011D01*
X228206Y65699D01*
X233453D01*
X234765Y67011D01*
D50*
X8882Y51350D02*
X8144Y51777D01*
Y50924D01*
X8882Y51350D01*
X155130Y65610D02*
X154392Y66036D01*
Y65184D01*
X155130Y65610D01*
D51*
X138894Y93628D02*
X138010Y93262D01*
X137644Y92378D01*
X138010Y91494D01*
X138894Y91128D01*
X55774Y44106D02*
X56140Y43222D01*
X57024Y42856D01*
X57907Y43222D01*
X58274Y44106D01*
X13394Y15756D02*
Y49457D01*
X3394Y15756D02*
X13394D01*
X3394D02*
Y49457D01*
X13394D01*
X119043Y60606D02*
X152744D01*
X119043D02*
Y70606D01*
X152744D01*
Y60606D02*
Y70606D01*
X138894Y93628D02*
Y98382D01*
Y86571D02*
Y91128D01*
X118894Y86571D02*
X138894D01*
X118894D02*
Y98382D01*
X138894D01*
X3394Y61106D02*
Y81106D01*
Y61106D02*
X13394D01*
Y81106D01*
X3394D02*
X13394D01*
X52732Y44106D02*
X55774D01*
X58274D02*
X61315D01*
Y24106D02*
Y44106D01*
X52732Y24106D02*
X61315D01*
X52732D02*
Y44106D01*
D52*
X272669Y208138D02*
X273850D01*
X272669Y212075D02*
X273850D01*
X281331Y209319D02*
Y210894D01*
X232937Y213575D02*
X234118D01*
X232937Y209638D02*
X234118D01*
X225457Y210819D02*
Y212394D01*
X191669Y143138D02*
X192850D01*
X191669Y147075D02*
X192850D01*
X200331Y144319D02*
Y145894D01*
X93437Y271075D02*
X94618D01*
X93437Y267138D02*
X94618D01*
X85957Y268319D02*
Y269894D01*
X43362Y174382D02*
Y175563D01*
X39425Y174382D02*
Y175563D01*
X40606Y183043D02*
X42181D01*
X41169Y109638D02*
X42350D01*
X41169Y113575D02*
X42350D01*
X49831Y110819D02*
Y112394D01*
X67437Y62075D02*
X68618D01*
X67437Y58138D02*
X68618D01*
X59957Y59319D02*
Y60894D01*
X123437Y117575D02*
X124618D01*
X123437Y113638D02*
X124618D01*
X115957Y114819D02*
Y116394D01*
X77669Y213638D02*
X78850D01*
X77669Y217575D02*
X78850D01*
X86331Y214819D02*
Y216394D01*
X101437Y142575D02*
X102618D01*
X101437Y138638D02*
X102618D01*
X93957Y139819D02*
Y141394D01*
X93169Y147138D02*
X94350D01*
X93169Y151075D02*
X94350D01*
X101831Y148319D02*
Y149894D01*
X142862Y261882D02*
Y263063D01*
X138925Y261882D02*
Y263063D01*
X140106Y270543D02*
X141681D01*
X152362Y261882D02*
Y263063D01*
X148425Y261882D02*
Y263063D01*
X149606Y270543D02*
X151181D01*
X129425Y262650D02*
Y263831D01*
X133362Y262650D02*
Y263831D01*
X130606Y255169D02*
X132181D01*
X24925Y142150D02*
Y143331D01*
X28862Y142150D02*
Y143331D01*
X26106Y134669D02*
X27681D01*
X16425Y142150D02*
Y143331D01*
X20362Y142150D02*
Y143331D01*
X17606Y134669D02*
X19181D01*
X32362Y211382D02*
Y212563D01*
X28425Y211382D02*
Y212563D01*
X29606Y220043D02*
X31181D01*
X20862Y211382D02*
Y212563D01*
X16925Y211382D02*
Y212563D01*
X18106Y220043D02*
X19681D01*
X172925Y57650D02*
Y58831D01*
X176862Y57650D02*
Y58831D01*
X174106Y50169D02*
X175681D01*
X164925Y57650D02*
Y58831D01*
X168862Y57650D02*
Y58831D01*
X166106Y50169D02*
X167681D01*
X14567Y330709D02*
Y331890D01*
X18504Y330709D02*
Y331890D01*
X15748Y323228D02*
X17323D01*
X23862Y24882D02*
Y26063D01*
X19925Y24882D02*
Y26063D01*
X21106Y33543D02*
X22681D01*
X95398Y55882D02*
Y57063D01*
X91461Y55882D02*
Y57063D01*
X92642Y64543D02*
X94217D01*
X103898Y56382D02*
Y57563D01*
X99961Y56382D02*
Y57563D01*
X101142Y65043D02*
X102717D01*
X96972Y44575D02*
X98154D01*
X96972Y40638D02*
X98154D01*
X89492Y41819D02*
Y43394D01*
X96705Y32638D02*
X97886D01*
X96705Y36575D02*
X97886D01*
X105366Y33819D02*
Y35394D01*
X94362Y19882D02*
Y21063D01*
X90425Y19882D02*
Y21063D01*
X91606Y28543D02*
X93181D01*
X50169Y14138D02*
X51350D01*
X50169Y18075D02*
X51350D01*
X58831Y15319D02*
Y16894D01*
X50437Y9575D02*
X51618D01*
X50437Y5638D02*
X51618D01*
X42957Y6819D02*
Y8394D01*
X35862Y28382D02*
Y29563D01*
X31925Y28382D02*
Y29563D01*
X33106Y37043D02*
X34681D01*
X255362Y286382D02*
Y287563D01*
X251425Y286382D02*
Y287563D01*
X252606Y295043D02*
X254181D01*
D53*
X8402Y56657D02*
Y59675D01*
X6894Y58166D02*
X9911D01*
M02*
