M48
;Layer_Color=9474304
;FILE_FORMAT=2:5
INCH,LZ
;TYPE=PLATED
T1F00S00C0.01181
T2F00S00C0.01968
T3F00S00C0.02756
T4F00S00C0.03000
T5F00S00C0.03150
T6F00S00C0.03543
T7F00S00C0.03937
T8F00S00C0.04331
T9F00S00C0.11811
%
T01
X0143886Y0030835
X0143492Y0046583
X0152547Y0055244
X0131287Y0109181
X0119685Y0125591
X0124594Y0141071
X010315Y0153937
X0080106Y0153276
X0079921Y0134646
X0091524Y0137921
X0108846Y0098551
X0106878Y021115
X0079713Y0207606
X0074894
X0064894Y0186606
X0056626Y0166921
X0033791Y014763
X0044394Y0207106
X0041972Y0318685
X0070866Y0299606
X0074803Y0297244
X0098394Y0291106
X0093894Y0314106
X0118295Y0263512
X0165146
X0059449Y0257087
X0226563Y0226504
T02
X0058661Y0205512
X0003543Y0298425
X0067716Y0214173
T03
X0122441Y0092913
X0009843Y0118898
X004252Y0216142
X0070866Y0222835
T04
X0046457Y0231496
Y0241496
X0059449
Y0231496
T05
X0102756Y0005906
X011063Y0050787
X0159449Y0042126
X0176378
X0093827Y0089862
X0102488Y0132776
X0008787Y0231201
X0008394Y0287106
X0043307Y0298819
X0045894Y0324106
X018189Y0321654
X0198721Y025798
X0217449Y0257972
X0212894Y0300106
T06
X0008394Y0066106
Y0076106
T07
X0150894Y0013106
X0160894
X0170894
X0180894
X0190894
Y0023106
X0180894
X0170894
X0160894
X0150894
X0088894Y0122606
X0078894
X0068894
X0100894Y0237606
X0110894
X0120894
X0130894
X0140894
X0150894
X0145394Y0300106
Y0310106
Y0320106
X0114894
Y0310106
Y0300106
T08
X0008394Y0022606
Y0042606
X0125894Y0065606
X0145894
T09
X0009055Y0008268
X0280709Y0009843
X0268898Y0179134
X0161811
X0008268Y0357874
X0279134Y0357087
M30
