%FSLAX25Y25*%
%MOIN*%
G70*
G01*
G75*
G04 Layer_Physical_Order=1*
G04 Layer_Color=255*
%ADD10R,0.04921X0.04921*%
%ADD11R,0.03150X0.03150*%
%ADD12R,0.31496X0.08661*%
%ADD13R,0.06299X0.08583*%
%ADD14R,0.02362X0.07874*%
%ADD15R,0.04921X0.04921*%
%ADD16R,0.02362X0.05906*%
%ADD17R,0.04921X0.04331*%
%ADD18R,0.03150X0.03150*%
%ADD19R,0.07874X0.03937*%
G04:AMPARAMS|DCode=20|XSize=78.74mil|YSize=39.37mil|CornerRadius=9.84mil|HoleSize=0mil|Usage=FLASHONLY|Rotation=0.000|XOffset=0mil|YOffset=0mil|HoleType=Round|Shape=RoundedRectangle|*
%AMROUNDEDRECTD20*
21,1,0.07874,0.01969,0,0,0.0*
21,1,0.05906,0.03937,0,0,0.0*
1,1,0.01969,0.02953,-0.00984*
1,1,0.01969,-0.02953,-0.00984*
1,1,0.01969,-0.02953,0.00984*
1,1,0.01969,0.02953,0.00984*
%
%ADD20ROUNDEDRECTD20*%
%ADD21R,0.07874X0.03543*%
%ADD22R,0.02756X0.07874*%
%ADD23R,0.03150X0.07874*%
%ADD24R,0.05276X0.07087*%
%ADD25R,0.03937X0.04921*%
%ADD26R,0.06102X0.02362*%
%ADD27O,0.06102X0.02362*%
%ADD28C,0.03937*%
%ADD29C,0.01575*%
%ADD30C,0.01000*%
%ADD31C,0.05906*%
%ADD32C,0.02362*%
%ADD33C,0.03150*%
%ADD34C,0.02756*%
%ADD35C,0.06000*%
%ADD36R,0.06000X0.06000*%
%ADD37R,0.07284X0.07284*%
%ADD38C,0.07284*%
%ADD39R,0.07284X0.07284*%
%ADD40C,0.07874*%
%ADD41C,0.06693*%
%ADD42R,0.06693X0.06693*%
%ADD43R,0.07874X0.07874*%
%ADD44C,0.05906*%
%ADD45R,0.05906X0.05906*%
%ADD46C,0.04724*%
%ADD47C,0.02756*%
%ADD48C,0.03937*%
%ADD49C,0.04331*%
G36*
X290158Y366142D02*
Y787D01*
X290483Y462D01*
X290292Y0D01*
X1575D01*
X1248Y-327D01*
X786Y-136D01*
X548Y111012D01*
X1026Y111157D01*
X1179Y110929D01*
X5641Y106466D01*
X5641Y106466D01*
X5641D01*
X5641Y106466D01*
X5641D01*
X5641Y106466D01*
Y106466D01*
Y106466D01*
D01*
D01*
X5641D01*
Y106466D01*
X6423Y105944D01*
X7344Y105761D01*
X29707D01*
X43939Y91529D01*
X43894Y91419D01*
Y88106D01*
X46362D01*
Y88452D01*
X46824Y88644D01*
X48906Y86562D01*
Y84752D01*
X50064D01*
Y81461D01*
X48906D01*
Y75752D01*
X53630D01*
Y81461D01*
X52472D01*
Y84752D01*
X53630D01*
Y86562D01*
X66206Y99139D01*
X70252D01*
Y96823D01*
X84113D01*
X84169Y96543D01*
X84691Y95762D01*
X90468Y89985D01*
X90451Y89862D01*
X90566Y88989D01*
X90904Y88174D01*
X91440Y87476D01*
X92139Y86939D01*
X92953Y86602D01*
X93827Y86487D01*
X94700Y86602D01*
X95514Y86939D01*
X96214Y87476D01*
X96750Y88174D01*
X97087Y88989D01*
X97202Y89862D01*
X97087Y90736D01*
X96750Y91550D01*
X96214Y92249D01*
X95514Y92785D01*
X94700Y93123D01*
X94057Y93207D01*
X90904Y96361D01*
X91095Y96823D01*
X102535D01*
Y106272D01*
X85075D01*
X81302Y110045D01*
Y118996D01*
X81982Y119518D01*
X82677Y120422D01*
X83113Y121476D01*
X83262Y122606D01*
X83113Y123737D01*
X82677Y124790D01*
X81982Y125695D01*
X81078Y126389D01*
X80024Y126825D01*
X78894Y126974D01*
X77763Y126825D01*
X76710Y126389D01*
X75805Y125695D01*
X75111Y124790D01*
X74674Y123737D01*
X74526Y122606D01*
X74674Y121476D01*
X75111Y120422D01*
X75805Y119518D01*
X76485Y118996D01*
Y109047D01*
X76485Y109047D01*
X76485D01*
X76669Y108125D01*
X77191Y107344D01*
X77801Y106734D01*
X77610Y106272D01*
X70252D01*
Y103956D01*
X65209D01*
X64287Y103772D01*
X63974Y103563D01*
X63506Y103250D01*
X51518Y91262D01*
X51018D01*
X32408Y109872D01*
X31626Y110394D01*
X31576Y110405D01*
X31625Y110902D01*
X34575D01*
Y108752D01*
X40284D01*
Y114461D01*
X34575D01*
Y113311D01*
X18362D01*
Y114075D01*
X14425D01*
Y110578D01*
X12472D01*
Y111606D01*
X9898D01*
Y112106D01*
X9398D01*
Y114681D01*
X7323D01*
Y112250D01*
X6861Y112059D01*
X5290Y113629D01*
Y174317D01*
X8615Y177642D01*
X13437D01*
Y180520D01*
X35476D01*
X36168Y180658D01*
X36754Y181050D01*
X58844Y203140D01*
X59583Y203287D01*
X60365Y203809D01*
X60887Y204590D01*
X61070Y205512D01*
X60887Y206434D01*
X60365Y207215D01*
X59583Y207737D01*
X58661Y207920D01*
X57740Y207737D01*
X56958Y207215D01*
X56436Y206434D01*
X56289Y205694D01*
X34728Y184133D01*
X13437D01*
Y187012D01*
X6350D01*
Y182190D01*
X5752Y181591D01*
X5290Y181783D01*
Y228487D01*
X5764Y228648D01*
X5968Y228382D01*
X6794Y227748D01*
X7756Y227350D01*
X8287Y227280D01*
Y231201D01*
Y235122D01*
X7756Y235052D01*
X6794Y234653D01*
X5968Y234020D01*
X5764Y233753D01*
X5290Y233914D01*
Y236798D01*
X9634Y241142D01*
X13437D01*
Y250512D01*
X6350D01*
Y246021D01*
X6168Y245748D01*
X5985Y244827D01*
Y244425D01*
X5570Y244147D01*
X5290Y244263D01*
Y256735D01*
X5304Y256755D01*
X5428Y257378D01*
X5901Y257331D01*
D01*
D01*
X5901Y257331D01*
D01*
X5901D01*
X5925Y257329D01*
Y253642D01*
X9862D01*
Y254699D01*
X31902D01*
X43463Y243138D01*
X43150Y242382D01*
X43034Y241496D01*
X43150Y240610D01*
X43492Y239785D01*
X44036Y239076D01*
X44745Y238532D01*
X45571Y238190D01*
X46457Y238073D01*
X47343Y238190D01*
X48168Y238532D01*
X48877Y239076D01*
X49421Y239785D01*
X49763Y240610D01*
X49880Y241496D01*
X49763Y242382D01*
X49421Y243208D01*
X48877Y243917D01*
X48168Y244460D01*
X47343Y244802D01*
X46457Y244919D01*
X45571Y244802D01*
X44745Y244460D01*
X44730Y244449D01*
X32924Y256255D01*
X32628Y256452D01*
X32280Y256522D01*
X9862D01*
Y257579D01*
X5950D01*
Y257579D01*
X5925D01*
Y257579D01*
X5925D01*
D01*
D01*
X5496Y257664D01*
X5487Y257677D01*
Y260138D01*
X5925D01*
Y260138D01*
X9862D01*
Y260902D01*
X82894D01*
X82894Y260902D01*
X83355Y260994D01*
X83745Y261255D01*
X88742Y266252D01*
X92748D01*
Y271961D01*
X87039D01*
Y267955D01*
X82395Y263311D01*
X9862D01*
Y264075D01*
X5925D01*
Y264075D01*
X5841D01*
X5487Y264428D01*
Y283789D01*
X5936Y284010D01*
X6400Y283654D01*
X7362Y283255D01*
X7894Y283185D01*
Y287106D01*
X8394D01*
Y287606D01*
X12315D01*
X12245Y288138D01*
X11846Y289100D01*
X11213Y289925D01*
X10387Y290559D01*
X9426Y290957D01*
X8845Y291034D01*
X8684Y291507D01*
X19099Y301922D01*
X25378D01*
Y300106D01*
X35252D01*
Y302378D01*
X34646D01*
Y306496D01*
D01*
Y306496D01*
X34646Y306496D01*
Y306890D01*
X34646D01*
Y311220D01*
D01*
Y311220D01*
X34646Y311220D01*
Y311614D01*
X34646D01*
Y315945D01*
D01*
Y315945D01*
X34646Y315945D01*
Y316339D01*
X34646D01*
Y320669D01*
D01*
Y320669D01*
X34646Y320669D01*
Y321063D01*
X34646D01*
Y325394D01*
D01*
Y325394D01*
X34646Y325394D01*
Y325787D01*
X34646D01*
Y330118D01*
D01*
Y330118D01*
X34646Y330118D01*
Y330512D01*
X34646D01*
Y331372D01*
X37418D01*
X40034Y328756D01*
Y320472D01*
X40034Y320472D01*
X40034D01*
X40103Y320124D01*
X40301Y319828D01*
X40483Y319645D01*
X40304Y319376D01*
X40166Y318685D01*
X40304Y317994D01*
X40695Y317408D01*
X41281Y317016D01*
X41972Y316879D01*
X42664Y317016D01*
X43250Y317408D01*
X43641Y317994D01*
X43779Y318685D01*
X43641Y319376D01*
X43250Y319962D01*
X42664Y320354D01*
X42275Y320431D01*
X41856Y320850D01*
Y322243D01*
X42347Y322341D01*
X42441Y322113D01*
X43075Y321287D01*
X43900Y320654D01*
X44862Y320255D01*
X45394Y320185D01*
Y324106D01*
Y328027D01*
X44862Y327957D01*
X43900Y327559D01*
X43075Y326925D01*
X42441Y326100D01*
X42347Y325872D01*
X41856Y325969D01*
Y329134D01*
X41856Y329134D01*
X41856Y329134D01*
X41787Y329483D01*
X41720Y329582D01*
X41720Y329582D01*
X41589Y329778D01*
Y329778D01*
X41589Y329778D01*
X38440Y332928D01*
X38144Y333125D01*
X37795Y333195D01*
X34646D01*
Y334842D01*
D01*
Y334842D01*
X34646Y334842D01*
Y335236D01*
X34646D01*
Y339567D01*
D01*
Y339567D01*
X34646Y339567D01*
Y339961D01*
X34646D01*
Y344291D01*
D01*
Y344291D01*
X34646Y344291D01*
Y344685D01*
X34646D01*
Y348803D01*
X35252D01*
Y351075D01*
X25378D01*
Y348803D01*
X25984D01*
Y344685D01*
X25984Y344685D01*
X25984Y344291D01*
X25984D01*
Y340164D01*
X25984Y340164D01*
X25984D01*
X25984Y339961D01*
X25834Y339810D01*
X15160D01*
X14665Y339909D01*
X13744Y339725D01*
X12962Y339203D01*
X1376Y327616D01*
X854Y326835D01*
X670Y325913D01*
Y300542D01*
X255Y300264D01*
X142Y300311D01*
X1Y366181D01*
X354Y366535D01*
X28708D01*
Y355512D01*
X28833Y355210D01*
X29134Y355086D01*
X43307D01*
X43608Y355210D01*
X43733Y355512D01*
Y366535D01*
X69653D01*
Y355512D01*
X69777Y355210D01*
X70079Y355086D01*
X84252D01*
X84553Y355210D01*
X84678Y355512D01*
Y366535D01*
X289764D01*
X290158Y366142D01*
D02*
G37*
G36*
X25984Y334993D02*
Y334842D01*
X25984Y334640D01*
X25984Y334640D01*
X25984D01*
Y333588D01*
X22047D01*
X21699Y333519D01*
X21403Y333321D01*
X18101Y330020D01*
X13681D01*
Y324311D01*
X19390D01*
Y328731D01*
X22425Y331766D01*
X25984D01*
Y330512D01*
X25984Y330512D01*
X25984Y330118D01*
X25984D01*
Y325787D01*
X25984Y325787D01*
X25984Y325394D01*
X25984D01*
Y321063D01*
X25984Y321063D01*
X25984Y320669D01*
X25984D01*
Y316339D01*
X25984Y316339D01*
X25984Y315945D01*
X25984D01*
Y311614D01*
X25984Y311614D01*
X25984Y311220D01*
X25984D01*
Y307093D01*
X25984Y307093D01*
X25984D01*
X25984Y306890D01*
X25834Y306739D01*
X18102D01*
X17180Y306556D01*
X16399Y306034D01*
X6923Y296558D01*
X6507Y296836D01*
X6804Y297552D01*
X6919Y298425D01*
X6804Y299299D01*
X6466Y300113D01*
X5930Y300812D01*
X5487Y301152D01*
Y324916D01*
X13445Y332873D01*
X13681Y332776D01*
Y332776D01*
X13681Y332776D01*
X19390D01*
Y334993D01*
X25984D01*
Y334993D01*
D02*
G37*
%LPC*%
G36*
X88394Y122106D02*
X83957D01*
Y117669D01*
X88394D01*
Y122106D01*
D02*
G37*
G36*
X71287Y165579D02*
X68138D01*
Y156917D01*
X68508D01*
Y126924D01*
X67763Y126825D01*
X66710Y126389D01*
X65805Y125695D01*
X65111Y124790D01*
X64675Y123737D01*
X64526Y122606D01*
X64675Y121476D01*
X65111Y120422D01*
X65805Y119518D01*
X66710Y118823D01*
X67763Y118387D01*
X68894Y118238D01*
X70024Y118387D01*
X71078Y118823D01*
X71982Y119518D01*
X72677Y120422D01*
X73113Y121476D01*
X73262Y122606D01*
X73113Y123737D01*
X72677Y124790D01*
X71982Y125695D01*
X71078Y126389D01*
X70917Y126456D01*
Y156917D01*
X71287D01*
Y165579D01*
D02*
G37*
G36*
X9342Y122223D02*
X8965Y122173D01*
X8147Y121835D01*
X7445Y121296D01*
X6906Y120593D01*
X6567Y119775D01*
X6517Y119398D01*
X9342D01*
Y122223D01*
D02*
G37*
G36*
X123354Y119067D02*
X120394D01*
Y116106D01*
X123354D01*
Y119067D01*
D02*
G37*
G36*
X9342Y118398D02*
X6517D01*
X6567Y118020D01*
X6906Y117202D01*
X7445Y116500D01*
X8147Y115961D01*
X8965Y115622D01*
X9342Y115572D01*
Y118398D01*
D02*
G37*
G36*
X13168D02*
X10343D01*
Y115572D01*
X10720Y115622D01*
X11538Y115961D01*
X12241Y116500D01*
X12779Y117202D01*
X13118Y118020D01*
X13168Y118398D01*
D02*
G37*
G36*
X119394Y119067D02*
X116433D01*
Y116106D01*
X119394D01*
Y119067D01*
D02*
G37*
G36*
X10343Y122223D02*
Y119398D01*
X13168D01*
X13118Y119775D01*
X12779Y120593D01*
X12241Y121296D01*
X11538Y121835D01*
X10720Y122173D01*
X10343Y122223D01*
D02*
G37*
G36*
X9142Y126106D02*
X6181D01*
Y123441D01*
X9142D01*
Y126106D01*
D02*
G37*
G36*
X13102D02*
X10142D01*
Y123441D01*
X13102D01*
Y126106D01*
D02*
G37*
G36*
X119185Y127916D02*
X118757Y127831D01*
X117971Y127305D01*
X117445Y126518D01*
X117360Y126091D01*
X119185D01*
Y127916D01*
D02*
G37*
G36*
X122010Y125091D02*
X120185D01*
Y123266D01*
X120613Y123351D01*
X121399Y123876D01*
X121925Y124663D01*
X122010Y125091D01*
D02*
G37*
G36*
X120185Y127916D02*
Y126091D01*
X122010D01*
X121925Y126518D01*
X121399Y127305D01*
X120613Y127831D01*
X120185Y127916D01*
D02*
G37*
G36*
X88394Y127543D02*
X83957D01*
Y123106D01*
X88394D01*
Y127543D01*
D02*
G37*
G36*
X119185Y125091D02*
X117360D01*
X117445Y124663D01*
X117971Y123876D01*
X118757Y123351D01*
X119185Y123266D01*
Y125091D01*
D02*
G37*
G36*
X46362Y82067D02*
X43894D01*
Y79106D01*
X46362D01*
Y82067D01*
D02*
G37*
G36*
X42894Y87106D02*
X40425D01*
Y84146D01*
X42894D01*
Y87106D01*
D02*
G37*
G36*
X46362D02*
X43894D01*
Y84146D01*
X46362D01*
Y87106D01*
D02*
G37*
G36*
X42894Y82067D02*
X40425D01*
Y79106D01*
X42894D01*
Y82067D01*
D02*
G37*
G36*
X46362Y78106D02*
X43894D01*
Y75146D01*
X46362D01*
Y78106D01*
D02*
G37*
G36*
X7894Y80027D02*
X7362Y79957D01*
X6400Y79559D01*
X5575Y78925D01*
X4941Y78100D01*
X4543Y77138D01*
X4473Y76606D01*
X7894D01*
Y80027D01*
D02*
G37*
G36*
X8894D02*
Y76606D01*
X12315D01*
X12245Y77138D01*
X11846Y78100D01*
X11213Y78925D01*
X10387Y79559D01*
X9426Y79957D01*
X8894Y80027D01*
D02*
G37*
G36*
X42894Y91067D02*
X40425D01*
Y88106D01*
X42894D01*
Y91067D01*
D02*
G37*
G36*
X119394Y115106D02*
X116433D01*
Y112146D01*
X119394D01*
Y115106D01*
D02*
G37*
G36*
X123354D02*
X120394D01*
Y112146D01*
X123354D01*
Y115106D01*
D02*
G37*
G36*
X12472Y114681D02*
X10398D01*
Y112606D01*
X12472D01*
Y114681D01*
D02*
G37*
G36*
X123575Y107059D02*
X121894D01*
Y103606D01*
X123575D01*
Y107059D01*
D02*
G37*
G36*
X125766Y92413D02*
X122941D01*
Y89588D01*
X123319Y89638D01*
X124136Y89977D01*
X124839Y90515D01*
X125378Y91218D01*
X125717Y92036D01*
X125766Y92413D01*
D02*
G37*
G36*
X122941Y96239D02*
Y93413D01*
X125766D01*
X125717Y93791D01*
X125378Y94609D01*
X124839Y95311D01*
X124136Y95850D01*
X123319Y96189D01*
X122941Y96239D01*
D02*
G37*
G36*
X123575Y102606D02*
X121894D01*
Y99154D01*
X123575D01*
Y102606D01*
D02*
G37*
G36*
X9142Y129772D02*
X6181D01*
Y127106D01*
X9142D01*
Y129772D01*
D02*
G37*
G36*
X26394Y142067D02*
X23433D01*
Y139106D01*
X26394D01*
Y142067D01*
D02*
G37*
G36*
X30354D02*
X27394D01*
Y139106D01*
X30354D01*
Y142067D01*
D02*
G37*
G36*
X97394Y144067D02*
X94433D01*
Y141106D01*
X97394D01*
Y144067D01*
D02*
G37*
G36*
X21854Y142067D02*
X18894D01*
Y139106D01*
X21854D01*
Y142067D01*
D02*
G37*
G36*
X124094Y140571D02*
X122269D01*
X122354Y140143D01*
X122880Y139357D01*
X123667Y138831D01*
X124094Y138746D01*
Y140571D01*
D02*
G37*
G36*
X126920D02*
X125094D01*
Y138746D01*
X125522Y138831D01*
X126309Y139357D01*
X126834Y140143D01*
X126920Y140571D01*
D02*
G37*
G36*
X17894Y142067D02*
X14933D01*
Y139106D01*
X17894D01*
Y142067D01*
D02*
G37*
G36*
X101354Y144067D02*
X98394D01*
Y141106D01*
X101354D01*
Y144067D01*
D02*
G37*
G36*
Y148606D02*
X98394D01*
Y145646D01*
X101354D01*
Y148606D01*
D02*
G37*
G36*
X13437Y150791D02*
X6350D01*
Y141421D01*
X13437D01*
Y144902D01*
X15539D01*
Y144217D01*
X21248D01*
Y145867D01*
X24039D01*
Y144217D01*
X29748D01*
Y146426D01*
X32465D01*
X32514Y146353D01*
X33100Y145961D01*
X33791Y145824D01*
X34483Y145961D01*
X35069Y146353D01*
X35460Y146939D01*
X35598Y147630D01*
X35460Y148321D01*
X35069Y148907D01*
X34483Y149299D01*
X33791Y149436D01*
X33100Y149299D01*
X32514Y148907D01*
X32465Y148834D01*
X29748D01*
Y149925D01*
X24039D01*
Y148275D01*
X21248D01*
Y149925D01*
X15539D01*
Y147310D01*
X13437D01*
Y150791D01*
D02*
G37*
G36*
X91287Y165579D02*
X88138D01*
Y156917D01*
X88225D01*
Y151961D01*
X86575D01*
Y146252D01*
X92283D01*
Y151961D01*
X90633D01*
Y156917D01*
X91287D01*
Y165579D01*
D02*
G37*
G36*
X97394Y148606D02*
X94433D01*
Y145646D01*
X97394D01*
Y148606D01*
D02*
G37*
G36*
X124094Y143396D02*
X123667Y143311D01*
X122880Y142785D01*
X122354Y141999D01*
X122269Y141571D01*
X124094D01*
Y143396D01*
D02*
G37*
G36*
X125094D02*
Y141571D01*
X126920D01*
X126834Y141999D01*
X126309Y142785D01*
X125522Y143311D01*
X125094Y143396D01*
D02*
G37*
G36*
X199248Y147961D02*
X193539D01*
Y142252D01*
X199248D01*
Y143902D01*
X224429D01*
Y142638D01*
X228366D01*
Y146575D01*
X224429D01*
Y146310D01*
X199248D01*
Y147961D01*
D02*
G37*
G36*
X21854Y138106D02*
X18894D01*
Y135146D01*
X21854D01*
Y138106D01*
D02*
G37*
G36*
X26394D02*
X23433D01*
Y135146D01*
X26394D01*
Y138106D01*
D02*
G37*
G36*
X30354D02*
X27394D01*
Y135146D01*
X30354D01*
Y138106D01*
D02*
G37*
G36*
X17894D02*
X14933D01*
Y135146D01*
X17894D01*
Y138106D01*
D02*
G37*
G36*
X13102Y129772D02*
X10142D01*
Y127106D01*
X13102D01*
Y129772D01*
D02*
G37*
G36*
X79421Y134146D02*
X77596D01*
X77681Y133718D01*
X78207Y132931D01*
X78993Y132406D01*
X79421Y132321D01*
Y134146D01*
D02*
G37*
G36*
X82246D02*
X80421D01*
Y132321D01*
X80849Y132406D01*
X81636Y132931D01*
X82161Y133718D01*
X82246Y134146D01*
D02*
G37*
G36*
X79421Y136971D02*
X78993Y136886D01*
X78207Y136360D01*
X77681Y135573D01*
X77596Y135146D01*
X79421D01*
Y136971D01*
D02*
G37*
G36*
X101354Y140106D02*
X98394D01*
Y137146D01*
X101354D01*
Y140106D01*
D02*
G37*
G36*
X91024Y140246D02*
X90596Y140161D01*
X89809Y139636D01*
X89284Y138849D01*
X89198Y138421D01*
X91024D01*
Y140246D01*
D02*
G37*
G36*
X92024D02*
Y138421D01*
X93849D01*
X93764Y138849D01*
X93238Y139636D01*
X92451Y140161D01*
X92024Y140246D01*
D02*
G37*
G36*
X97394Y140106D02*
X94433D01*
Y138034D01*
X94361Y138027D01*
Y137816D01*
X94433Y137809D01*
Y137146D01*
X97394D01*
Y140106D01*
D02*
G37*
G36*
X80421Y136971D02*
Y135146D01*
X82246D01*
X82161Y135573D01*
X81636Y136360D01*
X80849Y136886D01*
X80421Y136971D01*
D02*
G37*
G36*
X91024Y137421D02*
X89198D01*
X89284Y136993D01*
X89809Y136207D01*
X90596Y135681D01*
X91024Y135596D01*
Y137421D01*
D02*
G37*
G36*
X93849D02*
X92024D01*
Y135596D01*
X92451Y135681D01*
X93238Y136207D01*
X93764Y136993D01*
X93849Y137421D01*
D02*
G37*
G36*
X42894Y78106D02*
X40425D01*
Y75146D01*
X42894D01*
Y78106D01*
D02*
G37*
G36*
X95854Y15642D02*
X92894D01*
Y12681D01*
X95854D01*
Y15642D01*
D02*
G37*
G36*
X48264Y28212D02*
X44524D01*
X43909Y28090D01*
X43388Y27742D01*
X43040Y27221D01*
X42918Y26606D01*
X43040Y25992D01*
X43388Y25471D01*
X43909Y25123D01*
X44524Y25001D01*
X45225D01*
Y18961D01*
X43575D01*
Y13252D01*
X49283D01*
Y18961D01*
X47633D01*
Y25001D01*
X48264D01*
X48878Y25123D01*
X49399Y25471D01*
X49747Y25992D01*
X49869Y26606D01*
X49747Y27221D01*
X49399Y27742D01*
X48878Y28090D01*
X48264Y28212D01*
D02*
G37*
G36*
X190394Y18020D02*
X189605Y17916D01*
X188404Y17419D01*
X187373Y16627D01*
X186581Y15596D01*
X186084Y14395D01*
X185980Y13606D01*
X190394D01*
Y18020D01*
D02*
G37*
G36*
X91894Y15642D02*
X88933D01*
Y12681D01*
X91894D01*
Y15642D01*
D02*
G37*
G36*
X180894Y17474D02*
X179763Y17325D01*
X178710Y16889D01*
X177805Y16195D01*
X177111Y15290D01*
X176674Y14237D01*
X176526Y13106D01*
X176674Y11976D01*
X177111Y10922D01*
X177805Y10018D01*
X178710Y9323D01*
X179763Y8887D01*
X180894Y8738D01*
X182024Y8887D01*
X183078Y9323D01*
X183982Y10018D01*
X184677Y10922D01*
X185113Y11976D01*
X185262Y13106D01*
X185113Y14237D01*
X184677Y15290D01*
X183982Y16195D01*
X183078Y16889D01*
X182024Y17325D01*
X180894Y17474D01*
D02*
G37*
G36*
X54394Y15606D02*
X51433D01*
Y12646D01*
X54394D01*
Y15606D01*
D02*
G37*
G36*
X58354D02*
X55394D01*
Y12646D01*
X58354D01*
Y15606D01*
D02*
G37*
G36*
X191394Y18020D02*
Y13606D01*
X195808D01*
X195704Y14395D01*
X195206Y15596D01*
X194415Y16627D01*
X193384Y17419D01*
X192183Y17916D01*
X191394Y18020D01*
D02*
G37*
G36*
X21394Y20642D02*
X18433D01*
Y17681D01*
X21394D01*
Y20642D01*
D02*
G37*
G36*
X25354D02*
X22394D01*
Y17681D01*
X25354D01*
Y20642D01*
D02*
G37*
G36*
X150894Y27474D02*
X149763Y27325D01*
X148710Y26889D01*
X147805Y26195D01*
X147111Y25290D01*
X146675Y24237D01*
X146526Y23106D01*
X146675Y21976D01*
X147111Y20922D01*
X147805Y20018D01*
X148710Y19323D01*
X149763Y18887D01*
X150894Y18738D01*
X152024Y18887D01*
X153078Y19323D01*
X153982Y20018D01*
X154677Y20922D01*
X155113Y21976D01*
X155262Y23106D01*
X155113Y24237D01*
X154677Y25290D01*
X153982Y26195D01*
X153078Y26889D01*
X152024Y27325D01*
X150894Y27474D01*
D02*
G37*
G36*
X95854Y19602D02*
X92894D01*
Y16642D01*
X95854D01*
Y19602D01*
D02*
G37*
G36*
X54394Y19567D02*
X51433D01*
Y16606D01*
X54394D01*
Y19567D01*
D02*
G37*
G36*
X58354D02*
X55394D01*
Y16606D01*
X58354D01*
Y19567D01*
D02*
G37*
G36*
X91894Y19602D02*
X88933D01*
Y16642D01*
X91894D01*
Y19602D01*
D02*
G37*
G36*
X54858Y7106D02*
X51898D01*
Y4146D01*
X54858D01*
Y7106D01*
D02*
G37*
G36*
X58819D02*
X55858D01*
Y4146D01*
X58819D01*
Y7106D01*
D02*
G37*
G36*
X102256Y9826D02*
X101724Y9757D01*
X100762Y9358D01*
X99937Y8725D01*
X99303Y7899D01*
X98905Y6937D01*
X98835Y6406D01*
X102256D01*
Y9826D01*
D02*
G37*
G36*
X280709Y16172D02*
X279474Y16051D01*
X278286Y15690D01*
X277192Y15105D01*
X276233Y14318D01*
X275446Y13359D01*
X274861Y12265D01*
X274501Y11077D01*
X274379Y9843D01*
X274501Y8608D01*
X274861Y7420D01*
X275446Y6326D01*
X276233Y5367D01*
X277192Y4580D01*
X278286Y3995D01*
X279474Y3634D01*
X280709Y3513D01*
X281943Y3634D01*
X283131Y3995D01*
X284225Y4580D01*
X285184Y5367D01*
X285972Y6326D01*
X286557Y7420D01*
X286917Y8608D01*
X287038Y9843D01*
X286917Y11077D01*
X286557Y12265D01*
X285972Y13359D01*
X285184Y14318D01*
X284225Y15105D01*
X283131Y15690D01*
X281943Y16051D01*
X280709Y16172D01*
D02*
G37*
G36*
X9055Y14597D02*
X7820Y14476D01*
X6633Y14116D01*
X5539Y13531D01*
X4579Y12743D01*
X3792Y11784D01*
X3207Y10690D01*
X2847Y9503D01*
X2725Y8268D01*
X2847Y7033D01*
X3207Y5845D01*
X3792Y4751D01*
X4579Y3792D01*
X5539Y3005D01*
X6633Y2420D01*
X7820Y2060D01*
X9055Y1938D01*
X10290Y2060D01*
X11477Y2420D01*
X12572Y3005D01*
X13531Y3792D01*
X14318Y4751D01*
X14903Y5845D01*
X15263Y7033D01*
X15385Y8268D01*
X15263Y9503D01*
X14903Y10690D01*
X14318Y11784D01*
X13531Y12743D01*
X12572Y13531D01*
X11477Y14116D01*
X10290Y14476D01*
X9055Y14597D01*
D02*
G37*
G36*
X102256Y5406D02*
X98835D01*
X98905Y4874D01*
X99303Y3912D01*
X99937Y3086D01*
X100762Y2453D01*
X101724Y2055D01*
X102256Y1984D01*
Y5406D01*
D02*
G37*
G36*
X106677D02*
X103256D01*
Y1984D01*
X103788Y2055D01*
X104749Y2453D01*
X105575Y3086D01*
X106209Y3912D01*
X106607Y4874D01*
X106677Y5406D01*
D02*
G37*
G36*
X103256Y9826D02*
Y6406D01*
X106677D01*
X106607Y6937D01*
X106209Y7899D01*
X105575Y8725D01*
X104749Y9358D01*
X103788Y9757D01*
X103256Y9826D01*
D02*
G37*
G36*
X150894Y17474D02*
X149763Y17325D01*
X148710Y16889D01*
X147805Y16195D01*
X147111Y15290D01*
X146675Y14237D01*
X146526Y13106D01*
X146675Y11976D01*
X147111Y10922D01*
X147805Y10018D01*
X148710Y9323D01*
X149763Y8887D01*
X150894Y8738D01*
X152024Y8887D01*
X153078Y9323D01*
X153982Y10018D01*
X154677Y10922D01*
X155113Y11976D01*
X155262Y13106D01*
X155113Y14237D01*
X154677Y15290D01*
X153982Y16195D01*
X153078Y16889D01*
X152024Y17325D01*
X150894Y17474D01*
D02*
G37*
G36*
X160894D02*
X159763Y17325D01*
X158710Y16889D01*
X157805Y16195D01*
X157111Y15290D01*
X156675Y14237D01*
X156526Y13106D01*
X156675Y11976D01*
X157111Y10922D01*
X157805Y10018D01*
X158710Y9323D01*
X159763Y8887D01*
X160894Y8738D01*
X162024Y8887D01*
X163078Y9323D01*
X163982Y10018D01*
X164677Y10922D01*
X165113Y11976D01*
X165262Y13106D01*
X165113Y14237D01*
X164677Y15290D01*
X163982Y16195D01*
X163078Y16889D01*
X162024Y17325D01*
X160894Y17474D01*
D02*
G37*
G36*
X170894D02*
X169763Y17325D01*
X168710Y16889D01*
X167805Y16195D01*
X167111Y15290D01*
X166674Y14237D01*
X166526Y13106D01*
X166674Y11976D01*
X167111Y10922D01*
X167805Y10018D01*
X168710Y9323D01*
X169763Y8887D01*
X170894Y8738D01*
X172024Y8887D01*
X173078Y9323D01*
X173982Y10018D01*
X174677Y10922D01*
X175113Y11976D01*
X175262Y13106D01*
X175113Y14237D01*
X174677Y15290D01*
X173982Y16195D01*
X173078Y16889D01*
X172024Y17325D01*
X170894Y17474D01*
D02*
G37*
G36*
X195808Y12606D02*
X191394D01*
Y8192D01*
X192183Y8296D01*
X193384Y8794D01*
X194415Y9585D01*
X195206Y10616D01*
X195704Y11817D01*
X195808Y12606D01*
D02*
G37*
G36*
X54858Y11067D02*
X51898D01*
Y8106D01*
X54858D01*
Y11067D01*
D02*
G37*
G36*
X58819D02*
X55858D01*
Y8106D01*
X58819D01*
Y11067D01*
D02*
G37*
G36*
X190394Y12606D02*
X185980D01*
X186084Y11817D01*
X186581Y10616D01*
X187373Y9585D01*
X188404Y8794D01*
X189605Y8296D01*
X190394Y8192D01*
Y12606D01*
D02*
G37*
G36*
X160894Y27474D02*
X159763Y27325D01*
X158710Y26889D01*
X157805Y26195D01*
X157111Y25290D01*
X156675Y24237D01*
X156526Y23106D01*
X156675Y21976D01*
X157111Y20922D01*
X157805Y20018D01*
X158710Y19323D01*
X159763Y18887D01*
X160894Y18738D01*
X162024Y18887D01*
X163078Y19323D01*
X163982Y20018D01*
X164677Y20922D01*
X165113Y21976D01*
X165262Y23106D01*
X165113Y24237D01*
X164677Y25290D01*
X163982Y26195D01*
X163078Y26889D01*
X162024Y27325D01*
X160894Y27474D01*
D02*
G37*
G36*
X101429Y60606D02*
X98469D01*
Y57646D01*
X101429D01*
Y60606D01*
D02*
G37*
G36*
X105390D02*
X102429D01*
Y57646D01*
X105390D01*
Y60606D01*
D02*
G37*
G36*
X41634Y64650D02*
X38496D01*
Y60606D01*
X41634D01*
Y64650D01*
D02*
G37*
G36*
X96890Y60106D02*
X93929D01*
Y57146D01*
X96890D01*
Y60106D01*
D02*
G37*
G36*
X41634Y59606D02*
X38496D01*
Y55563D01*
X41634D01*
Y59606D01*
D02*
G37*
G36*
X45772D02*
X42634D01*
Y55563D01*
X45772D01*
Y59606D01*
D02*
G37*
G36*
X92929Y60106D02*
X89969D01*
Y57146D01*
X92929D01*
Y60106D01*
D02*
G37*
G36*
X45772Y64650D02*
X42634D01*
Y60606D01*
X45772D01*
Y64650D01*
D02*
G37*
G36*
X105390Y64567D02*
X102429D01*
Y61606D01*
X105390D01*
Y64567D01*
D02*
G37*
G36*
X7894Y75606D02*
X4473D01*
X4543Y75074D01*
X4941Y74113D01*
X5575Y73287D01*
X6400Y72654D01*
X7362Y72255D01*
X7894Y72185D01*
Y75606D01*
D02*
G37*
G36*
X12315D02*
X8894D01*
Y72185D01*
X9426Y72255D01*
X10387Y72654D01*
X11213Y73287D01*
X11846Y74113D01*
X12245Y75074D01*
X12315Y75606D01*
D02*
G37*
G36*
X101429Y64567D02*
X98469D01*
Y61606D01*
X101429D01*
Y64567D01*
D02*
G37*
G36*
X125394Y65106D02*
X121278D01*
X121371Y64395D01*
X121839Y63265D01*
X122583Y62296D01*
X123553Y61552D01*
X124682Y61084D01*
X125394Y60990D01*
Y65106D01*
D02*
G37*
G36*
X92929Y64067D02*
X89969D01*
Y61106D01*
X92929D01*
Y64067D01*
D02*
G37*
G36*
X96890D02*
X93929D01*
Y61106D01*
X96890D01*
Y64067D01*
D02*
G37*
G36*
X96284Y54996D02*
X90575D01*
Y49287D01*
X92225D01*
Y45461D01*
X90575D01*
Y41455D01*
X81930Y32811D01*
X70556D01*
X70138Y33090D01*
X69524Y33212D01*
X65784D01*
X65169Y33090D01*
X64648Y32742D01*
X64300Y32221D01*
X64178Y31606D01*
X64300Y30992D01*
X64648Y30471D01*
X65169Y30123D01*
X65784Y30001D01*
X69524D01*
X70138Y30123D01*
X70556Y30402D01*
X82429D01*
X82429Y30402D01*
X82890Y30494D01*
X83281Y30755D01*
X89648Y37122D01*
X90110Y36931D01*
Y31752D01*
X91760D01*
Y27461D01*
X91241D01*
X90855Y27719D01*
X90394Y27811D01*
X90394Y27810D01*
X70556D01*
X70138Y28090D01*
X69524Y28212D01*
X65784D01*
X65169Y28090D01*
X64648Y27742D01*
X64300Y27221D01*
X64178Y26606D01*
X64300Y25992D01*
X64648Y25471D01*
X65169Y25123D01*
X65784Y25001D01*
X69524D01*
X70138Y25123D01*
X70556Y25402D01*
X89539D01*
Y21752D01*
X95248D01*
Y27461D01*
X94169D01*
Y31752D01*
X95819D01*
Y37461D01*
X90640D01*
X90448Y37923D01*
X92278Y39752D01*
X96284D01*
Y45461D01*
X94633D01*
Y49287D01*
X96284D01*
Y54996D01*
D02*
G37*
G36*
X46394Y38613D02*
X37394D01*
X36626Y38461D01*
X35974Y38026D01*
X33910Y35961D01*
X31039D01*
Y35113D01*
X25394D01*
X24626Y34961D01*
X23975Y34525D01*
X21910Y32461D01*
X19039D01*
Y31613D01*
X15394D01*
X14753Y31486D01*
X14626Y31461D01*
X13974Y31025D01*
X9475Y26526D01*
X9447Y26538D01*
X8394Y26676D01*
X7340Y26538D01*
X6359Y26131D01*
X5516Y25484D01*
X4869Y24641D01*
X4462Y23660D01*
X4323Y22606D01*
X4462Y21553D01*
X4869Y20571D01*
X5516Y19728D01*
X6359Y19081D01*
X7340Y18675D01*
X8394Y18536D01*
X9447Y18675D01*
X10429Y19081D01*
X11272Y19728D01*
X11919Y20571D01*
X12325Y21553D01*
X12464Y22606D01*
X12325Y23660D01*
X12314Y23688D01*
X16225Y27599D01*
X19039D01*
Y26752D01*
X24748D01*
Y29622D01*
X26225Y31099D01*
X31039D01*
Y30252D01*
X36748D01*
Y33122D01*
X38225Y34599D01*
X46394D01*
X47162Y34752D01*
X47534Y35001D01*
X48264D01*
X48878Y35123D01*
X49399Y35471D01*
X49747Y35992D01*
X49869Y36606D01*
X49747Y37221D01*
X49399Y37742D01*
X48878Y38090D01*
X48264Y38212D01*
X47534D01*
X47162Y38461D01*
X46394Y38613D01*
D02*
G37*
G36*
X104783Y55496D02*
X99075D01*
Y49787D01*
X100725D01*
Y45461D01*
X99039D01*
Y39752D01*
X103242D01*
X103433Y39290D01*
X101604Y37461D01*
X98575D01*
Y31752D01*
X104283D01*
Y33328D01*
X112333Y41378D01*
X112855Y42159D01*
X113038Y43081D01*
X113038Y43081D01*
X113038Y43081D01*
Y43081D01*
Y48429D01*
X113553Y49100D01*
X113890Y49914D01*
X114005Y50787D01*
X113890Y51661D01*
X113553Y52475D01*
X113017Y53174D01*
X112318Y53711D01*
X111504Y54048D01*
X110630Y54163D01*
X109756Y54048D01*
X108942Y53711D01*
X108243Y53174D01*
X107707Y52475D01*
X107370Y51661D01*
X107255Y50787D01*
X107370Y49914D01*
X107707Y49100D01*
X108221Y48429D01*
Y44078D01*
X105210Y41067D01*
X104748Y41258D01*
Y45461D01*
X103133D01*
Y49787D01*
X104783D01*
Y55496D01*
D02*
G37*
G36*
X25354Y24602D02*
X22394D01*
Y21642D01*
X25354D01*
Y24602D01*
D02*
G37*
G36*
X180894Y27474D02*
X179763Y27325D01*
X178710Y26889D01*
X177805Y26195D01*
X177111Y25290D01*
X176674Y24237D01*
X176526Y23106D01*
X176674Y21976D01*
X177111Y20922D01*
X177805Y20018D01*
X178710Y19323D01*
X179763Y18887D01*
X180894Y18738D01*
X182024Y18887D01*
X183078Y19323D01*
X183982Y20018D01*
X184677Y20922D01*
X185113Y21976D01*
X185262Y23106D01*
X185113Y24237D01*
X184677Y25290D01*
X183982Y26195D01*
X183078Y26889D01*
X182024Y27325D01*
X180894Y27474D01*
D02*
G37*
G36*
X190894D02*
X189763Y27325D01*
X188710Y26889D01*
X187805Y26195D01*
X187111Y25290D01*
X186674Y24237D01*
X186526Y23106D01*
X186674Y21976D01*
X187111Y20922D01*
X187805Y20018D01*
X188710Y19323D01*
X189763Y18887D01*
X190894Y18738D01*
X192024Y18887D01*
X193078Y19323D01*
X193982Y20018D01*
X194677Y20922D01*
X195113Y21976D01*
X195262Y23106D01*
X195113Y24237D01*
X194677Y25290D01*
X193982Y26195D01*
X193078Y26889D01*
X192024Y27325D01*
X190894Y27474D01*
D02*
G37*
G36*
X21394Y24602D02*
X18433D01*
Y21642D01*
X21394D01*
Y24602D01*
D02*
G37*
G36*
X48264Y33212D02*
X44524D01*
X43909Y33090D01*
X43491Y32811D01*
X40858D01*
X40858Y32811D01*
X40397Y32719D01*
X40007Y32458D01*
X35045Y27496D01*
X31039D01*
Y21787D01*
X32689D01*
Y20380D01*
X32689Y20380D01*
X32781Y19919D01*
X33042Y19528D01*
X44039Y8531D01*
Y4752D01*
X49748D01*
Y10461D01*
X45516D01*
X35098Y20879D01*
Y21787D01*
X36748D01*
Y25793D01*
X41357Y30402D01*
X43491D01*
X43909Y30123D01*
X44524Y30001D01*
X48264D01*
X48878Y30123D01*
X49399Y30471D01*
X49747Y30992D01*
X49869Y31606D01*
X49747Y32221D01*
X49399Y32742D01*
X48878Y33090D01*
X48264Y33212D01*
D02*
G37*
G36*
X8394Y69482D02*
X8174Y69453D01*
X5047D01*
Y66326D01*
X5018Y66106D01*
Y46642D01*
X4358D01*
Y38571D01*
X12429D01*
Y46642D01*
X11769D01*
Y66106D01*
X11740Y66326D01*
Y69453D01*
X8613D01*
X8394Y69482D01*
D02*
G37*
G36*
X102535Y83831D02*
X70252D01*
Y78168D01*
X63042Y70958D01*
X62781Y70567D01*
X62689Y70106D01*
X62690Y70106D01*
Y62961D01*
X61039D01*
Y61310D01*
X56425D01*
Y64043D01*
X50362D01*
Y56169D01*
X56425D01*
Y58902D01*
X61039D01*
Y57252D01*
X66748D01*
Y62961D01*
X65098D01*
Y69608D01*
X69984Y74493D01*
X70252Y74382D01*
Y74382D01*
X70252Y74382D01*
X83313D01*
X83504Y73920D01*
X78542Y68958D01*
X78281Y68567D01*
X78189Y68106D01*
X78189Y68106D01*
Y53845D01*
X67556Y43212D01*
X65784D01*
X65169Y43090D01*
X64648Y42742D01*
X64300Y42221D01*
X64178Y41606D01*
X64300Y40992D01*
X64648Y40471D01*
X65169Y40123D01*
X65784Y40001D01*
X69524D01*
X70138Y40123D01*
X70659Y40471D01*
X71007Y40992D01*
X71129Y41606D01*
X71007Y42221D01*
X70659Y42742D01*
X70644Y42894D01*
X80245Y52495D01*
X80245Y52495D01*
X80402Y52729D01*
X80506Y52886D01*
X80598Y53346D01*
X80598Y53347D01*
X80598Y53347D01*
Y53347D01*
Y67607D01*
X87372Y74382D01*
X102535D01*
Y83831D01*
D02*
G37*
G36*
X75213Y62961D02*
X69504D01*
Y58955D01*
X53360Y42810D01*
X49839D01*
Y43181D01*
X42949D01*
Y40031D01*
X49839D01*
Y40402D01*
X53858D01*
X53858Y40402D01*
X54319Y40494D01*
X54710Y40755D01*
X71207Y57252D01*
X75213D01*
Y62961D01*
D02*
G37*
G36*
X69524Y38830D02*
X68154D01*
Y37106D01*
X71648D01*
X71578Y37457D01*
X71096Y38179D01*
X70375Y38661D01*
X69524Y38830D01*
D02*
G37*
G36*
X67154Y36106D02*
X63659D01*
X63729Y35755D01*
X64211Y35034D01*
X64932Y34552D01*
X65784Y34383D01*
X67154D01*
Y36106D01*
D02*
G37*
G36*
X71648D02*
X68154D01*
Y34383D01*
X69524D01*
X70375Y34552D01*
X71096Y35034D01*
X71578Y35755D01*
X71648Y36106D01*
D02*
G37*
G36*
X67154Y38830D02*
X65784D01*
X64932Y38661D01*
X64211Y38179D01*
X63729Y37457D01*
X63659Y37106D01*
X67154D01*
Y38830D01*
D02*
G37*
G36*
X43988Y293520D02*
X42110D01*
Y292913D01*
X38780D01*
Y284252D01*
X42110D01*
Y283646D01*
X43988D01*
Y288583D01*
Y293520D01*
D02*
G37*
G36*
X46866Y288083D02*
X44988D01*
Y283646D01*
X46866D01*
Y288083D01*
D02*
G37*
G36*
X68398D02*
X66520D01*
Y283646D01*
X68398D01*
Y288083D01*
D02*
G37*
G36*
X12315Y286606D02*
X8894D01*
Y283185D01*
X9426Y283255D01*
X10387Y283654D01*
X11213Y284287D01*
X11846Y285113D01*
X12245Y286074D01*
X12315Y286606D01*
D02*
G37*
G36*
X181890Y325029D02*
X181016Y324914D01*
X180202Y324577D01*
X179503Y324040D01*
X178967Y323341D01*
X178629Y322527D01*
X178514Y321654D01*
X178629Y320780D01*
X178967Y319966D01*
X179503Y319267D01*
X179749Y319078D01*
Y294614D01*
X179932Y293692D01*
X180454Y292911D01*
X181236Y292389D01*
X181404Y292356D01*
X214401Y259359D01*
X214189Y258846D01*
X214073Y257972D01*
X214189Y257099D01*
X214526Y256285D01*
X215062Y255586D01*
X215642Y255140D01*
Y235520D01*
X206990Y226868D01*
X206599Y226282D01*
X206461Y225590D01*
Y213575D01*
X206425D01*
Y209638D01*
X210362D01*
Y213575D01*
X210074D01*
Y224842D01*
X218726Y233494D01*
X219118Y234080D01*
X219255Y234772D01*
X219255Y234772D01*
X219255Y234772D01*
Y234772D01*
Y255140D01*
X219835Y255586D01*
X220130Y255969D01*
X233500D01*
X233576Y255584D01*
X233881Y255129D01*
X234288Y254856D01*
Y254356D01*
X233881Y254084D01*
X233576Y253628D01*
X233469Y253091D01*
Y251122D01*
X233576Y250584D01*
X233881Y250129D01*
X234152Y249947D01*
X234007Y249468D01*
X233496D01*
Y244744D01*
X233496Y244744D01*
X233496D01*
X233574Y244556D01*
X225711Y236694D01*
X225450Y236303D01*
X225359Y235842D01*
X225359Y235842D01*
Y227830D01*
X225286Y227781D01*
X224894Y227195D01*
X224757Y226504D01*
X224894Y225813D01*
X225286Y225227D01*
X225872Y224835D01*
X226563Y224698D01*
X227254Y224835D01*
X227840Y225227D01*
X228232Y225813D01*
X228369Y226504D01*
X228232Y227195D01*
X227840Y227781D01*
X227767Y227830D01*
Y235344D01*
X237168Y244744D01*
X242158D01*
Y249468D01*
X241646D01*
X241501Y249947D01*
X241773Y250129D01*
X242077Y250584D01*
X242184Y251122D01*
Y253091D01*
X242077Y253628D01*
X241773Y254084D01*
X241366Y254356D01*
Y254856D01*
X241773Y255129D01*
X242077Y255584D01*
X242184Y256122D01*
Y258090D01*
X242077Y258628D01*
X241773Y259084D01*
X241366Y259356D01*
Y259856D01*
X241773Y260129D01*
X242077Y260584D01*
X242184Y261122D01*
Y263090D01*
X242077Y263628D01*
X241773Y264084D01*
X241366Y264356D01*
Y264856D01*
X241773Y265129D01*
X242077Y265584D01*
X242141Y265902D01*
X248394D01*
X248394Y265902D01*
X248854Y265994D01*
X249245Y266255D01*
X254245Y271255D01*
X254245Y271255D01*
X254506Y271645D01*
X254506Y271645D01*
X254506Y271645D01*
X254598Y272106D01*
X254598Y272106D01*
Y279787D01*
X256248D01*
Y285496D01*
X250539D01*
Y279787D01*
X252189D01*
Y272605D01*
X247895Y268310D01*
X242141D01*
X242077Y268628D01*
X241773Y269084D01*
X242154Y269654D01*
X242210Y269691D01*
X242649Y270348D01*
X242803Y271122D01*
Y271606D01*
X232851D01*
Y271122D01*
X233005Y270348D01*
X233443Y269691D01*
X233500Y269654D01*
X233881Y269084D01*
X233576Y268628D01*
X233469Y268091D01*
Y266122D01*
X233576Y265584D01*
X233881Y265129D01*
X234288Y264856D01*
Y264356D01*
X233881Y264084D01*
X233576Y263628D01*
X233469Y263090D01*
Y261122D01*
X233576Y260584D01*
X233881Y260129D01*
X233983Y260060D01*
X233838Y259582D01*
X220404D01*
X220372Y259660D01*
X219835Y260359D01*
X219710Y260455D01*
X219674Y260638D01*
X219152Y261420D01*
X184566Y296006D01*
Y319644D01*
X184813Y319966D01*
X185150Y320780D01*
X185265Y321654D01*
X185150Y322527D01*
X184813Y323341D01*
X184276Y324040D01*
X183577Y324577D01*
X182763Y324914D01*
X181890Y325029D01*
D02*
G37*
G36*
X237327Y275114D02*
X234874D01*
X234100Y274960D01*
X233443Y274521D01*
X233005Y273865D01*
X232851Y273091D01*
Y272606D01*
X237327D01*
Y275114D01*
D02*
G37*
G36*
X240779D02*
X238327D01*
Y272606D01*
X242803D01*
Y273091D01*
X242649Y273865D01*
X242210Y274521D01*
X241554Y274960D01*
X240779Y275114D01*
D02*
G37*
G36*
X71276Y293520D02*
X69398D01*
Y288583D01*
Y283646D01*
X71276D01*
Y284252D01*
X74606D01*
Y292913D01*
X71276D01*
Y293520D01*
D02*
G37*
G36*
X37402Y296095D02*
X28740D01*
X28439Y295971D01*
X28314Y295669D01*
Y286221D01*
X28439Y285919D01*
X28740Y285794D01*
X37402D01*
X37703Y285919D01*
X37828Y286221D01*
Y295669D01*
X37703Y295971D01*
X37402Y296095D01*
D02*
G37*
G36*
X85433Y295308D02*
X76378D01*
X76077Y295183D01*
X75952Y294882D01*
Y286614D01*
X76077Y286313D01*
X76378Y286188D01*
X85433D01*
X85734Y286313D01*
X85859Y286614D01*
Y294882D01*
X85734Y295183D01*
X85433Y295308D01*
D02*
G37*
G36*
X242803Y306606D02*
X232851D01*
Y306122D01*
X233005Y305348D01*
X233443Y304692D01*
X233500Y304654D01*
X233881Y304084D01*
X233576Y303628D01*
X233469Y303091D01*
Y301122D01*
X233576Y300584D01*
X233881Y300129D01*
X234288Y299856D01*
Y299356D01*
X233881Y299084D01*
X233576Y298628D01*
X233469Y298091D01*
Y296122D01*
X233576Y295584D01*
X233881Y295129D01*
X234336Y294824D01*
X234874Y294717D01*
X240779D01*
X241317Y294824D01*
X241773Y295129D01*
X242077Y295584D01*
X242141Y295902D01*
X247395D01*
X250539Y292758D01*
Y288252D01*
X256248D01*
Y293961D01*
X252742D01*
X248745Y297958D01*
X248355Y298219D01*
X247894Y298311D01*
X247894Y298310D01*
X242141D01*
X242077Y298628D01*
X241773Y299084D01*
X241366Y299356D01*
Y299856D01*
X241773Y300129D01*
X242077Y300584D01*
X242184Y301122D01*
Y303091D01*
X242077Y303628D01*
X241773Y304084D01*
X242154Y304654D01*
X242210Y304692D01*
X242649Y305348D01*
X242803Y306122D01*
Y306606D01*
D02*
G37*
G36*
X65748Y292913D02*
X61811D01*
Y284252D01*
X65748D01*
Y292913D01*
D02*
G37*
G36*
X51575D02*
X47638D01*
Y284252D01*
X51575D01*
Y292913D01*
D02*
G37*
G36*
X56299D02*
X52362D01*
Y284252D01*
X56299D01*
Y292913D01*
D02*
G37*
G36*
X61024D02*
X57087D01*
Y284252D01*
X61024D01*
Y292913D01*
D02*
G37*
G36*
X198221Y257480D02*
X194799D01*
X194869Y256948D01*
X195268Y255987D01*
X195901Y255161D01*
X196727Y254528D01*
X197689Y254129D01*
X198221Y254059D01*
Y257480D01*
D02*
G37*
G36*
X202642D02*
X199221D01*
Y254059D01*
X199752Y254129D01*
X200714Y254528D01*
X201540Y255161D01*
X202173Y255987D01*
X202572Y256948D01*
X202642Y257480D01*
D02*
G37*
G36*
X130894Y258606D02*
X127933D01*
Y255646D01*
X130894D01*
Y258606D01*
D02*
G37*
G36*
X131394Y242520D02*
Y238106D01*
X135808D01*
X135704Y238895D01*
X135206Y240096D01*
X134415Y241127D01*
X133384Y241919D01*
X132183Y242416D01*
X131394Y242520D01*
D02*
G37*
G36*
X143748Y260996D02*
X138039D01*
Y255287D01*
X139087D01*
Y241546D01*
X138710Y241389D01*
X137805Y240695D01*
X137111Y239790D01*
X136674Y238737D01*
X136526Y237606D01*
X136674Y236476D01*
X137111Y235422D01*
X137805Y234518D01*
X138710Y233823D01*
X139763Y233387D01*
X140894Y233238D01*
X142024Y233387D01*
X143078Y233823D01*
X143982Y234518D01*
X144677Y235422D01*
X145113Y236476D01*
X145262Y237606D01*
X145113Y238737D01*
X144677Y239790D01*
X143982Y240695D01*
X143078Y241389D01*
X142700Y241546D01*
Y255287D01*
X143748D01*
Y260996D01*
D02*
G37*
G36*
X59449Y258893D02*
X58758Y258755D01*
X58171Y258364D01*
X57780Y257778D01*
X57643Y257087D01*
X57780Y256395D01*
X57990Y256081D01*
Y244565D01*
X57737Y244460D01*
X57028Y243917D01*
X56484Y243208D01*
X56142Y242382D01*
X56026Y241496D01*
X56142Y240610D01*
X56484Y239785D01*
X57028Y239076D01*
X57737Y238532D01*
X58563Y238190D01*
X59449Y238073D01*
X60335Y238190D01*
X61160Y238532D01*
X61869Y239076D01*
X62413Y239785D01*
X62755Y240610D01*
X62872Y241496D01*
X62755Y242382D01*
X62413Y243208D01*
X61869Y243917D01*
X61160Y244460D01*
X60335Y244802D01*
X59813Y244871D01*
Y255353D01*
X60140Y255418D01*
X60726Y255809D01*
X61118Y256395D01*
X61255Y257087D01*
X61118Y257778D01*
X60726Y258364D01*
X60140Y258755D01*
X59449Y258893D01*
D02*
G37*
G36*
X130394Y242520D02*
X129605Y242416D01*
X128404Y241919D01*
X127373Y241127D01*
X126581Y240096D01*
X126084Y238895D01*
X125980Y238106D01*
X130394D01*
Y242520D01*
D02*
G37*
G36*
X134854Y258606D02*
X131894D01*
Y255646D01*
X134854D01*
Y258606D01*
D02*
G37*
G36*
X118295Y265318D02*
X117604Y265181D01*
X117018Y264789D01*
X116885Y264590D01*
X104331D01*
X103870Y264498D01*
X103713Y264394D01*
X103479Y264237D01*
X103479Y264237D01*
X62534Y223292D01*
X62273Y222902D01*
X62182Y222441D01*
X62182Y222441D01*
Y199583D01*
X62182Y199583D01*
X62273Y199122D01*
X62534Y198731D01*
X63138Y198128D01*
Y193925D01*
X66287D01*
Y202587D01*
X64590D01*
Y221942D01*
X67703Y225055D01*
X68079Y224726D01*
X67929Y224530D01*
X67590Y223712D01*
X67541Y223335D01*
X70366D01*
Y226160D01*
X69988Y226110D01*
X69170Y225771D01*
X68975Y225622D01*
X68645Y225997D01*
X104830Y262182D01*
X117097D01*
X117604Y261843D01*
X118295Y261705D01*
X118986Y261843D01*
X119573Y262234D01*
X119964Y262821D01*
X119974Y262871D01*
X120010Y262925D01*
X120102Y263386D01*
X120089Y263449D01*
X120102Y263512D01*
X119964Y264203D01*
X119573Y264789D01*
X118986Y265181D01*
X118295Y265318D01*
D02*
G37*
G36*
X134248Y270425D02*
X128539D01*
Y264717D01*
X134248D01*
Y265402D01*
X138039D01*
Y263752D01*
X143748D01*
Y265402D01*
X147539D01*
Y263752D01*
X153248D01*
Y269461D01*
X147539D01*
Y267811D01*
X143748D01*
Y269461D01*
X138039D01*
Y267811D01*
X134248D01*
Y270425D01*
D02*
G37*
G36*
X98394Y292913D02*
X97702Y292775D01*
X97116Y292384D01*
X96725Y291798D01*
X96587Y291106D01*
X96725Y290415D01*
X97116Y289829D01*
X97189Y289780D01*
Y271961D01*
X95504D01*
Y266252D01*
X101213D01*
Y271961D01*
X99598D01*
Y289780D01*
X99671Y289829D01*
X100063Y290415D01*
X100200Y291106D01*
X100063Y291798D01*
X99671Y292384D01*
X99085Y292775D01*
X98394Y292913D01*
D02*
G37*
G36*
X134854Y262567D02*
X131894D01*
Y259606D01*
X134854D01*
Y262567D01*
D02*
G37*
G36*
X198221Y261901D02*
X197689Y261831D01*
X196727Y261433D01*
X195901Y260799D01*
X195268Y259974D01*
X194869Y259012D01*
X194799Y258480D01*
X198221D01*
Y261901D01*
D02*
G37*
G36*
X199221D02*
Y258480D01*
X202642D01*
X202572Y259012D01*
X202173Y259974D01*
X201540Y260799D01*
X200714Y261433D01*
X199752Y261831D01*
X199221Y261901D01*
D02*
G37*
G36*
X130894Y262567D02*
X127933D01*
Y259606D01*
X130894D01*
Y262567D01*
D02*
G37*
G36*
X46866Y293520D02*
X44988D01*
Y289083D01*
X46866D01*
Y293520D01*
D02*
G37*
G36*
X237327Y310114D02*
X234874D01*
X234100Y309960D01*
X233443Y309521D01*
X233005Y308865D01*
X232851Y308090D01*
Y307606D01*
X237327D01*
Y310114D01*
D02*
G37*
G36*
X240779D02*
X238327D01*
Y307606D01*
X242803D01*
Y308090D01*
X242649Y308865D01*
X242210Y309521D01*
X241554Y309960D01*
X240779Y310114D01*
D02*
G37*
G36*
X49815Y323606D02*
X46394D01*
Y320185D01*
X46926Y320255D01*
X47887Y320654D01*
X48713Y321287D01*
X49346Y322113D01*
X49745Y323074D01*
X49815Y323606D01*
D02*
G37*
G36*
X213394Y304027D02*
Y300606D01*
X216815D01*
X216745Y301138D01*
X216346Y302100D01*
X215713Y302925D01*
X214887Y303559D01*
X213926Y303957D01*
X213394Y304027D01*
D02*
G37*
G36*
X119240Y304453D02*
X115394D01*
Y300606D01*
X119240D01*
Y304453D01*
D02*
G37*
G36*
X144894D02*
X141047D01*
Y300606D01*
X144894D01*
Y304453D01*
D02*
G37*
G36*
X212394Y304027D02*
X211862Y303957D01*
X210900Y303559D01*
X210075Y302925D01*
X209441Y302100D01*
X209043Y301138D01*
X208973Y300606D01*
X212394D01*
Y304027D01*
D02*
G37*
G36*
X46394Y328027D02*
Y324606D01*
X49815D01*
X49745Y325138D01*
X49346Y326100D01*
X48713Y326925D01*
X47887Y327559D01*
X46926Y327957D01*
X46394Y328027D01*
D02*
G37*
G36*
X35252Y354346D02*
X30815D01*
Y352075D01*
X35252D01*
Y354346D01*
D02*
G37*
G36*
X175779Y361996D02*
X169874D01*
X169336Y361889D01*
X168881Y361584D01*
X168576Y361128D01*
X168469Y360591D01*
Y358622D01*
X168576Y358084D01*
X168881Y357629D01*
X169336Y357324D01*
X169874Y357217D01*
X175779D01*
X176317Y357324D01*
X176773Y357629D01*
X177077Y358084D01*
X177184Y358622D01*
Y360591D01*
X177077Y361128D01*
X176773Y361584D01*
X176317Y361889D01*
X175779Y361996D01*
D02*
G37*
G36*
X240779D02*
X234874D01*
X234336Y361889D01*
X233881Y361584D01*
X233576Y361128D01*
X233469Y360591D01*
Y358622D01*
X233576Y358084D01*
X233881Y357629D01*
X234336Y357324D01*
X234874Y357217D01*
X240779D01*
X241317Y357324D01*
X241773Y357629D01*
X242077Y358084D01*
X242184Y358622D01*
Y360591D01*
X242077Y361128D01*
X241773Y361584D01*
X241317Y361889D01*
X240779Y361996D01*
D02*
G37*
G36*
X29815Y354346D02*
X25378D01*
Y352075D01*
X29815D01*
Y354346D01*
D02*
G37*
G36*
X87402Y353740D02*
X78740D01*
Y349410D01*
X78740Y349410D01*
X78740Y349016D01*
X78740D01*
Y344685D01*
X78740Y344685D01*
X78740Y344291D01*
X78740D01*
Y339961D01*
X78740Y339961D01*
X78740Y339567D01*
X78740D01*
Y335236D01*
X78740Y335236D01*
X78740Y334842D01*
X78740D01*
Y330512D01*
X78740Y330512D01*
X78740Y330118D01*
X78740D01*
Y325787D01*
X78740Y325787D01*
X78740Y325394D01*
X78740D01*
Y321063D01*
X78740Y321063D01*
X78740Y320669D01*
X78740D01*
Y316339D01*
X78740Y316339D01*
X78740Y315945D01*
X78740D01*
Y311614D01*
X78740Y311614D01*
X78740Y311220D01*
X78740D01*
Y306890D01*
X78740Y306890D01*
X78740Y306496D01*
X78740D01*
Y305141D01*
X74803D01*
X74342Y305050D01*
X73952Y304788D01*
X73952Y304788D01*
X70504Y301341D01*
X70175Y301275D01*
X69589Y300884D01*
X69197Y300298D01*
X69060Y299606D01*
X69197Y298915D01*
X69589Y298329D01*
X70175Y297937D01*
X70866Y297800D01*
X71557Y297937D01*
X72143Y298329D01*
X72535Y298915D01*
X72672Y299606D01*
X72590Y300021D01*
X75302Y302733D01*
X78740D01*
Y302165D01*
X78740Y302165D01*
X78740Y301772D01*
X78740D01*
Y300811D01*
X77165D01*
X77165Y300811D01*
X76705Y300719D01*
X76314Y300458D01*
X76314Y300458D01*
X74889Y299033D01*
X74803Y299050D01*
X74112Y298913D01*
X73526Y298521D01*
X73134Y297935D01*
X72997Y297244D01*
X73134Y296553D01*
X73526Y295967D01*
X74112Y295575D01*
X74803Y295438D01*
X75494Y295575D01*
X76080Y295967D01*
X76472Y296553D01*
X76609Y297244D01*
X76592Y297330D01*
X77664Y298402D01*
X78740D01*
Y297441D01*
X87402D01*
Y298402D01*
X99894D01*
X99894Y298402D01*
X100355Y298494D01*
X100745Y298755D01*
X110892Y308902D01*
X111344D01*
X111627Y308220D01*
X112226Y307439D01*
X113007Y306839D01*
X113917Y306462D01*
X114894Y306334D01*
X115870Y306462D01*
X116780Y306839D01*
X117561Y307439D01*
X118161Y308220D01*
X118538Y309130D01*
X118666Y310106D01*
X118538Y311083D01*
X118161Y311993D01*
X117561Y312774D01*
X116780Y313373D01*
X115870Y313750D01*
X114894Y313879D01*
X113917Y313750D01*
X113007Y313373D01*
X112226Y312774D01*
X111627Y311993D01*
X111344Y311311D01*
X110394D01*
X109933Y311219D01*
X109542Y310958D01*
X109542Y310958D01*
X99395Y300811D01*
X87402D01*
Y301772D01*
D01*
Y301772D01*
X87402Y301772D01*
Y302165D01*
X87402D01*
Y302733D01*
X98724D01*
X98724Y302733D01*
X99185Y302824D01*
X99576Y303085D01*
X113235Y316745D01*
X113917Y316462D01*
X114894Y316334D01*
X115870Y316462D01*
X116780Y316839D01*
X117561Y317439D01*
X118161Y318220D01*
X118538Y319130D01*
X118666Y320106D01*
X118538Y321083D01*
X118161Y321992D01*
X117561Y322774D01*
X116780Y323373D01*
X115870Y323750D01*
X114894Y323879D01*
X113917Y323750D01*
X113007Y323373D01*
X112226Y322774D01*
X111627Y321992D01*
X111250Y321083D01*
X111121Y320106D01*
X111250Y319130D01*
X111532Y318448D01*
X98226Y305141D01*
X87402D01*
Y306496D01*
D01*
Y306496D01*
X87402Y306496D01*
Y306890D01*
X87402D01*
Y311220D01*
D01*
Y311220D01*
X87402Y311220D01*
Y311614D01*
X87402D01*
Y315945D01*
D01*
Y315945D01*
X87402Y315945D01*
Y316339D01*
X87402D01*
Y320669D01*
D01*
Y320669D01*
X87402Y320669D01*
Y321063D01*
X87402D01*
Y325394D01*
D01*
Y325394D01*
X87402Y325394D01*
Y325787D01*
X87402D01*
Y330118D01*
D01*
Y330118D01*
X87402Y330118D01*
Y330512D01*
X87402D01*
Y334842D01*
D01*
Y334842D01*
X87402Y334842D01*
Y335236D01*
X87402D01*
Y336197D01*
X88871D01*
X93190Y331879D01*
Y315767D01*
X92616Y315384D01*
X92225Y314798D01*
X92087Y314106D01*
X92225Y313415D01*
X92616Y312829D01*
X93202Y312437D01*
X93894Y312300D01*
X94585Y312437D01*
X95171Y312829D01*
X95563Y313415D01*
X95700Y314106D01*
X95598Y314620D01*
Y332378D01*
X95598Y332378D01*
X95506Y332839D01*
X95245Y333229D01*
X95245Y333229D01*
X90222Y338253D01*
X89831Y338514D01*
X89370Y338606D01*
X89370Y338606D01*
X87402D01*
Y339567D01*
D01*
Y339567D01*
X87402Y339567D01*
Y339961D01*
X87402D01*
Y344291D01*
D01*
Y344291D01*
X87402Y344291D01*
Y344685D01*
X87402D01*
Y349016D01*
D01*
Y349016D01*
X87402Y349016D01*
Y349410D01*
X87402D01*
Y353740D01*
D02*
G37*
G36*
X279134Y363416D02*
X277899Y363295D01*
X276712Y362934D01*
X275617Y362350D01*
X274658Y361562D01*
X273871Y360603D01*
X273286Y359509D01*
X272926Y358321D01*
X272804Y357087D01*
X272926Y355852D01*
X273286Y354664D01*
X273871Y353570D01*
X274658Y352611D01*
X275617Y351824D01*
X276712Y351239D01*
X277899Y350879D01*
X279134Y350757D01*
X280369Y350879D01*
X281556Y351239D01*
X282650Y351824D01*
X283610Y352611D01*
X284397Y353570D01*
X284982Y354664D01*
X285342Y355852D01*
X285464Y357087D01*
X285342Y358321D01*
X284982Y359509D01*
X284397Y360603D01*
X283610Y361562D01*
X282650Y362350D01*
X281556Y362934D01*
X280369Y363295D01*
X279134Y363416D01*
D02*
G37*
G36*
X8268Y364204D02*
X7033Y364082D01*
X5845Y363722D01*
X4751Y363137D01*
X3792Y362350D01*
X3005Y361391D01*
X2420Y360296D01*
X2060Y359109D01*
X1938Y357874D01*
X2060Y356639D01*
X2420Y355452D01*
X3005Y354357D01*
X3792Y353398D01*
X4751Y352611D01*
X5845Y352026D01*
X7033Y351666D01*
X8268Y351544D01*
X9503Y351666D01*
X10690Y352026D01*
X11784Y352611D01*
X12743Y353398D01*
X13531Y354357D01*
X14116Y355452D01*
X14476Y356639D01*
X14597Y357874D01*
X14476Y359109D01*
X14116Y360296D01*
X13531Y361391D01*
X12743Y362350D01*
X11784Y363137D01*
X10690Y363722D01*
X9503Y364082D01*
X8268Y364204D01*
D02*
G37*
G36*
X119240Y299606D02*
X115394D01*
Y295760D01*
X119240D01*
Y299606D01*
D02*
G37*
G36*
X144894D02*
X141047D01*
Y295760D01*
X144894D01*
Y299606D01*
D02*
G37*
G36*
X149740D02*
X145894D01*
Y295760D01*
X149740D01*
Y299606D01*
D02*
G37*
G36*
X114394D02*
X110547D01*
Y295760D01*
X114394D01*
Y299606D01*
D02*
G37*
G36*
X68398Y293520D02*
X66520D01*
Y289083D01*
X68398D01*
Y293520D01*
D02*
G37*
G36*
X42807Y298319D02*
X39386D01*
X39456Y297787D01*
X39854Y296826D01*
X40488Y296000D01*
X41314Y295366D01*
X42275Y294968D01*
X42807Y294898D01*
Y298319D01*
D02*
G37*
G36*
X47228D02*
X43807D01*
Y294898D01*
X44339Y294968D01*
X45300Y295366D01*
X46126Y296000D01*
X46760Y296826D01*
X47158Y297787D01*
X47228Y298319D01*
D02*
G37*
G36*
X212394Y299606D02*
X208973D01*
X209043Y299074D01*
X209441Y298113D01*
X210075Y297287D01*
X210900Y296654D01*
X211862Y296255D01*
X212394Y296185D01*
Y299606D01*
D02*
G37*
G36*
X42807Y302740D02*
X42275Y302670D01*
X41314Y302272D01*
X40488Y301638D01*
X39854Y300812D01*
X39456Y299851D01*
X39386Y299319D01*
X42807D01*
Y302740D01*
D02*
G37*
G36*
X43807D02*
Y299319D01*
X47228D01*
X47158Y299851D01*
X46760Y300812D01*
X46126Y301638D01*
X45300Y302272D01*
X44339Y302670D01*
X43807Y302740D01*
D02*
G37*
G36*
X114394Y304453D02*
X110547D01*
Y300606D01*
X114394D01*
Y304453D01*
D02*
G37*
G36*
X35252Y299106D02*
X30815D01*
Y296835D01*
X35252D01*
Y299106D01*
D02*
G37*
G36*
X216815Y299606D02*
X213394D01*
Y296185D01*
X213926Y296255D01*
X214887Y296654D01*
X215713Y297287D01*
X216346Y298113D01*
X216745Y299074D01*
X216815Y299606D01*
D02*
G37*
G36*
X145394Y323879D02*
X144417Y323750D01*
X143508Y323373D01*
X142726Y322774D01*
X142127Y321992D01*
X141750Y321083D01*
X141621Y320106D01*
X141750Y319130D01*
X142127Y318220D01*
X142726Y317439D01*
X143508Y316839D01*
X144417Y316462D01*
X145394Y316334D01*
X146370Y316462D01*
X147052Y316745D01*
X161001Y302797D01*
Y296969D01*
X160913Y296837D01*
X160415Y296788D01*
X148755Y308448D01*
X149038Y309130D01*
X149166Y310106D01*
X149038Y311083D01*
X148661Y311993D01*
X148061Y312774D01*
X147280Y313373D01*
X146370Y313750D01*
X145394Y313879D01*
X144417Y313750D01*
X143508Y313373D01*
X142726Y312774D01*
X142127Y311993D01*
X141750Y311083D01*
X141621Y310106D01*
X141750Y309130D01*
X142127Y308220D01*
X142726Y307439D01*
X143508Y306839D01*
X144417Y306462D01*
X145394Y306334D01*
X146370Y306462D01*
X147052Y306745D01*
X148882Y304915D01*
X148691Y304453D01*
X145894D01*
Y300606D01*
X149740D01*
Y303403D01*
X150202Y303595D01*
X158638Y295159D01*
Y257874D01*
X158638Y257874D01*
X158730Y257413D01*
X158991Y257023D01*
X167908Y248105D01*
X168299Y247844D01*
X168469Y247810D01*
Y246122D01*
X168576Y245584D01*
X168881Y245129D01*
X169336Y244824D01*
X169874Y244717D01*
X171623D01*
Y233562D01*
X129422Y191362D01*
X119003D01*
X116287Y194077D01*
Y202587D01*
X113138D01*
Y193925D01*
X113513D01*
X113600Y193488D01*
X113861Y193097D01*
X117103Y189855D01*
X117005Y189617D01*
X116514Y189520D01*
X111287Y194746D01*
Y202587D01*
X108138D01*
Y193925D01*
X108755D01*
X108861Y193767D01*
X108861Y193767D01*
X108861Y193767D01*
D01*
X108861D01*
Y193767D01*
D01*
X115290Y187338D01*
X115290Y187337D01*
X115681Y187076D01*
X116142Y186985D01*
X130737D01*
X130737Y186985D01*
X131198Y187076D01*
X131588Y187337D01*
X181588Y237337D01*
X181588Y237337D01*
X181849Y237728D01*
X181941Y238189D01*
X181913Y238330D01*
Y247638D01*
X181821Y248099D01*
X181717Y248255D01*
X181560Y248489D01*
X181560Y248489D01*
X177184Y252865D01*
Y253091D01*
X177077Y253628D01*
X176773Y254084D01*
X177154Y254654D01*
X177210Y254692D01*
X177649Y255348D01*
X177803Y256122D01*
Y256606D01*
X172827D01*
Y257606D01*
X177803D01*
Y258090D01*
X177649Y258865D01*
X177210Y259521D01*
X177154Y259559D01*
X176773Y260129D01*
X177077Y260584D01*
X177184Y261122D01*
Y263090D01*
X177077Y263628D01*
X176773Y264084D01*
X176365Y264356D01*
Y264856D01*
X176773Y265129D01*
X177077Y265584D01*
X177184Y266122D01*
Y268091D01*
X177077Y268628D01*
X176773Y269084D01*
X176365Y269356D01*
Y269856D01*
X176773Y270129D01*
X177077Y270584D01*
X177184Y271122D01*
Y273091D01*
X177077Y273628D01*
X176773Y274084D01*
X176365Y274356D01*
Y274856D01*
X176773Y275129D01*
X177077Y275584D01*
X177184Y276122D01*
Y278091D01*
X177077Y278628D01*
X176773Y279084D01*
X176365Y279356D01*
Y279856D01*
X176773Y280129D01*
X177077Y280584D01*
X177184Y281122D01*
Y283090D01*
X177077Y283628D01*
X176773Y284084D01*
X176365Y284356D01*
Y284856D01*
X176773Y285129D01*
X177077Y285584D01*
X177184Y286122D01*
Y288090D01*
X177077Y288628D01*
X176773Y289084D01*
X176365Y289356D01*
Y289856D01*
X176773Y290129D01*
X177077Y290584D01*
X177184Y291122D01*
Y293091D01*
X177077Y293628D01*
X176773Y294084D01*
X176317Y294389D01*
X175779Y294496D01*
X169874D01*
X169336Y294389D01*
X168881Y294084D01*
X168576Y293628D01*
X168469Y293091D01*
Y291122D01*
X168576Y290584D01*
X168881Y290129D01*
X169288Y289856D01*
Y289356D01*
X168881Y289084D01*
X168576Y288628D01*
X168469Y288090D01*
Y286122D01*
X168576Y285584D01*
X168881Y285129D01*
X169288Y284856D01*
Y284356D01*
X168881Y284084D01*
X168576Y283628D01*
X168469Y283090D01*
Y281122D01*
X168576Y280584D01*
X168881Y280129D01*
X169288Y279856D01*
Y279356D01*
X168881Y279084D01*
X168576Y278628D01*
X168469Y278091D01*
Y276122D01*
X168576Y275584D01*
X168881Y275129D01*
X169288Y274856D01*
Y274356D01*
X168881Y274084D01*
X168576Y273628D01*
X168469Y273091D01*
Y271122D01*
X168576Y270584D01*
X168881Y270129D01*
X169288Y269856D01*
Y269356D01*
X168881Y269084D01*
X168576Y268628D01*
X168469Y268091D01*
Y266122D01*
X168576Y265584D01*
X168881Y265129D01*
X169288Y264856D01*
Y264356D01*
X168881Y264084D01*
X168576Y263628D01*
X168518Y263336D01*
X168040Y263191D01*
X166867Y264363D01*
X166578Y264556D01*
X166423Y264789D01*
X165837Y265181D01*
X165146Y265318D01*
X164454Y265181D01*
X163868Y264789D01*
X163409Y265096D01*
Y303295D01*
X163317Y303756D01*
X163056Y304147D01*
X163056Y304147D01*
X148755Y318448D01*
X149038Y319130D01*
X149166Y320106D01*
X149038Y321083D01*
X148661Y321992D01*
X148061Y322774D01*
X147280Y323373D01*
X146370Y323750D01*
X145394Y323879D01*
D02*
G37*
G36*
X29815Y299106D02*
X25378D01*
Y296835D01*
X29815D01*
Y299106D01*
D02*
G37*
G36*
X79713Y209413D02*
X79021Y209275D01*
X78435Y208884D01*
X78044Y208298D01*
X77906Y207606D01*
X78044Y206915D01*
X78435Y206329D01*
X78508Y206280D01*
Y202587D01*
X78138D01*
Y193925D01*
X81287D01*
Y202587D01*
X80917D01*
Y206280D01*
X80990Y206329D01*
X81381Y206915D01*
X81519Y207606D01*
X81381Y208298D01*
X80990Y208884D01*
X80404Y209275D01*
X79713Y209413D01*
D02*
G37*
G36*
X106878Y212956D02*
X106187Y212819D01*
X105601Y212427D01*
X105209Y211841D01*
X105072Y211150D01*
X105144Y210784D01*
X98861Y204501D01*
X98600Y204110D01*
X98508Y203650D01*
X98508Y203650D01*
Y202587D01*
X98138D01*
Y193925D01*
X101287D01*
Y202587D01*
X100917D01*
Y203151D01*
X107167Y209401D01*
X107569Y209481D01*
X108155Y209872D01*
X108547Y210458D01*
X108684Y211150D01*
X108547Y211841D01*
X108155Y212427D01*
X107569Y212819D01*
X106878Y212956D01*
D02*
G37*
G36*
X153248Y260996D02*
X147539D01*
Y255287D01*
X149189D01*
Y241937D01*
X146563D01*
Y234979D01*
X128861Y217277D01*
X128600Y216886D01*
X128508Y216425D01*
X128508Y216425D01*
Y202587D01*
X128138D01*
Y193925D01*
X131287D01*
Y202587D01*
X130917D01*
Y215926D01*
X148266Y233276D01*
X155224D01*
Y241937D01*
X151598D01*
Y255287D01*
X153248D01*
Y260996D01*
D02*
G37*
G36*
X74894Y209413D02*
X74202Y209275D01*
X73616Y208884D01*
X73225Y208298D01*
X73087Y207606D01*
X73225Y206915D01*
X73518Y206476D01*
X73508Y206425D01*
X73508Y206425D01*
Y202587D01*
X73138D01*
Y193925D01*
X76287D01*
Y202587D01*
X75917D01*
Y206012D01*
X76006Y206145D01*
X76023Y206230D01*
X76171Y206329D01*
X76563Y206915D01*
X76700Y207606D01*
X76563Y208298D01*
X76171Y208884D01*
X75585Y209275D01*
X74894Y209413D01*
D02*
G37*
G36*
X106287Y202587D02*
X103138D01*
Y193925D01*
X103508D01*
Y191826D01*
X96745Y185063D01*
X66523D01*
X66288Y185503D01*
X66563Y185915D01*
X66602Y186111D01*
X66892Y186402D01*
X80851D01*
X80851Y186402D01*
X81312Y186494D01*
X81703Y186755D01*
X87926Y192978D01*
X88187Y193369D01*
X88279Y193830D01*
X88757Y193925D01*
X91287D01*
Y202587D01*
X88138D01*
Y198384D01*
X86749Y196996D01*
X86287Y197187D01*
Y202587D01*
X83138D01*
Y195053D01*
X79895Y191811D01*
X52894D01*
X52894Y191811D01*
X52433Y191719D01*
X52042Y191458D01*
X52042Y191458D01*
X42545Y181961D01*
X38539D01*
Y176252D01*
X44248D01*
Y180258D01*
X53392Y189402D01*
X80291D01*
X80364Y189226D01*
X80086Y188811D01*
X66394D01*
X65933Y188719D01*
X65776Y188614D01*
X65542Y188458D01*
X65542Y188458D01*
X65397Y188313D01*
X64894Y188413D01*
X64202Y188275D01*
X63616Y187884D01*
X63225Y187298D01*
X63087Y186606D01*
X63225Y185915D01*
X63500Y185503D01*
X63264Y185063D01*
X59842D01*
X59382Y184971D01*
X58991Y184710D01*
X45042Y170761D01*
X44781Y170370D01*
X44746Y170192D01*
X44248Y170241D01*
Y173496D01*
X38539D01*
Y167787D01*
X40189D01*
Y141105D01*
X26895Y127811D01*
X21748D01*
Y129165D01*
X16039D01*
Y124047D01*
X21748D01*
Y125402D01*
X27394D01*
X27394Y125402D01*
X27854Y125494D01*
X28245Y125755D01*
X42245Y139755D01*
X42506Y140146D01*
X42598Y140606D01*
X42598Y140606D01*
Y167787D01*
X44248D01*
Y167787D01*
X44336D01*
X44690Y167434D01*
Y114461D01*
X43039D01*
Y108752D01*
X48748D01*
Y114461D01*
X47098D01*
Y169411D01*
X60341Y182654D01*
X97244D01*
X97244Y182654D01*
X97705Y182746D01*
X98096Y183007D01*
X105564Y190475D01*
X105564Y190475D01*
X105825Y190866D01*
X105825Y190866D01*
X105825Y190866D01*
X105917Y191327D01*
X105917Y191327D01*
Y193925D01*
X106287D01*
Y202587D01*
D02*
G37*
G36*
X94213Y197756D02*
X92532D01*
Y193319D01*
X94213D01*
Y197756D01*
D02*
G37*
G36*
X96894D02*
X95213D01*
Y193319D01*
X96894D01*
Y197756D01*
D02*
G37*
G36*
X94213Y203193D02*
X92532D01*
Y198756D01*
X94213D01*
Y203193D01*
D02*
G37*
G36*
X18394Y215606D02*
X15433D01*
Y212646D01*
X18394D01*
Y215606D01*
D02*
G37*
G36*
X22354D02*
X19394D01*
Y212646D01*
X22354D01*
Y215606D01*
D02*
G37*
G36*
X29894D02*
X26933D01*
Y212646D01*
X29894D01*
Y215606D01*
D02*
G37*
G36*
X85854Y215106D02*
X82894D01*
Y212146D01*
X85854D01*
Y215106D01*
D02*
G37*
G36*
X96894Y203193D02*
X95213D01*
Y198756D01*
X96894D01*
Y203193D01*
D02*
G37*
G36*
X13437Y214291D02*
X6350D01*
Y204921D01*
X13437D01*
Y207402D01*
X16039D01*
Y204787D01*
X21748D01*
Y206437D01*
X27539D01*
Y204787D01*
X33248D01*
Y205902D01*
X43068D01*
X43116Y205829D01*
X43702Y205437D01*
X44394Y205300D01*
X45085Y205437D01*
X45671Y205829D01*
X46063Y206415D01*
X46200Y207106D01*
X46063Y207798D01*
X45671Y208384D01*
X45085Y208775D01*
X44394Y208913D01*
X43702Y208775D01*
X43116Y208384D01*
X43068Y208311D01*
X33248D01*
Y210496D01*
X27539D01*
Y208846D01*
X21748D01*
Y210496D01*
X16039D01*
Y209810D01*
X13437D01*
Y214291D01*
D02*
G37*
G36*
X81894Y215106D02*
X78933D01*
Y212146D01*
X81894D01*
Y215106D01*
D02*
G37*
G36*
X268898Y185464D02*
X267663Y185342D01*
X266475Y184982D01*
X265381Y184397D01*
X264422Y183610D01*
X263635Y182650D01*
X263050Y181556D01*
X262690Y180369D01*
X262568Y179134D01*
X262690Y177899D01*
X263050Y176712D01*
X263635Y175617D01*
X264422Y174658D01*
X265381Y173871D01*
X266475Y173286D01*
X267663Y172926D01*
X268898Y172804D01*
X270132Y172926D01*
X271320Y173286D01*
X272414Y173871D01*
X273373Y174658D01*
X274161Y175617D01*
X274745Y176712D01*
X275106Y177899D01*
X275227Y179134D01*
X275106Y180369D01*
X274745Y181556D01*
X274161Y182650D01*
X273373Y183610D01*
X272414Y184397D01*
X271320Y184982D01*
X270132Y185342D01*
X268898Y185464D01*
D02*
G37*
G36*
X84213Y160748D02*
X82531D01*
Y156311D01*
X84213D01*
Y160748D01*
D02*
G37*
G36*
X86894D02*
X85213D01*
Y156311D01*
X86894D01*
Y160748D01*
D02*
G37*
G36*
X124213D02*
X122531D01*
Y156311D01*
X124213D01*
Y160748D01*
D02*
G37*
G36*
X259449Y203543D02*
X171260D01*
Y154724D01*
X259449D01*
Y203543D01*
D02*
G37*
G36*
X97394Y152567D02*
X94433D01*
Y149606D01*
X97394D01*
Y152567D01*
D02*
G37*
G36*
X240713Y214461D02*
X235004D01*
Y208752D01*
X240713D01*
Y210402D01*
X266075D01*
Y207252D01*
X269785D01*
X277142Y199895D01*
Y156404D01*
X271942Y151204D01*
X192823D01*
X192823Y151204D01*
X192362Y151113D01*
X191971Y150852D01*
X191971Y150852D01*
X189080Y147961D01*
X185075D01*
Y143955D01*
X145042Y103922D01*
X144781Y103532D01*
X144690Y103071D01*
X144690Y103071D01*
Y69642D01*
X141858D01*
Y62924D01*
X141396Y62733D01*
X139798Y64331D01*
Y69981D01*
X139661Y70673D01*
X139269Y71258D01*
X138200Y72328D01*
Y81650D01*
X138063Y82341D01*
X137969Y82482D01*
Y84996D01*
X134819D01*
Y82854D01*
X132968D01*
Y84996D01*
X132598D01*
Y92228D01*
X132598Y92228D01*
X132506Y92689D01*
X132245Y93080D01*
X132245Y93080D01*
X127598Y97727D01*
Y99760D01*
X127969D01*
Y102978D01*
X129210Y104219D01*
X129340Y104415D01*
X129819Y104270D01*
Y99760D01*
X132968D01*
Y106453D01*
X132598D01*
Y107954D01*
X132956Y108490D01*
X133094Y109181D01*
X132956Y109872D01*
X132565Y110458D01*
X131979Y110850D01*
X131287Y110987D01*
X130596Y110850D01*
X130010Y110458D01*
X129562Y110758D01*
Y112752D01*
X131213D01*
Y117931D01*
X131675Y118122D01*
X135189Y114608D01*
Y106453D01*
X134819D01*
Y99760D01*
X137969D01*
Y106453D01*
X137598D01*
Y115106D01*
X137598Y115106D01*
X137506Y115567D01*
X137245Y115958D01*
X137245Y115958D01*
X120917Y132286D01*
Y156917D01*
X121287D01*
Y165579D01*
X118138D01*
Y156917D01*
X118508D01*
Y131787D01*
X118508Y131787D01*
X118600Y131327D01*
X118861Y130936D01*
X130874Y118923D01*
X130683Y118461D01*
X125504D01*
Y112752D01*
X127154D01*
Y106453D01*
X124819D01*
Y99760D01*
X125189D01*
Y97228D01*
X125189Y97228D01*
X125281Y96767D01*
X125542Y96377D01*
X130190Y91729D01*
Y84996D01*
X129819D01*
Y78303D01*
X132968D01*
Y80445D01*
X134587D01*
Y71580D01*
X134587Y71580D01*
X134587D01*
X134725Y70888D01*
X135116Y70302D01*
X136084Y69335D01*
X135987Y68844D01*
X135724Y68735D01*
X127623Y76836D01*
X127233Y77097D01*
X126772Y77188D01*
X126772Y77188D01*
X120971D01*
X120318Y77841D01*
X120510Y78303D01*
X122968D01*
Y83523D01*
X123430Y83714D01*
X124819Y82326D01*
Y78303D01*
X127969D01*
Y84996D01*
X125555D01*
X121373Y89178D01*
X121440Y89340D01*
X121585Y89635D01*
X121941Y89588D01*
Y92913D01*
Y96239D01*
X121563Y96189D01*
X120745Y95850D01*
X120043Y95311D01*
X119788Y94979D01*
X119315Y95140D01*
Y99154D01*
X120894D01*
Y103106D01*
Y107059D01*
X119213D01*
Y103093D01*
X118751Y102902D01*
X115917Y105736D01*
Y156917D01*
X116287D01*
Y165579D01*
X113138D01*
Y160319D01*
X112662Y160001D01*
X112662Y160001D01*
X111287Y161376D01*
Y165579D01*
X108138D01*
Y156917D01*
X110607D01*
Y106131D01*
X110145Y105940D01*
X96086Y119999D01*
Y127953D01*
X95995Y128414D01*
X95890Y128570D01*
X95733Y128804D01*
X95733Y128804D01*
X75917Y148621D01*
Y156917D01*
X76287D01*
Y165579D01*
X73138D01*
Y156917D01*
X73508D01*
Y148122D01*
X73508Y148122D01*
X73600Y147661D01*
X73861Y147271D01*
X93126Y128005D01*
X92935Y127543D01*
X89394D01*
Y122606D01*
Y117669D01*
X93831D01*
Y118195D01*
X94293Y118386D01*
X112926Y99753D01*
Y83104D01*
X112464Y82912D01*
X110259Y85116D01*
Y97477D01*
X110515Y97860D01*
X110653Y98551D01*
X110515Y99242D01*
X110124Y99828D01*
X109538Y100220D01*
X108846Y100358D01*
X108155Y100220D01*
X107569Y99828D01*
X107178Y99242D01*
X107040Y98551D01*
X107178Y97860D01*
X107569Y97274D01*
X107851Y97086D01*
Y84618D01*
X107851Y84618D01*
X107943Y84157D01*
X108204Y83766D01*
X122392Y69578D01*
X122392Y69578D01*
X122598Y69440D01*
X122614Y68941D01*
X122583Y68917D01*
X121839Y67947D01*
X121371Y66818D01*
X121278Y66106D01*
X125894D01*
Y65606D01*
X126394D01*
Y60990D01*
X127105Y61084D01*
X128235Y61552D01*
X129064Y62188D01*
X129512Y61967D01*
Y59047D01*
X129512Y59047D01*
X129604Y58586D01*
X129865Y58196D01*
X141737Y46323D01*
X141823Y45891D01*
X142215Y45305D01*
X142682Y44993D01*
Y32161D01*
X142608Y32112D01*
X142217Y31526D01*
X142079Y30835D01*
X142217Y30143D01*
X142608Y29557D01*
X143195Y29166D01*
X143886Y29028D01*
X144577Y29166D01*
X145163Y29557D01*
X145555Y30143D01*
X145692Y30835D01*
X145555Y31526D01*
X145163Y32112D01*
X145090Y32161D01*
Y45785D01*
X145161Y45891D01*
X145299Y46583D01*
X145161Y47274D01*
X144769Y47860D01*
X144183Y48252D01*
X143492Y48389D01*
X143147Y48320D01*
X131921Y59546D01*
Y67604D01*
X131921Y67604D01*
X131829Y68065D01*
X131568Y68455D01*
X131568Y68455D01*
X128743Y71281D01*
X128352Y71542D01*
X127891Y71633D01*
X127891Y71633D01*
X123742D01*
X121058Y74318D01*
X121249Y74780D01*
X126273D01*
X134229Y66824D01*
Y60236D01*
X134229Y60236D01*
X134320Y59775D01*
X134581Y59385D01*
X167790Y26176D01*
X167111Y25290D01*
X166674Y24237D01*
X166526Y23106D01*
X166674Y21976D01*
X167111Y20922D01*
X167805Y20018D01*
X168710Y19323D01*
X169763Y18887D01*
X170894Y18738D01*
X172024Y18887D01*
X173078Y19323D01*
X173982Y20018D01*
X174677Y20922D01*
X175113Y21976D01*
X175262Y23106D01*
X175113Y24237D01*
X174677Y25290D01*
X173982Y26195D01*
X173078Y26889D01*
X172098Y27295D01*
Y49608D01*
X173742Y51252D01*
X176981D01*
X177173Y50790D01*
X175101Y48718D01*
X174709Y48132D01*
X174572Y47441D01*
Y44958D01*
X173991Y44513D01*
X173455Y43814D01*
X173118Y43000D01*
X173003Y42126D01*
X173118Y41252D01*
X173455Y40438D01*
X173991Y39739D01*
X174690Y39203D01*
X175504Y38866D01*
X176378Y38751D01*
X177252Y38866D01*
X178066Y39203D01*
X178765Y39739D01*
X179301Y40438D01*
X179638Y41252D01*
X179753Y42126D01*
X179638Y43000D01*
X179301Y43814D01*
X178765Y44513D01*
X178184Y44958D01*
Y46693D01*
X182773Y51282D01*
X183165Y51868D01*
X183302Y52559D01*
X183302Y52559D01*
X183302Y52559D01*
Y52559D01*
Y55354D01*
X233167Y105219D01*
X233167Y105219D01*
X233167Y105219D01*
X233559Y105805D01*
X233696Y106496D01*
Y142638D01*
X234862D01*
Y143402D01*
X268894D01*
X268894Y143402D01*
X269355Y143494D01*
X269745Y143755D01*
X270128Y144138D01*
X272362D01*
Y148075D01*
X268425D01*
Y145841D01*
X268395Y145810D01*
X234862D01*
Y146575D01*
X230925D01*
Y145192D01*
X230612Y144880D01*
X230221Y144294D01*
X230083Y143602D01*
Y107244D01*
X181746Y58907D01*
X181246D01*
X177748Y62405D01*
Y65425D01*
X172039D01*
Y63775D01*
X169748D01*
Y65425D01*
X164039D01*
Y59716D01*
X169748D01*
Y61367D01*
X172039D01*
Y59716D01*
X175327D01*
X177621Y57423D01*
X177455Y57021D01*
X177455Y57021D01*
X177430Y56961D01*
X172039D01*
Y52955D01*
X170210Y51126D01*
X170065Y51186D01*
X169748Y51317D01*
Y56961D01*
X164039D01*
Y56448D01*
X153873D01*
X153824Y56521D01*
X153238Y56913D01*
X152547Y57051D01*
X151856Y56913D01*
X151270Y56521D01*
X150878Y55935D01*
X150741Y55244D01*
X150878Y54553D01*
X151270Y53967D01*
X151856Y53575D01*
X152547Y53438D01*
X153238Y53575D01*
X153824Y53967D01*
X153873Y54040D01*
X164039D01*
Y51252D01*
X169708D01*
X169708Y51252D01*
X169708D01*
X169944Y50811D01*
X169781Y50567D01*
X169690Y50106D01*
X169690Y50106D01*
Y28336D01*
X169228Y28145D01*
X159046Y38326D01*
X159267Y38774D01*
X159449Y38751D01*
X160322Y38866D01*
X161136Y39203D01*
X161836Y39739D01*
X162372Y40438D01*
X162709Y41252D01*
X162824Y42126D01*
X162709Y43000D01*
X162372Y43814D01*
X161836Y44513D01*
X161136Y45049D01*
X160322Y45386D01*
X159449Y45501D01*
X158724Y45406D01*
X143020Y61109D01*
X143212Y61571D01*
X149929D01*
Y69642D01*
X147098D01*
Y102572D01*
X186778Y142252D01*
X190784D01*
Y146258D01*
X193322Y148796D01*
X272441D01*
X272441Y148796D01*
X272902Y148887D01*
X273292Y149148D01*
X278919Y154775D01*
X279417Y154726D01*
X279504Y154594D01*
Y150424D01*
X277155Y148075D01*
X274921D01*
Y144138D01*
X278858D01*
Y146372D01*
X281560Y149074D01*
X281821Y149464D01*
X281913Y149925D01*
X281913Y149925D01*
Y206791D01*
X281821Y207252D01*
X281560Y207643D01*
X280248Y208955D01*
Y212961D01*
X274539D01*
Y207252D01*
X278545D01*
X279504Y206293D01*
Y201705D01*
X279417Y201573D01*
X278919Y201524D01*
X271783Y208660D01*
Y212961D01*
X266075D01*
Y212810D01*
X240713D01*
Y214461D01*
D02*
G37*
G36*
X81287Y165579D02*
X78138D01*
Y156917D01*
X78902D01*
Y154602D01*
X78829Y154553D01*
X78437Y153967D01*
X78300Y153276D01*
X78437Y152584D01*
X78829Y151998D01*
X79415Y151607D01*
X80106Y151469D01*
X80798Y151607D01*
X81384Y151998D01*
X81775Y152584D01*
X81913Y153276D01*
X81775Y153967D01*
X81384Y154553D01*
X81310Y154602D01*
Y160854D01*
X81311Y160854D01*
X81287Y160971D01*
Y165579D01*
D02*
G37*
G36*
X126894Y160748D02*
X125213D01*
Y156311D01*
X126894D01*
Y160748D01*
D02*
G37*
G36*
X91339Y170102D02*
X91338Y170102D01*
X58661D01*
X58201Y170010D01*
X58044Y169906D01*
X57810Y169749D01*
X57810Y169749D01*
X56761Y168701D01*
X56626Y168728D01*
X55935Y168590D01*
X55349Y168199D01*
X54957Y167613D01*
X54820Y166921D01*
X54957Y166230D01*
X55349Y165644D01*
X55935Y165252D01*
X56626Y165115D01*
X57317Y165252D01*
X57903Y165644D01*
X58295Y166230D01*
X58432Y166921D01*
X58425Y166958D01*
X59160Y167693D01*
X90840D01*
X93138Y165395D01*
Y156917D01*
X96287D01*
Y165579D01*
X95906D01*
X95825Y165984D01*
X95721Y166141D01*
X95564Y166375D01*
X95564Y166375D01*
X92190Y169749D01*
X91799Y170010D01*
X91339Y170102D01*
D02*
G37*
G36*
X125984Y169315D02*
X125984Y169315D01*
X106299D01*
X106299Y169315D01*
X105838Y169223D01*
X105448Y168962D01*
X105448Y168962D01*
X103873Y167387D01*
X103612Y166996D01*
X103520Y166535D01*
X103520Y166535D01*
Y165579D01*
X103138D01*
Y156917D01*
X105154D01*
Y154987D01*
X104676Y154842D01*
X104427Y155214D01*
X103841Y155606D01*
X103150Y155743D01*
X102458Y155606D01*
X102185Y155423D01*
X101287Y156321D01*
X101287Y156917D01*
X101287D01*
Y165579D01*
X98138D01*
Y156917D01*
X98508D01*
Y156193D01*
X98508Y156193D01*
X98600Y155732D01*
X98861Y155341D01*
X101117Y153085D01*
X101117Y153085D01*
X101177Y153045D01*
X101132Y152897D01*
X101132D01*
X101032Y152567D01*
X98394D01*
Y149606D01*
X101354D01*
Y152461D01*
D01*
X101548Y152620D01*
X101548D01*
X101741Y152778D01*
Y152778D01*
X101872Y152660D01*
X101872Y152660D01*
X102458Y152268D01*
X103150Y152131D01*
X103841Y152268D01*
X104427Y152660D01*
X104676Y153032D01*
X105154Y152887D01*
Y143461D01*
X103504D01*
Y137752D01*
X103504D01*
X103504Y137197D01*
X102453Y136146D01*
X101615Y136036D01*
X100801Y135699D01*
X100101Y135162D01*
X99565Y134463D01*
X99228Y133649D01*
X99113Y132776D01*
X99228Y131902D01*
X99565Y131088D01*
X100101Y130389D01*
X100801Y129852D01*
X101615Y129515D01*
X102488Y129400D01*
X103362Y129515D01*
X104176Y129852D01*
X104875Y130389D01*
X105411Y131088D01*
X105748Y131902D01*
X105859Y132740D01*
X107088Y133969D01*
X107221Y133995D01*
X108002Y134517D01*
X108524Y135299D01*
X108708Y136221D01*
Y137752D01*
X109213D01*
Y143461D01*
X107562D01*
Y159602D01*
X107562Y159602D01*
X107471Y160063D01*
X107210Y160454D01*
X106287Y161376D01*
Y165579D01*
X106124D01*
X105933Y166041D01*
X106798Y166906D01*
X125402D01*
X125680Y166490D01*
X125553Y166185D01*
X125213D01*
Y161748D01*
X126894D01*
Y164845D01*
X127356Y165036D01*
X128138Y164254D01*
Y156917D01*
X131287D01*
Y165579D01*
X130219D01*
X126836Y168962D01*
X126445Y169223D01*
X125984Y169315D01*
D02*
G37*
G36*
X161811Y185464D02*
X160576Y185342D01*
X159389Y184982D01*
X158294Y184397D01*
X157335Y183610D01*
X156548Y182650D01*
X155963Y181556D01*
X155603Y180369D01*
X155481Y179134D01*
X155603Y177899D01*
X155963Y176712D01*
X156548Y175617D01*
X157335Y174658D01*
X158294Y173871D01*
X159389Y173286D01*
X160576Y172926D01*
X161811Y172804D01*
X163046Y172926D01*
X164233Y173286D01*
X165328Y173871D01*
X166287Y174658D01*
X167074Y175617D01*
X167659Y176712D01*
X168019Y177899D01*
X168141Y179134D01*
X168019Y180369D01*
X167659Y181556D01*
X167074Y182650D01*
X166287Y183610D01*
X165328Y184397D01*
X164233Y184982D01*
X163046Y185342D01*
X161811Y185464D01*
D02*
G37*
G36*
X124213Y166185D02*
X122531D01*
Y161748D01*
X124213D01*
Y166185D01*
D02*
G37*
G36*
X66287Y165579D02*
X63138D01*
Y156917D01*
X66287D01*
Y165579D01*
D02*
G37*
G36*
X84213Y166185D02*
X82531D01*
Y161748D01*
X84213D01*
Y166185D01*
D02*
G37*
G36*
X86894D02*
X85213D01*
Y161748D01*
X86894D01*
Y166185D01*
D02*
G37*
G36*
X33854Y215606D02*
X30894D01*
Y212646D01*
X33854D01*
Y215606D01*
D02*
G37*
G36*
X50457Y230996D02*
X46957D01*
Y227496D01*
X50457D01*
Y230996D01*
D02*
G37*
G36*
X58949D02*
X55449D01*
Y227496D01*
X58949D01*
Y230996D01*
D02*
G37*
G36*
X63449D02*
X59949D01*
Y227496D01*
X63449D01*
Y230996D01*
D02*
G37*
G36*
X45957D02*
X42457D01*
Y227496D01*
X45957D01*
Y230996D01*
D02*
G37*
G36*
X120894Y241974D02*
X119763Y241826D01*
X118710Y241389D01*
X117805Y240695D01*
X117111Y239790D01*
X116674Y238737D01*
X116526Y237606D01*
X116674Y236476D01*
X117111Y235422D01*
X117805Y234518D01*
X118710Y233823D01*
X119690Y233418D01*
Y221167D01*
X119228Y220975D01*
X112098Y228105D01*
Y233418D01*
X113078Y233823D01*
X113982Y234518D01*
X114677Y235422D01*
X115113Y236476D01*
X115262Y237606D01*
X115113Y238737D01*
X114677Y239790D01*
X113982Y240695D01*
X113078Y241389D01*
X112024Y241826D01*
X110894Y241974D01*
X109763Y241826D01*
X108710Y241389D01*
X107805Y240695D01*
X107111Y239790D01*
X106675Y238737D01*
X106526Y237606D01*
X106675Y236476D01*
X107111Y235422D01*
X107805Y234518D01*
X108710Y233823D01*
X109689Y233418D01*
Y227606D01*
X109689Y227606D01*
X109781Y227146D01*
X110042Y226755D01*
X118508Y218289D01*
Y202587D01*
X118138D01*
Y193925D01*
X121287D01*
Y202587D01*
X120917D01*
Y206727D01*
X121379Y206918D01*
X123508Y204789D01*
Y202587D01*
X123138D01*
Y193925D01*
X126287D01*
Y202587D01*
X125917D01*
Y205287D01*
X125917Y205287D01*
X125825Y205748D01*
X125564Y206139D01*
X122885Y208818D01*
Y219603D01*
X122794Y220064D01*
X122533Y220454D01*
X122098Y220889D01*
Y233418D01*
X123078Y233823D01*
X123982Y234518D01*
X124677Y235422D01*
X125113Y236476D01*
X125262Y237606D01*
X125113Y238737D01*
X124677Y239790D01*
X123982Y240695D01*
X123078Y241389D01*
X122024Y241826D01*
X120894Y241974D01*
D02*
G37*
G36*
X71366Y226160D02*
Y223335D01*
X74191D01*
X74142Y223712D01*
X73803Y224530D01*
X73264Y225233D01*
X72562Y225771D01*
X71744Y226110D01*
X71366Y226160D01*
D02*
G37*
G36*
X12708Y230701D02*
X9287D01*
Y227280D01*
X9819Y227350D01*
X10781Y227748D01*
X11607Y228382D01*
X12240Y229207D01*
X12638Y230169D01*
X12708Y230701D01*
D02*
G37*
G36*
X9287Y235122D02*
Y231701D01*
X12708D01*
X12638Y232233D01*
X12240Y233194D01*
X11607Y234020D01*
X10781Y234653D01*
X9819Y235052D01*
X9287Y235122D01*
D02*
G37*
G36*
X130394Y237106D02*
X125980D01*
X126084Y236317D01*
X126581Y235117D01*
X127373Y234085D01*
X128404Y233294D01*
X129605Y232796D01*
X130394Y232693D01*
Y237106D01*
D02*
G37*
G36*
X135808D02*
X131394D01*
Y232693D01*
X132183Y232796D01*
X133384Y233294D01*
X134415Y234085D01*
X135206Y235117D01*
X135704Y236317D01*
X135808Y237106D01*
D02*
G37*
G36*
X100894Y241974D02*
X99763Y241826D01*
X98710Y241389D01*
X97805Y240695D01*
X97111Y239790D01*
X96675Y238737D01*
X96526Y237606D01*
X96675Y236476D01*
X97111Y235422D01*
X97805Y234518D01*
X98710Y233823D01*
X99763Y233387D01*
X100894Y233238D01*
X102024Y233387D01*
X103078Y233823D01*
X103982Y234518D01*
X104677Y235422D01*
X105113Y236476D01*
X105262Y237606D01*
X105113Y238737D01*
X104677Y239790D01*
X103982Y240695D01*
X103078Y241389D01*
X102024Y241826D01*
X100894Y241974D01*
D02*
G37*
G36*
X63449Y235496D02*
X59949D01*
Y231996D01*
X63449D01*
Y235496D01*
D02*
G37*
G36*
X45957D02*
X42457D01*
Y231996D01*
X45957D01*
Y235496D01*
D02*
G37*
G36*
X50457D02*
X46957D01*
Y231996D01*
X50457D01*
Y235496D01*
D02*
G37*
G36*
X58949D02*
X55449D01*
Y231996D01*
X58949D01*
Y235496D01*
D02*
G37*
G36*
X81894Y219067D02*
X78933D01*
Y216106D01*
X81894D01*
Y219067D01*
D02*
G37*
G36*
X85854D02*
X82894D01*
Y216106D01*
X85854D01*
Y219067D01*
D02*
G37*
G36*
X18394Y219567D02*
X15433D01*
Y216606D01*
X18394D01*
Y219567D01*
D02*
G37*
G36*
X76784Y218461D02*
X71075D01*
Y215980D01*
X69265D01*
X68638Y216398D01*
X67716Y216582D01*
X66795Y216398D01*
X66013Y215876D01*
X65491Y215095D01*
X65308Y214173D01*
X65491Y213251D01*
X66013Y212470D01*
X66795Y211948D01*
X67716Y211765D01*
X68638Y211948D01*
X69265Y212367D01*
X70212D01*
X70404Y211905D01*
X69068Y210570D01*
X68871Y210274D01*
X68801Y209925D01*
Y202587D01*
X68138D01*
Y193925D01*
X71287D01*
Y202587D01*
X70624D01*
Y209548D01*
X73828Y212752D01*
X76784D01*
Y218461D01*
D02*
G37*
G36*
X232248Y214461D02*
X226539D01*
Y212810D01*
X216858D01*
Y213575D01*
X212921D01*
Y209638D01*
X216858D01*
Y210402D01*
X226539D01*
Y208752D01*
X232248D01*
Y214461D01*
D02*
G37*
G36*
X42020Y215642D02*
X39194D01*
X39244Y215264D01*
X39583Y214446D01*
X40122Y213744D01*
X40824Y213205D01*
X41642Y212866D01*
X42020Y212816D01*
Y215642D01*
D02*
G37*
G36*
X45845D02*
X43020D01*
Y212816D01*
X43397Y212866D01*
X44215Y213205D01*
X44918Y213744D01*
X45456Y214446D01*
X45795Y215264D01*
X45845Y215642D01*
D02*
G37*
G36*
X22354Y219567D02*
X19394D01*
Y216606D01*
X22354D01*
Y219567D01*
D02*
G37*
G36*
X43020Y219467D02*
Y216642D01*
X45845D01*
X45795Y217020D01*
X45456Y217837D01*
X44918Y218540D01*
X44215Y219079D01*
X43397Y219417D01*
X43020Y219467D01*
D02*
G37*
G36*
X70366Y222335D02*
X67541D01*
X67590Y221957D01*
X67929Y221139D01*
X68468Y220437D01*
X69170Y219898D01*
X69988Y219559D01*
X70366Y219509D01*
Y222335D01*
D02*
G37*
G36*
X74191D02*
X71366D01*
Y219509D01*
X71744Y219559D01*
X72562Y219898D01*
X73264Y220437D01*
X73803Y221139D01*
X74142Y221957D01*
X74191Y222335D01*
D02*
G37*
G36*
X29894Y219567D02*
X26933D01*
Y216606D01*
X29894D01*
Y219567D01*
D02*
G37*
G36*
X33854D02*
X30894D01*
Y216606D01*
X33854D01*
Y219567D01*
D02*
G37*
G36*
X42020Y219467D02*
X41642Y219417D01*
X40824Y219079D01*
X40122Y218540D01*
X39583Y217837D01*
X39244Y217020D01*
X39194Y216642D01*
X42020D01*
Y219467D01*
D02*
G37*
%LPD*%
G36*
X179504Y247139D02*
Y238660D01*
X174493Y233648D01*
X174031Y233840D01*
Y244717D01*
X175779D01*
X176317Y244824D01*
X176773Y245129D01*
X177077Y245584D01*
X177184Y246122D01*
Y248091D01*
X177077Y248628D01*
X176773Y249084D01*
X176365Y249356D01*
Y249625D01*
X176827Y249816D01*
X179504Y247139D01*
D02*
G37*
G36*
X156169Y42851D02*
X156073Y42126D01*
X156097Y41945D01*
X155649Y41723D01*
X136637Y60735D01*
Y61730D01*
X137099Y61921D01*
X156169Y42851D01*
D02*
G37*
D10*
X268929Y210106D02*
D03*
X277394D02*
D03*
X237858Y211606D02*
D03*
X229394D02*
D03*
X187929Y145106D02*
D03*
X196394D02*
D03*
X98358Y269106D02*
D03*
X89894D02*
D03*
X37429Y111606D02*
D03*
X45894D02*
D03*
X72358Y60106D02*
D03*
X63894D02*
D03*
X128358Y115606D02*
D03*
X119894D02*
D03*
X73929Y215606D02*
D03*
X82394D02*
D03*
X106358Y140606D02*
D03*
X97894D02*
D03*
X89429Y149106D02*
D03*
X97894D02*
D03*
X101894Y42606D02*
D03*
X93429D02*
D03*
X92965Y34606D02*
D03*
X101429D02*
D03*
X46429Y16106D02*
D03*
X54894D02*
D03*
X55358Y7606D02*
D03*
X46894D02*
D03*
D11*
X270394Y146106D02*
D03*
X276890D02*
D03*
X208394Y211606D02*
D03*
X214890D02*
D03*
X232894Y144606D02*
D03*
X226398D02*
D03*
X16394Y112106D02*
D03*
X9898D02*
D03*
D12*
X86394Y101547D02*
D03*
Y79106D02*
D03*
D13*
X9894Y146106D02*
D03*
Y182327D02*
D03*
Y209606D02*
D03*
Y245827D02*
D03*
D14*
X129713Y161248D02*
D03*
X124713D02*
D03*
X119713D02*
D03*
X114713D02*
D03*
X109713D02*
D03*
X104713D02*
D03*
X99713D02*
D03*
X94713D02*
D03*
X89713D02*
D03*
X84713D02*
D03*
X79713D02*
D03*
X74713D02*
D03*
X69713D02*
D03*
X64713D02*
D03*
Y198256D02*
D03*
X69713D02*
D03*
X74713D02*
D03*
X79713D02*
D03*
X84713D02*
D03*
X89713D02*
D03*
X94713D02*
D03*
X99713D02*
D03*
X104713D02*
D03*
X109713D02*
D03*
X114713D02*
D03*
X119713D02*
D03*
X124713D02*
D03*
X129713D02*
D03*
D15*
X41394Y170642D02*
D03*
Y179106D02*
D03*
X140894Y258142D02*
D03*
Y266606D02*
D03*
X150394Y258142D02*
D03*
Y266606D02*
D03*
X131394Y267571D02*
D03*
Y259106D02*
D03*
X26894Y147071D02*
D03*
Y138606D02*
D03*
X18394Y147071D02*
D03*
Y138606D02*
D03*
X30394Y207642D02*
D03*
Y216106D02*
D03*
X18894Y207642D02*
D03*
Y216106D02*
D03*
X174894Y62571D02*
D03*
Y54106D02*
D03*
X166894Y62571D02*
D03*
Y54106D02*
D03*
X16535Y335630D02*
D03*
Y327165D02*
D03*
X21894Y21142D02*
D03*
Y29606D02*
D03*
X93429Y52142D02*
D03*
Y60606D02*
D03*
X101929Y52642D02*
D03*
Y61106D02*
D03*
X92394Y16142D02*
D03*
Y24606D02*
D03*
X33894Y24642D02*
D03*
Y33106D02*
D03*
X253394Y282642D02*
D03*
Y291106D02*
D03*
D16*
X136394Y103106D02*
D03*
X131394D02*
D03*
X126394D02*
D03*
X121394D02*
D03*
X136394Y81650D02*
D03*
X131394D02*
D03*
X126394D02*
D03*
X121394D02*
D03*
D17*
X9642Y126606D02*
D03*
X18894D02*
D03*
D18*
X7894Y262106D02*
D03*
Y255610D02*
D03*
D19*
X237827Y247106D02*
D03*
D20*
X172827Y292106D02*
D03*
Y282106D02*
D03*
Y267106D02*
D03*
Y252106D02*
D03*
Y287106D02*
D03*
Y277106D02*
D03*
Y272106D02*
D03*
Y262106D02*
D03*
Y257106D02*
D03*
Y247106D02*
D03*
X237827Y267106D02*
D03*
Y272106D02*
D03*
Y262106D02*
D03*
Y257106D02*
D03*
Y252106D02*
D03*
Y307106D02*
D03*
Y302106D02*
D03*
Y297106D02*
D03*
Y359606D02*
D03*
X172827D02*
D03*
D21*
X30315Y299606D02*
D03*
Y351575D02*
D03*
Y346850D02*
D03*
Y342126D02*
D03*
Y337402D02*
D03*
Y332677D02*
D03*
Y327953D02*
D03*
Y323228D02*
D03*
Y318504D02*
D03*
Y313779D02*
D03*
Y309055D02*
D03*
Y304331D02*
D03*
X83071D02*
D03*
Y309055D02*
D03*
Y313779D02*
D03*
Y318504D02*
D03*
Y323228D02*
D03*
Y327953D02*
D03*
Y332677D02*
D03*
Y337402D02*
D03*
Y342126D02*
D03*
Y346850D02*
D03*
Y351575D02*
D03*
Y299606D02*
D03*
D22*
X72835Y288583D02*
D03*
X40551D02*
D03*
X44488D02*
D03*
X68898D02*
D03*
D23*
X49606D02*
D03*
X54331D02*
D03*
X59055D02*
D03*
X63779D02*
D03*
D24*
X53394Y60106D02*
D03*
X42134D02*
D03*
D25*
X51268Y78606D02*
D03*
X43394D02*
D03*
X51268Y87606D02*
D03*
X43394D02*
D03*
D26*
X46394Y41606D02*
D03*
D27*
Y36606D02*
D03*
Y31606D02*
D03*
Y26606D02*
D03*
X67654Y41606D02*
D03*
Y36606D02*
D03*
Y31606D02*
D03*
Y26606D02*
D03*
D28*
X103150Y6299D02*
X103626Y5823D01*
X93307Y16142D02*
X103150Y6299D01*
X57142Y5823D02*
X103626D01*
X103150Y6299D02*
X125894Y29043D01*
X102756Y5906D02*
X103150Y6299D01*
X125894Y29043D02*
Y65606D01*
X40894Y76106D02*
X42134Y77346D01*
Y60106D02*
Y77346D01*
X45283Y231496D02*
X47504D01*
X30394Y216606D02*
X45283Y231496D01*
X18894Y216106D02*
Y221094D01*
X8787Y231201D02*
X18894Y221094D01*
X14764Y337402D02*
X30315D01*
X14665Y337500D02*
X14764Y337402D01*
X3079Y325913D02*
X14665Y337500D01*
X3079Y289308D02*
Y325913D01*
X43701Y299213D02*
X45894Y301406D01*
X20500Y299213D02*
X26756D01*
X8394Y287106D02*
X20500Y299213D01*
X18102Y304331D02*
X30394D01*
X3079Y289308D02*
X18102Y304331D01*
X45894Y324106D02*
Y347020D01*
X41339Y351575D02*
X45894Y347020D01*
X30315Y351575D02*
X41339D01*
X2882Y237795D02*
Y257677D01*
Y175315D02*
Y237795D01*
X8394Y243307D02*
Y244827D01*
X2882Y237795D02*
X8394Y243307D01*
X3079Y257677D02*
Y289308D01*
X2882Y175315D02*
X9894Y182327D01*
X2882Y112632D02*
Y175315D01*
X106299Y140547D02*
X106358Y140606D01*
X106299Y136221D02*
Y140547D01*
X105933Y136221D02*
X106299D01*
X102488Y132776D02*
X105933Y136221D01*
X197846Y257106D02*
X198721Y257980D01*
X172827Y257106D02*
X197846D01*
X237158Y257776D02*
X237827Y257106D01*
X217449Y257972D02*
X217646Y257776D01*
X182354Y294811D02*
X217449Y259717D01*
X182158Y294614D02*
Y321134D01*
X45894Y301406D02*
Y324106D01*
X55358Y7606D02*
X57142Y5823D01*
X92394Y16142D02*
X93307D01*
X106429Y65606D02*
X125894D01*
X101929Y61106D02*
X106429Y65606D01*
X101429Y34606D02*
X102156D01*
X110630Y43081D01*
Y50787D01*
X86394Y97465D02*
X94095Y89764D01*
X86394Y97465D02*
Y101547D01*
X78894Y109047D02*
X86394Y101547D01*
X78894Y109047D02*
Y122606D01*
X2882Y112632D02*
X7344Y108169D01*
X30705D01*
X51268Y87606D01*
X65209Y101547D01*
X86394D01*
X212894Y297039D02*
X237827Y272106D01*
X212894Y297039D02*
Y300106D01*
X219894Y307106D02*
X237827D01*
X212894Y300106D02*
X219894Y307106D01*
X18894Y216106D02*
X30394D01*
X43394Y78606D02*
Y87606D01*
X8394Y76106D02*
X40894D01*
X46667Y7606D02*
X46894D01*
D29*
X101969Y153937D02*
X103150D01*
X9843Y112161D02*
X9898Y112106D01*
X9843Y112161D02*
Y118898D01*
X9642Y119098D02*
X9843Y118898D01*
X9642Y119098D02*
Y126606D01*
X83071Y299606D02*
X99894D01*
X74803Y297244D02*
X77165Y299606D01*
X83071D01*
X99894D02*
X110394Y310106D01*
X74803Y303937D02*
X98724D01*
X70683Y299817D02*
X74803Y303937D01*
X98724D02*
X114894Y320106D01*
X89370Y337402D02*
X94394Y332378D01*
X83150Y337402D02*
X89370D01*
X94394Y314606D02*
Y332378D01*
X119685Y115815D02*
X119894Y115606D01*
X119685Y115815D02*
Y125591D01*
X124713Y141429D02*
X124803Y141339D01*
X124713Y141429D02*
Y161248D01*
X131394Y103106D02*
Y109346D01*
X131496Y109449D01*
X99713Y156193D02*
X101969Y153937D01*
X99713Y156193D02*
Y161248D01*
X88024Y122606D02*
X88894D01*
X79921Y130709D02*
X88024Y122606D01*
X79921Y130709D02*
Y134646D01*
X91732Y138189D02*
X94150Y140606D01*
X97894D01*
X63386Y222441D02*
X104331Y263386D01*
X63386Y199583D02*
Y222441D01*
Y199583D02*
X64713Y198256D01*
X30394Y216106D02*
Y216606D01*
X104331Y263386D02*
X118898D01*
X74713Y148122D02*
X94882Y127953D01*
Y119500D02*
Y127953D01*
Y119500D02*
X114173Y100209D01*
X79713Y161248D02*
X80106Y160854D01*
Y153276D02*
Y160854D01*
X165756Y55244D02*
X166894Y54106D01*
X152547Y55244D02*
X165756D01*
X130717Y59047D02*
X143886Y45878D01*
X126772Y75984D02*
X135433Y67323D01*
X120472Y75984D02*
X126772D01*
X114130Y82327D02*
X120472Y75984D01*
X170894Y23106D02*
Y24776D01*
X135433Y60236D02*
X170894Y24776D01*
X135433Y60236D02*
Y67323D01*
X109055Y84618D02*
Y98425D01*
Y84618D02*
X123244Y70429D01*
X127891D01*
X130717Y67604D01*
Y59047D02*
Y67604D01*
X143886Y30835D02*
Y45878D01*
X226563Y235842D02*
X237827Y247106D01*
X226563Y226504D02*
Y235842D01*
X99713Y203650D02*
X107087Y211024D01*
X99713Y198256D02*
Y203650D01*
X104713Y191327D02*
Y198256D01*
X97244Y183858D02*
X104713Y191327D01*
X59842Y183858D02*
X97244D01*
X172531Y261811D02*
X172827Y262106D01*
X167717Y261811D02*
X172531D01*
X166016Y263512D02*
X167717Y261811D01*
X165146Y263512D02*
X166016D01*
X129713Y161248D02*
Y164382D01*
X125984Y168110D02*
X129713Y164382D01*
X106299Y168110D02*
X125984D01*
X104724Y166535D02*
X106299Y168110D01*
X104724Y161260D02*
Y166535D01*
X104713Y161248D02*
X104724Y161260D01*
X109713Y161248D02*
X111811Y159150D01*
Y105355D02*
Y159150D01*
Y105355D02*
X116142Y101024D01*
X114713Y105237D02*
Y161248D01*
Y105237D02*
X118110Y101839D01*
X18394Y147071D02*
X25894D01*
X17394D02*
X18394D01*
X25894D02*
X26453Y147630D01*
X33791D01*
X56693Y166929D02*
X58661Y168898D01*
X91339D01*
X94713Y165524D01*
Y161248D02*
Y165524D01*
X114130Y100165D02*
X114173Y100209D01*
X114130Y82327D02*
Y100165D01*
X118110Y90737D02*
Y101839D01*
Y90737D02*
X126394Y82454D01*
X116142Y86902D02*
X121394Y81650D01*
X116142Y86902D02*
Y101024D01*
X272441Y150000D02*
X278346Y155905D01*
X192823Y150000D02*
X272441D01*
X278346Y155905D02*
Y200394D01*
X268929Y209811D02*
Y210106D01*
Y209811D02*
X278346Y200394D01*
X277394Y210106D02*
X280709Y206791D01*
Y149925D02*
Y206791D01*
X276890Y146106D02*
X280709Y149925D01*
X187929Y145106D02*
X192823Y150000D01*
X170976Y248957D02*
X172827Y247106D01*
X168760Y248957D02*
X170976D01*
X159843Y257874D02*
X168760Y248957D01*
X159843Y257874D02*
Y295657D01*
X145394Y310106D02*
X159843Y295657D01*
X145394Y320106D02*
X162205Y303295D01*
Y260729D02*
Y303295D01*
Y260729D02*
X168977Y253957D01*
X170976D02*
X172827Y252106D01*
X168977Y253957D02*
X170976D01*
X180709Y238189D02*
Y247638D01*
Y238189D02*
X180737D01*
X130737Y188189D02*
X180737Y238189D01*
X172827Y252106D02*
X176240D01*
X180709Y247638D01*
X116142Y188189D02*
X130737D01*
X109713Y194618D02*
X116142Y188189D01*
X109713Y194618D02*
Y198256D01*
X172827Y233063D02*
Y247106D01*
X129921Y190157D02*
X172827Y233063D01*
X118504Y190157D02*
X129921D01*
X114713Y193949D02*
X118504Y190157D01*
X114713Y193949D02*
Y198256D01*
X45894Y111606D02*
Y169909D01*
X59842Y183858D01*
X126394Y97228D02*
Y103106D01*
Y97228D02*
X131394Y92228D01*
Y81650D02*
Y92228D01*
Y81650D02*
X136394D01*
Y103106D02*
Y115106D01*
X119713Y131787D02*
X136394Y115106D01*
X119713Y131787D02*
Y161248D01*
X98358Y269106D02*
X98394Y269142D01*
Y291106D01*
X93894Y314106D02*
X94394Y314606D01*
X110394Y310106D02*
X114894D01*
X30394Y207642D02*
X30929Y207106D01*
X44394D01*
X65394Y186606D02*
X66394Y187606D01*
X80851D01*
X87075Y193830D01*
Y195618D01*
X89713Y198256D01*
X237827Y267106D02*
X248394D01*
X253394Y272106D01*
Y282642D01*
Y291106D02*
Y291606D01*
X247894Y297106D02*
X253394Y291606D01*
X237827Y297106D02*
X247894D01*
X79713Y198256D02*
Y207606D01*
X74713Y206425D02*
X74894Y206606D01*
X74713Y198256D02*
Y206425D01*
Y148122D02*
Y161248D01*
X126394Y81650D02*
Y82454D01*
X129713Y216425D02*
X150894Y237606D01*
X129713Y198256D02*
Y216425D01*
X124713Y198256D02*
Y205287D01*
X121681Y208319D02*
X124713Y205287D01*
X121681Y208319D02*
Y219603D01*
X120894Y220390D02*
X121681Y219603D01*
X120894Y220390D02*
Y237606D01*
X119713Y198256D02*
Y218787D01*
X110894Y227606D02*
X119713Y218787D01*
X110894Y227606D02*
Y237606D01*
X18894Y126606D02*
X27394D01*
X41394Y140606D01*
Y170642D01*
X9642Y130854D02*
X17394Y138606D01*
X9642Y126606D02*
Y130854D01*
X84713Y194925D02*
Y198256D01*
X80394Y190606D02*
X84713Y194925D01*
X52894Y190606D02*
X80394D01*
X41394Y179106D02*
X52894Y190606D01*
X69713Y123425D02*
Y161248D01*
X214890Y211606D02*
X229394D01*
X267429D02*
X268929Y210106D01*
X237858Y211606D02*
X267429D01*
X268894Y144606D02*
X270394Y146106D01*
X232894Y144606D02*
X268894D01*
X145894Y103071D02*
X187929Y145106D01*
X145894Y65606D02*
Y103071D01*
X119894Y104606D02*
X121394Y103106D01*
X119894Y104606D02*
Y115606D01*
X126394Y103106D02*
X128358Y105071D01*
Y115606D01*
X84713Y146287D02*
Y161248D01*
Y146287D02*
X86394Y144606D01*
X93894D01*
X97894Y140606D01*
X104713Y161248D02*
X106358Y159602D01*
Y140606D02*
Y159602D01*
X97894Y140606D02*
Y149106D01*
X89429Y160965D02*
X89713Y161248D01*
X89429Y149106D02*
Y160965D01*
X82894Y262106D02*
X89894Y269106D01*
X7894Y262106D02*
X82894D01*
X94713Y198256D02*
Y208287D01*
X87394Y215606D02*
X94713Y208287D01*
X82394Y215606D02*
X87394D01*
X18894Y207642D02*
X30394D01*
X17929Y208606D02*
X18894Y207642D01*
X8394Y208606D02*
X17929D01*
X16429Y146106D02*
X17394Y147071D01*
X8394Y146106D02*
X16429D01*
X17394Y138606D02*
X25894D01*
X36929Y112106D02*
X37429Y111606D01*
X16394Y112106D02*
X36929D01*
X51268Y78606D02*
Y87606D01*
X101429Y60606D02*
X101929Y61106D01*
X93429Y60606D02*
X101429D01*
X166894Y62571D02*
X174894D01*
X170894Y50106D02*
X174894Y54106D01*
X170894Y23106D02*
Y50106D01*
X150394Y238106D02*
Y258142D01*
X131394Y267571D02*
X132358Y266606D01*
X140894D01*
X150394D01*
X225898Y145106D02*
X226398Y144606D01*
X196394Y145106D02*
X225898D01*
X82429Y31606D02*
X93429Y42606D01*
X67654Y31606D02*
X82429D01*
X67654Y41606D02*
X79394Y53347D01*
Y68106D01*
X90394Y79106D01*
X72894D02*
X90394D01*
X63894Y70106D02*
X72894Y79106D01*
X63894Y60106D02*
Y70106D01*
X90394Y26606D02*
X92394Y24606D01*
X67654Y26606D02*
X90394D01*
X92394Y24606D02*
X92965Y25177D01*
Y34606D01*
X101894Y42606D02*
X101929Y42642D01*
Y52642D01*
X93429Y42606D02*
Y52142D01*
X46394Y41606D02*
X53858D01*
X72358Y60106D01*
X53394D02*
X63894D01*
X46394Y26606D02*
X46429Y26571D01*
Y16106D02*
Y26571D01*
X40858Y31606D02*
X46394D01*
X33894Y24642D02*
X40858Y31606D01*
X33894Y20380D02*
Y24642D01*
Y20380D02*
X46667Y7606D01*
D30*
X58902Y256539D02*
X59449Y257087D01*
X58902Y242713D02*
Y256539D01*
X32280Y255610D02*
X45839Y242051D01*
X7894Y255610D02*
X32280D01*
X16535Y327165D02*
X22047Y332677D01*
X30315D01*
X37795Y332283D02*
X40945Y329134D01*
Y320472D02*
Y329134D01*
Y320472D02*
X42520Y318898D01*
X31496Y332283D02*
X37795D01*
X69713Y198256D02*
Y209925D01*
X73929Y214142D01*
Y215606D01*
D31*
X42134Y77346D02*
X43394Y78606D01*
X8394Y42606D02*
Y66106D01*
X103626Y5823D02*
X183911D01*
X190894Y12806D01*
Y13106D01*
X150394Y238106D02*
X150894Y237606D01*
X130894D02*
X131394Y238106D01*
D32*
X47504Y231496D02*
X48894Y230106D01*
X56787D02*
X59394Y232713D01*
X48894Y230106D02*
X56787D01*
D33*
X8394Y22606D02*
X15394Y29606D01*
X8394Y22606D02*
X9394D01*
X15394Y29606D02*
X21894D01*
X37394Y36606D02*
X46394D01*
X33894Y33106D02*
X37394Y36606D01*
X21894Y29606D02*
X25394Y33106D01*
X33894D01*
D34*
X43307Y299213D02*
X44567Y300472D01*
X43307Y298819D02*
Y299213D01*
X44567Y280630D02*
Y300472D01*
X26756Y299213D02*
X43701D01*
X72496Y214173D02*
X73929Y215606D01*
X67716Y214173D02*
X72496D01*
X35476Y182327D02*
X58661Y205512D01*
X9894Y182327D02*
X35476D01*
X30429Y216142D02*
X42520D01*
X70866Y222835D02*
X75165D01*
X82394Y215606D01*
X231890Y143602D02*
X232894Y144606D01*
X231890Y106496D02*
Y143602D01*
X181496Y56102D02*
X231890Y106496D01*
X121260Y102972D02*
X121394Y103106D01*
X121260Y96063D02*
Y102972D01*
Y96063D02*
X122441Y94882D01*
Y92913D02*
Y94882D01*
X175028Y62571D02*
X181496Y56102D01*
X174894Y62571D02*
X175028D01*
X176378Y47441D02*
X181496Y52559D01*
X176378Y42126D02*
Y47441D01*
X181496Y52559D02*
Y56102D01*
X136394Y71580D02*
Y81650D01*
Y71580D02*
X137992Y69981D01*
Y63583D02*
Y69981D01*
Y63583D02*
X159449Y42126D01*
X217646Y257776D02*
X237158D01*
X217449Y257972D02*
Y259717D01*
X68976Y280787D02*
Y284614D01*
X64961Y276772D02*
X68976Y280787D01*
X48425Y276772D02*
X64961D01*
X44567Y280630D02*
X48425Y276772D01*
X21894Y17476D02*
Y21142D01*
Y17476D02*
X35996Y3374D01*
X50088D01*
X54321Y7606D01*
X55358D01*
X62590Y36606D02*
X67654D01*
X54894Y28909D02*
X62590Y36606D01*
X54894Y16106D02*
Y28909D01*
Y8071D02*
X55358Y7606D01*
X54894Y8071D02*
Y16106D01*
X208268Y211732D02*
X208394Y211606D01*
X208268Y211732D02*
Y225590D01*
X217449Y234772D01*
Y257972D01*
X140894Y237606D02*
Y258142D01*
X131394Y238106D02*
Y259106D01*
D35*
X59449Y241496D02*
D03*
X46457D02*
D03*
D36*
X59449Y231496D02*
D03*
X46457D02*
D03*
D37*
X8394Y42606D02*
D03*
D38*
Y22606D02*
D03*
X125894Y65606D02*
D03*
D39*
X145894D02*
D03*
D40*
X190894Y13106D02*
D03*
X180894D02*
D03*
X170894D02*
D03*
X160894D02*
D03*
X150894D02*
D03*
Y23106D02*
D03*
X160894D02*
D03*
X170894D02*
D03*
X180894D02*
D03*
X190894D02*
D03*
X78894Y122606D02*
D03*
X68894D02*
D03*
X100894Y237606D02*
D03*
X110894D02*
D03*
X120894D02*
D03*
X130894D02*
D03*
X140894D02*
D03*
D41*
X114894Y320106D02*
D03*
Y310106D02*
D03*
X145394Y320106D02*
D03*
Y310106D02*
D03*
D42*
X114894Y300106D02*
D03*
X145394D02*
D03*
D43*
X88894Y122606D02*
D03*
X150894Y237606D02*
D03*
D44*
X8394Y76106D02*
D03*
X8787Y231201D02*
D03*
X43307Y298819D02*
D03*
X176378Y42126D02*
D03*
X159449D02*
D03*
X102488Y132776D02*
D03*
X198721Y257980D02*
D03*
X181890Y321654D02*
D03*
X102756Y5906D02*
D03*
X110630Y50787D02*
D03*
X93827Y89862D02*
D03*
X217449Y257972D02*
D03*
X212894Y300106D02*
D03*
X8394Y287106D02*
D03*
X45894Y324106D02*
D03*
D45*
X8394Y66106D02*
D03*
D46*
X9843Y118898D02*
D03*
X42520Y216142D02*
D03*
X70866Y222835D02*
D03*
X122441Y92913D02*
D03*
D47*
X119685Y125591D02*
D03*
X124594Y141071D02*
D03*
X131287Y109181D02*
D03*
X103150Y153937D02*
D03*
X79921Y134646D02*
D03*
X91524Y137921D02*
D03*
X80106Y153276D02*
D03*
X108846Y98551D02*
D03*
X152547Y55244D02*
D03*
X143492Y46583D02*
D03*
X143886Y30835D02*
D03*
X59449Y257087D02*
D03*
X41972Y318685D02*
D03*
X226563Y226504D02*
D03*
X106878Y211150D02*
D03*
X165146Y263512D02*
D03*
X118295D02*
D03*
X33791Y147630D02*
D03*
X56626Y166921D02*
D03*
X98394Y291106D02*
D03*
X93894Y314106D02*
D03*
X44394Y207106D02*
D03*
X64894Y186606D02*
D03*
X74803Y297244D02*
D03*
X70866Y299606D02*
D03*
X79713Y207606D02*
D03*
X74894D02*
D03*
D48*
X67716Y214173D02*
D03*
X58661Y205512D02*
D03*
D49*
X3543Y298425D02*
D03*
M02*
