M48
;Layer_Color=9474304
;FILE_FORMAT=4:4
METRIC,LZ
;TYPE=PLATED
T1F00S00C0.7112
T2F00S00C0.7620
T3F00S00C0.9000
T4F00S00C1.2000
%
T01
X00397Y005
X00418Y00502
X00433Y00466
X00461Y00481
X0051Y00538
X00575Y00542
X00618Y00577
X00617Y00612
X00654Y00556
X00637Y00764
X0068Y0078
X00592Y00783
X005Y00633
X00473Y00606
X00417Y00617
X00398Y00618
X00415Y00572
X00402Y00539
X00432Y00674
X00381
X00339Y00624
X00345Y00549
X00364
X00355Y005
X00371Y00439
X00312Y00438
X00314Y00699
X00382Y00772
T02
X006Y00327
X00565Y00377
X00663
X00698Y00327
T03
X003137Y003446
X003391
X003645
X003518Y0037
X003264
X00301
T04
X0046Y0087
X0051
X0056
M30
