%FSLAX43Y43*%
%MOMM*%
G71*
G01*
G75*
G04 Layer_Color=65535*
%ADD10R,1.600X0.800*%
%ADD11R,0.800X1.600*%
%ADD12R,1.100X1.250*%
%ADD13R,2.000X1.250*%
%ADD14R,1.250X2.000*%
%ADD15R,1.500X0.300*%
%ADD16R,0.300X1.500*%
%ADD17R,2.000X1.200*%
%ADD18R,5.600X5.600*%
%ADD19R,5.500X2.000*%
%ADD20R,0.950X0.700*%
%ADD21R,1.680X1.520*%
%ADD22C,0.254*%
%ADD23C,0.900*%
%ADD24C,0.800*%
%ADD25C,0.750*%
%ADD26C,1.400*%
%ADD27R,1.500X1.500*%
%ADD28C,1.500*%
%ADD29C,2.000*%
%ADD30C,1.270*%
%ADD31C,1.000*%
%ADD32C,0.200*%
%ADD33C,0.100*%
%ADD34R,0.178X1.473*%
%ADD35R,0.203X1.499*%
D22*
X8525Y20575D02*
G03*
X8525Y20575I-400J0D01*
G01*
X38575Y42725D02*
G03*
X38575Y42725I-300J0D01*
G01*
X6750Y22575D02*
Y23825D01*
Y22575D02*
X8125D01*
X6750Y32575D02*
Y33900D01*
X8125D01*
X18250Y22500D02*
Y23950D01*
X16875Y22500D02*
X18250D01*
Y32575D02*
Y33950D01*
X16875D02*
X18250D01*
X32666Y34233D02*
X32500Y34400D01*
X32167D01*
X32000Y34233D01*
Y33567D01*
X32167Y33400D01*
X32500D01*
X32666Y33567D01*
X33000Y33400D02*
X33333D01*
X33166D01*
Y34400D01*
X33000Y34233D01*
X34499Y34400D02*
X33833D01*
Y33900D01*
X34166Y34066D01*
X34333D01*
X34499Y33900D01*
Y33567D01*
X34333Y33400D01*
X33999D01*
X33833Y33567D01*
X42166Y36633D02*
X42000Y36800D01*
X41667D01*
X41500Y36633D01*
Y35967D01*
X41667Y35800D01*
X42000D01*
X42166Y35967D01*
X42500Y35800D02*
X42833D01*
X42666D01*
Y36800D01*
X42500Y36633D01*
X43833Y35800D02*
Y36800D01*
X43333Y36300D01*
X43999D01*
X9400Y52000D02*
Y51833D01*
X9733Y51500D01*
X10066Y51833D01*
Y52000D01*
X9733Y51500D02*
Y51000D01*
X10400D02*
X10733D01*
X10566D01*
Y52000D01*
X10400Y51833D01*
X28464Y52304D02*
Y51471D01*
X28631Y51304D01*
X28964D01*
X29130Y51471D01*
Y52304D01*
X30130Y51304D02*
X29464D01*
X30130Y51971D01*
Y52137D01*
X29964Y52304D01*
X29630D01*
X29464Y52137D01*
X6198Y36509D02*
Y35676D01*
X6364Y35509D01*
X6697D01*
X6864Y35676D01*
Y36509D01*
X7197Y35509D02*
X7530D01*
X7364D01*
Y36509D01*
X7197Y36342D01*
X32200Y26600D02*
X33200D01*
Y26100D01*
X33033Y25934D01*
X32700D01*
X32533Y26100D01*
Y26600D01*
Y26267D02*
X32200Y25934D01*
Y25100D02*
X33200D01*
X32700Y25600D01*
Y24934D01*
X4700Y15400D02*
X3700D01*
Y15900D01*
X3867Y16066D01*
X4200D01*
X4367Y15900D01*
Y15400D01*
Y15733D02*
X4700Y16066D01*
X3867Y16400D02*
X3700Y16566D01*
Y16900D01*
X3867Y17066D01*
X4034D01*
X4200Y16900D01*
Y16733D01*
Y16900D01*
X4367Y17066D01*
X4533D01*
X4700Y16900D01*
Y16566D01*
X4533Y16400D01*
X2600Y56300D02*
X1500D01*
Y56850D01*
X1684Y57033D01*
X2050D01*
X2233Y56850D01*
Y56300D01*
Y56667D02*
X2600Y57033D01*
Y58133D02*
Y57400D01*
X1867Y58133D01*
X1684D01*
X1500Y57949D01*
Y57583D01*
X1684Y57400D01*
X11100Y56300D02*
X10000D01*
Y56850D01*
X10184Y57033D01*
X10550D01*
X10733Y56850D01*
Y56300D01*
Y56667D02*
X11100Y57033D01*
Y58133D02*
Y57400D01*
X10367Y58133D01*
X10184D01*
X10000Y57949D01*
Y57583D01*
X10184Y57400D01*
X37000Y56600D02*
X35900D01*
Y57150D01*
X36084Y57333D01*
X36450D01*
X36633Y57150D01*
Y56600D01*
Y56967D02*
X37000Y57333D01*
Y58433D02*
Y57700D01*
X36267Y58433D01*
X36084D01*
X35900Y58249D01*
Y57883D01*
X36084Y57700D01*
X43900Y56600D02*
X42800D01*
Y57150D01*
X42984Y57333D01*
X43350D01*
X43533Y57150D01*
Y56600D01*
Y56967D02*
X43900Y57333D01*
Y58433D02*
Y57700D01*
X43167Y58433D01*
X42984D01*
X42800Y58249D01*
Y57883D01*
X42984Y57700D01*
X18500Y53800D02*
Y54800D01*
X19000D01*
X19166Y54633D01*
Y54300D01*
X19000Y54133D01*
X18500D01*
X18833D02*
X19166Y53800D01*
X19500D02*
X19833D01*
X19666D01*
Y54800D01*
X19500Y54633D01*
X29794Y15418D02*
Y16417D01*
X30294D01*
X30461Y16251D01*
Y15918D01*
X30294Y15751D01*
X29794D01*
X31460Y15418D02*
X30794D01*
X31460Y16084D01*
Y16251D01*
X31294Y16417D01*
X30960D01*
X30794Y16251D01*
X39599Y15418D02*
Y16417D01*
X40098D01*
X40265Y16251D01*
Y15918D01*
X40098Y15751D01*
X39599D01*
X40598Y15418D02*
X40931D01*
X40765D01*
Y16417D01*
X40598Y16251D01*
X3410Y14614D02*
X3076D01*
X3243D01*
Y13781D01*
X3076Y13614D01*
X2910D01*
X2743Y13781D01*
X3743Y13614D02*
X4076D01*
X3909D01*
Y14614D01*
X3743Y14447D01*
X42066Y33000D02*
X41400D01*
Y32500D01*
X41733D01*
X41400D01*
Y32000D01*
X42400Y33000D02*
Y32000D01*
X42900D01*
X43066Y32167D01*
Y32333D01*
X42900Y32500D01*
X42400D01*
X42900D01*
X43066Y32666D01*
Y32833D01*
X42900Y33000D01*
X42400D01*
X43399Y32000D02*
X43733D01*
X43566D01*
Y33000D01*
X43399Y32833D01*
X28005Y22390D02*
Y21390D01*
X28505D01*
X28672Y21557D01*
Y22223D01*
X28505Y22390D01*
X28005D01*
X29505Y21390D02*
Y22390D01*
X29005Y21890D01*
X29672D01*
X33266Y24325D02*
Y23325D01*
X33766D01*
X33933Y23492D01*
Y24158D01*
X33766Y24325D01*
X33266D01*
X34266Y24158D02*
X34432Y24325D01*
X34766D01*
X34932Y24158D01*
Y23991D01*
X34766Y23825D01*
X34599D01*
X34766D01*
X34932Y23658D01*
Y23492D01*
X34766Y23325D01*
X34432D01*
X34266Y23492D01*
X43369Y24223D02*
Y23223D01*
X43869D01*
X44035Y23390D01*
Y24056D01*
X43869Y24223D01*
X43369D01*
X45035Y23223D02*
X44369D01*
X45035Y23890D01*
Y24056D01*
X44869Y24223D01*
X44535D01*
X44369Y24056D01*
X1700Y61100D02*
X2800D01*
Y61650D01*
X2617Y61833D01*
X1884D01*
X1700Y61650D01*
Y61100D01*
X2800Y62200D02*
Y62566D01*
Y62383D01*
X1700D01*
X1884Y62200D01*
X10000Y61100D02*
X11100D01*
Y61650D01*
X10917Y61833D01*
X10184D01*
X10000Y61650D01*
Y61100D01*
X11100Y62200D02*
Y62566D01*
Y62383D01*
X10000D01*
X10184Y62200D01*
X35600Y61700D02*
X36700D01*
Y62250D01*
X36517Y62433D01*
X35784D01*
X35600Y62250D01*
Y61700D01*
X36700Y62800D02*
Y63166D01*
Y62983D01*
X35600D01*
X35784Y62800D01*
X42700Y61800D02*
X43800D01*
Y62350D01*
X43617Y62533D01*
X42884D01*
X42700Y62350D01*
Y61800D01*
X43800Y62900D02*
Y63266D01*
Y63083D01*
X42700D01*
X42884Y62900D01*
X35966Y40733D02*
X35800Y40900D01*
X35467D01*
X35300Y40733D01*
Y40067D01*
X35467Y39900D01*
X35800D01*
X35966Y40067D01*
X36300Y39900D02*
X36633D01*
X36466D01*
Y40900D01*
X36300Y40733D01*
X37133D02*
X37299Y40900D01*
X37633D01*
X37799Y40733D01*
Y40566D01*
X37633Y40400D01*
X37466D01*
X37633D01*
X37799Y40233D01*
Y40067D01*
X37633Y39900D01*
X37299D01*
X37133Y40067D01*
X44688Y52006D02*
X44521Y52172D01*
X44188D01*
X44021Y52006D01*
Y51339D01*
X44188Y51173D01*
X44521D01*
X44688Y51339D01*
X45021Y51173D02*
X45354D01*
X45188D01*
Y52172D01*
X45021Y52006D01*
X46521Y51173D02*
X45854D01*
X46521Y51839D01*
Y52006D01*
X46354Y52172D01*
X46021D01*
X45854Y52006D01*
X40602Y28195D02*
X40435Y28362D01*
X40102D01*
X39935Y28195D01*
Y27529D01*
X40102Y27362D01*
X40435D01*
X40602Y27529D01*
X40935Y27362D02*
X41268D01*
X41101D01*
Y28362D01*
X40935Y28195D01*
X41768Y27362D02*
X42101D01*
X41935D01*
Y28362D01*
X41768Y28195D01*
X3730Y35391D02*
X3564Y35558D01*
X3231D01*
X3064Y35391D01*
Y34725D01*
X3231Y34558D01*
X3564D01*
X3730Y34725D01*
X4064Y34558D02*
X4397D01*
X4230D01*
Y35558D01*
X4064Y35391D01*
X4897D02*
X5063Y35558D01*
X5397D01*
X5563Y35391D01*
Y34725D01*
X5397Y34558D01*
X5063D01*
X4897Y34725D01*
Y35391D01*
X2066Y43833D02*
X1900Y44000D01*
X1567D01*
X1400Y43833D01*
Y43167D01*
X1567Y43000D01*
X1900D01*
X2066Y43167D01*
X2400D02*
X2566Y43000D01*
X2900D01*
X3066Y43167D01*
Y43833D01*
X2900Y44000D01*
X2566D01*
X2400Y43833D01*
Y43666D01*
X2566Y43500D01*
X3066D01*
X9167Y38766D02*
X9000Y38600D01*
Y38267D01*
X9167Y38100D01*
X9833D01*
X10000Y38267D01*
Y38600D01*
X9833Y38766D01*
X9167Y39100D02*
X9000Y39266D01*
Y39600D01*
X9167Y39766D01*
X9334D01*
X9500Y39600D01*
X9667Y39766D01*
X9833D01*
X10000Y39600D01*
Y39266D01*
X9833Y39100D01*
X9667D01*
X9500Y39266D01*
X9334Y39100D01*
X9167D01*
X9500Y39266D02*
Y39600D01*
X18966Y38833D02*
X18800Y39000D01*
X18467D01*
X18300Y38833D01*
Y38167D01*
X18467Y38000D01*
X18800D01*
X18966Y38167D01*
X19300Y39000D02*
X19966D01*
Y38833D01*
X19300Y38167D01*
Y38000D01*
X23166Y25433D02*
X23000Y25600D01*
X22667D01*
X22500Y25433D01*
Y24767D01*
X22667Y24600D01*
X23000D01*
X23166Y24767D01*
X24166Y25600D02*
X23833Y25433D01*
X23500Y25100D01*
Y24767D01*
X23666Y24600D01*
X24000D01*
X24166Y24767D01*
Y24933D01*
X24000Y25100D01*
X23500D01*
X3566Y26533D02*
X3400Y26700D01*
X3067D01*
X2900Y26533D01*
Y25867D01*
X3067Y25700D01*
X3400D01*
X3566Y25867D01*
X4566Y26700D02*
X3900D01*
Y26200D01*
X4233Y26366D01*
X4400D01*
X4566Y26200D01*
Y25867D01*
X4400Y25700D01*
X4066D01*
X3900Y25867D01*
X22966Y33133D02*
X22800Y33300D01*
X22467D01*
X22300Y33133D01*
Y32467D01*
X22467Y32300D01*
X22800D01*
X22966Y32467D01*
X23800Y32300D02*
Y33300D01*
X23300Y32800D01*
X23966D01*
X20966Y38333D02*
X20800Y38500D01*
X20467D01*
X20300Y38333D01*
Y37667D01*
X20467Y37500D01*
X20800D01*
X20966Y37667D01*
X21300Y38333D02*
X21466Y38500D01*
X21800D01*
X21966Y38333D01*
Y38166D01*
X21800Y38000D01*
X21633D01*
X21800D01*
X21966Y37833D01*
Y37667D01*
X21800Y37500D01*
X21466D01*
X21300Y37667D01*
X22966Y29733D02*
X22800Y29900D01*
X22467D01*
X22300Y29733D01*
Y29067D01*
X22467Y28900D01*
X22800D01*
X22966Y29067D01*
X23966Y28900D02*
X23300D01*
X23966Y29566D01*
Y29733D01*
X23800Y29900D01*
X23466D01*
X23300Y29733D01*
X16966Y19133D02*
X16800Y19300D01*
X16467D01*
X16300Y19133D01*
Y18467D01*
X16467Y18300D01*
X16800D01*
X16966Y18467D01*
X17300Y18300D02*
X17633D01*
X17466D01*
Y19300D01*
X17300Y19133D01*
X42800Y54900D02*
Y53900D01*
X43466D01*
X44466Y54900D02*
X43800D01*
Y53900D01*
X44466D01*
X43800Y54400D02*
X44133D01*
X44799Y54900D02*
Y53900D01*
X45299D01*
X45466Y54067D01*
Y54733D01*
X45299Y54900D01*
X44799D01*
X45799Y54733D02*
X45966Y54900D01*
X46299D01*
X46465Y54733D01*
Y54067D01*
X46299Y53900D01*
X45966D01*
X45799Y54067D01*
Y54733D01*
X35700Y54800D02*
Y53800D01*
X36366D01*
X37366Y54800D02*
X36700D01*
Y53800D01*
X37366D01*
X36700Y54300D02*
X37033D01*
X37699Y54800D02*
Y53800D01*
X38199D01*
X38366Y53967D01*
Y54633D01*
X38199Y54800D01*
X37699D01*
X38699Y53800D02*
X39032D01*
X38866D01*
Y54800D01*
X38699Y54633D01*
X10000Y54700D02*
Y53700D01*
X10666D01*
X11666Y54700D02*
X11000D01*
Y53700D01*
X11666D01*
X11000Y54200D02*
X11333D01*
X11999Y54700D02*
Y53700D01*
X12499D01*
X12666Y53867D01*
Y54533D01*
X12499Y54700D01*
X11999D01*
X13665Y53700D02*
X12999D01*
X13665Y54366D01*
Y54533D01*
X13499Y54700D01*
X13166D01*
X12999Y54533D01*
X1300Y54700D02*
Y53700D01*
X1966D01*
X2966Y54700D02*
X2300D01*
Y53700D01*
X2966D01*
X2300Y54200D02*
X2633D01*
X3299Y54700D02*
Y53700D01*
X3799D01*
X3966Y53867D01*
Y54533D01*
X3799Y54700D01*
X3299D01*
X4299Y54533D02*
X4466Y54700D01*
X4799D01*
X4965Y54533D01*
Y54366D01*
X4799Y54200D01*
X4632D01*
X4799D01*
X4965Y54033D01*
Y53867D01*
X4799Y53700D01*
X4466D01*
X4299Y53867D01*
X22100Y53900D02*
Y54900D01*
X22600D01*
X22766Y54733D01*
Y54400D01*
X22600Y54233D01*
X22100D01*
X23600Y54900D02*
X23266D01*
X23100Y54733D01*
Y54067D01*
X23266Y53900D01*
X23600D01*
X23766Y54067D01*
Y54733D01*
X23600Y54900D01*
X24099D02*
X24766D01*
X24433D01*
Y53900D01*
X25099D02*
Y54566D01*
X25432Y54900D01*
X25765Y54566D01*
Y53900D01*
Y54400D01*
X25099D01*
X26099Y53900D02*
Y54900D01*
X26599D01*
X26765Y54733D01*
Y54400D01*
X26599Y54233D01*
X26099D01*
X26432D02*
X26765Y53900D01*
X27098Y54900D02*
Y53900D01*
X27598D01*
X27765Y54067D01*
Y54733D01*
X27598Y54900D01*
X27098D01*
D32*
X44600Y57300D02*
Y58000D01*
X45800Y57300D02*
Y58000D01*
X3500Y57100D02*
Y57800D01*
X4700Y57100D02*
Y57800D01*
X11900Y57200D02*
Y57900D01*
X13100Y57200D02*
Y57900D01*
X37800Y57300D02*
Y58000D01*
X39000Y57300D02*
Y58000D01*
X29700Y25300D02*
X30400D01*
X29700Y26500D02*
X30400D01*
X6300Y14600D02*
X7000D01*
X6300Y15800D02*
X7000D01*
D33*
X44892Y64140D02*
X45908D01*
X3592Y63740D02*
X4608D01*
X11892D02*
X12908D01*
X37892Y63840D02*
X38908D01*
X27892Y17360D02*
X28908D01*
X13387Y100D02*
Y12794D01*
X2541Y100D02*
Y12794D01*
X13387D01*
X39400Y14600D02*
X46400D01*
Y2600D02*
Y14600D01*
X39400Y2600D02*
X46400D01*
X39400D02*
Y14600D01*
X29600D02*
X36600D01*
Y2600D02*
Y14600D01*
X29600Y2600D02*
X36600D01*
X29600D02*
Y14600D01*
X34600Y50500D02*
X36100D01*
Y43600D02*
Y50500D01*
X34600Y43600D02*
X36100D01*
X17100Y55600D02*
X34100D01*
X17100D02*
Y65100D01*
X34100Y55600D02*
Y65100D01*
X17100D02*
X22600D01*
X22603Y65103D01*
X22600Y65100D02*
Y71600D01*
X28496Y65100D02*
X34100D01*
X28496D02*
Y71600D01*
X22600D02*
X23100D01*
X28100D02*
X28496D01*
X23100D02*
Y79600D01*
X28100Y71600D02*
Y79600D01*
X23100D02*
X28100D01*
X7900Y43200D02*
X20300D01*
X7900D02*
Y45400D01*
X20300Y43200D02*
Y45300D01*
X7800Y50200D02*
X20300D01*
Y48075D02*
Y50200D01*
X7800Y48075D02*
Y50200D01*
X43055Y20838D02*
X43233D01*
Y22311D01*
X43055D02*
X43233D01*
X43055Y17663D02*
Y22311D01*
Y17663D02*
X43309D01*
X45367Y20813D02*
X45570D01*
X45367D02*
Y22311D01*
X45570D01*
Y17638D02*
Y22311D01*
X45291Y17638D02*
X45570D01*
X35191Y17738D02*
X35470D01*
Y22411D01*
X35267D02*
X35470D01*
X35267Y20913D02*
Y22411D01*
Y20913D02*
X35470D01*
X32955Y17763D02*
X33209D01*
X32955D02*
Y22411D01*
X33133D01*
Y20938D02*
Y22411D01*
X32955Y20938D02*
X33133D01*
D34*
X43144Y21575D02*
D03*
X33044Y21675D02*
D03*
D35*
X45468Y21562D02*
D03*
X35368Y21662D02*
D03*
M02*
