%FSLAX44Y44*%
%MOMM*%
G71*
G01*
G75*
G04 Layer_Physical_Order=2*
G04 Layer_Color=16711680*
%ADD10R,1.6000X0.8000*%
%ADD11R,0.8000X1.6000*%
%ADD12R,1.1000X1.2500*%
%ADD13R,2.0000X1.2500*%
%ADD14R,1.2500X2.0000*%
%ADD15R,1.5000X0.3000*%
%ADD16R,0.3000X1.5000*%
%ADD17R,2.0000X1.2000*%
%ADD18R,5.6000X5.6000*%
%ADD19R,5.5000X2.0000*%
%ADD20R,0.9500X0.7000*%
%ADD21R,1.6800X1.5200*%
%ADD22C,0.2540*%
%ADD23C,0.9000*%
%ADD24C,0.8000*%
%ADD25C,0.7500*%
%ADD26C,1.4000*%
%ADD27R,1.5000X1.5000*%
%ADD28C,1.5000*%
%ADD29C,2.0000*%
%ADD30C,1.2700*%
%ADD31C,1.0000*%
D22*
X58000Y184000D02*
X116000D01*
X117000Y185000D01*
X60000Y326000D02*
X91000Y295000D01*
X178000Y378000D02*
Y420000D01*
X163000Y363000D02*
X178000Y378000D01*
X127000Y420000D02*
X144000Y403000D01*
Y364000D02*
Y403000D01*
X89380Y518000D02*
X128000D01*
X48380Y307015D02*
Y477000D01*
X89380Y518000D01*
X60000Y326000D02*
Y445000D01*
X48380Y307015D02*
X70395Y285000D01*
X154000Y598000D02*
X185270Y629270D01*
X322730D01*
X426000Y526000D01*
X85000Y370000D02*
Y409000D01*
X154000Y478000D01*
Y598000D01*
X363000Y324000D02*
X364000Y323000D01*
X256000Y284000D02*
Y616000D01*
X196380Y219000D02*
X202380Y213000D01*
X208605D01*
X207000Y227000D02*
Y615000D01*
X206000Y616000D02*
X207000Y615000D01*
X196380Y219000D02*
Y282620D01*
X208605Y213000D02*
X316620Y321015D01*
Y473620D01*
X161000Y318000D02*
X196380Y282620D01*
X179000Y182676D02*
Y212000D01*
X100000Y285000D02*
X110000Y295000D01*
X70395Y285000D02*
X100000D01*
X109000Y290000D02*
X110000Y291000D01*
X90000Y295000D02*
X91000D01*
X219000Y352000D02*
X246000Y379000D01*
X306000Y616000D02*
X383000Y539000D01*
Y510000D02*
Y539000D01*
X128000Y518000D02*
Y519000D01*
X338000Y495000D02*
Y529000D01*
X316620Y473620D02*
X338000Y495000D01*
X321000Y288000D02*
X386000D01*
X400000Y302000D01*
X85100Y90600D02*
X86924D01*
X179000Y182676D01*
X97800Y116000D02*
X164000Y182200D01*
Y248000D01*
X143000Y246000D02*
Y280000D01*
X148000Y285000D01*
X101000Y246000D02*
X143000D01*
D24*
X363000Y324000D02*
Y358000D01*
D26*
X47000Y116000D02*
D03*
X59700Y90600D02*
D03*
X110500D02*
D03*
X72400Y116000D02*
D03*
X85100Y90600D02*
D03*
X97800Y116000D02*
D03*
D29*
X256000Y616000D02*
D03*
X306000D02*
D03*
X206000D02*
D03*
D30*
X58000Y184000D02*
D03*
X163000Y363000D02*
D03*
X60000Y445000D02*
D03*
X364000Y323000D02*
D03*
X256000Y284000D02*
D03*
X207000Y227000D02*
D03*
X179000Y212000D02*
D03*
X110000Y295000D02*
D03*
X91000D02*
D03*
X246000Y379000D02*
D03*
X219000Y352000D02*
D03*
X383000Y510000D02*
D03*
X128000Y518000D02*
D03*
X161000Y318000D02*
D03*
X85000Y370000D02*
D03*
X338000Y529000D02*
D03*
X426000Y526000D02*
D03*
X144000Y364000D02*
D03*
X127000Y420000D02*
D03*
X178000D02*
D03*
X363000Y358000D02*
D03*
X321000Y288000D02*
D03*
X400000Y302000D02*
D03*
X117000Y185000D02*
D03*
X164000Y248000D02*
D03*
X143000Y246000D02*
D03*
X148000Y285000D02*
D03*
X101000Y246000D02*
D03*
D31*
X444000Y73000D02*
D03*
X409000Y123000D02*
D03*
X346000Y73000D02*
D03*
X311000Y123000D02*
D03*
M02*
