%FSLAX44Y44*%
%MOMM*%
G71*
G01*
G75*
G04 Layer_Color=16711935*
%ADD10R,1.6000X0.8000*%
%ADD11R,0.8000X1.6000*%
%ADD12R,1.1000X1.2500*%
%ADD13R,2.0000X1.2500*%
%ADD14R,1.2500X2.0000*%
%ADD15R,1.5000X0.3000*%
%ADD16R,0.3000X1.5000*%
%ADD17R,2.0000X1.2000*%
%ADD18R,5.6000X5.6000*%
%ADD19R,5.5000X2.0000*%
%ADD20R,0.9500X0.7000*%
%ADD21R,1.6800X1.5200*%
%ADD22C,0.2540*%
%ADD23C,0.9000*%
%ADD24C,0.8000*%
%ADD25C,0.7500*%
%ADD26C,1.4000*%
%ADD27R,1.5000X1.5000*%
%ADD28C,1.5000*%
%ADD29C,2.0000*%
%ADD30C,1.2700*%
%ADD31C,1.0000*%
%ADD32C,0.2000*%
%ADD33C,0.1000*%
%ADD34R,0.1778X1.4732*%
%ADD35R,0.2032X1.4986*%
%ADD36R,1.8032X1.0032*%
%ADD37R,1.0032X1.8032*%
%ADD38R,1.3032X1.4532*%
%ADD39R,2.2032X1.4532*%
%ADD40R,1.4532X2.2032*%
%ADD41R,1.7032X0.5032*%
%ADD42R,0.5032X1.7032*%
%ADD43R,2.2032X1.4032*%
%ADD44R,5.8032X5.8032*%
%ADD45R,5.7032X2.2032*%
%ADD46R,1.1532X0.9032*%
%ADD47R,1.8832X1.7232*%
%ADD48C,1.6032*%
%ADD49R,1.7032X1.7032*%
%ADD50C,1.7032*%
%ADD51C,2.2032*%
%ADD52C,1.4732*%
%ADD53C,1.2032*%
D48*
X47000Y116000D02*
D03*
X59700Y90600D02*
D03*
X110500D02*
D03*
X72400Y116000D02*
D03*
X85100Y90600D02*
D03*
X97800Y116000D02*
D03*
D51*
X256000Y616000D02*
D03*
X306000D02*
D03*
X206000D02*
D03*
D52*
X58000Y184000D02*
D03*
X163000Y363000D02*
D03*
X60000Y445000D02*
D03*
X364000Y323000D02*
D03*
X256000Y284000D02*
D03*
X207000Y227000D02*
D03*
X179000Y212000D02*
D03*
X110000Y295000D02*
D03*
X91000D02*
D03*
X246000Y379000D02*
D03*
X219000Y352000D02*
D03*
X383000Y510000D02*
D03*
X128000Y518000D02*
D03*
X161000Y318000D02*
D03*
X85000Y370000D02*
D03*
X338000Y529000D02*
D03*
X426000Y526000D02*
D03*
X144000Y364000D02*
D03*
X127000Y420000D02*
D03*
X178000D02*
D03*
X363000Y358000D02*
D03*
X321000Y288000D02*
D03*
X400000Y302000D02*
D03*
X117000Y185000D02*
D03*
X164000Y248000D02*
D03*
X143000Y246000D02*
D03*
X148000Y285000D02*
D03*
X101000Y246000D02*
D03*
D53*
X444000Y73000D02*
D03*
X409000Y123000D02*
D03*
X346000Y73000D02*
D03*
X311000Y123000D02*
D03*
M02*
