%FSLAX44Y44*%
%MOMM*%
G71*
G01*
G75*
G04 Layer_Color=65535*
%ADD10R,1.6800X1.5200*%
%ADD11R,0.9500X0.7000*%
%ADD12R,0.8000X1.6000*%
%ADD13R,1.2500X2.0000*%
%ADD14R,1.6000X0.8000*%
%ADD15R,5.5000X2.0000*%
%ADD16R,5.6000X5.6000*%
%ADD17R,2.0000X1.2000*%
%ADD18R,0.3000X1.5000*%
%ADD19R,1.5000X0.3000*%
%ADD20R,1.1000X1.2500*%
%ADD21R,2.0000X1.2500*%
%ADD22C,0.2540*%
%ADD23C,0.2900*%
%ADD24C,2.0000*%
%ADD25C,1.5000*%
%ADD26R,1.5000X1.5000*%
%ADD27C,1.4000*%
%ADD28C,1.2700*%
%ADD29C,1.0000*%
%ADD30C,0.1000*%
%ADD31C,0.2000*%
%ADD32R,0.1778X1.4732*%
%ADD33R,0.2032X1.4986*%
D22*
X385750Y427250D02*
G03*
X385750Y427250I-3000J0D01*
G01*
X85250Y205750D02*
G03*
X85250Y205750I-4000J0D01*
G01*
X168750Y339500D02*
X182500D01*
Y325750D02*
Y339500D01*
X168750Y225000D02*
X182500D01*
Y239500D01*
X67500Y339000D02*
X81250D01*
X67500Y325750D02*
Y339000D01*
Y225750D02*
X81250D01*
X67500D02*
Y238250D01*
X420664Y329997D02*
X414000D01*
Y324998D01*
X417332D01*
X414000D01*
Y320000D01*
X423997Y329997D02*
Y320000D01*
X428995D01*
X430661Y321666D01*
Y323332D01*
X428995Y324998D01*
X423997D01*
X428995D01*
X430661Y326665D01*
Y328331D01*
X428995Y329997D01*
X423997D01*
X433994Y320000D02*
X437326D01*
X435660D01*
Y329997D01*
X433994Y328331D01*
X47000Y154000D02*
X37003D01*
Y158998D01*
X38669Y160665D01*
X42002D01*
X43668Y158998D01*
Y154000D01*
Y157332D02*
X47000Y160665D01*
X38669Y163997D02*
X37003Y165663D01*
Y168995D01*
X38669Y170661D01*
X40335D01*
X42002Y168995D01*
Y167329D01*
Y168995D01*
X43668Y170661D01*
X45334D01*
X47000Y168995D01*
Y165663D01*
X45334Y163997D01*
X98665Y168331D02*
X96998Y169997D01*
X93666D01*
X92000Y168331D01*
Y161666D01*
X93666Y160000D01*
X96998D01*
X98665Y161666D01*
X101997Y160000D02*
X105329D01*
X103663D01*
Y169997D01*
X101997Y168331D01*
X20665Y438331D02*
X18998Y439997D01*
X15666D01*
X14000Y438331D01*
Y431666D01*
X15666Y430000D01*
X18998D01*
X20665Y431666D01*
X23997D02*
X25663Y430000D01*
X28995D01*
X30661Y431666D01*
Y438331D01*
X28995Y439997D01*
X25663D01*
X23997Y438331D01*
Y436665D01*
X25663Y434998D01*
X30661D01*
X245665Y282331D02*
X243998Y283997D01*
X240666D01*
X239000Y282331D01*
Y275666D01*
X240666Y274000D01*
X243998D01*
X245665Y275666D01*
X255661Y283997D02*
X252329Y282331D01*
X248997Y278998D01*
Y275666D01*
X250663Y274000D01*
X253995D01*
X255661Y275666D01*
Y277332D01*
X253995Y278998D01*
X248997D01*
X252665Y397331D02*
X250998Y398997D01*
X247666D01*
X246000Y397331D01*
Y390666D01*
X247666Y389000D01*
X250998D01*
X252665Y390666D01*
X255997Y397331D02*
X257663Y398997D01*
X260995D01*
X262661Y397331D01*
Y395664D01*
X260995Y393998D01*
X259329D01*
X260995D01*
X262661Y392332D01*
Y390666D01*
X260995Y389000D01*
X257663D01*
X255997Y390666D01*
X238664Y352331D02*
X236998Y353997D01*
X233666D01*
X232000Y352331D01*
Y345666D01*
X233666Y344000D01*
X236998D01*
X238664Y345666D01*
X246995Y344000D02*
Y353997D01*
X241997Y348998D01*
X248661D01*
X189664Y388331D02*
X187998Y389997D01*
X184666D01*
X183000Y388331D01*
Y381666D01*
X184666Y380000D01*
X187998D01*
X189664Y381666D01*
X192997Y389997D02*
X199661D01*
Y388331D01*
X192997Y381666D01*
Y380000D01*
X91669Y387664D02*
X90003Y385998D01*
Y382666D01*
X91669Y381000D01*
X98334D01*
X100000Y382666D01*
Y385998D01*
X98334Y387664D01*
X91669Y390997D02*
X90003Y392663D01*
Y395995D01*
X91669Y397661D01*
X93336D01*
X95002Y395995D01*
X96668Y397661D01*
X98334D01*
X100000Y395995D01*
Y392663D01*
X98334Y390997D01*
X96668D01*
X95002Y392663D01*
X93336Y390997D01*
X91669D01*
X95002Y392663D02*
Y395995D01*
X94000Y519997D02*
Y518331D01*
X97332Y514998D01*
X100665Y518331D01*
Y519997D01*
X97332Y514998D02*
Y510000D01*
X103997D02*
X107329D01*
X105663D01*
Y519997D01*
X103997Y518331D01*
X185000Y538000D02*
Y547997D01*
X189998D01*
X191665Y546331D01*
Y542998D01*
X189998Y541332D01*
X185000D01*
X188332D02*
X191665Y538000D01*
X194997D02*
X198329D01*
X196663D01*
Y547997D01*
X194997Y546331D01*
X221000Y539000D02*
Y548997D01*
X225998D01*
X227665Y547331D01*
Y543998D01*
X225998Y542332D01*
X221000D01*
X235995Y548997D02*
X232663D01*
X230997Y547331D01*
Y540666D01*
X232663Y539000D01*
X235995D01*
X237661Y540666D01*
Y547331D01*
X235995Y548997D01*
X240993D02*
X247658D01*
X244326D01*
Y539000D01*
X250990D02*
Y545664D01*
X254323Y548997D01*
X257655Y545664D01*
Y539000D01*
Y543998D01*
X250990D01*
X260987Y539000D02*
Y548997D01*
X265986D01*
X267652Y547331D01*
Y543998D01*
X265986Y542332D01*
X260987D01*
X264319D02*
X267652Y539000D01*
X270984Y548997D02*
Y539000D01*
X275982D01*
X277648Y540666D01*
Y547331D01*
X275982Y548997D01*
X270984D01*
X284640Y523041D02*
Y514710D01*
X286306Y513044D01*
X289638D01*
X291304Y514710D01*
Y523041D01*
X301301Y513044D02*
X294637D01*
X301301Y519709D01*
Y521375D01*
X299635Y523041D01*
X296303D01*
X294637Y521375D01*
X61976Y365089D02*
Y356758D01*
X63642Y355092D01*
X66974D01*
X68640Y356758D01*
Y365089D01*
X71973Y355092D02*
X75305D01*
X73639D01*
Y365089D01*
X71973Y363423D01*
X297942Y154178D02*
Y164175D01*
X302940D01*
X304606Y162509D01*
Y159176D01*
X302940Y157510D01*
X297942D01*
X314603Y154178D02*
X307939D01*
X314603Y160842D01*
Y162509D01*
X312937Y164175D01*
X309605D01*
X307939Y162509D01*
X395986Y154178D02*
Y164175D01*
X400984D01*
X402650Y162509D01*
Y159176D01*
X400984Y157510D01*
X395986D01*
X405983Y154178D02*
X409315D01*
X407649D01*
Y164175D01*
X405983Y162509D01*
X34097Y146141D02*
X30764D01*
X32430D01*
Y137810D01*
X30764Y136144D01*
X29098D01*
X27432Y137810D01*
X37429Y136144D02*
X40761D01*
X39095D01*
Y146141D01*
X37429Y144475D01*
X280054Y223897D02*
Y213900D01*
X285052D01*
X286719Y215566D01*
Y222231D01*
X285052Y223897D01*
X280054D01*
X295049Y213900D02*
Y223897D01*
X290051Y218898D01*
X296715D01*
X332662Y243247D02*
Y233250D01*
X337660D01*
X339327Y234916D01*
Y241581D01*
X337660Y243247D01*
X332662D01*
X342659Y241581D02*
X344325Y243247D01*
X347657D01*
X349323Y241581D01*
Y239914D01*
X347657Y238248D01*
X345991D01*
X347657D01*
X349323Y236582D01*
Y234916D01*
X347657Y233250D01*
X344325D01*
X342659Y234916D01*
X440690Y231231D02*
Y221234D01*
X445688D01*
X447355Y222900D01*
Y229565D01*
X445688Y231231D01*
X440690D01*
X457351Y221234D02*
X450687D01*
X457351Y227899D01*
Y229565D01*
X455685Y231231D01*
X452353D01*
X450687Y229565D01*
X333274Y341785D02*
X331608Y343451D01*
X328276D01*
X326610Y341785D01*
Y335120D01*
X328276Y333454D01*
X331608D01*
X333274Y335120D01*
X336607Y333454D02*
X339939D01*
X338273D01*
Y343451D01*
X336607Y341785D01*
X351602Y343451D02*
X344937D01*
Y338452D01*
X348270Y340118D01*
X349936D01*
X351602Y338452D01*
Y335120D01*
X349936Y333454D01*
X346604D01*
X344937Y335120D01*
X442286Y383563D02*
X440620Y385229D01*
X437288D01*
X435622Y383563D01*
Y376898D01*
X437288Y375232D01*
X440620D01*
X442286Y376898D01*
X445619Y375232D02*
X448951D01*
X447285D01*
Y385229D01*
X445619Y383563D01*
X458948Y375232D02*
Y385229D01*
X453949Y380230D01*
X460614D01*
X463879Y519057D02*
X462212Y520723D01*
X458880D01*
X457214Y519057D01*
Y512392D01*
X458880Y510726D01*
X462212D01*
X463879Y512392D01*
X467211Y510726D02*
X470543D01*
X468877D01*
Y520723D01*
X467211Y519057D01*
X482206Y510726D02*
X475541D01*
X482206Y517391D01*
Y519057D01*
X480540Y520723D01*
X477208D01*
X475541Y519057D01*
X410017Y269951D02*
X408350Y271617D01*
X405018D01*
X403352Y269951D01*
Y263286D01*
X405018Y261620D01*
X408350D01*
X410017Y263286D01*
X413349Y261620D02*
X416681D01*
X415015D01*
Y271617D01*
X413349Y269951D01*
X421679Y261620D02*
X425012D01*
X423346D01*
Y271617D01*
X421679Y269951D01*
X37304Y353913D02*
X35638Y355579D01*
X32306D01*
X30640Y353913D01*
Y347248D01*
X32306Y345582D01*
X35638D01*
X37304Y347248D01*
X40637Y345582D02*
X43969D01*
X42303D01*
Y355579D01*
X40637Y353913D01*
X48967D02*
X50634Y355579D01*
X53966D01*
X55632Y353913D01*
Y347248D01*
X53966Y345582D01*
X50634D01*
X48967Y347248D01*
Y353913D01*
X21335Y244669D02*
X23002Y243003D01*
X26334D01*
X28000Y244669D01*
Y251334D01*
X26334Y253000D01*
X23002D01*
X21335Y251334D01*
X11339Y243003D02*
X18003D01*
Y248002D01*
X14671Y246336D01*
X13005D01*
X11339Y248002D01*
Y251334D01*
X13005Y253000D01*
X16337D01*
X18003Y251334D01*
X297665Y389331D02*
X295998Y390997D01*
X292666D01*
X291000Y389331D01*
Y382666D01*
X292666Y381000D01*
X295998D01*
X297665Y382666D01*
X300997Y381000D02*
X304329D01*
X302663D01*
Y390997D01*
X300997Y389331D01*
X309327D02*
X310994Y390997D01*
X314326D01*
X315992Y389331D01*
Y387664D01*
X314326Y385998D01*
X312660D01*
X314326D01*
X315992Y384332D01*
Y382666D01*
X314326Y381000D01*
X310994D01*
X309327Y382666D01*
X260665Y319331D02*
X258998Y320997D01*
X255666D01*
X254000Y319331D01*
Y312666D01*
X255666Y311000D01*
X258998D01*
X260665Y312666D01*
X270661Y311000D02*
X263997D01*
X270661Y317665D01*
Y319331D01*
X268995Y320997D01*
X265663D01*
X263997Y319331D01*
X322000Y266000D02*
X331997D01*
Y261002D01*
X330331Y259335D01*
X326998D01*
X325332Y261002D01*
Y266000D01*
Y262668D02*
X322000Y259335D01*
Y251005D02*
X331997D01*
X326998Y256003D01*
Y249339D01*
X13000Y546997D02*
Y537000D01*
X19664D01*
X29661Y546997D02*
X22997D01*
Y537000D01*
X29661D01*
X22997Y541998D02*
X26329D01*
X32994Y546997D02*
Y537000D01*
X37992D01*
X39658Y538666D01*
Y545331D01*
X37992Y546997D01*
X32994D01*
X42990Y545331D02*
X44657Y546997D01*
X47989D01*
X49655Y545331D01*
Y543665D01*
X47989Y541998D01*
X46323D01*
X47989D01*
X49655Y540332D01*
Y538666D01*
X47989Y537000D01*
X44657D01*
X42990Y538666D01*
X100000Y546997D02*
Y537000D01*
X106664D01*
X116661Y546997D02*
X109997D01*
Y537000D01*
X116661D01*
X109997Y541998D02*
X113329D01*
X119994Y546997D02*
Y537000D01*
X124992D01*
X126658Y538666D01*
Y545331D01*
X124992Y546997D01*
X119994D01*
X136655Y537000D02*
X129990D01*
X136655Y543665D01*
Y545331D01*
X134989Y546997D01*
X131657D01*
X129990Y545331D01*
X357000Y547997D02*
Y538000D01*
X363665D01*
X373661Y547997D02*
X366997D01*
Y538000D01*
X373661D01*
X366997Y542998D02*
X370329D01*
X376994Y547997D02*
Y538000D01*
X381992D01*
X383658Y539666D01*
Y546331D01*
X381992Y547997D01*
X376994D01*
X386990Y538000D02*
X390323D01*
X388657D01*
Y547997D01*
X386990Y546331D01*
X356004Y617000D02*
X367000D01*
Y622498D01*
X365167Y624331D01*
X357836D01*
X356004Y622498D01*
Y617000D01*
X367000Y627996D02*
Y631662D01*
Y629829D01*
X356004D01*
X357836Y627996D01*
X370000Y566000D02*
X359003D01*
Y571498D01*
X360836Y573331D01*
X364502D01*
X366334Y571498D01*
Y566000D01*
Y569665D02*
X370000Y573331D01*
Y584327D02*
Y576996D01*
X362669Y584327D01*
X360836D01*
X359003Y582495D01*
Y578829D01*
X360836Y576996D01*
X100004Y611000D02*
X111000D01*
Y616498D01*
X109167Y618331D01*
X101836D01*
X100004Y616498D01*
Y611000D01*
X111000Y621996D02*
Y625662D01*
Y623829D01*
X100004D01*
X101836Y621996D01*
X111000Y563000D02*
X100004D01*
Y568498D01*
X101836Y570331D01*
X105502D01*
X107334Y568498D01*
Y563000D01*
Y566665D02*
X111000Y570331D01*
Y581327D02*
Y573996D01*
X103669Y581327D01*
X101836D01*
X100004Y579495D01*
Y575829D01*
X101836Y573996D01*
X26000Y563000D02*
X15004D01*
Y568498D01*
X16836Y570331D01*
X20502D01*
X22334Y568498D01*
Y563000D01*
Y566665D02*
X26000Y570331D01*
Y581327D02*
Y573996D01*
X18669Y581327D01*
X16836D01*
X15004Y579495D01*
Y575829D01*
X16836Y573996D01*
X17004Y611000D02*
X28000D01*
Y616498D01*
X26167Y618331D01*
X18836D01*
X17004Y616498D01*
Y611000D01*
X28000Y621996D02*
Y625662D01*
Y623829D01*
X17004D01*
X18836Y621996D01*
X427004Y618000D02*
X438000D01*
Y623498D01*
X436167Y625331D01*
X428836D01*
X427004Y623498D01*
Y618000D01*
X438000Y628996D02*
Y632662D01*
Y630829D01*
X427004D01*
X428836Y628996D01*
X439000Y566000D02*
X428004D01*
Y571498D01*
X429836Y573331D01*
X433502D01*
X435335Y571498D01*
Y566000D01*
Y569665D02*
X439000Y573331D01*
Y584327D02*
Y576996D01*
X431669Y584327D01*
X429836D01*
X428004Y582495D01*
Y578829D01*
X429836Y576996D01*
X428000Y548997D02*
Y539000D01*
X434664D01*
X444661Y548997D02*
X437997D01*
Y539000D01*
X444661D01*
X437997Y543998D02*
X441329D01*
X447994Y548997D02*
Y539000D01*
X452992D01*
X454658Y540666D01*
Y547331D01*
X452992Y548997D01*
X447994D01*
X457990Y547331D02*
X459656Y548997D01*
X462989D01*
X464655Y547331D01*
Y540666D01*
X462989Y539000D01*
X459656D01*
X457990Y540666D01*
Y547331D01*
D30*
X329554Y209380D02*
X331332D01*
Y224112D01*
X329554D02*
X331332D01*
X329554Y177630D02*
Y224112D01*
Y177630D02*
X332094D01*
X352668Y209126D02*
X354700D01*
X352668D02*
Y224112D01*
X354700D01*
Y177376D02*
Y224112D01*
X351906Y177376D02*
X354700D01*
X459906Y165376D02*
X462700D01*
Y212112D01*
X460668D02*
X462700D01*
X460668Y197126D02*
Y212112D01*
Y197126D02*
X462700D01*
X437554Y165630D02*
X440094D01*
X437554D02*
Y212112D01*
X439332D01*
Y197380D02*
Y212112D01*
X437554Y197380D02*
X439332D01*
X78000Y480750D02*
Y502000D01*
X203000Y480750D02*
Y502000D01*
X78000D02*
X203000D01*
Y432000D02*
Y453000D01*
X79000Y432000D02*
Y454000D01*
Y432000D02*
X203000D01*
X231000Y796000D02*
X281000D01*
Y716000D02*
Y796000D01*
X231000Y716000D02*
Y796000D01*
X281000Y716000D02*
X284956D01*
X226000D02*
X231000D01*
X284956Y651000D02*
Y716000D01*
Y651000D02*
X341000D01*
X226000D02*
Y716000D01*
Y651000D02*
X226028Y651028D01*
X171000Y651000D02*
X226000D01*
X341000Y556000D02*
Y651000D01*
X171000Y556000D02*
Y651000D01*
Y556000D02*
X341000D01*
X346000Y436000D02*
X361000D01*
Y505000D01*
X346000D02*
X361000D01*
X296000Y26000D02*
Y146000D01*
Y26000D02*
X366000D01*
Y146000D01*
X296000D02*
X366000D01*
X394000Y26000D02*
Y146000D01*
Y26000D02*
X464000D01*
Y146000D01*
X394000D02*
X464000D01*
X25410Y127938D02*
X133868D01*
X25410Y1000D02*
Y127938D01*
X133868Y1000D02*
Y127938D01*
X278920Y173600D02*
X289080D01*
X378920Y638400D02*
X389080D01*
X118920Y637400D02*
X129080D01*
X35920D02*
X46080D01*
X448920Y641400D02*
X459080D01*
D31*
X63000Y158000D02*
X70000D01*
X63000Y146000D02*
X70000D01*
X297000Y265000D02*
X304000D01*
X297000Y253000D02*
X304000D01*
X390000Y573000D02*
Y580000D01*
X378000Y573000D02*
Y580000D01*
X131000Y572000D02*
Y579000D01*
X119000Y572000D02*
Y579000D01*
X47000Y571000D02*
Y578000D01*
X35000Y571000D02*
Y578000D01*
X458000Y573000D02*
Y580000D01*
X446000Y573000D02*
Y580000D01*
D32*
X330443Y216746D02*
D03*
X438443Y204746D02*
D03*
D33*
X353684Y216619D02*
D03*
X461684Y204619D02*
D03*
M02*
