%FSLAX44Y44*%
%MOMM*%
G71*
G01*
G75*
G04 Layer_Color=8388736*
%ADD10R,1.6800X1.5200*%
%ADD11R,0.9500X0.7000*%
%ADD12R,0.8000X1.6000*%
%ADD13R,1.2500X2.0000*%
%ADD14R,1.6000X0.8000*%
%ADD15R,5.5000X2.0000*%
%ADD16R,5.6000X5.6000*%
%ADD17R,2.0000X1.2000*%
%ADD18R,0.3000X1.5000*%
%ADD19R,1.5000X0.3000*%
%ADD20R,1.1000X1.2500*%
%ADD21R,2.0000X1.2500*%
%ADD22C,0.2540*%
%ADD23C,0.2900*%
%ADD24C,2.0000*%
%ADD25C,1.5000*%
%ADD26R,1.5000X1.5000*%
%ADD27C,1.4000*%
%ADD28C,1.2700*%
%ADD29C,1.0000*%
%ADD30C,0.1000*%
%ADD31C,0.2000*%
%ADD32R,0.1778X1.4732*%
%ADD33R,0.2032X1.4986*%
%ADD34R,1.8832X1.7232*%
%ADD35R,1.1532X0.9032*%
%ADD36R,1.0032X1.8032*%
%ADD37R,1.4532X2.2032*%
%ADD38R,1.8032X1.0032*%
%ADD39R,5.7032X2.2032*%
%ADD40R,5.8032X5.8032*%
%ADD41R,2.2032X1.4032*%
%ADD42R,0.5032X1.7032*%
%ADD43R,1.7032X0.5032*%
%ADD44R,1.3032X1.4532*%
%ADD45R,2.2032X1.4532*%
%ADD46C,2.2032*%
%ADD47C,1.7032*%
%ADD48R,1.7032X1.7032*%
%ADD49C,1.6032*%
%ADD50C,1.4732*%
D34*
X342000Y216956D02*
D03*
Y182456D02*
D03*
X450000Y170456D02*
D03*
Y204956D02*
D03*
D35*
X384000Y323000D02*
D03*
X400500D02*
D03*
D36*
X75000Y152000D02*
D03*
X57950D02*
D03*
X134000Y153000D02*
D03*
X116300D02*
D03*
X235000Y393000D02*
D03*
X217300D02*
D03*
X217000Y347000D02*
D03*
X199300D02*
D03*
X170000Y386000D02*
D03*
X152300D02*
D03*
X129000Y388000D02*
D03*
X111300D02*
D03*
X309000Y259000D02*
D03*
X291950D02*
D03*
D37*
X21000Y410000D02*
D03*
Y372000D02*
D03*
X462000Y492000D02*
D03*
Y454000D02*
D03*
X408000Y243000D02*
D03*
Y205000D02*
D03*
D38*
X223000Y287000D02*
D03*
Y269300D02*
D03*
X333000Y303000D02*
D03*
Y320700D02*
D03*
X442000Y345000D02*
D03*
Y362700D02*
D03*
X37000Y333000D02*
D03*
Y315300D02*
D03*
X18000Y284000D02*
D03*
Y266300D02*
D03*
X241000Y309000D02*
D03*
Y326700D02*
D03*
X384000Y568000D02*
D03*
Y585050D02*
D03*
X125000Y567000D02*
D03*
Y584050D02*
D03*
X41000Y566000D02*
D03*
Y583050D02*
D03*
X452000Y568000D02*
D03*
Y585050D02*
D03*
D39*
X93000Y467000D02*
D03*
X188000D02*
D03*
D40*
X311000Y471000D02*
D03*
D41*
X383000Y493500D02*
D03*
Y448500D02*
D03*
D42*
X127500Y225000D02*
D03*
X122500D02*
D03*
X117500D02*
D03*
X102500D02*
D03*
X107500D02*
D03*
X112500D02*
D03*
X132500D02*
D03*
X137500D02*
D03*
X142500D02*
D03*
X97500D02*
D03*
X92500D02*
D03*
X87500D02*
D03*
X162500D02*
D03*
X157500D02*
D03*
X152500D02*
D03*
X147500D02*
D03*
Y339000D02*
D03*
X152500D02*
D03*
X157500D02*
D03*
X162500D02*
D03*
X87500D02*
D03*
X92500D02*
D03*
X97500D02*
D03*
X142500D02*
D03*
X137500D02*
D03*
X132500D02*
D03*
X112500D02*
D03*
X107500D02*
D03*
X102500D02*
D03*
X117500D02*
D03*
X122500D02*
D03*
X127500D02*
D03*
D43*
X182000Y279500D02*
D03*
Y284500D02*
D03*
Y289500D02*
D03*
Y304500D02*
D03*
Y299500D02*
D03*
Y294500D02*
D03*
Y274500D02*
D03*
Y269500D02*
D03*
Y264500D02*
D03*
Y309500D02*
D03*
Y314500D02*
D03*
Y319500D02*
D03*
Y244500D02*
D03*
Y249500D02*
D03*
Y254500D02*
D03*
Y259500D02*
D03*
X68000D02*
D03*
Y254500D02*
D03*
Y249500D02*
D03*
Y244500D02*
D03*
Y319500D02*
D03*
Y314500D02*
D03*
Y309500D02*
D03*
Y264500D02*
D03*
Y269500D02*
D03*
Y274500D02*
D03*
Y294500D02*
D03*
Y299500D02*
D03*
Y304500D02*
D03*
Y289500D02*
D03*
Y284500D02*
D03*
Y279500D02*
D03*
D44*
X284000Y181750D02*
D03*
Y199000D02*
D03*
X384000Y630250D02*
D03*
Y613000D02*
D03*
X124000Y629250D02*
D03*
Y612000D02*
D03*
X41000Y629250D02*
D03*
Y612000D02*
D03*
X454000Y633250D02*
D03*
Y616000D02*
D03*
D45*
X384000Y387000D02*
D03*
X346000D02*
D03*
D46*
X206000Y616000D02*
D03*
X306000D02*
D03*
X256000D02*
D03*
D47*
X311000Y123000D02*
D03*
X409000D02*
D03*
D48*
X346000Y73000D02*
D03*
X444000D02*
D03*
D49*
X97800Y116000D02*
D03*
X85100Y90600D02*
D03*
X72400Y116000D02*
D03*
X110500Y90600D02*
D03*
X59700D02*
D03*
X47000Y116000D02*
D03*
D50*
X101000Y246000D02*
D03*
X148000Y285000D02*
D03*
X143000Y246000D02*
D03*
X164000Y248000D02*
D03*
X179000Y212000D02*
D03*
X117000Y185000D02*
D03*
X55000D02*
D03*
X400000Y302000D02*
D03*
X321000Y288000D02*
D03*
X381000Y335000D02*
D03*
X363000Y358000D02*
D03*
X223000Y428000D02*
D03*
X222000Y367000D02*
D03*
X178000Y420000D02*
D03*
X127000D02*
D03*
X144000Y364000D02*
D03*
X170000Y360000D02*
D03*
X426000Y526000D02*
D03*
X338000Y529000D02*
D03*
X85000Y370000D02*
D03*
X91000Y278000D02*
D03*
X161000Y318000D02*
D03*
X112000Y293000D02*
D03*
X59000Y527000D02*
D03*
X128000Y518000D02*
D03*
X383000Y510000D02*
D03*
X307000Y325000D02*
D03*
X206000Y197000D02*
D03*
M02*
