%FSLAX44Y44*%
%MOMM*%
G71*
G01*
G75*
G04 Layer_Color=8388736*
%ADD10R,1.6000X0.8000*%
%ADD11R,0.8000X1.6000*%
%ADD12R,1.1000X1.2500*%
%ADD13R,2.0000X1.2500*%
%ADD14R,1.2500X2.0000*%
%ADD15R,1.5000X0.3000*%
%ADD16R,0.3000X1.5000*%
%ADD17R,2.0000X1.2000*%
%ADD18R,5.6000X5.6000*%
%ADD19R,5.5000X2.0000*%
%ADD20R,0.9500X0.7000*%
%ADD21R,1.6800X1.5200*%
%ADD22C,0.2540*%
%ADD23C,0.9000*%
%ADD24C,0.8000*%
%ADD25C,0.7500*%
%ADD26C,1.4000*%
%ADD27R,1.5000X1.5000*%
%ADD28C,1.5000*%
%ADD29C,2.0000*%
%ADD30C,1.2700*%
%ADD31C,1.0000*%
%ADD32C,0.2000*%
%ADD33C,0.1000*%
%ADD34R,0.1778X1.4732*%
%ADD35R,0.2032X1.4986*%
%ADD36R,1.8032X1.0032*%
%ADD37R,1.0032X1.8032*%
%ADD38R,1.3032X1.4532*%
%ADD39R,2.2032X1.4532*%
%ADD40R,1.4532X2.2032*%
%ADD41R,1.7032X0.5032*%
%ADD42R,0.5032X1.7032*%
%ADD43R,2.2032X1.4032*%
%ADD44R,5.8032X5.8032*%
%ADD45R,5.7032X2.2032*%
%ADD46R,1.1532X0.9032*%
%ADD47R,1.8832X1.7232*%
%ADD48C,1.6032*%
%ADD49R,1.7032X1.7032*%
%ADD50C,1.7032*%
%ADD51C,2.2032*%
%ADD52C,1.4732*%
D36*
X333000Y320700D02*
D03*
Y303000D02*
D03*
X452000Y585050D02*
D03*
Y568000D02*
D03*
X41000Y583050D02*
D03*
Y566000D02*
D03*
X125000Y584050D02*
D03*
Y567000D02*
D03*
X384000Y585050D02*
D03*
Y568000D02*
D03*
X209000Y300700D02*
D03*
Y283000D02*
D03*
X37000Y279300D02*
D03*
Y297000D02*
D03*
Y315300D02*
D03*
Y333000D02*
D03*
X209000Y335700D02*
D03*
Y318000D02*
D03*
Y241300D02*
D03*
Y259000D02*
D03*
D37*
X402700Y364000D02*
D03*
X385000D02*
D03*
X291950Y259000D02*
D03*
X309000D02*
D03*
X111300Y388000D02*
D03*
X129000D02*
D03*
X152300Y386000D02*
D03*
X170000D02*
D03*
X184300Y363000D02*
D03*
X202000D02*
D03*
X135300Y187000D02*
D03*
X153000D02*
D03*
X57950Y152000D02*
D03*
X75000D02*
D03*
D38*
X454000Y616000D02*
D03*
Y633250D02*
D03*
X41000Y612000D02*
D03*
Y629250D02*
D03*
X124000Y612000D02*
D03*
Y629250D02*
D03*
X384000Y613000D02*
D03*
Y630250D02*
D03*
X284000Y199000D02*
D03*
Y181750D02*
D03*
D39*
X346000Y387000D02*
D03*
X384000D02*
D03*
D40*
X404000Y217000D02*
D03*
Y255000D02*
D03*
X445000Y455000D02*
D03*
Y493000D02*
D03*
X21000Y372000D02*
D03*
Y410000D02*
D03*
D41*
X68000Y279500D02*
D03*
Y284500D02*
D03*
Y289500D02*
D03*
Y304500D02*
D03*
Y299500D02*
D03*
Y294500D02*
D03*
Y274500D02*
D03*
Y269500D02*
D03*
Y264500D02*
D03*
Y309500D02*
D03*
Y314500D02*
D03*
Y319500D02*
D03*
Y244500D02*
D03*
Y249500D02*
D03*
Y254500D02*
D03*
Y259500D02*
D03*
X182000D02*
D03*
Y254500D02*
D03*
Y249500D02*
D03*
Y244500D02*
D03*
Y319500D02*
D03*
Y314500D02*
D03*
Y309500D02*
D03*
Y264500D02*
D03*
Y269500D02*
D03*
Y274500D02*
D03*
Y294500D02*
D03*
Y299500D02*
D03*
Y304500D02*
D03*
Y289500D02*
D03*
Y284500D02*
D03*
Y279500D02*
D03*
D42*
X127500Y339000D02*
D03*
X122500D02*
D03*
X117500D02*
D03*
X102500D02*
D03*
X107500D02*
D03*
X112500D02*
D03*
X132500D02*
D03*
X137500D02*
D03*
X142500D02*
D03*
X97500D02*
D03*
X92500D02*
D03*
X87500D02*
D03*
X162500D02*
D03*
X157500D02*
D03*
X152500D02*
D03*
X147500D02*
D03*
Y225000D02*
D03*
X152500D02*
D03*
X157500D02*
D03*
X162500D02*
D03*
X87500D02*
D03*
X92500D02*
D03*
X97500D02*
D03*
X142500D02*
D03*
X137500D02*
D03*
X132500D02*
D03*
X112500D02*
D03*
X107500D02*
D03*
X102500D02*
D03*
X117500D02*
D03*
X122500D02*
D03*
X127500D02*
D03*
D43*
X383000Y448500D02*
D03*
Y493500D02*
D03*
D44*
X311000Y471000D02*
D03*
D45*
X188000Y467000D02*
D03*
X93000D02*
D03*
D46*
X400500Y323000D02*
D03*
X384000D02*
D03*
D47*
X443000Y215956D02*
D03*
Y181456D02*
D03*
X342000Y182456D02*
D03*
Y216956D02*
D03*
D48*
X47000Y116000D02*
D03*
X59700Y90600D02*
D03*
X110500D02*
D03*
X72400Y116000D02*
D03*
X85100Y90600D02*
D03*
X97800Y116000D02*
D03*
D49*
X444000Y73000D02*
D03*
X346000D02*
D03*
D50*
X409000Y123000D02*
D03*
X311000D02*
D03*
D51*
X256000Y616000D02*
D03*
X306000D02*
D03*
X206000D02*
D03*
D52*
X58000Y184000D02*
D03*
X163000Y363000D02*
D03*
X60000Y445000D02*
D03*
X364000Y323000D02*
D03*
X256000Y284000D02*
D03*
X207000Y227000D02*
D03*
X179000Y212000D02*
D03*
X110000Y295000D02*
D03*
X91000D02*
D03*
X246000Y379000D02*
D03*
X219000Y352000D02*
D03*
X383000Y510000D02*
D03*
X128000Y518000D02*
D03*
X161000Y318000D02*
D03*
X85000Y370000D02*
D03*
X338000Y529000D02*
D03*
X426000Y526000D02*
D03*
X144000Y364000D02*
D03*
X127000Y420000D02*
D03*
X178000D02*
D03*
X363000Y358000D02*
D03*
X321000Y288000D02*
D03*
X400000Y302000D02*
D03*
X117000Y185000D02*
D03*
X164000Y248000D02*
D03*
X143000Y246000D02*
D03*
X148000Y285000D02*
D03*
X101000Y246000D02*
D03*
M02*
