%FSTAX23Y23*%
%MOIN*%
%SFA1B1*%

%IPPOS*%
%ADD10R,0.062992X0.031496*%
%ADD11R,0.031496X0.062992*%
%ADD12R,0.043307X0.049212*%
%ADD13R,0.078740X0.049212*%
%ADD14R,0.049212X0.078740*%
%ADD15R,0.059055X0.011811*%
%ADD16R,0.011811X0.059055*%
%ADD17R,0.078740X0.047244*%
%ADD18R,0.220472X0.220472*%
%ADD19R,0.216535X0.078740*%
%ADD20R,0.037401X0.027559*%
%ADD21R,0.066142X0.059842*%
%ADD22C,0.010000*%
%ADD23C,0.035433*%
%ADD24C,0.031496*%
%ADD25C,0.029527*%
%ADD26C,0.055118*%
%ADD27R,0.059055X0.059055*%
%ADD28C,0.059055*%
%ADD29C,0.078740*%
%ADD30C,0.050000*%
%LNboard_tp3-1*%
%LPD*%
G36*
X01905Y-00001D02*
X0D01*
Y02569*
X01905*
Y-00001*
G37*
%LNboard_tp3-2*%
%LPC*%
G36*
X01352Y01187D02*
X01316D01*
Y01167*
X01352*
Y01187*
G37*
G36*
X0014Y01164D02*
X00104D01*
Y01143*
X0014*
Y01164*
G37*
G36*
X0135Y01286D02*
X01271D01*
Y01241*
X01254Y01224*
X01251Y0122*
X0125Y01215*
Y01164*
X01247Y01162*
X0124Y01157*
X01235Y0115*
X01231Y01142*
X0123Y01133*
X01228Y01131*
X01038*
X01036Y01134*
X01031Y01141*
X01024Y01146*
X01016Y0115*
X01007Y01151*
X00999Y0115*
X00991Y01146*
X00984Y01141*
X00979Y01134*
X00975Y01126*
X00974Y01118*
X00975Y01109*
X00977Y01106*
X00869Y00998*
X00864Y01*
Y01014*
X00781*
Y01011*
X00776Y01009*
X00775Y01011*
X0077Y01014*
X00765Y01015*
X00756*
Y01016*
X00677*
Y01005*
X00679*
Y00995*
X00674Y00993*
X00674*
X00669Y00999*
X00662Y01005*
X00654Y01008*
X00645Y01009*
X00637Y01008*
X00629Y01005*
X00622Y00999*
X00616Y00992*
X00613Y00984*
X00612Y00976*
X00613Y00967*
X00613Y00967*
X0061Y00964*
X00607Y00959*
X00606Y00954*
Y00923*
X00542*
X0054Y00927*
X0055Y00937*
X00554Y00936*
X00562Y00935*
X00571Y00936*
X00579Y00939*
X00586Y00945*
X00591Y00951*
X00595Y00959*
X00596Y00968*
X00595Y00977*
X00591Y00985*
X00586Y00991*
X00579Y00997*
X00571Y01*
X00562Y01001*
X00554Y01*
X00546Y00997*
X00539Y00991*
X00534Y00985*
X0053Y00977*
X00529Y00968*
X0053Y00959*
X00532Y00956*
X00512Y00936*
X00509Y00932*
X00508Y00927*
Y00925*
X00506*
Y00885*
Y00846*
X00517*
Y00848*
X00587*
X00588Y00843*
X00591Y00839*
X00644Y00785*
X00648Y00783*
X00653Y00782*
X00718*
X00723Y00783*
X00728Y00785*
X00728Y00786*
X00729Y00787*
X00804Y00862*
X00806Y00861*
X00814Y0086*
X00823Y00861*
X00831Y00865*
X00838Y0087*
X00843Y00877*
X00847Y00885*
X00848Y00893*
X00847Y00902*
X00843Y0091*
X00838Y00917*
X00832Y00921*
X00834Y00926*
X00862*
Y00953*
X00995Y01087*
X00999Y01086*
X01007Y01084*
X01016Y01086*
X01024Y01089*
X01031Y01094*
X01036Y01101*
X01038Y01105*
X01247*
X01255Y01101*
X01263Y011*
X01272Y01101*
X0128Y01105*
X01287Y0111*
X01292Y01117*
X01295Y01125*
X01296Y01133*
X01295Y01142*
X01292Y0115*
X01287Y01157*
X0128Y01162*
X0128Y01163*
X01282Y01167*
X01306*
Y01192*
Y01218*
X01292*
X0129Y01223*
X01305Y01238*
X0135*
Y01286*
G37*
G36*
X00817Y01246D02*
X00781D01*
Y01226*
X00817*
Y01246*
G37*
G36*
X01352Y01218D02*
X01316D01*
Y01197*
X01352*
Y01218*
G37*
G36*
X0014Y01195D02*
X00104D01*
Y01174*
X0014*
Y01195*
G37*
G36*
X00864Y01045D02*
X00827D01*
Y01024*
X00864*
Y01045*
G37*
G36*
X00817D02*
X00781D01*
Y01024*
X00817*
Y01045*
G37*
G36*
X01625Y01053D02*
X01595D01*
Y01008*
X01625*
Y01053*
G37*
G36*
X00864Y01139D02*
X00827D01*
Y01119*
X00864*
Y01139*
G37*
G36*
Y01109D02*
X00827D01*
Y01088*
X00864*
Y01109*
G37*
G36*
X00817D02*
X00781D01*
Y01088*
X00817*
Y01109*
G37*
G36*
X00864Y01246D02*
X00827D01*
Y01226*
X00864*
Y01246*
G37*
G36*
X01342Y01972D02*
X01106D01*
Y01736*
X012*
Y01661*
X01201Y01656*
X01049Y01505*
X00998*
X00997Y01508*
X00991Y01515*
X00985Y0152*
X00977Y01524*
X00968Y01525*
X00959Y01524*
X00951Y0152*
X00945Y01515*
X00939Y01508*
X00936Y015*
X00935Y01492*
X00936Y01483*
X00939Y01475*
X00945Y01468*
X00951Y01463*
X00959Y0146*
X00968Y01458*
X00977Y0146*
X00985Y01463*
X00991Y01468*
X00997Y01475*
X00998Y01479*
X01055*
X0106Y0148*
X01064Y01482*
X01216Y01635*
X01314Y01536*
Y01491*
X01338*
Y01476*
X01339Y01467*
X01345Y01459*
X01396Y01408*
X01397Y014*
X014Y01392*
X01405Y01385*
X01412Y0138*
X0142Y01377*
X01429Y01376*
X01437Y01377*
X01445Y0138*
X01452Y01385*
X01457Y01392*
X01461Y014*
X01462Y01409*
X01461Y01418*
X01457Y01426*
X01452Y01432*
X01445Y01438*
X01437Y01441*
X0143Y01442*
X01386Y01486*
X01386Y01491*
X01409*
Y01556*
X01363*
X01248Y01671*
Y01736*
X01342*
Y01972*
G37*
G36*
X00187Y01336D02*
X0015D01*
Y01316*
X00187*
Y01336*
G37*
G36*
X0014D02*
X00104D01*
Y01316*
X0014*
Y01336*
G37*
G36*
X0151Y01428D02*
X0149D01*
Y01391*
X0151*
Y01428*
G37*
G36*
X00821Y01424D02*
X008D01*
Y01387*
X00821*
Y01424*
G37*
G36*
X0079D02*
X00769D01*
Y01387*
X0079*
Y01424*
G37*
G36*
X00531Y01566D02*
X00484D01*
Y01488*
X00489*
Y01374*
X00487*
Y01334*
Y01295*
X00498*
Y01297*
X00529*
Y01296*
X0053Y01291*
X00532Y01287*
X00539Y0128*
X00543Y01277*
X00548Y01276*
X00601*
X00603Y01271*
X00602Y0127*
X00305*
Y01271*
X0023*
Y01244*
Y01224*
Y01204*
Y01185*
Y01165*
Y01145*
Y01141*
X00225Y01139*
X00203Y01161*
Y01196*
X00202Y01202*
X00199Y01206*
X00185Y0122*
Y01264*
X00119*
X00104Y0128*
X00105Y01282*
X00106Y01284*
X00106Y01284*
X00106Y01285*
X00106Y01285*
X00106*
X00108*
X00108*
X0014*
Y01306*
X00104*
Y01289*
Y01289*
Y01288*
Y01287*
X00104Y01287*
X00103Y01287*
X00103Y01287*
X00101Y01286*
X00099Y01285*
X00095Y01288*
Y01417*
X00115*
Y01511*
X0005*
Y01417*
X00069*
Y01283*
X0007Y01278*
X00073Y01274*
X00106Y01241*
Y01217*
X0015*
X00168Y01199*
X00166Y01195*
X0015*
Y01169*
Y01143*
X00184*
X00209Y01118*
X00207Y01113*
X00185*
Y01123*
X00106*
Y01075*
X00185*
Y01087*
X0023*
Y01086*
Y01066*
Y01047*
Y01027*
Y01007*
Y00988*
Y00968*
Y00948*
X0029*
X00291Y00944*
X00285Y00938*
X00283Y00934*
X00282Y00928*
Y00637*
X00271*
Y00559*
X00268Y00555*
X00226Y00513*
X00224Y00508*
X00223Y00503*
Y0047*
X00218Y00469*
X00215Y00474*
X0021Y00481*
X00202Y00487*
X00198Y00489*
Y00549*
X00207Y00559*
X00251*
Y00637*
X00241*
Y00694*
X00244Y00695*
X00251Y007*
X00257Y00707*
X0026Y00715*
X00261Y00724*
X0026Y00732*
X00257Y0074*
X00251Y00747*
X00244Y00753*
X00236Y00756*
X00228Y00757*
X00219Y00756*
X00211Y00753*
X00204Y00747*
X00199Y0074*
X00196Y00732*
X00195Y00724*
X00196Y00715*
X00199Y00707*
X00204Y007*
X00211Y00695*
X00215Y00694*
Y00637*
X00204*
Y00593*
X00175Y00564*
X00172Y0056*
X00171Y00555*
Y00489*
X00167Y00487*
X00159Y00481*
X00154Y00474*
X0015Y00465*
X00149Y00456*
X0015Y00447*
X00154Y00438*
X00159Y00431*
X00167Y00425*
X00175Y00422*
X00185Y0042*
X00194Y00422*
X00202Y00425*
X0021Y00431*
X00215Y00438*
X00218Y00443*
X00223Y00442*
Y0039*
X00217Y00387*
X00209Y00381*
X00204Y00374*
X002Y00365*
X00199Y00356*
X002Y00347*
X00204Y00338*
X00209Y00331*
X00217Y00325*
X00225Y00322*
X00235Y0032*
X00244Y00322*
X00252Y00325*
X0026Y00331*
X00265Y00338*
X00269Y00347*
X0027Y00356*
X00269Y00365*
X00265Y00374*
X0026Y00381*
X00252Y00387*
X00249Y00389*
Y00433*
X00254Y00435*
X00258Y00429*
X00266Y00423*
X00275Y0042*
X0028Y00419*
Y00456*
Y00493*
X00275Y00493*
X00266Y00489*
X00258Y00483*
X00254Y00478*
X00249Y0048*
Y00498*
X00304Y00553*
X00307Y00557*
X00307Y00559*
X00318*
Y00585*
X00453*
X00458Y00586*
X00463Y00589*
X00541Y00667*
X00544Y00672*
X00545Y00677*
Y00696*
X00556*
Y00775*
X00509*
Y00696*
X00519*
Y00682*
X00448Y00611*
X00318*
Y00637*
X00308*
Y00923*
X0034Y00955*
X00367*
X00368Y00951*
X00374Y00945*
X00381Y00939*
X00389Y00936*
X00397Y00935*
X00406Y00936*
X00414Y00939*
X00421Y00945*
X00426Y00951*
X00429Y00959*
X0043Y00968*
X00429Y00977*
X00426Y00985*
X00421Y00991*
X00414Y00997*
X00406Y01*
X00397Y01001*
X00389Y01*
X00381Y00997*
X00374Y00991*
X00368Y00985*
X00367Y00981*
X00347*
Y01067*
X00346Y01072*
X00344Y01076*
X0031Y01109*
X00306Y01112*
X00305Y01112*
Y01125*
Y01145*
Y01165*
Y01185*
Y01189*
X00309Y01191*
X00327Y01173*
X00326Y0117*
X00325Y01161*
X00326Y01152*
X00329Y01144*
X00334Y01137*
X00341Y01132*
X00349Y01129*
X00358Y01128*
X00366Y01129*
X00374Y01132*
X00381Y01137*
X00386Y01144*
X0039Y01152*
X00391Y01161*
X0039Y0117*
X00386Y01177*
X00381Y01184*
X00374Y0119*
X00366Y01193*
X00358Y01194*
X00349Y01193*
X00346Y01192*
X00318Y0122*
X0032Y01225*
X0035*
X00402Y01173*
X00401Y0117*
X00399Y01161*
X00401Y01152*
X00404Y01144*
X00409Y01137*
X00416Y01132*
X00424Y01129*
X00433Y01128*
X00441Y01129*
X00449Y01132*
X00456Y01137*
X00461Y01144*
X00465Y01152*
X00466Y01161*
X00465Y0117*
X00461Y01177*
X00456Y01184*
X00449Y0119*
X00441Y01193*
X00433Y01194*
X00424Y01193*
X00421Y01192*
X00373Y01239*
X00375Y01243*
X00601*
X00601Y01243*
X00605Y01235*
X0061Y01228*
X00617Y01223*
X00625Y01219*
X00633Y01218*
X00642Y01219*
X0065Y01223*
X00656Y01227*
X00661Y01225*
Y01146*
X0065Y01135*
X00612*
X00611Y01138*
X00606Y01145*
X00599Y0115*
X00591Y01154*
X00582Y01155*
X00574Y01154*
X00566Y0115*
X00559Y01145*
X00553Y01138*
X0055Y0113*
X00549Y01122*
X0055Y01113*
X00553Y01105*
X00559Y01098*
X00566Y01093*
X00574Y0109*
X00582Y01088*
X00591Y0109*
X00599Y01093*
X00606Y01098*
X00611Y01105*
X00612Y01108*
X00655*
X0066Y01109*
X00664Y01112*
X00672Y0112*
X00677Y01118*
Y01104*
X00679*
Y01086*
Y01066*
Y01047*
Y01037*
X00677*
Y01026*
X00756*
Y01037*
X00753*
Y01047*
Y01066*
Y01086*
Y01104*
X00756*
Y01115*
X00716*
Y01125*
X00756*
Y01126*
X00769*
X00774Y01127*
X00776Y01128*
X00781Y01126*
Y01119*
X00817*
Y01139*
X00786*
X00784Y01141*
Y0116*
X00862*
Y01207*
X00783*
Y01196*
X00774*
X00769Y01195*
X00765Y01193*
X00762Y0119*
X00759Y01186*
X00758Y01183*
X00753Y01183*
Y01185*
Y01204*
Y01224*
Y01244*
Y01271*
X00685*
X00683Y01274*
X0067Y01287*
Y01292*
X00725Y01347*
X00761Y01312*
X00765Y01309*
X0077Y01308*
X00783*
Y01298*
X00862*
Y01345*
X00846*
X00844Y01349*
X0085Y01355*
X00853Y01353*
X00862Y01352*
X0087Y01353*
X00878Y01357*
X00885Y01362*
X0089Y01369*
X00894Y01377*
X00895Y01385*
X00894Y01394*
X0089Y01402*
X00885Y01409*
X00878Y01414*
X0087Y01417*
X00862Y01418*
X00853Y01417*
X00845Y01414*
X00838Y01409*
X00833Y01402*
X0083Y01394*
X00829Y01385*
X0083Y01377*
X00831Y01373*
X00813Y01355*
X0081Y01351*
X00809Y01346*
Y01345*
X00783*
Y01334*
X00775*
X00738Y01371*
Y01389*
X00749*
Y01468*
X00701*
Y01389*
X00712*
Y01371*
X00658Y01317*
X00653Y01318*
Y01372*
X00546*
X00544Y01376*
X00548Y0138*
X00606*
X00611Y01381*
X00615Y01384*
X00629Y01398*
X00633Y01397*
X00641Y01395*
X0065Y01397*
X00658Y014*
X00665Y01405*
X0067Y01412*
X00673Y0142*
X00674Y01429*
X00673Y01437*
X00672Y01441*
X00678Y01447*
X00681Y01451*
X00682Y01456*
Y0148*
X00692*
Y01559*
X00645*
Y0148*
X00656*
Y01463*
X00651Y0146*
X0065Y01461*
X00641Y01462*
X00633Y01461*
X00625Y01457*
X00618Y01452*
X00613Y01445*
X00609Y01437*
X00608Y01429*
X00609Y0142*
X00611Y01417*
X006Y01406*
X00594*
X00592Y01411*
X00595Y01416*
X00598Y01424*
X006Y01433*
X00598Y01441*
X00595Y01449*
X0059Y01456*
X00583Y01461*
X0058Y01463*
Y01478*
X00594*
Y01514*
X00573*
Y01502*
X00569Y015*
X00532Y01536*
X00531Y01537*
Y01566*
G37*
G36*
X00864Y01277D02*
X00827D01*
Y01256*
X00864*
Y01277*
G37*
G36*
X00817D02*
X00781D01*
Y01256*
X00817*
Y01277*
G37*
G36*
X01609Y01472D02*
X01561D01*
Y01393*
X01573*
Y01351*
X01518Y01296*
X01511Y01297*
X01453*
X01449Y013*
X01441Y01303*
X01433Y01304*
X01424Y01303*
X01416Y013*
X01409Y01295*
X01404Y01288*
X01401Y0128*
X01399Y01271*
X01401Y01263*
X01404Y01255*
X01409Y01248*
X01416Y01242*
X01424Y01239*
X01433Y01238*
X01441Y01239*
X01449Y01242*
X01453Y01245*
X01511*
X01518Y01246*
X01524Y01249*
X01525Y0125*
X01538*
Y01279*
X01545Y01286*
X0155Y01284*
Y0125*
X01561*
Y01219*
X01558Y01217*
X01551Y01212*
X01546Y01205*
X01542Y01197*
X01541Y01188*
X01542Y0118*
X01546Y01172*
X01551Y01165*
X01558Y0116*
X01566Y01156*
X01574Y01155*
X01583Y01156*
X01591Y0116*
X01598Y01165*
X01603Y01172*
X01606Y0118*
X01607Y01188*
X01606Y01197*
X01603Y01205*
X01598Y01212*
X01591Y01217*
X01587Y01219*
Y0125*
X01603*
Y01293*
X01558*
X01556Y01297*
X01595Y01337*
X01598Y01341*
X01599Y01346*
Y01393*
X01609*
Y01472*
G37*
G36*
X00334Y01489D02*
X00326Y01488D01*
X00318Y01485*
X00311Y0148*
X00305Y01473*
X00302Y01465*
X00301Y01456*
X00302Y01448*
X00305Y0144*
X00311Y01433*
X00318Y01427*
X00321Y01426*
Y01417*
X00322Y01412*
X00325Y01408*
X00357Y01376*
X00355Y01372*
X0033*
Y01297*
X00466*
Y01295*
X00477*
Y01334*
Y01374*
X00466*
Y01372*
X00395*
X00395Y01374*
X00392Y01378*
X00349Y01421*
X00349Y01427*
X00351Y01427*
X00358Y01433*
X00363Y0144*
X00366Y01448*
X00367Y01456*
X00366Y01465*
X00363Y01473*
X00358Y0148*
X00351Y01485*
X00343Y01488*
X00334Y01489*
G37*
G36*
X00187Y01306D02*
X0015D01*
Y01285*
X00187*
Y01306*
G37*
G36*
X01585Y01053D02*
X01555D01*
Y01008*
X01585*
Y01053*
G37*
G36*
X00335Y00392D02*
X00325Y00391D01*
X00317Y00387*
X00309Y00381*
X00304Y00374*
X003Y00365*
X00299Y00356*
X003Y00347*
X00304Y00338*
X00309Y00331*
X00317Y00325*
X00325Y00322*
X00335Y0032*
X00344Y00322*
X00352Y00325*
X0036Y00331*
X00365Y00338*
X00369Y00347*
X0037Y00356*
X00369Y00365*
X00365Y00374*
X0036Y00381*
X00352Y00387*
X00344Y00391*
X00335Y00392*
G37*
G36*
X01787Y00326D02*
X01753D01*
Y00292*
X01787*
Y00326*
G37*
G36*
X01743D02*
X01708D01*
Y00292*
X01743*
Y00326*
G37*
G36*
X00385Y00492D02*
X00375Y00491D01*
X00367Y00487*
X00359Y00481*
X00354Y00474*
X0035Y00465*
X00349Y00456*
X0035Y00447*
X00354Y00438*
X00359Y00431*
X00367Y00425*
X00375Y00422*
X00385Y0042*
X00394Y00422*
X00402Y00425*
X0041Y00431*
X00415Y00438*
X00419Y00447*
X0042Y00456*
X00419Y00465*
X00415Y00474*
X0041Y00481*
X00402Y00487*
X00394Y00491*
X00385Y00492*
G37*
G36*
X00322Y00451D02*
X0029D01*
Y00419*
X00294Y0042*
X00303Y00423*
X00311Y00429*
X00317Y00437*
X00321Y00446*
X00322Y00451*
G37*
G36*
X00435Y00392D02*
X00425Y00391D01*
X00417Y00387*
X00409Y00381*
X00404Y00374*
X004Y00365*
X00399Y00356*
X004Y00347*
X00404Y00338*
X00409Y00331*
X00417Y00325*
X00425Y00322*
X00435Y0032*
X00444Y00322*
X00452Y00325*
X0046Y00331*
X00465Y00338*
X00469Y00347*
X0047Y00356*
X00469Y00365*
X00465Y00374*
X0046Y00381*
X00452Y00387*
X00444Y00391*
X00435Y00392*
G37*
G36*
X01743Y00282D02*
X01708D01*
Y00247*
X01743*
Y00282*
G37*
G36*
X01401D02*
X01367D01*
Y00247*
X01401*
Y00282*
G37*
G36*
X01357D02*
X01322D01*
Y00247*
X01357*
Y00282*
G37*
G36*
X01401Y00326D02*
X01367D01*
Y00292*
X01401*
Y00326*
G37*
G36*
X01357D02*
X01322D01*
Y00292*
X01357*
Y00326*
G37*
G36*
X01787Y00282D02*
X01753D01*
Y00247*
X01787*
Y00282*
G37*
G36*
X0029Y00493D02*
Y00461D01*
X00322*
X00321Y00466*
X00317Y00475*
X00311Y00483*
X00303Y00489*
X00294Y00493*
X0029Y00493*
G37*
G36*
X00628Y00777D02*
X00607D01*
Y00741*
X00628*
Y00777*
G37*
G36*
X00597D02*
X00576D01*
Y00741*
X00597*
Y00777*
G37*
G36*
X01173Y01059D02*
X01125D01*
Y0098*
X01136*
Y00879*
X01108Y00851*
X01105Y00847*
X01105Y00842*
Y00815*
X01088*
Y00755*
Y00754*
X01086Y0075*
Y00748*
Y00746*
Y0072*
X01149*
Y00746*
Y00748*
Y0075*
X01147Y00754*
Y00755*
Y00815*
X01131*
Y00837*
X01158Y00864*
X01161Y00868*
X01162Y00873*
Y0098*
X01173*
Y01059*
G37*
G36*
X01625Y00998D02*
X01595D01*
Y00954*
X01625*
Y00998*
G37*
G36*
X01585D02*
X01555D01*
Y00954*
X01585*
Y00998*
G37*
G36*
X00496Y00925D02*
X00486D01*
Y00923*
X0033*
Y00848*
X00449*
Y00759*
X00444Y00757*
X00437Y00751*
X00431Y00744*
X00428Y00736*
X00427Y00728*
X00428Y00719*
X00431Y00711*
X00437Y00704*
X00444Y00699*
X00452Y00696*
X0046Y00695*
X00469Y00696*
X00477Y00699*
X00484Y00704*
X00489Y00711*
X00492Y00719*
X00493Y00728*
X00492Y00736*
X00489Y00744*
X00484Y00751*
X00477Y00757*
X00475Y00757*
Y00848*
X00486*
Y00846*
X00496*
Y00885*
Y00925*
G37*
G36*
X01113Y0071D02*
X01086D01*
Y0068*
X01113*
Y0071*
G37*
G36*
X01785Y00752D02*
X01703D01*
Y00676*
X0172*
Y00628*
X01613Y00521*
X0161Y00521*
X016Y0052*
X01591Y00516*
X01583Y0051*
X01577Y00503*
X01573Y00494*
X01572Y00484*
X01573Y00474*
X01577Y00465*
X01583Y00457*
X01591Y00451*
X016Y00447*
X0161Y00446*
X0162Y00447*
X01629Y00451*
X01636Y00457*
X01642Y00465*
X01646Y00474*
X01647Y00484*
X01647Y00487*
X01761Y00601*
X01766Y00608*
X01768Y00618*
Y00676*
X01785*
Y00752*
G37*
G36*
X01387Y00756D02*
X01305D01*
Y0068*
X01322*
Y00614*
X01228Y00521*
X01224Y00521*
X01214Y0052*
X01205Y00516*
X01197Y0051*
X01191Y00503*
X01187Y00494*
X01186Y00484*
X01187Y00474*
X01191Y00465*
X01197Y00457*
X01205Y00451*
X01214Y00447*
X01224Y00446*
X01234Y00447*
X01243Y00451*
X01251Y00457*
X01257Y00465*
X0126Y00474*
X01262Y00484*
X01261Y00488*
X01359Y00586*
X01363Y00589*
X01368Y00597*
X0137Y00606*
Y0068*
X01387*
Y00756*
G37*
G36*
X00628Y00731D02*
X00607D01*
Y00694*
X00628*
Y00731*
G37*
G36*
X00597D02*
X00576D01*
Y00694*
X00597*
Y00731*
G37*
G36*
X01149Y0071D02*
X01123D01*
Y0068*
X01149*
Y0071*
G37*
G36*
X01541Y01428D02*
X0152D01*
Y01391*
X01541*
Y01428*
G37*
G36*
X00519Y02472D02*
X00456D01*
Y02446*
Y02444*
Y02442*
X00458Y02438*
Y02437*
Y02376*
X00475*
Y02323*
X00452*
Y02275*
X00531*
Y02323*
X00501*
Y02376*
X00517*
Y02437*
Y02438*
X00519Y02442*
Y02444*
Y02446*
Y02472*
G37*
G36*
X00193D02*
X00129D01*
Y02446*
Y02444*
Y02442*
X00131Y02438*
Y02437*
Y02376*
X00148*
Y02319*
X00122*
Y02271*
X002*
Y02319*
X00174*
Y02376*
X0019*
Y02437*
Y02438*
X00193Y02442*
Y02444*
Y02446*
Y02472*
G37*
G36*
X01551Y02259D02*
X01472D01*
Y02215*
X0136Y02103*
X01355Y02104*
X01354Y02106*
X01347Y02111*
X01339Y02114*
X0133Y02115*
X01322Y02114*
X01314Y02111*
X01307Y02106*
X01302Y02099*
X01298Y02091*
X01297Y02082*
X01298Y02074*
X01302Y02066*
X01307Y02059*
X01314Y02053*
X01322Y0205*
X0133Y02049*
X01339Y0205*
X01347Y02053*
X01354Y02059*
X01359Y02066*
X01361Y0207*
X01363Y0207*
X01367Y02073*
X01506Y02212*
X01551*
Y02259*
G37*
G36*
X01199Y0242D02*
X01155D01*
X01156Y02412*
X01161Y024*
X01169Y0239*
X01179Y02382*
X01191Y02377*
X01199Y02376*
Y0242*
G37*
G36*
X01543Y02476D02*
X0148D01*
Y0245*
Y02448*
Y02446*
X01482Y02442*
Y02441*
Y0238*
X01498*
Y02326*
X01472*
Y02279*
X01551*
Y02326*
X01524*
Y0238*
X01541*
Y02441*
Y02442*
X01543Y02446*
Y02448*
Y0245*
Y02476*
G37*
G36*
X01819Y02488D02*
X01755D01*
Y02461*
Y0246*
Y02458*
X01757Y02454*
Y02453*
Y02392*
X01774*
Y02326*
X0174*
Y02279*
X01818*
Y02326*
X018*
Y02392*
X01816*
Y02453*
Y02454*
X01819Y02458*
Y0246*
Y02461*
Y02488*
G37*
G36*
X01818Y02259D02*
X0174D01*
Y02212*
X01766*
Y02178*
X01689Y02101*
X01685Y02102*
X01677Y02104*
X01668Y02102*
X0166Y02099*
X01653Y02094*
X01648Y02087*
X01645Y02079*
X01644Y0207*
X01645Y02062*
X01648Y02054*
X01653Y02047*
X0166Y02042*
X01668Y02038*
X01677Y02037*
X01685Y02038*
X01693Y02042*
X017Y02047*
X01705Y02054*
X01709Y02062*
X0171Y0207*
X01709Y02079*
X01707Y02082*
X01788Y02163*
X01791Y02168*
X01792Y02173*
Y02212*
X01818*
Y02259*
G37*
G36*
X01542Y02002D02*
X01473D01*
X01473Y01998*
X01477Y0199*
X01482Y01982*
X01484Y01981*
X01482Y01976*
X01458*
Y01947*
X01557*
Y01976*
X01532*
X01531Y01981*
X01532Y01982*
X01538Y0199*
X01541Y01998*
X01542Y02002*
G37*
G36*
X01786Y0199D02*
X01756D01*
Y01945*
X01786*
Y0199*
G37*
G36*
X01746D02*
X01717D01*
Y01945*
X01746*
Y0199*
G37*
G36*
X01512Y02042D02*
Y02012D01*
X01542*
X01541Y02017*
X01538Y02025*
X01532Y02032*
X01525Y02038*
X01517Y02041*
X01512Y02042*
G37*
G36*
X01502D02*
X01498Y02041D01*
X0149Y02038*
X01482Y02032*
X01477Y02025*
X01473Y02017*
X01473Y02012*
X01502*
Y02042*
G37*
G36*
X00531Y02255D02*
X00452D01*
Y02208*
X00479*
Y0206*
X00475Y02055*
X00471Y02047*
X0047Y02039*
X00471Y0203*
X00475Y02022*
X0048Y02015*
X00487Y0201*
X00495Y02007*
X00503Y02006*
X00512Y02007*
X0052Y0201*
X00527Y02015*
X00532Y02022*
X00535Y0203*
X00537Y02039*
X00535Y02047*
X00532Y02055*
X00527Y02062*
X0052Y02068*
X00512Y02071*
X00505Y02072*
Y02208*
X00531*
Y02255*
G37*
G36*
X01506Y02515D02*
X0148D01*
Y02486*
X01506*
Y02515*
G37*
G36*
X00519Y02511D02*
X00493D01*
Y02482*
X00519*
Y02511*
G37*
G36*
X00483D02*
X00456D01*
Y02482*
X00483*
Y02511*
G37*
G36*
X01819Y02527D02*
X01792D01*
Y02498*
X01819*
Y02527*
G37*
G36*
X01782D02*
X01755D01*
Y02498*
X01782*
Y02527*
G37*
G36*
X01543Y02515D02*
X01516D01*
Y02486*
X01543*
Y02515*
G37*
G36*
X00193Y02511D02*
X00166D01*
Y02482*
X00193*
Y02511*
G37*
G36*
X01007Y02472D02*
X00995Y02471D01*
X00984Y02466*
X00974Y02458*
X00966Y02449*
X00961Y02437*
X0096Y02425*
X00961Y02412*
X00966Y02401*
X00974Y02391*
X00984Y02383*
X00995Y02379*
X01007Y02377*
X0102Y02379*
X01031Y02383*
X01041Y02391*
X01049Y02401*
X01053Y02412*
X01055Y02425*
X01053Y02437*
X01049Y02449*
X01041Y02458*
X01031Y02466*
X0102Y02471*
X01007Y02472*
G37*
G36*
X00811D02*
X00798Y02471D01*
X00787Y02466*
X00777Y02458*
X00769Y02449*
X00765Y02437*
X00763Y02425*
X00765Y02412*
X00769Y02401*
X00777Y02391*
X00787Y02383*
X00798Y02379*
X00811Y02377*
X00823Y02379*
X00834Y02383*
X00844Y02391*
X00852Y02401*
X00857Y02412*
X00858Y02425*
X00857Y02437*
X00852Y02449*
X00844Y02458*
X00834Y02466*
X00823Y02471*
X00811Y02472*
G37*
G36*
X01253Y0242D02*
X01209D01*
Y02376*
X01217Y02377*
X01229Y02382*
X01239Y0239*
X01247Y024*
X01252Y02412*
X01253Y0242*
G37*
G36*
X00156Y02511D02*
X00129D01*
Y02482*
X00156*
Y02511*
G37*
G36*
X01209Y02474D02*
Y0243D01*
X01253*
X01252Y02438*
X01247Y0245*
X01239Y0246*
X01229Y02468*
X01217Y02473*
X01209Y02474*
G37*
G36*
X01199D02*
X01191Y02473D01*
X01179Y02468*
X01169Y0246*
X01161Y0245*
X01156Y02438*
X01155Y0243*
X01199*
Y02474*
G37*
G36*
X00594Y01561D02*
X00573D01*
Y01524*
X00594*
Y01561*
G37*
G36*
X01561Y01518D02*
X01516D01*
Y01489*
X01561*
Y01518*
G37*
G36*
X01506D02*
X01462D01*
Y01489*
X01506*
Y01518*
G37*
G36*
X01561Y01558D02*
X01516D01*
Y01528*
X01561*
Y01558*
G37*
G36*
X01506D02*
X01462D01*
Y01528*
X01506*
Y01558*
G37*
G36*
X00625Y01561D02*
X00604D01*
Y01524*
X00625*
Y01561*
G37*
G36*
X00463Y01522D02*
X00443D01*
Y01486*
X00463*
Y01522*
G37*
G36*
X0151Y01474D02*
X0149D01*
Y01438*
X0151*
Y01474*
G37*
G36*
X00821Y0147D02*
X008D01*
Y01434*
X00821*
Y0147*
G37*
G36*
X0079D02*
X00769D01*
Y01434*
X0079*
Y0147*
G37*
G36*
X00433Y01522D02*
X00412D01*
Y01486*
X00433*
Y01522*
G37*
G36*
X00625Y01514D02*
X00604D01*
Y01478*
X00625*
Y01514*
G37*
G36*
X01541Y01474D02*
X0152D01*
Y01438*
X01541*
Y01474*
G37*
G36*
X00433Y01569D02*
X00412D01*
Y01532*
X00433*
Y01569*
G37*
G36*
X01746Y01935D02*
X01717D01*
Y01891*
X01746*
Y01935*
G37*
G36*
X01784Y01838D02*
X01719D01*
Y01815*
X01685*
X01675Y01813*
X01667Y01808*
X01649Y01789*
X01555*
Y01797*
X0146*
Y01734*
X01555*
Y01741*
X01659*
X01668Y01743*
X01676Y01748*
X01695Y01767*
X01719*
Y01744*
X0172*
Y00888*
X01703*
Y00878*
X01623*
Y00901*
X01558*
Y00878*
X01387*
Y00891*
X01342*
X0124Y00994*
Y01059*
X01192*
Y00989*
X01192Y00985*
X01192Y00984*
X01192Y0098*
X01193*
X01194Y00974*
X01199Y00967*
X01305Y00861*
Y00816*
X01387*
Y0083*
X01558*
Y00807*
X01623*
Y0083*
X01703*
Y00812*
X01785*
Y00888*
X01768*
Y01744*
X01784*
Y01838*
G37*
G36*
X00856Y01885D02*
X00624D01*
Y01791*
X00687*
Y01683*
X00684Y01682*
X00677Y01677*
X00672Y0167*
X00668Y01662*
X00667Y01653*
X00668Y01644*
X00672Y01636*
X00677Y0163*
X00684Y01624*
X00692Y01621*
X007Y0162*
X00709Y01621*
X00717Y01624*
X00724Y0163*
X00729Y01636*
X00732Y01644*
X00733Y01653*
X00732Y01662*
X00729Y0167*
X00724Y01677*
X00717Y01682*
X00713Y01683*
Y01791*
X00856*
Y01885*
G37*
G36*
X01557Y01937D02*
X01512D01*
Y01909*
X01557*
Y01937*
G37*
G36*
X01502D02*
X01458D01*
Y01909*
X01502*
Y01937*
G37*
G36*
X01786Y01935D02*
X01756D01*
Y01891*
X01786*
Y01935*
G37*
G36*
X00117Y01609D02*
X00087D01*
Y01564*
X00117*
Y01609*
G37*
G36*
X00077D02*
X00048D01*
Y01564*
X00077*
Y01609*
G37*
G36*
X00463Y01569D02*
X00443D01*
Y01532*
X00463*
Y01569*
G37*
G36*
X00117Y01663D02*
X00087D01*
Y01619*
X00117*
Y01663*
G37*
G36*
X002Y02251D02*
X00122D01*
Y02204*
X00166*
X00223Y02148*
Y01782*
X00219Y0178*
X00212Y01775*
X00207Y01768*
X00204Y0176*
X00203Y01751*
X00204Y01743*
X00207Y01735*
X00212Y01728*
X00219Y01723*
X00227Y01719*
X00236Y01718*
X00244Y01719*
X00252Y01723*
X00259Y01728*
X00264Y01735*
X00268Y01743*
X00269Y01751*
X00268Y0176*
X00264Y01768*
X00259Y01775*
X00252Y0178*
X00249Y01782*
Y01786*
X0025Y01791*
X00254*
X00353*
Y01787*
X00354Y01782*
X00356Y01778*
X00469Y01665*
X00467Y01662*
X00466Y01653*
X00467Y01644*
X00471Y01636*
X00476Y0163*
X00483Y01624*
X00491Y01621*
X005Y0162*
X00508Y01621*
X00516Y01624*
X00523Y0163*
X00528Y01636*
X00532Y01644*
X00533Y01653*
X00532Y01662*
X00528Y0167*
X00523Y01677*
X00516Y01682*
X00508Y01685*
X005Y01686*
X00491Y01685*
X00487Y01684*
X00385Y01786*
X00387Y01791*
X00482*
Y01885*
X00254*
X0025*
X00249Y0189*
Y02153*
X00248Y02158*
X00245Y02162*
X002Y02207*
Y02251*
G37*
G36*
X00077Y01663D02*
X00048D01*
Y01619*
X00077*
Y01663*
G37*
%LNboard_tp3-3*%
%LPD*%
G36*
X00783Y00965D02*
Y00926D01*
X00795*
X00797Y00921*
X00791Y00917*
X00786Y0091*
X00782Y00902*
X00781Y00893*
X00782Y00885*
X00785Y0088*
X00742Y00837*
X00737Y00839*
X00736Y00843*
X00733Y00851*
X00728Y00858*
X00721Y00863*
X00713Y00866*
X00704Y00867*
X00696Y00866*
X00688Y00863*
X00683Y0086*
X00653Y0089*
Y00923*
X00633*
Y00941*
X00638Y00944*
X00645Y00943*
X00654Y00944*
X00662Y00947*
X00669Y00952*
X00674Y00959*
X00674*
X00679Y00956*
Y00948*
X00753*
Y00968*
Y00988*
Y00988*
X0076*
X00783Y00965*
G37*
G54D10*
X01311Y01262D03*
Y01192D03*
X01779Y02303D03*
Y02236D03*
X00161Y02295D03*
Y02228D03*
X00492Y02299D03*
Y02232D03*
X01511Y02303D03*
Y02236D03*
X00822Y01183D03*
Y01114D03*
X00145Y01099D03*
Y01169D03*
Y01241D03*
Y01311D03*
X00822Y01321D03*
Y01251D03*
Y0095D03*
Y01019D03*
G54D11*
X01585Y01433D03*
X01515D03*
X01149Y01019D03*
X01216D03*
X00438Y01527D03*
X00507D03*
X00599Y01519D03*
X00669D03*
X00725Y01429D03*
X00795D03*
X00532Y00736D03*
X00602D03*
X00228Y00598D03*
X00295D03*
G54D12*
X01787Y02425D03*
Y02493D03*
X00161Y02409D03*
Y02477D03*
X00488Y02409D03*
Y02477D03*
X01511Y02413D03*
Y02481D03*
X01118Y00783D03*
Y00715D03*
G54D13*
X01362Y01523D03*
X01511D03*
G54D14*
X0159Y00854D03*
Y01003D03*
X01751Y01791D03*
Y0194D03*
X00082Y01464D03*
Y01614D03*
G54D15*
X00267Y011D03*
Y0112D03*
Y01139D03*
Y01198D03*
Y01179D03*
Y01159D03*
Y0108D03*
Y01061D03*
Y01041D03*
Y01218D03*
Y01238D03*
Y01257D03*
Y00962D03*
Y00982D03*
Y01001D03*
Y01021D03*
X00716D03*
Y01001D03*
Y00982D03*
Y00962D03*
Y01257D03*
Y01238D03*
Y01218D03*
Y01041D03*
Y01061D03*
Y0108D03*
Y01159D03*
Y01179D03*
Y01198D03*
Y01139D03*
Y0112D03*
Y011D03*
G54D16*
X00501Y01334D03*
X00482D03*
X00462D03*
X00403D03*
X00423D03*
X00442D03*
X00521D03*
X00541D03*
X00561D03*
X00383D03*
X00364D03*
X00344D03*
X00639D03*
X0062D03*
X006D03*
X0058D03*
Y00885D03*
X006D03*
X0062D03*
X00639D03*
X00344D03*
X00364D03*
X00383D03*
X00561D03*
X00541D03*
X00521D03*
X00442D03*
X00423D03*
X00403D03*
X00462D03*
X00482D03*
X00501D03*
G54D17*
X01507Y01765D03*
Y01942D03*
G54D18*
X01224Y01854D03*
G54D19*
X0074Y01838D03*
X00366D03*
G54D20*
X01576Y01271D03*
X01511D03*
G54D21*
X01744Y0085D03*
Y00714D03*
X01346Y00718D03*
Y00854D03*
G54D22*
X01511Y01271D02*
X01586Y01346D01*
X00235Y00356D02*
X00236Y00357D01*
Y00503*
X00295Y00562*
Y00598*
X00228Y00724D02*
X00228Y00724D01*
X00228Y00598D02*
Y00724D01*
X00295Y00928D02*
X00334Y00968D01*
X00295Y00598D02*
Y00928D01*
X00203Y01292D02*
X00481D01*
X00185Y01311D02*
X00203Y01292D01*
X00145Y01311D02*
X00185D01*
X00082Y01283D02*
Y01464D01*
Y01283D02*
X00124Y01241D01*
X00145*
X00043Y01271D02*
Y01507D01*
Y01271D02*
X00145Y01169D01*
X00819Y01022D02*
X00822Y01025D01*
Y01114*
X00716Y01119D02*
X00817D01*
X00716Y01022D02*
X00819D01*
X00161Y02228D02*
X00236Y02153D01*
Y01751D02*
Y02153D01*
X00599Y01289D02*
X00649D01*
X00548D02*
X00599D01*
X006Y01291*
Y01334*
X00542Y01296D02*
Y01334D01*
Y01296D02*
X00548Y01289D01*
X00285Y00456D02*
X00325Y00497D01*
X00602Y00721D02*
Y00736D01*
X00377Y00497D02*
X00602Y00721D01*
X00325Y00497D02*
X00377D01*
X00549Y0102D02*
X00715D01*
X00501Y00886D02*
Y00972D01*
X00549Y0102*
X00602Y00736D02*
X00912D01*
X01011Y00636*
X0137Y01192D02*
X01498Y01064D01*
X01559Y01003*
X01195Y01064D02*
X01498D01*
X01559Y01003D02*
X0159D01*
X0174Y00854D02*
X01744Y0085D01*
X00301Y011D02*
X00334Y01067D01*
X00267Y011D02*
X00301D01*
X00334Y00968D02*
Y01067D01*
X00145Y01099D02*
X00146Y011D01*
X00267*
X00226Y0112D02*
X00267D01*
X00145Y01241D02*
X0019Y01196D01*
Y01156D02*
Y01196D01*
Y01156D02*
X00226Y0112D01*
X00653Y00795D02*
X00718D01*
X006Y00848D02*
X00653Y00795D01*
X006Y00848D02*
Y00885D01*
X00267Y01217D02*
X00302D01*
X00641Y01429D02*
X00669Y01456D01*
X00606Y01393D02*
X00641Y01429D01*
X00669Y01456D02*
Y01519D01*
X00543Y01393D02*
X00606D01*
X00502Y01335D02*
Y01522D01*
X00481Y01335D02*
Y01369D01*
X00438Y01412D02*
X00481Y01369D01*
X01585Y01433D02*
X01586Y01431D01*
Y01346D02*
Y01431D01*
X0137Y01287D02*
X01515Y01433D01*
X0137Y01192D02*
Y01287D01*
X01248Y01118D02*
X01263Y01133D01*
X01007Y01118D02*
X01248D01*
X00839Y0095D02*
X01007Y01118D01*
X00822Y0095D02*
X00839D01*
X01263Y01215D02*
X01311Y01262D01*
X00765Y01001D02*
X00817Y0095D01*
X00822*
X0072Y00796D02*
X00814Y00891D01*
Y00893*
X0069Y00834D02*
X00704D01*
X00639Y00885D02*
X0069Y00834D01*
X00267Y01238D02*
X00356D01*
X00433Y01161*
X00302Y01217D02*
X00358Y01161D01*
Y01161D02*
Y01161D01*
X00354Y01161D02*
X00358D01*
X0175Y01942D02*
X01751Y0194D01*
X01507Y01942D02*
X0175D01*
X01444Y01625D02*
X01509Y01561D01*
X01444Y01893D02*
X01494Y01942D01*
X01444Y01625D02*
Y01893D01*
X01509Y01525D02*
Y01561D01*
X01494Y01942D02*
X01507D01*
X01511Y01523D02*
X01515Y01519D01*
X01509Y01525D02*
X01511Y01523D01*
X01515Y01433D02*
Y01519D01*
X00521Y01372D02*
X00543Y01393D01*
X00521Y01334D02*
Y01372D01*
X01046Y00671D02*
X01046D01*
X01011Y00636D02*
X01046Y00671D01*
X0109Y00715D02*
X01118D01*
X01046Y00671D02*
X0109Y00715D01*
X01011Y00636D02*
X01361Y00287D01*
X01362*
X01055Y01492D02*
X01224Y01661D01*
X00968Y01492D02*
X01055D01*
X00822Y01346D02*
X00862Y01385D01*
X00822Y01321D02*
Y01346D01*
X00725Y01366D02*
X0077Y01321D01*
X00822*
X00648Y01564D02*
X00692D01*
X00795Y01461*
Y01429D02*
Y01461D01*
X00905Y01311D02*
Y01429D01*
X00795D02*
X00905D01*
Y01173D02*
Y01311D01*
X00846Y01114D02*
X00905Y01173D01*
X00822Y01114D02*
X00846D01*
Y01251D02*
X00905Y01311D01*
X00822Y01251D02*
X00846D01*
X00725Y01429D02*
X00725Y01428D01*
Y01366D02*
Y01428D01*
X00501Y00886D02*
X00501Y00885D01*
X00817Y01119D02*
X00822Y01114D01*
X00674Y0114D02*
X00675Y01139D01*
X00716*
X00769*
X00771Y01141*
Y01181*
X00774Y01183*
X00822*
X00716Y01001D02*
X00765D01*
X00501Y00809D02*
Y00885D01*
Y00809D02*
X00503Y00807D01*
X00602*
Y00736D02*
Y00807D01*
X00532Y00677D02*
Y00736D01*
X00453Y00598D02*
X00532Y00677D01*
X00082Y01546D02*
Y01614D01*
X00043Y01507D02*
X00082Y01546D01*
X00267Y01099D02*
X00267Y01099D01*
X00161Y02477D02*
X00488D01*
X00161Y02295D02*
Y02409D01*
Y02295D02*
D01*
X00488Y02303D02*
Y02409D01*
Y02477D02*
Y02477D01*
X01152D02*
X01204Y02425D01*
X01152Y02477D02*
X01507D01*
X01511Y02481*
X01775*
X01787Y02493*
X00488Y02477D02*
X01152D01*
X01787Y02311D02*
Y02425D01*
X01511Y02303D02*
Y02413D01*
X006Y00885D02*
X00601Y00884D01*
X01507Y01942D02*
Y02007D01*
X01216Y00984D02*
Y01019D01*
X00502Y01522D02*
X00507Y01527D01*
X00501Y01334D02*
X00502Y01335D01*
X00438Y01412D02*
Y01527D01*
X00481Y01335D02*
X00482Y01334D01*
X00438Y01527D02*
X00479D01*
Y01564*
X00486Y01571*
X00547*
X00599Y01519*
X0064*
Y01556*
X00648Y01564*
X00716Y01119D02*
Y0112D01*
Y01021D02*
Y01022D01*
X00715Y0102D02*
X00716Y01021D01*
X01118Y00715D02*
X01187Y00785D01*
Y01056*
X01195Y01064*
X01311Y01192D02*
X0137D01*
X00481Y01333D02*
X00482Y01334D01*
X00145Y01311D02*
Y01551D01*
X00082Y01614D02*
X00145Y01551D01*
X00295Y00598D02*
X00453D01*
X00266Y0112D02*
X00267Y0112D01*
X00492Y02051D02*
Y02232D01*
Y02051D02*
X00503Y02039D01*
X00481Y01292D02*
Y01333D01*
X00628Y01256D02*
X00633Y01251D01*
X00268Y01256D02*
X00628D01*
X00267Y01257D02*
X00268Y01256D01*
X00267Y01217D02*
Y01218D01*
X00334Y01417D02*
Y01456D01*
Y01417D02*
X00382Y01369D01*
Y01335D02*
Y01369D01*
Y01335D02*
X00383Y01334D01*
X01358Y02082D02*
X01511Y02236D01*
X0133Y02082D02*
X01358D01*
X01779Y02173D02*
Y02236D01*
X01677Y0207D02*
X01779Y02173D01*
X01362Y00287D02*
X01748D01*
X00185Y00456D02*
Y00555D01*
X00228Y00598*
X00366Y01787D02*
Y01838D01*
Y01787D02*
X005Y01653D01*
X007D02*
Y01799D01*
X0074Y01838*
X00566Y01433D02*
Y01484D01*
X00523Y01527D02*
X00566Y01484D01*
X00507Y01527D02*
X00523D01*
X00599Y01334D02*
X006D01*
X00541D02*
X00542D01*
X00649Y01289D02*
X00674Y01265D01*
Y0114D02*
Y01265D01*
X00649Y01289D02*
X00725Y01366D01*
X01574Y01188D02*
Y01269D01*
X01263Y01133D02*
Y01215D01*
X01149Y00873D02*
Y01019D01*
X01118Y00842D02*
X01149Y00873D01*
X01118Y00783D02*
Y00842D01*
X00461Y00884D02*
X00462Y00885D01*
X0046Y00728D02*
X00462Y0073D01*
Y00885*
X0062D02*
Y00954D01*
X00641Y00976D02*
X00645D01*
X0062Y00954D02*
X00641Y00976D01*
X00521Y00885D02*
Y00927D01*
X00562Y00968*
X00582Y01122D02*
X00655D01*
X00674Y0114*
X00334Y00968D02*
X00397D01*
G54D23*
X01433Y01271D02*
X01511D01*
G54D24*
X01685Y01791D02*
X01751D01*
X01346Y00854D02*
X0174D01*
X01744Y01783D02*
X01751Y01791D01*
X01744Y0085D02*
Y01783D01*
Y00618D02*
Y00714D01*
X0161Y00484D02*
X01744Y00618D01*
X01659Y01765D02*
X01685Y01791D01*
X01507Y01765D02*
X01659D01*
X01216Y00984D02*
X01346Y00854D01*
X01224Y01661D02*
Y01854D01*
Y01661D02*
X01362Y01523D01*
X01346Y00606D02*
Y00718D01*
X01362Y01476D02*
Y01523D01*
Y01476D02*
X01429Y01409D01*
G54D25*
X01224Y00484D02*
X01346Y00606D01*
G54D26*
X00185Y00456D03*
X00235Y00356D03*
X00435D03*
X00285Y00456D03*
X00335Y00356D03*
X00385Y00456D03*
G54D27*
X01748Y00287D03*
X01362D03*
G54D28*
X0161Y00484D03*
X01224D03*
G54D29*
X01007Y02425D03*
X01204D03*
X00811D03*
G54D30*
X00228Y00724D03*
X00641Y01429D03*
X00236Y01751D03*
X01433Y01271D03*
X01007Y01118D03*
X00814Y00893D03*
X00704Y00834D03*
X00433Y01161D03*
X00358D03*
X00968Y01492D03*
X00862Y01385D03*
X01507Y02007D03*
X00503Y02039D03*
X00633Y01251D03*
X00334Y01456D03*
X0133Y02082D03*
X01677Y0207D03*
X00566Y01433D03*
X005Y01653D03*
X007D03*
X01429Y01409D03*
X01263Y01133D03*
X01574Y01188D03*
X0046Y00728D03*
X00645Y00976D03*
X00562Y00968D03*
X00582Y01122D03*
X00397Y00968D03*
M02*