%FSTAX23Y23*%
%MOIN*%
%SFA1B1*%

%IPPOS*%
%ADD22C,0.010000*%
%ADD32C,0.007874*%
%ADD33C,0.003937*%
%ADD34R,0.007008X0.057992*%
%ADD35R,0.007992X0.059016*%
%LNboard_tp3-1*%
%LPD*%
G54D22*
X00335Y0081D02*
D01*
X00335Y00811*
X00335Y00812*
X00335Y00813*
X00335Y00814*
X00334Y00815*
X00334Y00816*
X00333Y00817*
X00333Y00818*
X00332Y00819*
X00331Y0082*
X00331Y0082*
X0033Y00821*
X00329Y00822*
X00328Y00823*
X00327Y00823*
X00326Y00824*
X00325Y00824*
X00324Y00825*
X00323Y00825*
X00322Y00825*
X00321Y00825*
X0032Y00825*
X00319*
X00318Y00825*
X00317Y00825*
X00316Y00825*
X00315Y00825*
X00313Y00824*
X00312Y00824*
X00312Y00823*
X00311Y00823*
X0031Y00822*
X00309Y00821*
X00308Y0082*
X00307Y0082*
X00307Y00819*
X00306Y00818*
X00305Y00817*
X00305Y00816*
X00305Y00815*
X00304Y00814*
X00304Y00813*
X00304Y00812*
X00304Y00811*
X00304Y0081*
X00304Y00808*
X00304Y00807*
X00304Y00806*
X00304Y00805*
X00305Y00804*
X00305Y00803*
X00305Y00802*
X00306Y00801*
X00307Y008*
X00307Y00799*
X00308Y00799*
X00309Y00798*
X0031Y00797*
X00311Y00796*
X00312Y00796*
X00312Y00795*
X00313Y00795*
X00315Y00795*
X00316Y00794*
X00317Y00794*
X00318Y00794*
X00319Y00794*
X0032*
X00321Y00794*
X00322Y00794*
X00323Y00794*
X00324Y00795*
X00325Y00795*
X00326Y00795*
X00327Y00796*
X00328Y00796*
X00329Y00797*
X0033Y00798*
X00331Y00799*
X00331Y00799*
X00332Y008*
X00333Y00801*
X00333Y00802*
X00334Y00803*
X00334Y00804*
X00335Y00805*
X00335Y00806*
X00335Y00807*
X00335Y00808*
X00335Y0081*
X01518Y01682D02*
D01*
X01518Y01682*
X01518Y01683*
X01518Y01684*
X01518Y01685*
X01517Y01686*
X01517Y01686*
X01517Y01687*
X01516Y01688*
X01516Y01689*
X01515Y01689*
X01515Y0169*
X01514Y0169*
X01514Y01691*
X01513Y01691*
X01512Y01692*
X01512Y01692*
X01511Y01693*
X0151Y01693*
X01509Y01693*
X01508Y01693*
X01508Y01693*
X01507Y01693*
X01506*
X01505Y01693*
X01504Y01693*
X01504Y01693*
X01503Y01693*
X01502Y01693*
X01501Y01692*
X015Y01692*
X015Y01691*
X01499Y01691*
X01498Y0169*
X01498Y0169*
X01497Y01689*
X01497Y01689*
X01496Y01688*
X01496Y01687*
X01496Y01686*
X01495Y01686*
X01495Y01685*
X01495Y01684*
X01495Y01683*
X01495Y01682*
X01495Y01682*
X01495Y01681*
X01495Y0168*
X01495Y01679*
X01495Y01678*
X01495Y01678*
X01496Y01677*
X01496Y01676*
X01496Y01675*
X01497Y01675*
X01497Y01674*
X01498Y01673*
X01498Y01673*
X01499Y01672*
X015Y01672*
X015Y01671*
X01501Y01671*
X01502Y01671*
X01503Y0167*
X01504Y0167*
X01504Y0167*
X01505Y0167*
X01506Y0167*
X01507*
X01508Y0167*
X01508Y0167*
X01509Y0167*
X0151Y0167*
X01511Y01671*
X01512Y01671*
X01512Y01671*
X01513Y01672*
X01514Y01672*
X01514Y01673*
X01515Y01673*
X01515Y01674*
X01516Y01675*
X01516Y01675*
X01517Y01676*
X01517Y01677*
X01517Y01678*
X01518Y01678*
X01518Y01679*
X01518Y0168*
X01518Y01681*
X01518Y01682*
X00265Y00888D02*
Y00937D01*
Y00888D02*
X00319D01*
X00265Y01282D02*
Y01334D01*
X00319*
X00718Y00885D02*
Y00942D01*
X00664Y00885D02*
X00718D01*
Y01282D02*
Y01336D01*
X00664D02*
X00718D01*
X01286Y01347D02*
X01279Y01354D01*
X01266*
X01259Y01347*
Y01321*
X01266Y01314*
X01279*
X01286Y01321*
X01299Y01314D02*
X01312D01*
X01305*
Y01354*
X01299Y01347*
X01358Y01354D02*
X01332D01*
Y01334*
X01345Y01341*
X01351*
X01358Y01334*
Y01321*
X01351Y01314*
X01338*
X01332Y01321*
X0166Y01442D02*
X01653Y01448D01*
X0164*
X01633Y01442*
Y01416*
X0164Y01409*
X01653*
X0166Y01416*
X01673Y01409D02*
X01686D01*
X01679*
Y01448*
X01673Y01442*
X01725Y01409D02*
Y01448D01*
X01706Y01429*
X01732*
X0037Y02047D02*
Y0204D01*
X00383Y02027*
X00396Y0204*
Y02047*
X00383Y02027D02*
Y02007D01*
X00409D02*
X00422D01*
X00415*
Y02047*
X00409Y0204*
X0112Y02059D02*
Y02026D01*
X01127Y02019*
X0114*
X01146Y02026*
Y02059*
X01186Y02019D02*
X0116D01*
X01186Y02046*
Y02052*
X01179Y02059*
X01166*
X0116Y02052*
X00244Y01437D02*
Y01404D01*
X0025Y01397*
X00263*
X0027Y01404*
Y01437*
X00283Y01397D02*
X00296D01*
X00289*
Y01437*
X00283Y0143*
X01267Y01047D02*
X01307D01*
Y01027*
X013Y01021*
X01287*
X0128Y01027*
Y01047*
Y01034D02*
X01267Y01021D01*
Y00988D02*
X01307D01*
X01287Y01007*
Y00981*
X00185Y00606D02*
X00145D01*
Y00625*
X00152Y00632*
X00165*
X00171Y00625*
Y00606*
Y00619D02*
X00185Y00632D01*
X00152Y00645D02*
X00145Y00652D01*
Y00665*
X00152Y00671*
X00158*
X00165Y00665*
Y00658*
Y00665*
X00171Y00671*
X00178*
X00185Y00665*
Y00652*
X00178Y00645*
X00102Y02216D02*
X00059D01*
Y02238*
X00066Y02245*
X0008*
X00087Y02238*
Y02216*
Y0223D02*
X00102Y02245D01*
Y02288D02*
Y02259D01*
X00073Y02288*
X00066*
X00059Y02281*
Y02267*
X00066Y02259*
X00437Y02216D02*
X00393D01*
Y02238*
X004Y02245*
X00415*
X00422Y02238*
Y02216*
Y0223D02*
X00437Y02245D01*
Y02288D02*
Y02259D01*
X00408Y02288*
X004*
X00393Y02281*
Y02267*
X004Y02259*
X01456Y02228D02*
X01413D01*
Y0225*
X0142Y02257*
X01435*
X01442Y0225*
Y02228*
Y02242D02*
X01456Y02257D01*
Y023D02*
Y02271D01*
X01427Y023*
X0142*
X01413Y02293*
Y02278*
X0142Y02271*
X01728Y02228D02*
X01685D01*
Y0225*
X01692Y02257*
X01706*
X01713Y0225*
Y02228*
Y02242D02*
X01728Y02257D01*
Y023D02*
Y02271D01*
X01699Y023*
X01692*
X01685Y02293*
Y02278*
X01692Y02271*
X00728Y02118D02*
Y02157D01*
X00748*
X00754Y0215*
Y02137*
X00748Y02131*
X00728*
X00741D02*
X00754Y02118D01*
X00767D02*
X0078D01*
X00774*
Y02157*
X00767Y0215*
X01172Y00607D02*
Y00646D01*
X01192*
X01199Y00639*
Y00626*
X01192Y0062*
X01172*
X01238Y00607D02*
X01212D01*
X01238Y00633*
Y00639*
X01232Y00646*
X01218*
X01212Y00639*
X01559Y00607D02*
Y00646D01*
X01578*
X01585Y00639*
Y00626*
X01578Y0062*
X01559*
X01598Y00607D02*
X01611D01*
X01604*
Y00646*
X01598Y00639*
X00134Y00575D02*
X00121D01*
X00127*
Y00542*
X00121Y00535*
X00114*
X00107Y00542*
X00147Y00535D02*
X0016D01*
X00153*
Y00575*
X00147Y00568*
X01656Y01299D02*
X01629D01*
Y01279*
X01643*
X01629*
Y01259*
X01669Y01299D02*
Y01259D01*
X01688*
X01695Y01266*
Y01272*
X01688Y01279*
X01669*
X01688*
X01695Y01286*
Y01292*
X01688Y01299*
X01669*
X01708Y01259D02*
X01721D01*
X01715*
Y01299*
X01708Y01292*
X01102Y00881D02*
Y00842D01*
X01122*
X01128Y00848*
Y00874*
X01122Y00881*
X01102*
X01161Y00842D02*
Y00881D01*
X01141Y00861*
X01168*
X01309Y00957D02*
Y00918D01*
X01329*
X01335Y00924*
Y00951*
X01329Y00957*
X01309*
X01349Y00951D02*
X01355Y00957D01*
X01368*
X01375Y00951*
Y00944*
X01368Y00937*
X01362*
X01368*
X01375Y00931*
Y00924*
X01368Y00918*
X01355*
X01349Y00924*
X01707Y00953D02*
Y00914D01*
X01727*
X01733Y0092*
Y00947*
X01727Y00953*
X01707*
X01773Y00914D02*
X01746D01*
X01773Y0094*
Y00947*
X01766Y00953*
X01753*
X01746Y00947*
X00066Y02405D02*
X0011D01*
Y02427*
X00103Y02434*
X00074*
X00066Y02427*
Y02405*
X0011Y02448D02*
Y02463D01*
Y02456*
X00066*
X00074Y02448*
X00393Y02405D02*
X00437D01*
Y02427*
X00429Y02434*
X004*
X00393Y02427*
Y02405*
X00437Y02448D02*
Y02463D01*
Y02456*
X00393*
X004Y02448*
X01401Y02429D02*
X01444D01*
Y0245*
X01437Y02457*
X01408*
X01401Y0245*
Y02429*
X01444Y02472D02*
Y02486D01*
Y02479*
X01401*
X01408Y02472*
X01681Y02433D02*
X01724D01*
Y02454*
X01717Y02461*
X01688*
X01681Y02454*
Y02433*
X01724Y02476D02*
Y0249D01*
Y02483*
X01681*
X01688Y02476*
X01415Y01603D02*
X01409Y0161D01*
X01396*
X01389Y01603*
Y01577*
X01396Y0157*
X01409*
X01415Y01577*
X01429Y0157D02*
X01442D01*
X01435*
Y0161*
X01429Y01603*
X01461D02*
X01468Y0161D01*
X01481*
X01488Y01603*
Y01597*
X01481Y0159*
X01475*
X01481*
X01488Y01583*
Y01577*
X01481Y0157*
X01468*
X01461Y01577*
X01759Y02047D02*
X01752Y02054D01*
X01739*
X01733Y02047*
Y02021*
X01739Y02014*
X01752*
X01759Y02021*
X01772Y02014D02*
X01785D01*
X01779*
Y02054*
X01772Y02047*
X01831Y02014D02*
X01805D01*
X01831Y0204*
Y02047*
X01824Y02054*
X01811*
X01805Y02047*
X01598Y0111D02*
X01591Y01116D01*
X01578*
X01572Y0111*
Y01083*
X01578Y01077*
X01591*
X01598Y01083*
X01611Y01077D02*
X01624D01*
X01618*
Y01116*
X01611Y0111*
X01644Y01077D02*
X01657D01*
X0165*
Y01116*
X01644Y0111*
X00146Y01393D02*
X0014Y01399D01*
X00127*
X0012Y01393*
Y01367*
X00127Y0136*
X0014*
X00146Y01367*
X0016Y0136D02*
X00173D01*
X00166*
Y01399*
X0016Y01393*
X00192D02*
X00199Y01399D01*
X00212*
X00219Y01393*
Y01367*
X00212Y0136*
X00199*
X00192Y01367*
Y01393*
X00081Y01725D02*
X00074Y01732D01*
X00061*
X00055Y01725*
Y01699*
X00061Y01692*
X00074*
X00081Y01699*
X00094D02*
X00101Y01692D01*
X00114*
X0012Y01699*
Y01725*
X00114Y01732*
X00101*
X00094Y01725*
Y01719*
X00101Y01712*
X0012*
X0036Y01526D02*
X00354Y01519D01*
Y01506*
X0036Y015*
X00387*
X00393Y01506*
Y01519*
X00387Y01526*
X0036Y01539D02*
X00354Y01545D01*
Y01559*
X0036Y01565*
X00367*
X00374Y01559*
X0038Y01565*
X00387*
X00393Y01559*
Y01545*
X00387Y01539*
X0038*
X00374Y01545*
X00367Y01539*
X0036*
X00374Y01545D02*
Y01559D01*
X00746Y01528D02*
X0074Y01535D01*
X00727*
X0072Y01528*
Y01502*
X00727Y01496*
X0074*
X00746Y01502*
X00759Y01535D02*
X00786D01*
Y01528*
X00759Y01502*
Y01496*
X00912Y01001D02*
X00905Y01007D01*
X00892*
X00885Y01001*
Y00975*
X00892Y00968*
X00905*
X00912Y00975*
X00951Y01007D02*
X00938Y01001D01*
X00925Y00988*
Y00975*
X00931Y00968*
X00944*
X00951Y00975*
Y00981*
X00944Y00988*
X00925*
X0014Y01044D02*
X00133Y01051D01*
X0012*
X00114Y01044*
Y01018*
X0012Y01011*
X00133*
X0014Y01018*
X00179Y01051D02*
X00153D01*
Y01031*
X00166Y01038*
X00173*
X00179Y01031*
Y01018*
X00173Y01011*
X0016*
X00153Y01018*
X00904Y01304D02*
X00897Y01311D01*
X00884*
X00877Y01304*
Y01278*
X00884Y01271*
X00897*
X00904Y01278*
X00937Y01271D02*
Y01311D01*
X00917Y01291*
X00943*
X00825Y01509D02*
X00818Y01515D01*
X00805*
X00799Y01509*
Y01482*
X00805Y01476*
X00818*
X00825Y01482*
X00838Y01509D02*
X00845Y01515D01*
X00858*
X00864Y01509*
Y01502*
X00858Y01496*
X00851*
X00858*
X00864Y01489*
Y01482*
X00858Y01476*
X00845*
X00838Y01482*
X00904Y0117D02*
X00897Y01177D01*
X00884*
X00877Y0117*
Y01144*
X00884Y01137*
X00897*
X00904Y01144*
X00943Y01137D02*
X00917D01*
X00943Y01164*
Y0117*
X00937Y01177*
X00923*
X00917Y0117*
X00667Y00753D02*
X00661Y00759D01*
X00648*
X00641Y00753*
Y00727*
X00648Y0072*
X00661*
X00667Y00727*
X00681Y0072D02*
X00694D01*
X00687*
Y00759*
X00681Y00753*
X01685Y02161D02*
Y02122D01*
X01711*
X0175Y02161D02*
X01724D01*
Y02122*
X0175*
X01724Y02141D02*
X01737D01*
X01763Y02161D02*
Y02122D01*
X01783*
X0179Y02128*
Y02154*
X01783Y02161*
X01763*
X01803Y02154D02*
X01809Y02161D01*
X01822*
X01829Y02154*
Y02128*
X01822Y02122*
X01809*
X01803Y02128*
Y02154*
X01405Y02157D02*
Y02118D01*
X01431*
X01471Y02157D02*
X01444D01*
Y02118*
X01471*
X01444Y02137D02*
X01457D01*
X01484Y02157D02*
Y02118D01*
X01503*
X0151Y02124*
Y0215*
X01503Y02157*
X01484*
X01523Y02118D02*
X01536D01*
X0153*
Y02157*
X01523Y0215*
X00393Y02153D02*
Y02114D01*
X00419*
X00459Y02153D02*
X00433D01*
Y02114*
X00459*
X00433Y02133D02*
X00446D01*
X00472Y02153D02*
Y02114D01*
X00492*
X00498Y0212*
Y02146*
X00492Y02153*
X00472*
X00537Y02114D02*
X00511D01*
X00537Y0214*
Y02146*
X00531Y02153*
X00518*
X00511Y02146*
X00051Y02153D02*
Y02114D01*
X00077*
X00116Y02153D02*
X0009D01*
Y02114*
X00116*
X0009Y02133D02*
X00103D01*
X00129Y02153D02*
Y02114D01*
X00149*
X00156Y0212*
Y02146*
X00149Y02153*
X00129*
X00169Y02146D02*
X00175Y02153D01*
X00188*
X00195Y02146*
Y0214*
X00188Y02133*
X00182*
X00188*
X00195Y02127*
Y0212*
X00188Y02114*
X00175*
X00169Y0212*
X0087Y02122D02*
Y02161D01*
X00889*
X00896Y02154*
Y02141*
X00889Y02135*
X0087*
X00929Y02161D02*
X00915D01*
X00909Y02154*
Y02128*
X00915Y02122*
X00929*
X00935Y02128*
Y02154*
X00929Y02161*
X00948D02*
X00975D01*
X00961*
Y02122*
X00988D02*
Y02148D01*
X01001Y02161*
X01014Y02148*
Y02122*
Y02141*
X00988*
X01027Y02122D02*
Y02161D01*
X01047*
X01053Y02154*
Y02141*
X01047Y02135*
X01027*
X0104D02*
X01053Y02122D01*
X01066Y02161D02*
Y02122D01*
X01086*
X01093Y02128*
Y02154*
X01086Y02161*
X01066*
G54D32*
X01755Y02255D02*
Y02283D01*
X01803Y02255D02*
Y02283D01*
X00137Y02248D02*
Y02275D01*
X00185Y02248D02*
Y02275D01*
X00468Y02251D02*
Y02279D01*
X00515Y02251D02*
Y02279D01*
X01488Y02255D02*
Y02283D01*
X01535Y02255D02*
Y02283D01*
X01169Y00996D02*
X01196D01*
X01169Y01043D02*
X01196D01*
X00248Y00574D02*
X00275D01*
X00248Y00622D02*
X00275D01*
G54D33*
X01767Y02525D02*
X01807D01*
X00141Y02509D02*
X00181D01*
X00468D02*
X00508D01*
X01491Y02513D02*
X01531D01*
X01098Y00683D02*
X01138D01*
X00527Y00003D02*
Y00503D01*
X001Y00003D02*
Y00503D01*
X00527*
X01551Y00574D02*
X01826D01*
Y00102D02*
Y00574D01*
X01551Y00102D02*
X01826D01*
X01551D02*
Y00574D01*
X01165D02*
X0144D01*
Y00102D02*
Y00574D01*
X01165Y00102D02*
X0144D01*
X01165D02*
Y00574D01*
X01362Y01988D02*
X01421D01*
Y01716D02*
Y01988D01*
X01362Y01716D02*
X01421D01*
X00673Y02188D02*
X01342D01*
X00673D02*
Y02562D01*
X01342Y02188D02*
Y02562D01*
X00673D02*
X00889D01*
X00889Y02563*
X00889Y02562D02*
Y02818D01*
X01121Y02562D02*
X01342D01*
X01121D02*
Y02818D01*
X00889D02*
X00909D01*
X01106D02*
X01121D01*
X00909D02*
Y03133D01*
X01106Y02818D02*
Y03133D01*
X00909D02*
X01106D01*
X00311Y017D02*
X00799D01*
X00311D02*
Y01787D01*
X00799Y017D02*
Y01783D01*
X00307Y01976D02*
X00799D01*
Y01892D02*
Y01976D01*
X00307Y01892D02*
Y01976D01*
X01695Y0082D02*
X01702D01*
Y00878*
X01695D02*
X01702D01*
X01695Y00695D02*
Y00878D01*
Y00695D02*
X01705D01*
X01786Y00819D02*
X01794D01*
X01786D02*
Y00878D01*
X01794*
Y00694D02*
Y00878D01*
X01783Y00694D02*
X01794D01*
X01385Y00698D02*
X01396D01*
Y00882*
X01388D02*
X01396D01*
X01388Y00823D02*
Y00882D01*
Y00823D02*
X01396D01*
X01297Y00699D02*
X01307D01*
X01297D02*
Y00882D01*
X01304*
Y00824D02*
Y00882D01*
X01297Y00824D02*
X01304D01*
G54D34*
X01698Y00849D03*
X013Y00853D03*
G54D35*
X0179Y00848D03*
X01392Y00852D03*
M02*