%FSLAX44Y44*%
%MOMM*%
G71*
G01*
G75*
%ADD10R,3.5000X0.7500*%
%ADD11O,1.5500X0.6000*%
%ADD12R,1.5500X0.6000*%
G04:AMPARAMS|DCode=13|XSize=2mm|YSize=1mm|CornerRadius=0.25mm|HoleSize=0mm|Usage=FLASHONLY|Rotation=90.000|XOffset=0mm|YOffset=0mm|HoleType=Round|Shape=RoundedRectangle|*
%AMROUNDEDRECTD13*
21,1,2.0000,0.5000,0,0,90.0*
21,1,1.5000,1.0000,0,0,90.0*
1,1,0.5000,0.2500,0.7500*
1,1,0.5000,0.2500,-0.7500*
1,1,0.5000,-0.2500,-0.7500*
1,1,0.5000,-0.2500,0.7500*
%
%ADD13ROUNDEDRECTD13*%
%ADD14R,1.0000X2.0000*%
%ADD15R,0.9000X2.0000*%
%ADD16R,2.0000X0.7000*%
%ADD17R,2.0000X0.8000*%
%ADD18R,1.2500X1.2500*%
%ADD19R,1.2500X1.2500*%
%ADD20R,0.6000X2.0000*%
%ADD21R,0.6000X1.5000*%
%ADD22R,1.4000X1.0000*%
%ADD23R,2.5000X1.7000*%
%ADD24R,3.0000X1.6000*%
%ADD25O,1.4500X0.4000*%
%ADD26R,1.4500X0.4000*%
%ADD27R,0.7200X1.7800*%
%ADD28O,0.7200X1.7800*%
%ADD29R,2.1590X2.7430*%
%ADD30C,0.7000*%
%ADD31C,1.5000*%
%ADD32C,0.3000*%
%ADD33C,0.5000*%
%ADD34C,0.4000*%
%ADD35C,1.5000*%
%ADD36R,1.8500X1.8500*%
%ADD37C,1.8500*%
%ADD38R,1.8500X1.8500*%
%ADD39R,1.5000X0.9000*%
%ADD40O,1.5000X0.9000*%
%ADD41R,2.0000X2.0000*%
%ADD42C,2.0000*%
%ADD43R,2.0000X2.0000*%
%ADD44C,1.5240*%
%ADD45R,1.5240X1.5240*%
%ADD46R,1.5000X1.5000*%
%ADD47R,1.5240X1.5240*%
%ADD48C,1.2700*%
%ADD49C,1.0000*%
%ADD50C,0.7000*%
%ADD51C,0.2000*%
%ADD52C,0.2540*%
%ADD53C,0.2500*%
%ADD54C,0.2560*%
%ADD55C,0.1500*%
D51*
X637235Y417830D02*
G03*
X643585Y417830I3175J0D01*
G01*
X421640Y892755D02*
G03*
X421640Y899105I0J3175D01*
G01*
X362005Y396950D02*
G03*
X365255Y396950I1625J0D01*
G01*
X346710Y510445D02*
G03*
X346710Y516795I0J3175D01*
G01*
X629510Y367030D02*
Y417830D01*
Y367030D02*
X651310D01*
Y417830D01*
X643585D02*
X651310D01*
X629510D02*
X637235D01*
X654050Y914780D02*
Y1000380D01*
X628650Y914780D02*
X654050D01*
X628650D02*
Y1000380D01*
X654050D01*
X260730Y944880D02*
X346330D01*
X260730D02*
Y970280D01*
X346330D01*
Y944880D02*
Y970280D01*
X342520Y881380D02*
Y932180D01*
X256920D02*
X342520D01*
X256920Y881380D02*
Y932180D01*
Y881380D02*
X342520D01*
X421640Y880680D02*
X472440D01*
Y910680D01*
X421640D02*
X472440D01*
X421640Y899105D02*
Y910680D01*
Y880680D02*
Y892755D01*
X382650Y322580D02*
X468250D01*
Y297180D02*
Y322580D01*
X382650Y297180D02*
X468250D01*
X382650D02*
Y322580D01*
X284480Y297180D02*
X335280D01*
Y322580D01*
X284480D02*
X335280D01*
X284480Y297180D02*
Y322580D01*
X357230Y370950D02*
Y396950D01*
Y370950D02*
X370030D01*
Y396950D01*
X365255D02*
X370030D01*
X357230D02*
X362005D01*
X346710Y507470D02*
Y510445D01*
Y516795D02*
Y519770D01*
X397510D01*
Y507470D02*
Y519770D01*
X346710Y507470D02*
X397510D01*
D52*
X583500Y977900D02*
G03*
X583500Y977900I-25000J0D01*
G01*
X469500Y971850D02*
G03*
X469500Y971850I-25000J0D01*
G01*
X463150Y1046180D02*
G03*
X463150Y1046180I-25000J0D01*
G01*
X302639Y1015455D02*
G03*
X276481Y1015455I-13079J27165D01*
G01*
X618340Y625061D02*
G03*
X618340Y675419I0J25179D01*
G01*
X552340D02*
G03*
X552340Y625061I0J-25179D01*
G01*
X497490Y752460D02*
G03*
X497490Y752460I-10050J0D01*
G01*
X512004Y784925D02*
G03*
X512440Y814002I436J14535D01*
G01*
X418113Y869680D02*
G03*
X418113Y869680I-4123J0D01*
G01*
X758740Y525380D02*
G03*
X758740Y525380I-45000J0D01*
G01*
X520850Y389890D02*
G03*
X520850Y389890I-45000J0D01*
G01*
X495450Y485140D02*
G03*
X495450Y485140I-45000J0D01*
G01*
X356380Y591120D02*
G03*
X356380Y567120I0J-12000D01*
G01*
X290450Y642480D02*
X300450Y632480D01*
X290450Y688480D02*
X300450Y698480D01*
X290450Y687480D02*
Y688480D01*
Y685480D02*
Y687480D01*
Y698480D02*
X356450D01*
Y676480D02*
Y698480D01*
X290450Y676480D02*
Y698480D01*
X356450Y632480D02*
Y654480D01*
X290450Y632480D02*
Y654480D01*
Y632480D02*
X356450D01*
X505240Y1047480D02*
Y1211480D01*
X826240Y1047480D02*
Y1211480D01*
X505240Y1047480D02*
X514240D01*
X818240D02*
X826240D01*
X648240D02*
X798240D01*
X505240Y1211480D02*
X514240D01*
X595240D02*
X641240D01*
X686240D02*
X797240D01*
X818240D02*
X826240D01*
X462370Y1095630D02*
X463370D01*
Y1119630D01*
X462370Y1221630D02*
Y1247630D01*
X436370Y1095630D02*
X462370D01*
X435370Y1247630D02*
X462370D01*
X255370Y1095630D02*
X284370D01*
X255370Y1246630D02*
X284370D01*
X276481Y1015455D02*
X302639D01*
X398460Y709250D02*
Y878250D01*
X552340Y625061D02*
X618340D01*
X552340Y675419D02*
X618161D01*
X511940Y765460D02*
X689940D01*
Y831460D01*
X511940D02*
X689940D01*
X511940Y765460D02*
Y831460D01*
X311700Y828200D02*
X326700D01*
X311700Y867200D02*
X326700D01*
X309200Y828200D02*
X311700D01*
X309200D02*
Y837200D01*
Y858200D02*
Y867200D01*
X311700D01*
X326700Y828200D02*
X329200D01*
X330200Y847200D02*
Y848200D01*
X326700Y867200D02*
X329200D01*
X293050Y734380D02*
Y825380D01*
X620250Y476870D02*
Y489870D01*
X579250Y483870D02*
X586750Y476370D01*
X579250Y483870D02*
X586750Y491370D01*
X490960Y693720D02*
Y707720D01*
Y653720D02*
Y667720D01*
X436960Y653720D02*
Y667720D01*
Y693720D02*
Y707720D01*
X490960D01*
X436960Y653720D02*
X490960D01*
X436960Y700720D02*
X443960Y707720D01*
X436960Y660720D02*
X443960Y653720D01*
X443960Y698720D02*
X449960D01*
X446960Y695720D02*
Y701720D01*
X490960Y634030D02*
Y648030D01*
Y594030D02*
Y608030D01*
X436960Y594030D02*
Y608030D01*
Y634030D02*
Y648030D01*
X490960D01*
X436960Y594030D02*
X490960D01*
X436960Y641030D02*
X443960Y648030D01*
X436960Y601030D02*
X443960Y594030D01*
X443960Y639030D02*
X449960D01*
X446960Y636030D02*
Y642030D01*
X389380Y568120D02*
Y590120D01*
X705870Y813930D02*
Y893930D01*
Y934930D02*
Y1014930D01*
X794870Y812930D02*
Y1014930D01*
X705870Y812930D02*
X794870D01*
X705870Y1014930D02*
X794870D01*
X705870Y578980D02*
Y658980D01*
Y699980D02*
Y779980D01*
X794870Y577980D02*
Y779980D01*
X705870Y577980D02*
X794870D01*
X705870Y779980D02*
X794870D01*
X518157Y1247135D02*
X513078D01*
X515617D01*
Y1234439D01*
X513078Y1231900D01*
X510539D01*
X508000Y1234439D01*
X530853Y1231900D02*
Y1247135D01*
X523235Y1239518D01*
X533392D01*
X654050Y701035D02*
Y698496D01*
X659128Y693418D01*
X664207Y698496D01*
Y701035D01*
X659128Y693418D02*
Y685800D01*
X669285D02*
X674363D01*
X671824D01*
Y701035D01*
X669285Y698496D01*
X610870Y440685D02*
Y427989D01*
X613409Y425450D01*
X618488D01*
X621027Y427989D01*
Y440685D01*
X633723Y425450D02*
Y440685D01*
X626105Y433068D01*
X636262D01*
X342900Y421635D02*
Y408939D01*
X345439Y406400D01*
X350518D01*
X353057Y408939D01*
Y421635D01*
X358135Y419096D02*
X360674Y421635D01*
X365753D01*
X368292Y419096D01*
Y416557D01*
X365753Y414017D01*
X363213D01*
X365753D01*
X368292Y411478D01*
Y408939D01*
X365753Y406400D01*
X360674D01*
X358135Y408939D01*
X482605Y895350D02*
X495301D01*
X497840Y897889D01*
Y902968D01*
X495301Y905507D01*
X482605D01*
X497840Y920742D02*
Y910585D01*
X487683Y920742D01*
X485144D01*
X482605Y918203D01*
Y913124D01*
X485144Y910585D01*
X485145Y834390D02*
X497841D01*
X500380Y836929D01*
Y842008D01*
X497841Y844547D01*
X485145D01*
X500380Y849625D02*
Y854703D01*
Y852164D01*
X485145D01*
X487684Y849625D01*
X270507Y989326D02*
X267967Y991865D01*
X262889D01*
X260350Y989326D01*
Y986787D01*
X262889Y984248D01*
X267967D01*
X270507Y981708D01*
Y979169D01*
X267967Y976630D01*
X262889D01*
X260350Y979169D01*
X283203Y976630D02*
Y991865D01*
X275585Y984248D01*
X285742D01*
X494027Y334006D02*
X491488Y336545D01*
X486409D01*
X483870Y334006D01*
Y331467D01*
X486409Y328927D01*
X491488D01*
X494027Y326388D01*
Y323849D01*
X491488Y321310D01*
X486409D01*
X483870Y323849D01*
X499105Y334006D02*
X501644Y336545D01*
X506723D01*
X509262Y334006D01*
Y331467D01*
X506723Y328927D01*
X504183D01*
X506723D01*
X509262Y326388D01*
Y323849D01*
X506723Y321310D01*
X501644D01*
X499105Y323849D01*
X270507Y873756D02*
X267967Y876295D01*
X262889D01*
X260350Y873756D01*
Y871217D01*
X262889Y868678D01*
X267967D01*
X270507Y866138D01*
Y863599D01*
X267967Y861060D01*
X262889D01*
X260350Y863599D01*
X285742Y861060D02*
X275585D01*
X285742Y871217D01*
Y873756D01*
X283203Y876295D01*
X278124D01*
X275585Y873756D01*
X641347Y1027426D02*
X638807Y1029965D01*
X633729D01*
X631190Y1027426D01*
Y1024887D01*
X633729Y1022347D01*
X638807D01*
X641347Y1019808D01*
Y1017269D01*
X638807Y1014730D01*
X633729D01*
X631190Y1017269D01*
X646425Y1014730D02*
X651503D01*
X648964D01*
Y1029965D01*
X646425Y1027426D01*
X397510Y332740D02*
X387513D01*
Y337738D01*
X389179Y339404D01*
X392512D01*
X394178Y337738D01*
Y332740D01*
Y336072D02*
X397510Y339404D01*
Y349401D02*
Y342737D01*
X390845Y349401D01*
X389179D01*
X387513Y347735D01*
Y344403D01*
X389179Y342737D01*
Y352734D02*
X387513Y354400D01*
Y357732D01*
X389179Y359398D01*
X390845D01*
X392512Y357732D01*
Y356066D01*
Y357732D01*
X394178Y359398D01*
X395844D01*
X397510Y357732D01*
Y354400D01*
X395844Y352734D01*
X651510Y313690D02*
X636275D01*
Y321307D01*
X638814Y323847D01*
X643893D01*
X646432Y321307D01*
Y313690D01*
Y318768D02*
X651510Y323847D01*
Y339082D02*
Y328925D01*
X641353Y339082D01*
X638814D01*
X636275Y336543D01*
Y331464D01*
X638814Y328925D01*
X651510Y354317D02*
Y344160D01*
X641353Y354317D01*
X638814D01*
X636275Y351778D01*
Y346699D01*
X638814Y344160D01*
X740410Y353060D02*
Y368295D01*
X748027D01*
X750567Y365756D01*
Y360677D01*
X748027Y358138D01*
X740410D01*
X745488D02*
X750567Y353060D01*
X765802D02*
X755645D01*
X765802Y363217D01*
Y365756D01*
X763263Y368295D01*
X758184D01*
X755645Y365756D01*
X770880Y353060D02*
X775958D01*
X773419D01*
Y368295D01*
X770880Y365756D01*
X739140Y374650D02*
Y389885D01*
X746758D01*
X749297Y387346D01*
Y382267D01*
X746758Y379728D01*
X739140D01*
X744218D02*
X749297Y374650D01*
X764532D02*
X754375D01*
X764532Y384807D01*
Y387346D01*
X761993Y389885D01*
X756914D01*
X754375Y387346D01*
X769610D02*
X772149Y389885D01*
X777228D01*
X779767Y387346D01*
Y377189D01*
X777228Y374650D01*
X772149D01*
X769610Y377189D01*
Y387346D01*
X553720Y281940D02*
X538485D01*
Y289557D01*
X541024Y292097D01*
X546102D01*
X548642Y289557D01*
Y281940D01*
Y287018D02*
X553720Y292097D01*
Y297175D02*
Y302253D01*
Y299714D01*
X538485D01*
X541024Y297175D01*
X551181Y309871D02*
X553720Y312410D01*
Y317488D01*
X551181Y320028D01*
X541024D01*
X538485Y317488D01*
Y312410D01*
X541024Y309871D01*
X543563D01*
X546102Y312410D01*
Y320028D01*
X553720Y332740D02*
X538485D01*
Y340358D01*
X541024Y342897D01*
X546102D01*
X548642Y340358D01*
Y332740D01*
Y337818D02*
X553720Y342897D01*
Y347975D02*
Y353053D01*
Y350514D01*
X538485D01*
X541024Y347975D01*
Y360671D02*
X538485Y363210D01*
Y368288D01*
X541024Y370828D01*
X543563D01*
X546102Y368288D01*
X548642Y370828D01*
X551181D01*
X553720Y368288D01*
Y363210D01*
X551181Y360671D01*
X548642D01*
X546102Y363210D01*
X543563Y360671D01*
X541024D01*
X546102Y363210D02*
Y368288D01*
X293370Y384810D02*
Y392308D01*
X297119D01*
X298368Y391058D01*
Y388559D01*
X297119Y387309D01*
X293370D01*
X295869D02*
X298368Y384810D01*
X300868D02*
X303367D01*
X302117D01*
Y392308D01*
X300868Y391058D01*
X307116Y392308D02*
X312114D01*
Y391058D01*
X307116Y386060D01*
Y384810D01*
X327660Y346710D02*
Y354208D01*
X331409D01*
X332658Y352958D01*
Y350459D01*
X331409Y349209D01*
X327660D01*
X330159D02*
X332658Y346710D01*
X335158D02*
X337657D01*
X336407D01*
Y354208D01*
X335158Y352958D01*
X346404Y354208D02*
X343905Y352958D01*
X341406Y350459D01*
Y347960D01*
X342655Y346710D01*
X345154D01*
X346404Y347960D01*
Y349209D01*
X345154Y350459D01*
X341406D01*
X290830Y516890D02*
Y526887D01*
X295828D01*
X297495Y525221D01*
Y521888D01*
X295828Y520222D01*
X290830D01*
X294162D02*
X297495Y516890D01*
X300827D02*
X304159D01*
X302493D01*
Y526887D01*
X300827Y525221D01*
X315822Y526887D02*
X309157D01*
Y521888D01*
X312490Y523554D01*
X314156D01*
X315822Y521888D01*
Y518556D01*
X314156Y516890D01*
X310824D01*
X309157Y518556D01*
X290830Y461010D02*
Y468508D01*
X294579D01*
X295828Y467258D01*
Y464759D01*
X294579Y463509D01*
X290830D01*
X293329D02*
X295828Y461010D01*
X298328D02*
X300827D01*
X299577D01*
Y468508D01*
X298328Y467258D01*
X308324Y461010D02*
Y468508D01*
X304576Y464759D01*
X309574D01*
X367030Y994410D02*
X351795D01*
Y1002028D01*
X354334Y1004567D01*
X359412D01*
X361952Y1002028D01*
Y994410D01*
Y999488D02*
X367030Y1004567D01*
Y1009645D02*
Y1014723D01*
Y1012184D01*
X351795D01*
X354334Y1009645D01*
Y1022341D02*
X351795Y1024880D01*
Y1029958D01*
X354334Y1032498D01*
X356873D01*
X359412Y1029958D01*
Y1027419D01*
Y1029958D01*
X361952Y1032498D01*
X364491D01*
X367030Y1029958D01*
Y1024880D01*
X364491Y1022341D01*
X398780Y1049020D02*
X386284D01*
Y1055268D01*
X388367Y1057351D01*
X392532D01*
X394615Y1055268D01*
Y1049020D01*
Y1053185D02*
X398780Y1057351D01*
Y1061516D02*
Y1065681D01*
Y1063599D01*
X386284D01*
X388367Y1061516D01*
X398780Y1080260D02*
Y1071929D01*
X390449Y1080260D01*
X388367D01*
X386284Y1078177D01*
Y1074012D01*
X388367Y1071929D01*
X379730Y958850D02*
X369733D01*
Y963848D01*
X371399Y965515D01*
X374732D01*
X376398Y963848D01*
Y958850D01*
Y962182D02*
X379730Y965515D01*
Y968847D02*
Y972179D01*
Y970513D01*
X369733D01*
X371399Y968847D01*
X379730Y977177D02*
Y980510D01*
Y978844D01*
X369733D01*
X371399Y977177D01*
X518160Y925740D02*
X502925D01*
Y933357D01*
X505464Y935897D01*
X510542D01*
X513082Y933357D01*
Y925740D01*
Y930818D02*
X518160Y935897D01*
Y940975D02*
Y946053D01*
Y943514D01*
X502925D01*
X505464Y940975D01*
Y953671D02*
X502925Y956210D01*
Y961289D01*
X505464Y963828D01*
X515621D01*
X518160Y961289D01*
Y956210D01*
X515621Y953671D01*
X505464D01*
X367030Y1049020D02*
X351795D01*
Y1056637D01*
X354334Y1059177D01*
X359412D01*
X361952Y1056637D01*
Y1049020D01*
Y1054098D02*
X367030Y1059177D01*
X364491Y1064255D02*
X367030Y1066794D01*
Y1071873D01*
X364491Y1074412D01*
X354334D01*
X351795Y1071873D01*
Y1066794D01*
X354334Y1064255D01*
X356873D01*
X359412Y1066794D01*
Y1074412D01*
X327660Y737870D02*
X312425D01*
Y745488D01*
X314964Y748027D01*
X320042D01*
X322582Y745488D01*
Y737870D01*
Y742948D02*
X327660Y748027D01*
X314964Y753105D02*
X312425Y755644D01*
Y760723D01*
X314964Y763262D01*
X317503D01*
X320042Y760723D01*
X322582Y763262D01*
X325121D01*
X327660Y760723D01*
Y755644D01*
X325121Y753105D01*
X322582D01*
X320042Y755644D01*
X317503Y753105D01*
X314964D01*
X320042Y755644D02*
Y760723D01*
X546100Y1231900D02*
Y1247135D01*
X553717D01*
X556257Y1244596D01*
Y1239518D01*
X553717Y1236978D01*
X546100D01*
X551178D02*
X556257Y1231900D01*
X571492Y1247135D02*
X561335D01*
Y1239518D01*
X566413Y1242057D01*
X568953D01*
X571492Y1239518D01*
Y1234439D01*
X568953Y1231900D01*
X563874D01*
X561335Y1234439D01*
X369570Y938530D02*
Y948527D01*
X374568D01*
X376235Y946861D01*
Y943528D01*
X374568Y941862D01*
X369570D01*
X372902D02*
X376235Y938530D01*
X384565D02*
Y948527D01*
X379567Y943528D01*
X386231D01*
X664210Y1013460D02*
Y1028695D01*
X671827D01*
X674367Y1026156D01*
Y1021077D01*
X671827Y1018538D01*
X664210D01*
X669288D02*
X674367Y1013460D01*
X679445Y1026156D02*
X681984Y1028695D01*
X687063D01*
X689602Y1026156D01*
Y1023617D01*
X687063Y1021077D01*
X684523D01*
X687063D01*
X689602Y1018538D01*
Y1015999D01*
X687063Y1013460D01*
X681984D01*
X679445Y1015999D01*
X444500Y718820D02*
X429265D01*
Y726438D01*
X431804Y728977D01*
X436883D01*
X439422Y726438D01*
Y718820D01*
Y723898D02*
X444500Y728977D01*
Y744212D02*
Y734055D01*
X434343Y744212D01*
X431804D01*
X429265Y741673D01*
Y736594D01*
X431804Y734055D01*
X469900Y798830D02*
Y814065D01*
X477518D01*
X480057Y811526D01*
Y806448D01*
X477518Y803908D01*
X469900D01*
X474978D02*
X480057Y798830D01*
X485135D02*
X490213D01*
X487674D01*
Y814065D01*
X485135Y811526D01*
X331785Y542686D02*
Y549351D01*
X330118Y551017D01*
X326786D01*
X325120Y549351D01*
Y542686D01*
X326786Y541020D01*
X330118D01*
X328452Y544352D02*
X331785Y541020D01*
X330118D02*
X331785Y542686D01*
X341781Y541020D02*
X335117D01*
X341781Y547685D01*
Y549351D01*
X340115Y551017D01*
X336783D01*
X335117Y549351D01*
X346711Y811527D02*
X336554D01*
X334015Y808988D01*
Y803909D01*
X336554Y801370D01*
X346711D01*
X349250Y803909D01*
Y808988D01*
X344172Y806448D02*
X349250Y811527D01*
Y808988D02*
X346711Y811527D01*
X349250Y816605D02*
Y821683D01*
Y819144D01*
X334015D01*
X336554Y816605D01*
X265430Y821690D02*
Y831687D01*
X268762Y828354D01*
X272094Y831687D01*
Y821690D01*
X275427D02*
X278759D01*
X277093D01*
Y831687D01*
X275427Y830021D01*
X742950Y474975D02*
Y459740D01*
X753107D01*
X758185Y472436D02*
X760724Y474975D01*
X765803D01*
X768342Y472436D01*
Y469897D01*
X765803Y467357D01*
X763263D01*
X765803D01*
X768342Y464818D01*
Y462279D01*
X765803Y459740D01*
X760724D01*
X758185Y462279D01*
X435610Y562605D02*
Y547370D01*
X445767D01*
X461002D02*
X450845D01*
X461002Y557527D01*
Y560066D01*
X458463Y562605D01*
X453384D01*
X450845Y560066D01*
X492760Y458465D02*
Y443230D01*
X502917D01*
X507995D02*
X513073D01*
X510534D01*
Y458465D01*
X507995Y455926D01*
X306067Y1272535D02*
X300988D01*
X303528D01*
Y1259839D01*
X300988Y1257300D01*
X298449D01*
X295910Y1259839D01*
X311145Y1257300D02*
X316223D01*
X313684D01*
Y1272535D01*
X311145Y1269996D01*
X380997Y703575D02*
X375918D01*
X378457D01*
Y690879D01*
X375918Y688340D01*
X373379D01*
X370840Y690879D01*
X386075Y701036D02*
X388614Y703575D01*
X393693D01*
X396232Y701036D01*
Y690879D01*
X393693Y688340D01*
X388614D01*
X386075Y690879D01*
Y701036D01*
X464820Y1075685D02*
Y1060450D01*
X472438D01*
X474977Y1062989D01*
Y1073146D01*
X472438Y1075685D01*
X464820D01*
X490212D02*
X485133Y1073146D01*
X480055Y1068067D01*
Y1062989D01*
X482594Y1060450D01*
X487673D01*
X490212Y1062989D01*
Y1065528D01*
X487673Y1068067D01*
X480055D01*
X464820Y1010915D02*
Y995680D01*
X472438D01*
X474977Y998219D01*
Y1008376D01*
X472438Y1010915D01*
X464820D01*
X490212D02*
X480055D01*
Y1003298D01*
X485133Y1005837D01*
X487673D01*
X490212Y1003298D01*
Y998219D01*
X487673Y995680D01*
X482594D01*
X480055Y998219D01*
X584200Y1009645D02*
Y994410D01*
X591818D01*
X594357Y996949D01*
Y1007106D01*
X591818Y1009645D01*
X584200D01*
X607053Y994410D02*
Y1009645D01*
X599435Y1002028D01*
X609592D01*
X528320Y516885D02*
Y501650D01*
X535938D01*
X538477Y504189D01*
Y514346D01*
X535938Y516885D01*
X528320D01*
X543555Y514346D02*
X546094Y516885D01*
X551173D01*
X553712Y514346D01*
Y511807D01*
X551173Y509268D01*
X548633D01*
X551173D01*
X553712Y506728D01*
Y504189D01*
X551173Y501650D01*
X546094D01*
X543555Y504189D01*
X319786Y616707D02*
Y601472D01*
X327403D01*
X329943Y604011D01*
Y614168D01*
X327403Y616707D01*
X319786D01*
X345178Y601472D02*
X335021D01*
X345178Y611629D01*
Y614168D01*
X342639Y616707D01*
X337560D01*
X335021Y614168D01*
X294640Y1005835D02*
Y990600D01*
X302257D01*
X304797Y993139D01*
Y1003296D01*
X302257Y1005835D01*
X294640D01*
X309875Y990600D02*
X314953D01*
X312414D01*
Y1005835D01*
X309875Y1003296D01*
X702307Y440686D02*
X699768Y443225D01*
X694689D01*
X692150Y440686D01*
Y430529D01*
X694689Y427990D01*
X699768D01*
X702307Y430529D01*
X717542Y427990D02*
X707385D01*
X717542Y438147D01*
Y440686D01*
X715003Y443225D01*
X709924D01*
X707385Y440686D01*
X732777Y427990D02*
X722620D01*
X732777Y438147D01*
Y440686D01*
X730238Y443225D01*
X725159D01*
X722620Y440686D01*
X749297Y411476D02*
X746758Y414015D01*
X741679D01*
X739140Y411476D01*
Y401319D01*
X741679Y398780D01*
X746758D01*
X749297Y401319D01*
X764532Y398780D02*
X754375D01*
X764532Y408937D01*
Y411476D01*
X761993Y414015D01*
X756914D01*
X754375Y411476D01*
X769610Y398780D02*
X774688D01*
X772149D01*
Y414015D01*
X769610Y411476D01*
X585474Y323847D02*
X582935Y321307D01*
Y316229D01*
X585474Y313690D01*
X595631D01*
X598170Y316229D01*
Y321307D01*
X595631Y323847D01*
X598170Y339082D02*
Y328925D01*
X588013Y339082D01*
X585474D01*
X582935Y336543D01*
Y331464D01*
X585474Y328925D01*
Y344160D02*
X582935Y346699D01*
Y351778D01*
X585474Y354317D01*
X595631D01*
X598170Y351778D01*
Y346699D01*
X595631Y344160D01*
X585474D01*
X629917Y535936D02*
X627378Y538475D01*
X622299D01*
X619760Y535936D01*
Y525779D01*
X622299Y523240D01*
X627378D01*
X629917Y525779D01*
X634995Y523240D02*
X640073D01*
X637534D01*
Y538475D01*
X634995Y535936D01*
X647691Y525779D02*
X650230Y523240D01*
X655309D01*
X657848Y525779D01*
Y535936D01*
X655309Y538475D01*
X650230D01*
X647691Y535936D01*
Y533397D01*
X650230Y530858D01*
X657848D01*
X629917Y514346D02*
X627378Y516885D01*
X622299D01*
X619760Y514346D01*
Y504189D01*
X622299Y501650D01*
X627378D01*
X629917Y504189D01*
X634995Y501650D02*
X640073D01*
X637534D01*
Y516885D01*
X634995Y514346D01*
X647691D02*
X650230Y516885D01*
X655309D01*
X657848Y514346D01*
Y511807D01*
X655309Y509268D01*
X657848Y506728D01*
Y504189D01*
X655309Y501650D01*
X650230D01*
X647691Y504189D01*
Y506728D01*
X650230Y509268D01*
X647691Y511807D01*
Y514346D01*
X650230Y509268D02*
X655309D01*
X702307Y463546D02*
X699768Y466085D01*
X694689D01*
X692150Y463546D01*
Y453389D01*
X694689Y450850D01*
X699768D01*
X702307Y453389D01*
X707385Y450850D02*
X712463D01*
X709924D01*
Y466085D01*
X707385Y463546D01*
X720081Y466085D02*
X730238D01*
Y463546D01*
X720081Y453389D01*
Y450850D01*
X265744Y640791D02*
X264078Y642457D01*
X260746D01*
X259080Y640791D01*
Y634126D01*
X260746Y632460D01*
X264078D01*
X265744Y634126D01*
X269077Y632460D02*
X272409D01*
X270743D01*
Y642457D01*
X269077Y640791D01*
X284072Y642457D02*
X280740Y640791D01*
X277407Y637458D01*
Y634126D01*
X279074Y632460D01*
X282406D01*
X284072Y634126D01*
Y635792D01*
X282406Y637458D01*
X277407D01*
X405444Y438861D02*
X403778Y440527D01*
X400446D01*
X398780Y438861D01*
Y432196D01*
X400446Y430530D01*
X403778D01*
X405444Y432196D01*
X408777Y430530D02*
X412109D01*
X410443D01*
Y440527D01*
X408777Y438861D01*
X423772Y440527D02*
X417107D01*
Y435528D01*
X420440Y437195D01*
X422106D01*
X423772Y435528D01*
Y432196D01*
X422106Y430530D01*
X418774D01*
X417107Y432196D01*
X358455Y460451D02*
X356788Y462117D01*
X353456D01*
X351790Y460451D01*
Y453786D01*
X353456Y452120D01*
X356788D01*
X358455Y453786D01*
X361787Y452120D02*
X365119D01*
X363453D01*
Y462117D01*
X361787Y460451D01*
X375116Y452120D02*
Y462117D01*
X370117Y457118D01*
X376782D01*
X326308Y467258D02*
X325059Y468508D01*
X322560D01*
X321310Y467258D01*
Y462260D01*
X322560Y461010D01*
X325059D01*
X326308Y462260D01*
X328808Y461010D02*
X331307D01*
X330057D01*
Y468508D01*
X328808Y467258D01*
X335056D02*
X336305Y468508D01*
X338804D01*
X340054Y467258D01*
Y466008D01*
X338804Y464759D01*
X337555D01*
X338804D01*
X340054Y463509D01*
Y462260D01*
X338804Y461010D01*
X336305D01*
X335056Y462260D01*
X401324Y615947D02*
X398785Y613408D01*
Y608329D01*
X401324Y605790D01*
X411481D01*
X414020Y608329D01*
Y613408D01*
X411481Y615947D01*
X414020Y621025D02*
Y626103D01*
Y623564D01*
X398785D01*
X401324Y621025D01*
X414020Y643878D02*
Y633721D01*
X403863Y643878D01*
X401324D01*
X398785Y641339D01*
Y636260D01*
X401324Y633721D01*
X486407Y731516D02*
X483867Y734055D01*
X478789D01*
X476250Y731516D01*
Y721359D01*
X478789Y718820D01*
X483867D01*
X486407Y721359D01*
X491485Y718820D02*
X496563D01*
X494024D01*
Y734055D01*
X491485Y731516D01*
X504181Y718820D02*
X509259D01*
X506720D01*
Y734055D01*
X504181Y731516D01*
X539497Y440131D02*
X537414Y438048D01*
Y433883D01*
X539497Y431800D01*
X547827D01*
X549910Y433883D01*
Y438048D01*
X547827Y440131D01*
X549910Y444296D02*
Y448461D01*
Y446379D01*
X537414D01*
X539497Y444296D01*
Y454709D02*
X537414Y456792D01*
Y460957D01*
X539497Y463040D01*
X547827D01*
X549910Y460957D01*
Y456792D01*
X547827Y454709D01*
X539497D01*
X560074Y441957D02*
X557535Y439417D01*
Y434339D01*
X560074Y431800D01*
X570231D01*
X572770Y434339D01*
Y439417D01*
X570231Y441957D01*
Y447035D02*
X572770Y449574D01*
Y454653D01*
X570231Y457192D01*
X560074D01*
X557535Y454653D01*
Y449574D01*
X560074Y447035D01*
X562613D01*
X565153Y449574D01*
Y457192D01*
X582934Y441957D02*
X580395Y439417D01*
Y434339D01*
X582934Y431800D01*
X593091D01*
X595630Y434339D01*
Y439417D01*
X593091Y441957D01*
X582934Y447035D02*
X580395Y449574D01*
Y454653D01*
X582934Y457192D01*
X585473D01*
X588013Y454653D01*
X590552Y457192D01*
X593091D01*
X595630Y454653D01*
Y449574D01*
X593091Y447035D01*
X590552D01*
X588013Y449574D01*
X585473Y447035D01*
X582934D01*
X588013Y449574D02*
Y454653D01*
X407674Y838197D02*
X405135Y835658D01*
Y830579D01*
X407674Y828040D01*
X417831D01*
X420370Y830579D01*
Y835658D01*
X417831Y838197D01*
X405135Y843275D02*
Y853432D01*
X407674D01*
X417831Y843275D01*
X420370D01*
X452124Y728977D02*
X449585Y726438D01*
Y721359D01*
X452124Y718820D01*
X462281D01*
X464820Y721359D01*
Y726438D01*
X462281Y728977D01*
X449585Y744212D02*
X452124Y739133D01*
X457202Y734055D01*
X462281D01*
X464820Y736594D01*
Y741673D01*
X462281Y744212D01*
X459742D01*
X457202Y741673D01*
Y734055D01*
X523237Y899156D02*
X520698Y901695D01*
X515619D01*
X513080Y899156D01*
Y888999D01*
X515619Y886460D01*
X520698D01*
X523237Y888999D01*
X538472Y901695D02*
X528315D01*
Y894078D01*
X533393Y896617D01*
X535933D01*
X538472Y894078D01*
Y888999D01*
X535933Y886460D01*
X530854D01*
X528315Y888999D01*
X628965Y720801D02*
X627298Y722467D01*
X623966D01*
X622300Y720801D01*
Y714136D01*
X623966Y712470D01*
X627298D01*
X628965Y714136D01*
X637295Y712470D02*
Y722467D01*
X632297Y717468D01*
X638961D01*
X588325Y720801D02*
X586658Y722467D01*
X583326D01*
X581660Y720801D01*
Y714136D01*
X583326Y712470D01*
X586658D01*
X588325Y714136D01*
X591657Y720801D02*
X593323Y722467D01*
X596655D01*
X598321Y720801D01*
Y719135D01*
X596655Y717468D01*
X594989D01*
X596655D01*
X598321Y715802D01*
Y714136D01*
X596655Y712470D01*
X593323D01*
X591657Y714136D01*
X546414Y720801D02*
X544748Y722467D01*
X541416D01*
X539750Y720801D01*
Y714136D01*
X541416Y712470D01*
X544748D01*
X546414Y714136D01*
X556411Y712470D02*
X549747D01*
X556411Y719135D01*
Y720801D01*
X554745Y722467D01*
X551413D01*
X549747Y720801D01*
X627377Y901696D02*
X624837Y904235D01*
X619759D01*
X617220Y901696D01*
Y891539D01*
X619759Y889000D01*
X624837D01*
X627377Y891539D01*
X632455Y889000D02*
X637533D01*
X634994D01*
Y904235D01*
X632455Y901696D01*
X298450Y337657D02*
Y327660D01*
X303448D01*
X305114Y329326D01*
Y330992D01*
X303448Y332658D01*
X298450D01*
X303448D01*
X305114Y334324D01*
Y335991D01*
X303448Y337657D01*
X298450D01*
X308447D02*
X315111D01*
X311779D01*
Y327660D01*
X318444D02*
X321776D01*
X320110D01*
Y337657D01*
X318444Y335991D01*
X717420Y1038982D02*
X712341D01*
X714881D01*
Y1026286D01*
X712341Y1023747D01*
X709802D01*
X707263Y1026286D01*
X732655Y1023747D02*
X722498D01*
X732655Y1033904D01*
Y1036443D01*
X730116Y1038982D01*
X725037D01*
X722498Y1036443D01*
X717420Y804032D02*
X712341D01*
X714881D01*
Y791336D01*
X712341Y788797D01*
X709802D01*
X707263Y791336D01*
X722498Y801493D02*
X725037Y804032D01*
X730116D01*
X732655Y801493D01*
Y798954D01*
X730116Y796414D01*
X727576D01*
X730116D01*
X732655Y793875D01*
Y791336D01*
X730116Y788797D01*
X725037D01*
X722498Y791336D01*
X356870Y886460D02*
Y896457D01*
X360202Y893124D01*
X363535Y896457D01*
Y886460D01*
X371865D02*
X368533D01*
X366867Y888126D01*
Y891458D01*
X368533Y893124D01*
X371865D01*
X373531Y891458D01*
Y889792D01*
X366867D01*
X376864Y886460D02*
Y893124D01*
X378530D01*
X380196Y891458D01*
Y886460D01*
Y891458D01*
X381862Y893124D01*
X383528Y891458D01*
Y886460D01*
X388526D02*
X391859D01*
X393525Y888126D01*
Y891458D01*
X391859Y893124D01*
X388526D01*
X386860Y891458D01*
Y888126D01*
X388526Y886460D01*
X396857Y893124D02*
Y886460D01*
Y889792D01*
X398523Y891458D01*
X400189Y893124D01*
X401856D01*
X406854D02*
Y888126D01*
X408520Y886460D01*
X413518D01*
Y884794D01*
X411852Y883128D01*
X410186D01*
X413518Y886460D02*
Y893124D01*
X363535Y911697D02*
X356870D01*
Y906698D01*
X360202D01*
X356870D01*
Y901700D01*
X366867D02*
X370199D01*
X368533D01*
Y911697D01*
X366867D01*
X376864Y908364D02*
X380196D01*
X381862Y906698D01*
Y901700D01*
X376864D01*
X375197Y903366D01*
X376864Y905032D01*
X381862D01*
X385194Y901700D02*
X390193D01*
X391859Y903366D01*
X390193Y905032D01*
X386860D01*
X385194Y906698D01*
X386860Y908364D01*
X391859D01*
X395191Y911697D02*
Y901700D01*
Y906698D01*
X396857Y908364D01*
X400189D01*
X401856Y906698D01*
Y901700D01*
X266700Y706120D02*
Y716117D01*
X270032Y712785D01*
X273365Y716117D01*
Y706120D01*
X278363D02*
X281695D01*
X283361Y707786D01*
Y711118D01*
X281695Y712785D01*
X278363D01*
X276697Y711118D01*
Y707786D01*
X278363Y706120D01*
X288360Y714451D02*
Y712785D01*
X286694D01*
X290026D01*
X288360D01*
Y707786D01*
X290026Y706120D01*
X296690D02*
X300023D01*
X301689Y707786D01*
Y711118D01*
X300023Y712785D01*
X296690D01*
X295024Y711118D01*
Y707786D01*
X296690Y706120D01*
X305021Y712785D02*
Y706120D01*
Y709452D01*
X306687Y711118D01*
X308353Y712785D01*
X310019D01*
X273365Y729691D02*
X271698Y731357D01*
X268366D01*
X266700Y729691D01*
Y728025D01*
X268366Y726358D01*
X271698D01*
X273365Y724692D01*
Y723026D01*
X271698Y721360D01*
X268366D01*
X266700Y723026D01*
X281695Y721360D02*
X278363D01*
X276697Y723026D01*
Y726358D01*
X278363Y728025D01*
X281695D01*
X283361Y726358D01*
Y724692D01*
X276697D01*
X286694Y728025D02*
Y721360D01*
Y724692D01*
X288360Y726358D01*
X290026Y728025D01*
X291692D01*
X296690D02*
X300023Y721360D01*
X303355Y728025D01*
X308353Y721360D02*
X311686D01*
X313352Y723026D01*
Y726358D01*
X311686Y728025D01*
X308353D01*
X306687Y726358D01*
Y723026D01*
X308353Y721360D01*
X303832Y680480D02*
Y690637D01*
X298754Y685558D02*
X308911D01*
X697230Y624840D02*
X687233D01*
X690565Y628172D01*
X687233Y631505D01*
X697230D01*
X690565Y636503D02*
Y639835D01*
X692232Y641501D01*
X697230D01*
Y636503D01*
X695564Y634837D01*
X693898Y636503D01*
Y641501D01*
X700562Y648166D02*
Y649832D01*
X698896Y651498D01*
X690565D01*
Y646500D01*
X692232Y644834D01*
X695564D01*
X697230Y646500D01*
Y651498D01*
Y654830D02*
X690565D01*
Y659829D01*
X692232Y661495D01*
X697230D01*
Y669826D02*
Y666493D01*
X695564Y664827D01*
X692232D01*
X690565Y666493D01*
Y669826D01*
X692232Y671492D01*
X693898D01*
Y664827D01*
X688899Y676490D02*
X690565D01*
Y674824D01*
Y678156D01*
Y676490D01*
X695564D01*
X697230Y678156D01*
Y684821D02*
Y688153D01*
X695564Y689819D01*
X692232D01*
X690565Y688153D01*
Y684821D01*
X692232Y683155D01*
X695564D01*
X697230Y684821D01*
Y693151D02*
X690565D01*
Y694818D01*
X692232Y696484D01*
X697230D01*
X692232D01*
X690565Y698150D01*
X692232Y699816D01*
X697230D01*
Y708147D02*
Y704814D01*
X695564Y703148D01*
X692232D01*
X690565Y704814D01*
Y708147D01*
X692232Y709813D01*
X693898D01*
Y703148D01*
X688899Y714811D02*
X690565D01*
Y713145D01*
Y716477D01*
Y714811D01*
X695564D01*
X697230Y716477D01*
Y726474D02*
Y723142D01*
X695564Y721476D01*
X692232D01*
X690565Y723142D01*
Y726474D01*
X692232Y728140D01*
X693898D01*
Y721476D01*
X690565Y731472D02*
X697230D01*
X693898D01*
X692232Y733138D01*
X690565Y734805D01*
Y736471D01*
X695564Y886460D02*
X697230Y888126D01*
Y891458D01*
X695564Y893124D01*
X688899D01*
X687233Y891458D01*
Y888126D01*
X688899Y886460D01*
X690565D01*
X692232Y888126D01*
Y893124D01*
X697230Y906454D02*
X690565D01*
X687233Y909786D01*
X690565Y913118D01*
X697230D01*
X692232D01*
Y906454D01*
X690565Y916450D02*
X697230Y923115D01*
X693898Y919783D01*
X690565Y923115D01*
X697230Y916450D01*
Y926447D02*
Y929779D01*
Y928113D01*
X690565D01*
Y926447D01*
X697230Y934778D02*
Y939776D01*
X695564Y941442D01*
X693898Y939776D01*
Y936444D01*
X692232Y934778D01*
X690565Y936444D01*
Y941442D01*
X655635Y1242771D02*
X653968Y1244437D01*
X650636D01*
X648970Y1242771D01*
Y1236106D01*
X650636Y1234440D01*
X653968D01*
X655635Y1236106D01*
Y1239438D01*
X652302D01*
X658967Y1234440D02*
Y1244437D01*
X663965D01*
X665631Y1242771D01*
Y1239438D01*
X663965Y1237772D01*
X658967D01*
X675628Y1242771D02*
X673962Y1244437D01*
X670630D01*
X668964Y1242771D01*
Y1241105D01*
X670630Y1239438D01*
X673962D01*
X675628Y1237772D01*
Y1236106D01*
X673962Y1234440D01*
X670630D01*
X668964Y1236106D01*
X323850Y1267297D02*
Y1257300D01*
X328848D01*
X330514Y1258966D01*
Y1260632D01*
X328848Y1262298D01*
X323850D01*
X328848D01*
X330514Y1263964D01*
Y1265631D01*
X328848Y1267297D01*
X323850D01*
X333847Y1257300D02*
X337179D01*
X335513D01*
Y1267297D01*
X333847D01*
X342177Y1263964D02*
Y1258966D01*
X343844Y1257300D01*
X348842D01*
Y1263964D01*
X357173Y1257300D02*
X353840D01*
X352174Y1258966D01*
Y1262298D01*
X353840Y1263964D01*
X357173D01*
X358839Y1262298D01*
Y1260632D01*
X352174D01*
X363837Y1265631D02*
Y1263964D01*
X362171D01*
X365503D01*
X363837D01*
Y1258966D01*
X365503Y1257300D01*
X372168D02*
X375500D01*
X377166Y1258966D01*
Y1262298D01*
X375500Y1263964D01*
X372168D01*
X370502Y1262298D01*
Y1258966D01*
X372168Y1257300D01*
X382164D02*
X385497D01*
X387163Y1258966D01*
Y1262298D01*
X385497Y1263964D01*
X382164D01*
X380498Y1262298D01*
Y1258966D01*
X382164Y1257300D01*
X392161Y1265631D02*
Y1263964D01*
X390495D01*
X393827D01*
X392161D01*
Y1258966D01*
X393827Y1257300D01*
X398826Y1267297D02*
Y1257300D01*
Y1262298D01*
X400492Y1263964D01*
X403824D01*
X405490Y1262298D01*
Y1257300D01*
X692150Y1247140D02*
Y1262135D01*
X697148Y1257137D01*
X702147Y1262135D01*
Y1247140D01*
X709644Y1257137D02*
X714643D01*
X717142Y1254638D01*
Y1247140D01*
X709644D01*
X707145Y1249639D01*
X709644Y1252138D01*
X717142D01*
X732137Y1262135D02*
Y1247140D01*
X724640D01*
X722140Y1249639D01*
Y1254638D01*
X724640Y1257137D01*
X732137D01*
X744633Y1247140D02*
X739635D01*
X737135Y1249639D01*
Y1254638D01*
X739635Y1257137D01*
X744633D01*
X747132Y1254638D01*
Y1252138D01*
X737135D01*
X767126Y1247140D02*
X772124D01*
X769625D01*
Y1257137D01*
X767126D01*
X779622Y1247140D02*
Y1257137D01*
X787119D01*
X789618Y1254638D01*
Y1247140D01*
X709767Y1240545D02*
X699770D01*
Y1233048D01*
X704768D01*
X699770D01*
Y1225550D01*
X714765Y1235547D02*
Y1225550D01*
Y1230548D01*
X717264Y1233048D01*
X719763Y1235547D01*
X722263D01*
X732260D02*
X737258D01*
X739757Y1233048D01*
Y1225550D01*
X732260D01*
X729760Y1228049D01*
X732260Y1230548D01*
X739757D01*
X744755Y1225550D02*
Y1235547D01*
X752253D01*
X754752Y1233048D01*
Y1225550D01*
X769747Y1235547D02*
X762250D01*
X759751Y1233048D01*
Y1228049D01*
X762250Y1225550D01*
X769747D01*
X782243D02*
X777245D01*
X774746Y1228049D01*
Y1233048D01*
X777245Y1235547D01*
X782243D01*
X784743Y1233048D01*
Y1230548D01*
X774746D01*
X698337Y322335D02*
X688340D01*
Y314838D01*
X693338D01*
X688340D01*
Y307340D01*
X703335D02*
Y309839D01*
X705834D01*
Y307340D01*
X703335D01*
X715831Y322335D02*
Y307340D01*
Y314838D01*
X725828D01*
Y322335D01*
Y307340D01*
X738324D02*
X733325D01*
X730826Y309839D01*
Y314838D01*
X733325Y317337D01*
X738324D01*
X740823Y314838D01*
Y312338D01*
X730826D01*
X745821Y317337D02*
Y307340D01*
Y312338D01*
X748321Y314838D01*
X750820Y317337D01*
X753319D01*
X760816Y322335D02*
Y307340D01*
X768314D01*
X770813Y309839D01*
Y312338D01*
Y314838D01*
X768314Y317337D01*
X760816D01*
X775812Y307340D02*
X780810D01*
X778311D01*
Y317337D01*
X775812D01*
X788308Y307340D02*
Y317337D01*
X795805D01*
X798304Y314838D01*
Y307340D01*
X810800D02*
X805802D01*
X803303Y309839D01*
Y314838D01*
X805802Y317337D01*
X810800D01*
X813299Y314838D01*
Y312338D01*
X803303D01*
X820797Y319836D02*
Y317337D01*
X818298D01*
X823296D01*
X820797D01*
Y309839D01*
X823296Y307340D01*
X688340Y346465D02*
Y336468D01*
X693338Y331470D01*
X698337Y336468D01*
Y346465D01*
X703335Y331470D02*
Y333969D01*
X705834D01*
Y331470D01*
X703335D01*
X723329Y346465D02*
X718330D01*
X715831Y343966D01*
Y333969D01*
X718330Y331470D01*
X723329D01*
X725828Y333969D01*
Y343966D01*
X723329Y346465D01*
X730826Y331470D02*
Y341467D01*
X733325D01*
X735825Y338968D01*
Y331470D01*
Y338968D01*
X738324Y341467D01*
X740823Y338968D01*
Y331470D01*
X745821D02*
Y341467D01*
X753319D01*
X755818Y338968D01*
Y331470D01*
X768314D02*
X763316D01*
X760816Y333969D01*
Y338968D01*
X763316Y341467D01*
X768314D01*
X770813Y338968D01*
Y336468D01*
X760816D01*
X775812Y331470D02*
X783309D01*
X785808Y333969D01*
X783309Y336468D01*
X778311D01*
X775812Y338968D01*
X778311Y341467D01*
X785808D01*
X517519Y586891D02*
X514187Y590224D01*
X507522D01*
X504190Y586891D01*
Y573562D01*
X507522Y570230D01*
X514187D01*
X517519Y573562D01*
X527516Y570230D02*
X534180D01*
X537513Y573562D01*
Y580227D01*
X534180Y583559D01*
X527516D01*
X524184Y580227D01*
Y573562D01*
X527516Y570230D01*
X544177D02*
Y583559D01*
X547509D01*
X550842Y580227D01*
Y570230D01*
Y580227D01*
X554174Y583559D01*
X557506Y580227D01*
Y570230D01*
X564171Y563565D02*
Y583559D01*
X574168D01*
X577500Y580227D01*
Y573562D01*
X574168Y570230D01*
X564171D01*
X587496Y583559D02*
X594161D01*
X597493Y580227D01*
Y570230D01*
X587496D01*
X584164Y573562D01*
X587496Y576894D01*
X597493D01*
X604158Y570230D02*
X614155D01*
X617487Y573562D01*
X614155Y576894D01*
X607490D01*
X604158Y580227D01*
X607490Y583559D01*
X617487D01*
X624151Y570230D02*
X634148D01*
X637480Y573562D01*
X634148Y576894D01*
X627484D01*
X624151Y580227D01*
X627484Y583559D01*
X637480D01*
X644145Y590224D02*
X650809D01*
X647477D01*
Y570230D01*
X644145D01*
X650809D01*
X670803Y590224D02*
X664138D01*
X660806Y586891D01*
Y573562D01*
X664138Y570230D01*
X670803D01*
X674135Y573562D01*
Y586891D01*
X670803Y590224D01*
D53*
X642590Y1005190D02*
G03*
X642590Y1005190I-1250J0D01*
G01*
X352390Y957590D02*
G03*
X352390Y957590I-1250J0D01*
G01*
X348480Y894040D02*
G03*
X348480Y894040I-1250J0D01*
G01*
X379090Y309870D02*
G03*
X379090Y309870I-1250J0D01*
G01*
D54*
X508540Y972980D02*
X512540D01*
X515540Y991980D02*
Y994980D01*
X505540Y991980D02*
Y994980D01*
X394240Y989170D02*
X398240D01*
X391240Y967170D02*
Y970170D01*
X401240Y967170D02*
Y970170D01*
X390430Y1043780D02*
X394430D01*
X387430Y1021780D02*
Y1024780D01*
X397430Y1021780D02*
Y1024780D01*
X673640Y1003140D02*
X677640D01*
X670640Y981140D02*
Y984140D01*
X680640Y981140D02*
Y984140D01*
X334550Y1033620D02*
X338550D01*
X331550Y1011620D02*
Y1014620D01*
X341550Y1011620D02*
Y1014620D01*
X334550Y1040290D02*
X338550D01*
X341550Y1059290D02*
Y1062290D01*
X331550Y1059290D02*
Y1062290D01*
X632300Y1238790D02*
Y1242790D01*
X610300Y1245790D02*
X613300D01*
X610300Y1235790D02*
X613300D01*
X358300Y923830D02*
Y927830D01*
X377300Y920830D02*
X380300D01*
X377300Y930830D02*
X380300D01*
X644050Y716820D02*
Y720820D01*
X663050Y713820D02*
X666050D01*
X663050Y723820D02*
X666050D01*
X646360Y874300D02*
Y878300D01*
X624360Y881300D02*
X627360D01*
X624360Y871300D02*
X627360D01*
X546030Y874300D02*
Y878300D01*
X524030Y881300D02*
X527030D01*
X524030Y871300D02*
X527030D01*
X425610Y804450D02*
Y808450D01*
X444610Y801450D02*
X447610D01*
X444610Y811450D02*
X447610D01*
X434880Y752000D02*
X438880D01*
X441880Y771000D02*
Y774000D01*
X431880Y771000D02*
Y774000D01*
X455200Y752000D02*
X459200D01*
X462200Y771000D02*
Y774000D01*
X452200Y771000D02*
Y774000D01*
X467200Y840010D02*
Y844010D01*
X445200Y847010D02*
X448200D01*
X445200Y837010D02*
X448200D01*
X607600Y687230D02*
X611600D01*
X614600Y706230D02*
Y709230D01*
X604600Y706230D02*
Y709230D01*
X566960Y687230D02*
X570960D01*
X573960Y706230D02*
Y709230D01*
X563960Y706230D02*
Y709230D01*
X316770Y808830D02*
X320770D01*
X313770Y786830D02*
Y789830D01*
X323770Y786830D02*
Y789830D01*
X685640Y455200D02*
Y459200D01*
X663640Y462200D02*
X666640D01*
X663640Y452200D02*
X666640D01*
X664750Y350360D02*
X668750D01*
X661750Y328360D02*
Y331360D01*
X671750Y328360D02*
Y331360D01*
X727550Y362490D02*
Y366490D01*
X705550Y369490D02*
X708550D01*
X705550Y359490D02*
X708550D01*
X727550Y404400D02*
Y408400D01*
X705550Y411400D02*
X708550D01*
X705550Y401400D02*
X708550D01*
X645320Y436150D02*
Y440150D01*
X664320Y433150D02*
X667320D01*
X664320Y443150D02*
X667320D01*
X727550Y384080D02*
Y388080D01*
X705550Y391080D02*
X708550D01*
X705550Y381080D02*
X708550D01*
X564420Y326230D02*
X568420D01*
X561420Y304230D02*
Y307230D01*
X571420Y304230D02*
Y307230D01*
X611410Y313850D02*
X615410D01*
X618410Y332850D02*
Y335850D01*
X608410Y332850D02*
Y335850D01*
X566580Y507270D02*
Y511270D01*
X585580Y504270D02*
X588580D01*
X585580Y514270D02*
X588580D01*
X566580Y526320D02*
Y530320D01*
X585580Y523320D02*
X588580D01*
X585580Y533320D02*
X588580D01*
X564420Y369410D02*
X568420D01*
X561420Y347410D02*
Y350410D01*
X571420Y347410D02*
Y350410D01*
X563150Y388780D02*
X567150D01*
X570150Y407780D02*
Y410780D01*
X560150Y407780D02*
Y410780D01*
X545370Y388780D02*
X549370D01*
X552370Y407780D02*
Y410780D01*
X542370Y407780D02*
Y410780D01*
X580930Y388780D02*
X584930D01*
X587930Y407780D02*
Y410780D01*
X577930Y407780D02*
Y410780D01*
X409480Y424020D02*
X413480D01*
X406480Y402020D02*
Y405020D01*
X416480Y402020D02*
Y405020D01*
X384560Y437420D02*
Y441420D01*
X362560Y444420D02*
X365560D01*
X362560Y434420D02*
X365560D01*
X279470Y442500D02*
Y446500D01*
X298470Y439500D02*
X301470D01*
X298470Y449500D02*
X301470D01*
X328200Y454500D02*
X332200D01*
X325200Y432500D02*
Y435500D01*
X335200Y432500D02*
Y435500D01*
X408210Y368140D02*
X412210D01*
X405210Y346140D02*
Y349140D01*
X415210Y346140D02*
Y349140D01*
X292260Y502190D02*
Y506190D01*
X311260Y499190D02*
X314260D01*
X311260Y509190D02*
X314260D01*
X322420Y347250D02*
Y351250D01*
X300420Y354250D02*
X303420D01*
X300420Y344250D02*
X303420D01*
X322420Y370110D02*
Y374110D01*
X300420Y377110D02*
X303420D01*
X300420Y367110D02*
X303420D01*
D55*
X346580Y309902D02*
X338916D01*
X342748Y306070D02*
Y313734D01*
M02*
