%FSLAX44Y44*%
%MOMM*%
G71*
G01*
G75*
G04 Layer_Color=12632256*
%ADD10R,3.5000X0.7500*%
%ADD11O,1.5500X0.6000*%
%ADD12R,1.5500X0.6000*%
G04:AMPARAMS|DCode=13|XSize=2mm|YSize=1mm|CornerRadius=0.25mm|HoleSize=0mm|Usage=FLASHONLY|Rotation=90.000|XOffset=0mm|YOffset=0mm|HoleType=Round|Shape=RoundedRectangle|*
%AMROUNDEDRECTD13*
21,1,2.0000,0.5000,0,0,90.0*
21,1,1.5000,1.0000,0,0,90.0*
1,1,0.5000,0.2500,0.7500*
1,1,0.5000,0.2500,-0.7500*
1,1,0.5000,-0.2500,-0.7500*
1,1,0.5000,-0.2500,0.7500*
%
%ADD13ROUNDEDRECTD13*%
%ADD14R,1.0000X2.0000*%
%ADD15R,0.9000X2.0000*%
%ADD16R,2.0000X0.7000*%
%ADD17R,2.0000X0.8000*%
%ADD18R,1.2500X1.2500*%
%ADD19R,1.2500X1.2500*%
%ADD20R,0.6000X2.0000*%
%ADD21R,0.6000X1.5000*%
%ADD22R,1.4000X1.0000*%
%ADD23R,2.5000X1.7000*%
%ADD24R,3.0000X1.6000*%
%ADD25O,1.4500X0.4000*%
%ADD26R,1.4500X0.4000*%
%ADD27R,0.7200X1.7800*%
%ADD28O,0.7200X1.7800*%
%ADD29R,2.1590X2.7430*%
%ADD30C,0.7000*%
%ADD31C,1.5000*%
%ADD32C,0.3000*%
%ADD33C,0.5000*%
%ADD34C,0.4000*%
%ADD35C,1.5000*%
%ADD36R,1.8500X1.8500*%
%ADD37C,1.8500*%
%ADD38R,1.8500X1.8500*%
%ADD39R,1.5000X0.9000*%
%ADD40O,1.5000X0.9000*%
%ADD41R,2.0000X2.0000*%
%ADD42C,2.0000*%
%ADD43R,2.0000X2.0000*%
%ADD44C,1.5240*%
%ADD45R,1.5240X1.5240*%
%ADD46R,1.5000X1.5000*%
%ADD47R,1.5240X1.5240*%
%ADD48C,1.2700*%
%ADD49C,1.0000*%
%ADD50C,0.7000*%
%ADD51C,0.2000*%
%ADD52C,0.2540*%
%ADD53C,0.2500*%
%ADD54C,0.2560*%
%ADD55C,0.1500*%
%ADD56R,3.7032X0.9532*%
%ADD57O,1.7532X0.8032*%
%ADD58R,1.7532X0.8032*%
G04:AMPARAMS|DCode=59|XSize=2.2032mm|YSize=1.2032mm|CornerRadius=0.3516mm|HoleSize=0mm|Usage=FLASHONLY|Rotation=90.000|XOffset=0mm|YOffset=0mm|HoleType=Round|Shape=RoundedRectangle|*
%AMROUNDEDRECTD59*
21,1,2.2032,0.5000,0,0,90.0*
21,1,1.5000,1.2032,0,0,90.0*
1,1,0.7032,0.2500,0.7500*
1,1,0.7032,0.2500,-0.7500*
1,1,0.7032,-0.2500,-0.7500*
1,1,0.7032,-0.2500,0.7500*
%
%ADD59ROUNDEDRECTD59*%
%ADD60R,1.2032X2.2032*%
%ADD61R,1.1032X2.2032*%
%ADD62R,2.2032X0.9032*%
%ADD63R,2.2032X1.0032*%
%ADD64R,1.4532X1.4532*%
%ADD65R,1.4532X1.4532*%
%ADD66R,0.8032X2.2032*%
%ADD67R,0.8032X1.7032*%
%ADD68R,1.6032X1.2032*%
%ADD69R,2.7032X1.9032*%
%ADD70R,3.2032X1.8032*%
%ADD71O,1.6532X0.6032*%
%ADD72R,1.6532X0.6032*%
%ADD73R,0.9232X1.9832*%
%ADD74O,0.9232X1.9832*%
%ADD75R,2.3622X2.9462*%
%ADD76C,1.7032*%
%ADD77R,2.0532X2.0532*%
%ADD78C,2.0532*%
%ADD79R,2.0532X2.0532*%
%ADD80R,1.7032X1.1032*%
%ADD81O,1.7032X1.1032*%
%ADD82R,2.2032X2.2032*%
%ADD83C,2.2032*%
%ADD84R,2.2032X2.2032*%
%ADD85C,1.7272*%
%ADD86R,1.7272X1.7272*%
%ADD87R,1.7032X1.7032*%
%ADD88R,1.7272X1.7272*%
%ADD89C,0.2032*%
%ADD90C,1.4732*%
%ADD91C,1.2032*%
%ADD92C,0.9032*%
%ADD93R,2.4000X2.2000*%
%ADD94R,2.1000X2.3000*%
%ADD95R,2.9000X3.6000*%
%ADD96C,0.1524*%
D35*
X571500Y977900D02*
D03*
X546100D02*
D03*
X444500Y958850D02*
D03*
Y984250D02*
D03*
X438150Y1059180D02*
D03*
Y1033780D02*
D03*
X297180Y309880D02*
D03*
D36*
X641350Y982980D02*
D03*
D37*
Y932180D02*
D03*
X278130Y957580D02*
D03*
X325120Y919480D02*
D03*
X274320D02*
D03*
Y894080D02*
D03*
X450850Y309880D02*
D03*
D38*
X328930Y957580D02*
D03*
X325120Y894080D02*
D03*
X400050Y309880D02*
D03*
D39*
X289560Y1036320D02*
D03*
D40*
Y1023620D02*
D03*
Y1049020D02*
D03*
Y1061720D02*
D03*
D41*
X378460Y730250D02*
D03*
X273050Y754380D02*
D03*
D42*
X378460Y755650D02*
D03*
Y781050D02*
D03*
Y806450D02*
D03*
Y831850D02*
D03*
Y857250D02*
D03*
X610140Y650240D02*
D03*
X273050Y779780D02*
D03*
Y805180D02*
D03*
X763270Y963930D02*
D03*
Y938530D02*
D03*
Y913130D02*
D03*
Y887730D02*
D03*
Y862330D02*
D03*
X737870D02*
D03*
Y887730D02*
D03*
Y913130D02*
D03*
Y938530D02*
D03*
Y963930D02*
D03*
X763270Y728980D02*
D03*
Y703580D02*
D03*
Y678180D02*
D03*
Y652780D02*
D03*
Y627380D02*
D03*
X737870D02*
D03*
Y652780D02*
D03*
Y678180D02*
D03*
Y703580D02*
D03*
Y728980D02*
D03*
D43*
X561340Y650240D02*
D03*
D44*
X713740Y550380D02*
D03*
X500850Y389890D02*
D03*
X475450Y485140D02*
D03*
D45*
X713740Y500380D02*
D03*
D46*
X322580Y309880D02*
D03*
D47*
X450850Y389890D02*
D03*
X425450Y485140D02*
D03*
M02*
