%FSLAX44Y44*%
%MOMM*%
G71*
G01*
G75*
%ADD10R,2.1590X2.7430*%
%ADD11R,3.0000X1.6000*%
%ADD12R,1.2500X1.2500*%
%ADD13O,0.7200X1.7800*%
%ADD14R,0.7200X1.7800*%
%ADD15R,1.2500X1.2500*%
%ADD16R,1.4500X0.4000*%
%ADD17O,1.4500X0.4000*%
%ADD18R,2.5000X1.7000*%
%ADD19R,1.4000X1.0000*%
%ADD20R,0.6000X1.5000*%
%ADD21R,0.6000X2.0000*%
%ADD22R,0.9000X2.0000*%
%ADD23R,2.0000X0.7000*%
%ADD24R,2.0000X0.8000*%
%ADD25R,1.0000X2.0000*%
G04:AMPARAMS|DCode=26|XSize=2mm|YSize=1mm|CornerRadius=0.25mm|HoleSize=0mm|Usage=FLASHONLY|Rotation=90.000|XOffset=0mm|YOffset=0mm|HoleType=Round|Shape=RoundedRectangle|*
%AMROUNDEDRECTD26*
21,1,2.0000,0.5000,0,0,90.0*
21,1,1.5000,1.0000,0,0,90.0*
1,1,0.5000,0.2500,0.7500*
1,1,0.5000,0.2500,-0.7500*
1,1,0.5000,-0.2500,-0.7500*
1,1,0.5000,-0.2500,0.7500*
%
%ADD26ROUNDEDRECTD26*%
%ADD27R,1.5500X0.6000*%
%ADD28O,1.5500X0.6000*%
%ADD29R,3.5000X0.7500*%
%ADD30C,0.7000*%
%ADD31C,0.5000*%
%ADD32C,0.3000*%
%ADD33C,0.4000*%
%ADD34C,1.5000*%
%ADD35C,2.0000*%
%ADD36R,1.5240X1.5240*%
%ADD37C,1.5240*%
%ADD38R,1.5000X1.5000*%
%ADD39C,1.5000*%
%ADD40C,1.8500*%
%ADD41R,1.8500X1.8500*%
%ADD42R,1.5240X1.5240*%
%ADD43R,2.0000X2.0000*%
%ADD44R,2.0000X2.0000*%
%ADD45O,1.5000X0.9000*%
%ADD46R,1.5000X0.9000*%
%ADD47R,1.8500X1.8500*%
%ADD48C,1.2700*%
%ADD49C,0.7000*%
%ADD50C,1.0000*%
D10*
X329180Y579120D02*
D03*
X373380D02*
D03*
D11*
X441960Y621030D02*
D03*
X485960D02*
D03*
X441960Y680720D02*
D03*
X485960D02*
D03*
D12*
X290920Y372110D02*
D03*
X312420D02*
D03*
X290920Y349250D02*
D03*
X312420D02*
D03*
X323760Y504190D02*
D03*
X302260D02*
D03*
X310970Y444500D02*
D03*
X289470D02*
D03*
X353060Y439420D02*
D03*
X374560D02*
D03*
X598080Y528320D02*
D03*
X576580D02*
D03*
X598080Y509270D02*
D03*
X576580D02*
D03*
X696050Y386080D02*
D03*
X717550D02*
D03*
X676820Y438150D02*
D03*
X655320D02*
D03*
X696050Y406400D02*
D03*
X717550D02*
D03*
X696050Y364490D02*
D03*
X717550D02*
D03*
X654140Y457200D02*
D03*
X675640D02*
D03*
X435700Y842010D02*
D03*
X457200D02*
D03*
X457110Y806450D02*
D03*
X435610D02*
D03*
X514530Y876300D02*
D03*
X536030D02*
D03*
X614860D02*
D03*
X636360D02*
D03*
X675550Y718820D02*
D03*
X654050D02*
D03*
X389800Y925830D02*
D03*
X368300D02*
D03*
X600800Y1240790D02*
D03*
X622300D02*
D03*
D13*
X391160Y537020D02*
D03*
X378460D02*
D03*
X365760D02*
D03*
X353060D02*
D03*
X391160Y490220D02*
D03*
X378460D02*
D03*
X365760D02*
D03*
D14*
X353060D02*
D03*
D15*
X410210Y336640D02*
D03*
Y358140D02*
D03*
X330200Y423000D02*
D03*
Y444500D02*
D03*
X411480Y392520D02*
D03*
Y414020D02*
D03*
X582930Y420280D02*
D03*
Y398780D02*
D03*
X547370Y420280D02*
D03*
Y398780D02*
D03*
X565150Y420280D02*
D03*
Y398780D02*
D03*
X566420Y337910D02*
D03*
Y359410D02*
D03*
X613410Y345350D02*
D03*
Y323850D02*
D03*
X566420Y294730D02*
D03*
Y316230D02*
D03*
X666750Y318860D02*
D03*
Y340360D02*
D03*
X318770Y777330D02*
D03*
Y798830D02*
D03*
X568960Y718730D02*
D03*
Y697230D02*
D03*
X609600Y718730D02*
D03*
Y697230D02*
D03*
X457200Y783500D02*
D03*
Y762000D02*
D03*
X436880Y783500D02*
D03*
Y762000D02*
D03*
X336550Y1071790D02*
D03*
Y1050290D02*
D03*
Y1002120D02*
D03*
Y1023620D02*
D03*
X675640Y971640D02*
D03*
Y993140D02*
D03*
X392430Y1012280D02*
D03*
Y1033780D02*
D03*
X396240Y957670D02*
D03*
Y979170D02*
D03*
X510540Y1004480D02*
D03*
Y982980D02*
D03*
D16*
X341630Y393700D02*
D03*
D17*
Y387200D02*
D03*
Y380700D02*
D03*
Y374200D02*
D03*
X385630Y393700D02*
D03*
Y387200D02*
D03*
Y380700D02*
D03*
Y374200D02*
D03*
D18*
X563250Y483870D02*
D03*
X603250D02*
D03*
D19*
X330200Y838200D02*
D03*
Y857200D02*
D03*
X308200Y847700D02*
D03*
D20*
X427990Y868680D02*
D03*
X440690D02*
D03*
X453390D02*
D03*
X466090D02*
D03*
X427990Y923180D02*
D03*
X440690D02*
D03*
X453390D02*
D03*
X466090D02*
D03*
D21*
X517440Y751460D02*
D03*
X530140D02*
D03*
X542840D02*
D03*
X555540D02*
D03*
X568240D02*
D03*
X580940D02*
D03*
X593640D02*
D03*
X606340D02*
D03*
X619040D02*
D03*
X631740D02*
D03*
X644440D02*
D03*
X657140D02*
D03*
X669840D02*
D03*
X682540D02*
D03*
Y845460D02*
D03*
X669840D02*
D03*
X657140D02*
D03*
X644440D02*
D03*
X631740D02*
D03*
X619040D02*
D03*
X606340D02*
D03*
X593640D02*
D03*
X580940D02*
D03*
X568240D02*
D03*
X555540D02*
D03*
X542840D02*
D03*
X530140D02*
D03*
X517440D02*
D03*
D22*
X425370Y1237630D02*
D03*
X293370D02*
D03*
X305370D02*
D03*
X317370D02*
D03*
X329370D02*
D03*
X341370D02*
D03*
X353370D02*
D03*
X365370D02*
D03*
X377370D02*
D03*
X389370D02*
D03*
X401370D02*
D03*
X413370D02*
D03*
Y1103630D02*
D03*
X401370D02*
D03*
X389370D02*
D03*
X377370D02*
D03*
X365370D02*
D03*
X353370D02*
D03*
X341370D02*
D03*
X329370D02*
D03*
X317370D02*
D03*
X305370D02*
D03*
X293370D02*
D03*
X425370D02*
D03*
D23*
X453370Y1201630D02*
D03*
Y1139630D02*
D03*
Y1129630D02*
D03*
Y1211630D02*
D03*
D24*
Y1188630D02*
D03*
Y1176630D02*
D03*
Y1164630D02*
D03*
Y1152630D02*
D03*
D25*
X523240Y1211580D02*
D03*
D26*
X535940D02*
D03*
X548640D02*
D03*
X561340D02*
D03*
X574040D02*
D03*
X586740D02*
D03*
X650240D02*
D03*
X662940D02*
D03*
X675640D02*
D03*
X808990D02*
D03*
Y1046480D02*
D03*
X637540D02*
D03*
X624840D02*
D03*
X612140D02*
D03*
X599440D02*
D03*
X586740D02*
D03*
X574040D02*
D03*
X561340D02*
D03*
X548640D02*
D03*
X535940D02*
D03*
X523240D02*
D03*
D27*
X613410Y411480D02*
D03*
D28*
Y398780D02*
D03*
Y386080D02*
D03*
Y373380D02*
D03*
X667410Y411480D02*
D03*
Y398780D02*
D03*
Y386080D02*
D03*
Y373380D02*
D03*
D29*
X297450Y665480D02*
D03*
X350450D02*
D03*
D35*
X737870Y728980D02*
D03*
Y703580D02*
D03*
Y678180D02*
D03*
Y652780D02*
D03*
Y627380D02*
D03*
X763270D02*
D03*
Y652780D02*
D03*
Y678180D02*
D03*
Y703580D02*
D03*
Y728980D02*
D03*
X737870Y963930D02*
D03*
Y938530D02*
D03*
Y913130D02*
D03*
Y887730D02*
D03*
Y862330D02*
D03*
X763270D02*
D03*
Y887730D02*
D03*
Y913130D02*
D03*
Y938530D02*
D03*
Y963930D02*
D03*
X273050Y805180D02*
D03*
Y779780D02*
D03*
X610140Y650240D02*
D03*
X378460Y857250D02*
D03*
Y831850D02*
D03*
Y806450D02*
D03*
Y781050D02*
D03*
Y755650D02*
D03*
D36*
X425450Y485140D02*
D03*
X450850Y389890D02*
D03*
D37*
X475450Y485140D02*
D03*
X500850Y389890D02*
D03*
X713740Y550380D02*
D03*
D38*
X322580Y309880D02*
D03*
D39*
X297180D02*
D03*
X438150Y1033780D02*
D03*
Y1059180D02*
D03*
X444500Y984250D02*
D03*
Y958850D02*
D03*
X546100Y977900D02*
D03*
X571500D02*
D03*
D40*
X450850Y309880D02*
D03*
X274320Y894080D02*
D03*
Y919480D02*
D03*
X325120D02*
D03*
X278130Y957580D02*
D03*
X641350Y932180D02*
D03*
D41*
X400050Y309880D02*
D03*
X325120Y894080D02*
D03*
X328930Y957580D02*
D03*
D42*
X713740Y500380D02*
D03*
D43*
X273050Y754380D02*
D03*
X378460Y730250D02*
D03*
D44*
X561340Y650240D02*
D03*
D45*
X289560Y1061720D02*
D03*
Y1049020D02*
D03*
Y1023620D02*
D03*
D46*
Y1036320D02*
D03*
D47*
X641350Y982980D02*
D03*
M02*
