%FSLAX44Y44*%
%MOMM*%
G71*
G01*
G75*
G04 Layer_Color=2752767*
%ADD10R,3.5000X0.7500*%
%ADD11O,1.5500X0.6000*%
%ADD12R,1.5500X0.6000*%
G04:AMPARAMS|DCode=13|XSize=2mm|YSize=1mm|CornerRadius=0.25mm|HoleSize=0mm|Usage=FLASHONLY|Rotation=90.000|XOffset=0mm|YOffset=0mm|HoleType=Round|Shape=RoundedRectangle|*
%AMROUNDEDRECTD13*
21,1,2.0000,0.5000,0,0,90.0*
21,1,1.5000,1.0000,0,0,90.0*
1,1,0.5000,0.2500,0.7500*
1,1,0.5000,0.2500,-0.7500*
1,1,0.5000,-0.2500,-0.7500*
1,1,0.5000,-0.2500,0.7500*
%
%ADD13ROUNDEDRECTD13*%
%ADD14R,1.0000X2.0000*%
%ADD15R,0.9000X2.0000*%
%ADD16R,2.0000X0.7000*%
%ADD17R,2.0000X0.8000*%
%ADD18R,1.2500X1.2500*%
%ADD19R,1.2500X1.2500*%
%ADD20R,0.6000X2.0000*%
%ADD21R,0.6000X1.5000*%
%ADD22R,1.4000X1.0000*%
%ADD23R,2.5000X1.7000*%
%ADD24R,3.0000X1.6000*%
%ADD25O,1.4500X0.4000*%
%ADD26R,1.4500X0.4000*%
%ADD27R,0.7200X1.7800*%
%ADD28O,0.7200X1.7800*%
%ADD29R,2.1590X2.7430*%
%ADD30C,0.7000*%
%ADD31C,1.5000*%
%ADD32C,0.3000*%
%ADD33C,0.5000*%
%ADD34C,0.4000*%
%ADD35C,1.5000*%
%ADD36R,1.8500X1.8500*%
%ADD37C,1.8500*%
%ADD38R,1.8500X1.8500*%
%ADD39R,1.5000X0.9000*%
%ADD40O,1.5000X0.9000*%
%ADD41R,2.0000X2.0000*%
%ADD42C,2.0000*%
%ADD43R,2.0000X2.0000*%
%ADD44C,1.5240*%
%ADD45R,1.5240X1.5240*%
%ADD46R,1.5000X1.5000*%
%ADD47R,1.5240X1.5240*%
%ADD48C,1.2700*%
%ADD49C,1.0000*%
%ADD50C,0.7000*%
%ADD51C,0.2000*%
%ADD52C,0.2540*%
%ADD53C,0.2500*%
%ADD54C,0.2560*%
%ADD55C,0.1500*%
%ADD56R,3.7032X0.9532*%
%ADD57O,1.7532X0.8032*%
%ADD58R,1.7532X0.8032*%
G04:AMPARAMS|DCode=59|XSize=2.2032mm|YSize=1.2032mm|CornerRadius=0.3516mm|HoleSize=0mm|Usage=FLASHONLY|Rotation=90.000|XOffset=0mm|YOffset=0mm|HoleType=Round|Shape=RoundedRectangle|*
%AMROUNDEDRECTD59*
21,1,2.2032,0.5000,0,0,90.0*
21,1,1.5000,1.2032,0,0,90.0*
1,1,0.7032,0.2500,0.7500*
1,1,0.7032,0.2500,-0.7500*
1,1,0.7032,-0.2500,-0.7500*
1,1,0.7032,-0.2500,0.7500*
%
%ADD59ROUNDEDRECTD59*%
%ADD60R,1.2032X2.2032*%
%ADD61R,1.1032X2.2032*%
%ADD62R,2.2032X0.9032*%
%ADD63R,2.2032X1.0032*%
%ADD64R,1.4532X1.4532*%
%ADD65R,1.4532X1.4532*%
%ADD66R,0.8032X2.2032*%
%ADD67R,0.8032X1.7032*%
%ADD68R,1.6032X1.2032*%
%ADD69R,2.7032X1.9032*%
%ADD70R,3.2032X1.8032*%
%ADD71O,1.6532X0.6032*%
%ADD72R,1.6532X0.6032*%
%ADD73R,0.9232X1.9832*%
%ADD74O,0.9232X1.9832*%
%ADD75R,2.3622X2.9462*%
%ADD76C,1.7032*%
%ADD77R,2.0532X2.0532*%
%ADD78C,2.0532*%
%ADD79R,2.0532X2.0532*%
%ADD80R,1.7032X1.1032*%
%ADD81O,1.7032X1.1032*%
%ADD82R,2.2032X2.2032*%
%ADD83C,2.2032*%
%ADD84R,2.2032X2.2032*%
%ADD85C,1.7272*%
%ADD86R,1.7272X1.7272*%
%ADD87R,1.7032X1.7032*%
%ADD88R,1.7272X1.7272*%
%ADD89C,0.2032*%
%ADD90C,1.4732*%
%ADD91C,1.2032*%
%ADD92C,0.9032*%
%ADD93R,2.4000X2.2000*%
%ADD94R,2.1000X2.3000*%
%ADD95R,2.9000X3.6000*%
%ADD96C,0.1524*%
%ADD97C,0.0847*%
%ADD98C,0.3810*%
%ADD99C,0.4064*%
D52*
X1709241Y594360D02*
Y609595D01*
X1716858D01*
X1719397Y607056D01*
Y601978D01*
X1716858Y599438D01*
X1709241D01*
X1714319D02*
X1719397Y594360D01*
X1727015D02*
X1732093D01*
X1734632Y596899D01*
Y601978D01*
X1732093Y604517D01*
X1727015D01*
X1724476Y601978D01*
Y596899D01*
X1727015Y594360D01*
X1739711Y604517D02*
Y596899D01*
X1742250Y594360D01*
X1749867D01*
Y604517D01*
X1754946Y594360D02*
Y604517D01*
X1762563D01*
X1765103Y601978D01*
Y594360D01*
X1780338Y609595D02*
Y594360D01*
X1772720D01*
X1770181Y596899D01*
Y601978D01*
X1772720Y604517D01*
X1780338D01*
X1709241Y556260D02*
Y571495D01*
X1716858D01*
X1719397Y568956D01*
Y563877D01*
X1716858Y561338D01*
X1709241D01*
X1714319D02*
X1719397Y556260D01*
X1727015D02*
X1732093D01*
X1734632Y558799D01*
Y563877D01*
X1732093Y566417D01*
X1727015D01*
X1724476Y563877D01*
Y558799D01*
X1727015Y556260D01*
X1739711Y566417D02*
Y558799D01*
X1742250Y556260D01*
X1749867D01*
Y566417D01*
X1754946Y556260D02*
Y566417D01*
X1762563D01*
X1765103Y563877D01*
Y556260D01*
X1780338Y571495D02*
Y556260D01*
X1772720D01*
X1770181Y558799D01*
Y563877D01*
X1772720Y566417D01*
X1780338D01*
X1709241Y518160D02*
Y533395D01*
X1716858D01*
X1719397Y530856D01*
Y525778D01*
X1716858Y523238D01*
X1709241D01*
X1714319D02*
X1719397Y518160D01*
X1727015D02*
X1732093D01*
X1734632Y520699D01*
Y525778D01*
X1732093Y528317D01*
X1727015D01*
X1724476Y525778D01*
Y520699D01*
X1727015Y518160D01*
X1739711Y528317D02*
Y520699D01*
X1742250Y518160D01*
X1749867D01*
Y528317D01*
X1754946Y518160D02*
Y528317D01*
X1762563D01*
X1765103Y525778D01*
Y518160D01*
X1780338Y533395D02*
Y518160D01*
X1772720D01*
X1770181Y520699D01*
Y525778D01*
X1772720Y528317D01*
X1780338D01*
X1709241Y480060D02*
Y495295D01*
X1716858D01*
X1719397Y492756D01*
Y487677D01*
X1716858Y485138D01*
X1709241D01*
X1714319D02*
X1719397Y480060D01*
X1727015D02*
X1732093D01*
X1734632Y482599D01*
Y487677D01*
X1732093Y490217D01*
X1727015D01*
X1724476Y487677D01*
Y482599D01*
X1727015Y480060D01*
X1739711Y490217D02*
Y482599D01*
X1742250Y480060D01*
X1749867D01*
Y490217D01*
X1754946Y480060D02*
Y490217D01*
X1762563D01*
X1765103Y487677D01*
Y480060D01*
X1780338Y495295D02*
Y480060D01*
X1772720D01*
X1770181Y482599D01*
Y487677D01*
X1772720Y490217D01*
X1780338D01*
X1709241Y441960D02*
Y457195D01*
X1716858D01*
X1719397Y454656D01*
Y449577D01*
X1716858Y447038D01*
X1709241D01*
X1714319D02*
X1719397Y441960D01*
X1727015D02*
X1732093D01*
X1734632Y444499D01*
Y449577D01*
X1732093Y452117D01*
X1727015D01*
X1724476Y449577D01*
Y444499D01*
X1727015Y441960D01*
X1739711Y452117D02*
Y444499D01*
X1742250Y441960D01*
X1749867D01*
Y452117D01*
X1754946Y441960D02*
Y452117D01*
X1762563D01*
X1765103Y449577D01*
Y441960D01*
X1780338Y457195D02*
Y441960D01*
X1772720D01*
X1770181Y444499D01*
Y449577D01*
X1772720Y452117D01*
X1780338D01*
X1709241Y403860D02*
Y419095D01*
X1716858D01*
X1719397Y416556D01*
Y411478D01*
X1716858Y408938D01*
X1709241D01*
X1714319D02*
X1719397Y403860D01*
X1727015D02*
X1732093D01*
X1734632Y406399D01*
Y411478D01*
X1732093Y414017D01*
X1727015D01*
X1724476Y411478D01*
Y406399D01*
X1727015Y403860D01*
X1739711Y414017D02*
Y406399D01*
X1742250Y403860D01*
X1749867D01*
Y414017D01*
X1754946Y403860D02*
Y414017D01*
X1762563D01*
X1765103Y411478D01*
Y403860D01*
X1780338Y419095D02*
Y403860D01*
X1772720D01*
X1770181Y406399D01*
Y411478D01*
X1772720Y414017D01*
X1780338D01*
X1709241Y365760D02*
Y380995D01*
X1716858D01*
X1719397Y378456D01*
Y373377D01*
X1716858Y370838D01*
X1709241D01*
X1714319D02*
X1719397Y365760D01*
X1727015D02*
X1732093D01*
X1734632Y368299D01*
Y373377D01*
X1732093Y375917D01*
X1727015D01*
X1724476Y373377D01*
Y368299D01*
X1727015Y365760D01*
X1739711Y375917D02*
Y368299D01*
X1742250Y365760D01*
X1749867D01*
Y375917D01*
X1754946Y365760D02*
Y375917D01*
X1762563D01*
X1765103Y373377D01*
Y365760D01*
X1780338Y380995D02*
Y365760D01*
X1772720D01*
X1770181Y368299D01*
Y373377D01*
X1772720Y375917D01*
X1780338D01*
X1709241Y327660D02*
Y342895D01*
X1716858D01*
X1719397Y340356D01*
Y335277D01*
X1716858Y332738D01*
X1709241D01*
X1714319D02*
X1719397Y327660D01*
X1727015D02*
X1732093D01*
X1734632Y330199D01*
Y335277D01*
X1732093Y337817D01*
X1727015D01*
X1724476Y335277D01*
Y330199D01*
X1727015Y327660D01*
X1739711Y337817D02*
Y330199D01*
X1742250Y327660D01*
X1749867D01*
Y337817D01*
X1754946Y327660D02*
Y337817D01*
X1762563D01*
X1765103Y335277D01*
Y327660D01*
X1780338Y342895D02*
Y327660D01*
X1772720D01*
X1770181Y330199D01*
Y335277D01*
X1772720Y337817D01*
X1780338D01*
X1580748Y594360D02*
Y609595D01*
X1588366D01*
X1590905Y607056D01*
Y601978D01*
X1588366Y599438D01*
X1580748D01*
X1595983Y609595D02*
X1606140D01*
X1601062D01*
Y594360D01*
X1611218Y609595D02*
Y594360D01*
Y601978D01*
X1621375D01*
Y609595D01*
Y594360D01*
X1580748Y556260D02*
Y571495D01*
X1588366D01*
X1590905Y568956D01*
Y563877D01*
X1588366Y561338D01*
X1580748D01*
X1595983Y571495D02*
X1606140D01*
X1601062D01*
Y556260D01*
X1611218Y571495D02*
Y556260D01*
Y563877D01*
X1621375D01*
Y571495D01*
Y556260D01*
X1580748Y518160D02*
Y533395D01*
X1588366D01*
X1590905Y530856D01*
Y525778D01*
X1588366Y523238D01*
X1580748D01*
X1595983Y533395D02*
X1606140D01*
X1601062D01*
Y518160D01*
X1611218Y533395D02*
Y518160D01*
Y525778D01*
X1621375D01*
Y533395D01*
Y518160D01*
X1580748Y480060D02*
Y495295D01*
X1588366D01*
X1590905Y492756D01*
Y487677D01*
X1588366Y485138D01*
X1580748D01*
X1595983Y495295D02*
X1606140D01*
X1601062D01*
Y480060D01*
X1611218Y495295D02*
Y480060D01*
Y487677D01*
X1621375D01*
Y495295D01*
Y480060D01*
X1580748Y441960D02*
Y457195D01*
X1588366D01*
X1590905Y454656D01*
Y449577D01*
X1588366Y447038D01*
X1580748D01*
X1595983Y457195D02*
X1606140D01*
X1601062D01*
Y441960D01*
X1611218Y457195D02*
Y441960D01*
Y449577D01*
X1621375D01*
Y457195D01*
Y441960D01*
X1580748Y403860D02*
Y419095D01*
X1588366D01*
X1590905Y416556D01*
Y411478D01*
X1588366Y408938D01*
X1580748D01*
X1595983Y419095D02*
X1606140D01*
X1601062D01*
Y403860D01*
X1611218Y419095D02*
Y403860D01*
Y411478D01*
X1621375D01*
Y419095D01*
Y403860D01*
X1580748Y365760D02*
Y380995D01*
X1588366D01*
X1590905Y378456D01*
Y373377D01*
X1588366Y370838D01*
X1580748D01*
X1595983Y380995D02*
X1606140D01*
X1601062D01*
Y365760D01*
X1611218Y380995D02*
Y365760D01*
Y373377D01*
X1621375D01*
Y380995D01*
Y365760D01*
X1580748Y327660D02*
Y342895D01*
X1588366D01*
X1590905Y340356D01*
Y335277D01*
X1588366Y332738D01*
X1580748D01*
X1595983Y342895D02*
X1606140D01*
X1601062D01*
Y327660D01*
X1611218Y342895D02*
Y327660D01*
Y335277D01*
X1621375D01*
Y342895D01*
Y327660D01*
X1238965Y607056D02*
X1241504Y609595D01*
X1246582D01*
X1249121Y607056D01*
Y596899D01*
X1246582Y594360D01*
X1241504D01*
X1238965Y596899D01*
Y607056D01*
X1254200Y594360D02*
Y596899D01*
X1256739D01*
Y594360D01*
X1254200D01*
X1266896Y596899D02*
X1269435Y594360D01*
X1274513D01*
X1277052Y596899D01*
Y607056D01*
X1274513Y609595D01*
X1269435D01*
X1266896Y607056D01*
Y604517D01*
X1269435Y601978D01*
X1277052D01*
X1282131Y607056D02*
X1284670Y609595D01*
X1289748D01*
X1292287Y607056D01*
Y596899D01*
X1289748Y594360D01*
X1284670D01*
X1282131Y596899D01*
Y607056D01*
X1297366D02*
X1299905Y609595D01*
X1304983D01*
X1307522Y607056D01*
Y596899D01*
X1304983Y594360D01*
X1299905D01*
X1297366Y596899D01*
Y607056D01*
X1312601Y594360D02*
Y604517D01*
X1315140D01*
X1317679Y601978D01*
Y594360D01*
Y601978D01*
X1320218Y604517D01*
X1322758Y601978D01*
Y594360D01*
X1327836D02*
Y604517D01*
X1330375D01*
X1332914Y601978D01*
Y594360D01*
Y601978D01*
X1335453Y604517D01*
X1337993Y601978D01*
Y594360D01*
X1363384D02*
X1358306Y599438D01*
Y604517D01*
X1363384Y609595D01*
X1371002Y607056D02*
X1373541Y609595D01*
X1378620D01*
X1381159Y607056D01*
Y604517D01*
X1378620Y601978D01*
X1376080D01*
X1378620D01*
X1381159Y599438D01*
Y596899D01*
X1378620Y594360D01*
X1373541D01*
X1371002Y596899D01*
X1396394Y609595D02*
X1386237D01*
Y601978D01*
X1391315Y604517D01*
X1393855D01*
X1396394Y601978D01*
Y596899D01*
X1393855Y594360D01*
X1388776D01*
X1386237Y596899D01*
X1401472Y594360D02*
Y596899D01*
X1404011D01*
Y594360D01*
X1401472D01*
X1421785D02*
Y609595D01*
X1414168Y601978D01*
X1424325D01*
X1429403Y607056D02*
X1431942Y609595D01*
X1437021D01*
X1439560Y607056D01*
Y604517D01*
X1437021Y601978D01*
X1434481D01*
X1437021D01*
X1439560Y599438D01*
Y596899D01*
X1437021Y594360D01*
X1431942D01*
X1429403Y596899D01*
X1444638Y594360D02*
Y604517D01*
X1447177D01*
X1449716Y601978D01*
Y594360D01*
Y601978D01*
X1452256Y604517D01*
X1454795Y601978D01*
Y594360D01*
X1459873D02*
X1464951D01*
X1462412D01*
Y604517D01*
X1459873D01*
X1472569Y594360D02*
X1477647D01*
X1475108D01*
Y609595D01*
X1472569D01*
X1485265Y594360D02*
X1490343Y599438D01*
Y604517D01*
X1485265Y609595D01*
X1238965Y568956D02*
X1241504Y571495D01*
X1246582D01*
X1249121Y568956D01*
Y558799D01*
X1246582Y556260D01*
X1241504D01*
X1238965Y558799D01*
Y568956D01*
X1254200Y556260D02*
Y558799D01*
X1256739D01*
Y556260D01*
X1254200D01*
X1266896Y571495D02*
X1277052D01*
Y568956D01*
X1266896Y558799D01*
Y556260D01*
X1292287Y571495D02*
X1287209Y568956D01*
X1282131Y563877D01*
Y558799D01*
X1284670Y556260D01*
X1289748D01*
X1292287Y558799D01*
Y561338D01*
X1289748Y563877D01*
X1282131D01*
X1307522Y556260D02*
X1297366D01*
X1307522Y566417D01*
Y568956D01*
X1304983Y571495D01*
X1299905D01*
X1297366Y568956D01*
X1312601Y556260D02*
Y566417D01*
X1315140D01*
X1317679Y563877D01*
Y556260D01*
Y563877D01*
X1320218Y566417D01*
X1322758Y563877D01*
Y556260D01*
X1327836D02*
Y566417D01*
X1330375D01*
X1332914Y563877D01*
Y556260D01*
Y563877D01*
X1335453Y566417D01*
X1337993Y563877D01*
Y556260D01*
X1363384D02*
X1358306Y561338D01*
Y566417D01*
X1363384Y571495D01*
X1371002Y568956D02*
X1373541Y571495D01*
X1378620D01*
X1381159Y568956D01*
Y566417D01*
X1378620Y563877D01*
X1376080D01*
X1378620D01*
X1381159Y561338D01*
Y558799D01*
X1378620Y556260D01*
X1373541D01*
X1371002Y558799D01*
X1386237Y568956D02*
X1388776Y571495D01*
X1393855D01*
X1396394Y568956D01*
Y558799D01*
X1393855Y556260D01*
X1388776D01*
X1386237Y558799D01*
Y568956D01*
X1401472Y556260D02*
Y558799D01*
X1404011D01*
Y556260D01*
X1401472D01*
X1414168Y568956D02*
X1416707Y571495D01*
X1421785D01*
X1424325Y568956D01*
Y558799D01*
X1421785Y556260D01*
X1416707D01*
X1414168Y558799D01*
Y568956D01*
X1429403D02*
X1431942Y571495D01*
X1437021D01*
X1439560Y568956D01*
Y558799D01*
X1437021Y556260D01*
X1431942D01*
X1429403Y558799D01*
Y568956D01*
X1444638Y556260D02*
Y566417D01*
X1447177D01*
X1449716Y563877D01*
Y556260D01*
Y563877D01*
X1452256Y566417D01*
X1454795Y563877D01*
Y556260D01*
X1459873D02*
X1464951D01*
X1462412D01*
Y566417D01*
X1459873D01*
X1472569Y556260D02*
X1477647D01*
X1475108D01*
Y571495D01*
X1472569D01*
X1485265Y556260D02*
X1490343Y561338D01*
Y566417D01*
X1485265Y571495D01*
X1249121Y518160D02*
X1238965D01*
X1249121Y528317D01*
Y530856D01*
X1246582Y533395D01*
X1241504D01*
X1238965Y530856D01*
X1254200Y518160D02*
Y520699D01*
X1256739D01*
Y518160D01*
X1254200D01*
X1266896Y530856D02*
X1269435Y533395D01*
X1274513D01*
X1277052Y530856D01*
Y520699D01*
X1274513Y518160D01*
X1269435D01*
X1266896Y520699D01*
Y530856D01*
X1282131D02*
X1284670Y533395D01*
X1289748D01*
X1292287Y530856D01*
Y520699D01*
X1289748Y518160D01*
X1284670D01*
X1282131Y520699D01*
Y530856D01*
X1297366D02*
X1299905Y533395D01*
X1304983D01*
X1307522Y530856D01*
Y520699D01*
X1304983Y518160D01*
X1299905D01*
X1297366Y520699D01*
Y530856D01*
X1312601Y518160D02*
Y528317D01*
X1315140D01*
X1317679Y525778D01*
Y518160D01*
Y525778D01*
X1320218Y528317D01*
X1322758Y525778D01*
Y518160D01*
X1327836D02*
Y528317D01*
X1330375D01*
X1332914Y525778D01*
Y518160D01*
Y525778D01*
X1335453Y528317D01*
X1337993Y525778D01*
Y518160D01*
X1363384D02*
X1358306Y523238D01*
Y528317D01*
X1363384Y533395D01*
X1371002D02*
X1381159D01*
Y530856D01*
X1371002Y520699D01*
Y518160D01*
X1386237Y530856D02*
X1388776Y533395D01*
X1393855D01*
X1396394Y530856D01*
Y528317D01*
X1393855Y525778D01*
X1396394Y523238D01*
Y520699D01*
X1393855Y518160D01*
X1388776D01*
X1386237Y520699D01*
Y523238D01*
X1388776Y525778D01*
X1386237Y528317D01*
Y530856D01*
X1388776Y525778D02*
X1393855D01*
X1401472Y518160D02*
Y520699D01*
X1404011D01*
Y518160D01*
X1401472D01*
X1414168Y533395D02*
X1424325D01*
Y530856D01*
X1414168Y520699D01*
Y518160D01*
X1437021D02*
Y533395D01*
X1429403Y525778D01*
X1439560D01*
X1444638Y518160D02*
Y528317D01*
X1447177D01*
X1449716Y525778D01*
Y518160D01*
Y525778D01*
X1452256Y528317D01*
X1454795Y525778D01*
Y518160D01*
X1459873D02*
X1464951D01*
X1462412D01*
Y528317D01*
X1459873D01*
X1472569Y518160D02*
X1477647D01*
X1475108D01*
Y533395D01*
X1472569D01*
X1485265Y518160D02*
X1490343Y523238D01*
Y528317D01*
X1485265Y533395D01*
X1238965Y480060D02*
X1244043D01*
X1241504D01*
Y495295D01*
X1238965Y492756D01*
X1251661Y480060D02*
Y482599D01*
X1254200D01*
Y480060D01*
X1251661D01*
X1264356D02*
X1269435D01*
X1266896D01*
Y495295D01*
X1264356Y492756D01*
X1277052D02*
X1279592Y495295D01*
X1284670D01*
X1287209Y492756D01*
Y482599D01*
X1284670Y480060D01*
X1279592D01*
X1277052Y482599D01*
Y492756D01*
X1292287D02*
X1294827Y495295D01*
X1299905D01*
X1302444Y492756D01*
Y482599D01*
X1299905Y480060D01*
X1294827D01*
X1292287Y482599D01*
Y492756D01*
X1307522Y480060D02*
Y490217D01*
X1310062D01*
X1312601Y487677D01*
Y480060D01*
Y487677D01*
X1315140Y490217D01*
X1317679Y487677D01*
Y480060D01*
X1322758D02*
Y490217D01*
X1325297D01*
X1327836Y487677D01*
Y480060D01*
Y487677D01*
X1330375Y490217D01*
X1332914Y487677D01*
Y480060D01*
X1358306D02*
X1353228Y485138D01*
Y490217D01*
X1358306Y495295D01*
X1373541Y480060D02*
Y495295D01*
X1365924Y487677D01*
X1376080D01*
X1381159Y492756D02*
X1383698Y495295D01*
X1388776D01*
X1391315Y492756D01*
Y490217D01*
X1388776Y487677D01*
X1386237D01*
X1388776D01*
X1391315Y485138D01*
Y482599D01*
X1388776Y480060D01*
X1383698D01*
X1381159Y482599D01*
X1396394Y480060D02*
Y482599D01*
X1398933D01*
Y480060D01*
X1396394D01*
X1409090Y492756D02*
X1411629Y495295D01*
X1416707D01*
X1419246Y492756D01*
Y490217D01*
X1416707Y487677D01*
X1414168D01*
X1416707D01*
X1419246Y485138D01*
Y482599D01*
X1416707Y480060D01*
X1411629D01*
X1409090Y482599D01*
X1424325Y480060D02*
X1429403D01*
X1426864D01*
Y495295D01*
X1424325Y492756D01*
X1437021Y480060D02*
Y490217D01*
X1439560D01*
X1442099Y487677D01*
Y480060D01*
Y487677D01*
X1444638Y490217D01*
X1447177Y487677D01*
Y480060D01*
X1452256D02*
X1457334D01*
X1454795D01*
Y490217D01*
X1452256D01*
X1464951Y480060D02*
X1470030D01*
X1467491D01*
Y495295D01*
X1464951D01*
X1477647Y480060D02*
X1482726Y485138D01*
Y490217D01*
X1477647Y495295D01*
X1238965Y454656D02*
X1241504Y457195D01*
X1246582D01*
X1249121Y454656D01*
Y444499D01*
X1246582Y441960D01*
X1241504D01*
X1238965Y444499D01*
Y454656D01*
X1254200Y441960D02*
Y444499D01*
X1256739D01*
Y441960D01*
X1254200D01*
X1266896Y457195D02*
X1277052D01*
Y454656D01*
X1266896Y444499D01*
Y441960D01*
X1282131D02*
X1287209D01*
X1284670D01*
Y457195D01*
X1282131Y454656D01*
X1294827Y441960D02*
X1299905D01*
X1297366D01*
Y457195D01*
X1294827Y454656D01*
X1307522Y441960D02*
Y452117D01*
X1310062D01*
X1312601Y449577D01*
Y441960D01*
Y449577D01*
X1315140Y452117D01*
X1317679Y449577D01*
Y441960D01*
X1322758D02*
Y452117D01*
X1325297D01*
X1327836Y449577D01*
Y441960D01*
Y449577D01*
X1330375Y452117D01*
X1332914Y449577D01*
Y441960D01*
X1358306D02*
X1353228Y447038D01*
Y452117D01*
X1358306Y457195D01*
X1376080Y441960D02*
X1365924D01*
X1376080Y452117D01*
Y454656D01*
X1373541Y457195D01*
X1368463D01*
X1365924Y454656D01*
X1381159D02*
X1383698Y457195D01*
X1388776D01*
X1391315Y454656D01*
Y452117D01*
X1388776Y449577D01*
X1391315Y447038D01*
Y444499D01*
X1388776Y441960D01*
X1383698D01*
X1381159Y444499D01*
Y447038D01*
X1383698Y449577D01*
X1381159Y452117D01*
Y454656D01*
X1383698Y449577D02*
X1388776D01*
X1396394Y441960D02*
Y444499D01*
X1398933D01*
Y441960D01*
X1396394D01*
X1409090Y454656D02*
X1411629Y457195D01*
X1416707D01*
X1419246Y454656D01*
Y444499D01*
X1416707Y441960D01*
X1411629D01*
X1409090Y444499D01*
Y454656D01*
X1424325D02*
X1426864Y457195D01*
X1431942D01*
X1434481Y454656D01*
Y444499D01*
X1431942Y441960D01*
X1426864D01*
X1424325Y444499D01*
Y454656D01*
X1439560Y441960D02*
Y452117D01*
X1442099D01*
X1444638Y449577D01*
Y441960D01*
Y449577D01*
X1447177Y452117D01*
X1449716Y449577D01*
Y441960D01*
X1454795D02*
X1459873D01*
X1457334D01*
Y452117D01*
X1454795D01*
X1467491Y441960D02*
X1472569D01*
X1470030D01*
Y457195D01*
X1467491D01*
X1480187Y441960D02*
X1485265Y447038D01*
Y452117D01*
X1480187Y457195D01*
X1238965Y416556D02*
X1241504Y419095D01*
X1246582D01*
X1249121Y416556D01*
Y406399D01*
X1246582Y403860D01*
X1241504D01*
X1238965Y406399D01*
Y416556D01*
X1254200Y403860D02*
Y406399D01*
X1256739D01*
Y403860D01*
X1254200D01*
X1277052Y419095D02*
X1271974Y416556D01*
X1266896Y411478D01*
Y406399D01*
X1269435Y403860D01*
X1274513D01*
X1277052Y406399D01*
Y408938D01*
X1274513Y411478D01*
X1266896D01*
X1282131Y416556D02*
X1284670Y419095D01*
X1289748D01*
X1292287Y416556D01*
Y406399D01*
X1289748Y403860D01*
X1284670D01*
X1282131Y406399D01*
Y416556D01*
X1297366D02*
X1299905Y419095D01*
X1304983D01*
X1307522Y416556D01*
Y406399D01*
X1304983Y403860D01*
X1299905D01*
X1297366Y406399D01*
Y416556D01*
X1312601Y403860D02*
Y414017D01*
X1315140D01*
X1317679Y411478D01*
Y403860D01*
Y411478D01*
X1320218Y414017D01*
X1322758Y411478D01*
Y403860D01*
X1327836D02*
Y414017D01*
X1330375D01*
X1332914Y411478D01*
Y403860D01*
Y411478D01*
X1335453Y414017D01*
X1337993Y411478D01*
Y403860D01*
X1363384D02*
X1358306Y408938D01*
Y414017D01*
X1363384Y419095D01*
X1381159Y403860D02*
X1371002D01*
X1381159Y414017D01*
Y416556D01*
X1378620Y419095D01*
X1373541D01*
X1371002Y416556D01*
X1386237D02*
X1388776Y419095D01*
X1393855D01*
X1396394Y416556D01*
Y414017D01*
X1393855Y411478D01*
X1391315D01*
X1393855D01*
X1396394Y408938D01*
Y406399D01*
X1393855Y403860D01*
X1388776D01*
X1386237Y406399D01*
X1401472Y403860D02*
Y406399D01*
X1404011D01*
Y403860D01*
X1401472D01*
X1424325Y419095D02*
X1419246Y416556D01*
X1414168Y411478D01*
Y406399D01*
X1416707Y403860D01*
X1421785D01*
X1424325Y406399D01*
Y408938D01*
X1421785Y411478D01*
X1414168D01*
X1439560Y403860D02*
X1429403D01*
X1439560Y414017D01*
Y416556D01*
X1437021Y419095D01*
X1431942D01*
X1429403Y416556D01*
X1444638Y403860D02*
Y414017D01*
X1447177D01*
X1449716Y411478D01*
Y403860D01*
Y411478D01*
X1452256Y414017D01*
X1454795Y411478D01*
Y403860D01*
X1459873D02*
X1464951D01*
X1462412D01*
Y414017D01*
X1459873D01*
X1472569Y403860D02*
X1477647D01*
X1475108D01*
Y419095D01*
X1472569D01*
X1485265Y403860D02*
X1490343Y408938D01*
Y414017D01*
X1485265Y419095D01*
X1238965Y365760D02*
X1244043D01*
X1241504D01*
Y380995D01*
X1238965Y378456D01*
X1251661Y365760D02*
Y368299D01*
X1254200D01*
Y365760D01*
X1251661D01*
X1264356Y378456D02*
X1266896Y380995D01*
X1271974D01*
X1274513Y378456D01*
Y368299D01*
X1271974Y365760D01*
X1266896D01*
X1264356Y368299D01*
Y378456D01*
X1279592D02*
X1282131Y380995D01*
X1287209D01*
X1289748Y378456D01*
Y368299D01*
X1287209Y365760D01*
X1282131D01*
X1279592Y368299D01*
Y378456D01*
X1294827D02*
X1297366Y380995D01*
X1302444D01*
X1304983Y378456D01*
Y368299D01*
X1302444Y365760D01*
X1297366D01*
X1294827Y368299D01*
Y378456D01*
X1310062Y365760D02*
Y375917D01*
X1312601D01*
X1315140Y373377D01*
Y365760D01*
Y373377D01*
X1317679Y375917D01*
X1320218Y373377D01*
Y365760D01*
X1325297D02*
Y375917D01*
X1327836D01*
X1330375Y373377D01*
Y365760D01*
Y373377D01*
X1332914Y375917D01*
X1335453Y373377D01*
Y365760D01*
X1360845D02*
X1355767Y370838D01*
Y375917D01*
X1360845Y380995D01*
X1368463Y378456D02*
X1371002Y380995D01*
X1376080D01*
X1378620Y378456D01*
Y375917D01*
X1376080Y373377D01*
X1373541D01*
X1376080D01*
X1378620Y370838D01*
Y368299D01*
X1376080Y365760D01*
X1371002D01*
X1368463Y368299D01*
X1383698D02*
X1386237Y365760D01*
X1391315D01*
X1393855Y368299D01*
Y378456D01*
X1391315Y380995D01*
X1386237D01*
X1383698Y378456D01*
Y375917D01*
X1386237Y373377D01*
X1393855D01*
X1398933Y365760D02*
Y368299D01*
X1401472D01*
Y365760D01*
X1398933D01*
X1411629Y378456D02*
X1414168Y380995D01*
X1419246D01*
X1421785Y378456D01*
Y375917D01*
X1419246Y373377D01*
X1416707D01*
X1419246D01*
X1421785Y370838D01*
Y368299D01*
X1419246Y365760D01*
X1414168D01*
X1411629Y368299D01*
X1426864Y380995D02*
X1437021D01*
Y378456D01*
X1426864Y368299D01*
Y365760D01*
X1442099D02*
Y375917D01*
X1444638D01*
X1447177Y373377D01*
Y365760D01*
Y373377D01*
X1449716Y375917D01*
X1452256Y373377D01*
Y365760D01*
X1457334D02*
X1462412D01*
X1459873D01*
Y375917D01*
X1457334D01*
X1470030Y365760D02*
X1475108D01*
X1472569D01*
Y380995D01*
X1470030D01*
X1482726Y365760D02*
X1487804Y370838D01*
Y375917D01*
X1482726Y380995D01*
X1238965Y340356D02*
X1241504Y342895D01*
X1246582D01*
X1249121Y340356D01*
Y330199D01*
X1246582Y327660D01*
X1241504D01*
X1238965Y330199D01*
Y340356D01*
X1254200Y327660D02*
Y330199D01*
X1256739D01*
Y327660D01*
X1254200D01*
X1266896Y340356D02*
X1269435Y342895D01*
X1274513D01*
X1277052Y340356D01*
Y337817D01*
X1274513Y335277D01*
X1271974D01*
X1274513D01*
X1277052Y332738D01*
Y330199D01*
X1274513Y327660D01*
X1269435D01*
X1266896Y330199D01*
X1282131Y340356D02*
X1284670Y342895D01*
X1289748D01*
X1292287Y340356D01*
Y330199D01*
X1289748Y327660D01*
X1284670D01*
X1282131Y330199D01*
Y340356D01*
X1297366D02*
X1299905Y342895D01*
X1304983D01*
X1307522Y340356D01*
Y330199D01*
X1304983Y327660D01*
X1299905D01*
X1297366Y330199D01*
Y340356D01*
X1312601Y327660D02*
Y337817D01*
X1315140D01*
X1317679Y335277D01*
Y327660D01*
Y335277D01*
X1320218Y337817D01*
X1322758Y335277D01*
Y327660D01*
X1327836D02*
Y337817D01*
X1330375D01*
X1332914Y335277D01*
Y327660D01*
Y335277D01*
X1335453Y337817D01*
X1337993Y335277D01*
Y327660D01*
X1363384D02*
X1358306Y332738D01*
Y337817D01*
X1363384Y342895D01*
X1371002Y327660D02*
X1376080D01*
X1373541D01*
Y342895D01*
X1371002Y340356D01*
X1383698Y327660D02*
X1388776D01*
X1386237D01*
Y342895D01*
X1383698Y340356D01*
X1396394Y327660D02*
Y330199D01*
X1398933D01*
Y327660D01*
X1396394D01*
X1409090Y340356D02*
X1411629Y342895D01*
X1416707D01*
X1419246Y340356D01*
Y337817D01*
X1416707Y335277D01*
X1419246Y332738D01*
Y330199D01*
X1416707Y327660D01*
X1411629D01*
X1409090Y330199D01*
Y332738D01*
X1411629Y335277D01*
X1409090Y337817D01*
Y340356D01*
X1411629Y335277D02*
X1416707D01*
X1424325Y327660D02*
X1429403D01*
X1426864D01*
Y342895D01*
X1424325Y340356D01*
X1437021Y327660D02*
Y337817D01*
X1439560D01*
X1442099Y335277D01*
Y327660D01*
Y335277D01*
X1444638Y337817D01*
X1447177Y335277D01*
Y327660D01*
X1452256D02*
X1457334D01*
X1454795D01*
Y337817D01*
X1452256D01*
X1464951Y327660D02*
X1470030D01*
X1467491D01*
Y342895D01*
X1464951D01*
X1477647Y327660D02*
X1482726Y332738D01*
Y337817D01*
X1477647Y342895D01*
X1061720Y289560D02*
X1066798D01*
X1064259D01*
Y304795D01*
X1061720Y302256D01*
X1084573Y304795D02*
X1074416D01*
Y297178D01*
X1079494Y299717D01*
X1082033D01*
X1084573Y297178D01*
Y292099D01*
X1082033Y289560D01*
X1076955D01*
X1074416Y292099D01*
X1099808Y304795D02*
X1094729Y302256D01*
X1089651Y297178D01*
Y292099D01*
X1092190Y289560D01*
X1097269D01*
X1099808Y292099D01*
Y294638D01*
X1097269Y297178D01*
X1089651D01*
X1120121Y304795D02*
X1130278D01*
X1125200D01*
Y289560D01*
X1137895D02*
X1142974D01*
X1145513Y292099D01*
Y297178D01*
X1142974Y299717D01*
X1137895D01*
X1135356Y297178D01*
Y292099D01*
X1137895Y289560D01*
X1153130Y302256D02*
Y299717D01*
X1150591D01*
X1155670D01*
X1153130D01*
Y292099D01*
X1155670Y289560D01*
X1165826Y299717D02*
X1170905D01*
X1173444Y297178D01*
Y289560D01*
X1165826D01*
X1163287Y292099D01*
X1165826Y294638D01*
X1173444D01*
X1178522Y289560D02*
X1183601D01*
X1181061D01*
Y304795D01*
X1178522D01*
X1071877Y594360D02*
X1061720D01*
X1071877Y604517D01*
Y607056D01*
X1069337Y609595D01*
X1064259D01*
X1061720Y607056D01*
X1069337Y556260D02*
Y571495D01*
X1061720Y563877D01*
X1071877D01*
X1069337Y518160D02*
Y533395D01*
X1061720Y525778D01*
X1071877D01*
X1061720Y480060D02*
X1066798D01*
X1064259D01*
Y495295D01*
X1061720Y492756D01*
X1074416D02*
X1076955Y495295D01*
X1082033D01*
X1084573Y492756D01*
Y482599D01*
X1082033Y480060D01*
X1076955D01*
X1074416Y482599D01*
Y492756D01*
X1071877Y441960D02*
X1061720D01*
X1071877Y452117D01*
Y454656D01*
X1069337Y457195D01*
X1064259D01*
X1061720Y454656D01*
X1076955Y441960D02*
X1082033D01*
X1079494D01*
Y457195D01*
X1076955Y454656D01*
X1071877Y403860D02*
X1061720D01*
X1071877Y414017D01*
Y416556D01*
X1069337Y419095D01*
X1064259D01*
X1061720Y416556D01*
X1076955Y419095D02*
X1087112D01*
Y416556D01*
X1076955Y406399D01*
Y403860D01*
X1069337Y365760D02*
Y380995D01*
X1061720Y373377D01*
X1071877D01*
X1076955Y378456D02*
X1079494Y380995D01*
X1084573D01*
X1087112Y378456D01*
Y375917D01*
X1084573Y373377D01*
X1082033D01*
X1084573D01*
X1087112Y370838D01*
Y368299D01*
X1084573Y365760D01*
X1079494D01*
X1076955Y368299D01*
X1069337Y327660D02*
Y342895D01*
X1061720Y335277D01*
X1071877D01*
X1087112Y342895D02*
X1076955D01*
Y335277D01*
X1082033Y337817D01*
X1084573D01*
X1087112Y335277D01*
Y330199D01*
X1084573Y327660D01*
X1079494D01*
X1076955Y330199D01*
D97*
X940371Y448310D02*
G03*
X940371Y448310I-6350J0D01*
G01*
X430953Y1201420D02*
G03*
X430953Y1201420I-4233J0D01*
G01*
X277283Y680720D02*
G03*
X277283Y680720I-4233J0D01*
G01*
X596053Y288290D02*
G03*
X596053Y288290I-4233J0D01*
G01*
X319193Y1156970D02*
G03*
X319193Y1156970I-4233J0D01*
G01*
Y1131570D02*
G03*
X319193Y1131570I-4233J0D01*
G01*
X625263Y288290D02*
G03*
X625263Y288290I-4233J0D01*
G01*
X674793Y287020D02*
G03*
X674793Y287020I-4233J0D01*
G01*
X300143Y867410D02*
G03*
X300143Y867410I-4233J0D01*
G01*
X277283Y372110D02*
G03*
X277283Y372110I-4233J0D01*
G01*
Y462280D02*
G03*
X277283Y462280I-4233J0D01*
G01*
Y513080D02*
G03*
X277283Y513080I-4233J0D01*
G01*
X640503Y1134110D02*
G03*
X640503Y1134110I-4233J0D01*
G01*
X698923Y795020D02*
G03*
X698923Y795020I-4233J0D01*
G01*
X761153Y781050D02*
G03*
X761153Y781050I-4233J0D01*
G01*
X662093Y821690D02*
G03*
X662093Y821690I-4233J0D01*
G01*
X648123Y811530D02*
G03*
X648123Y811530I-4233J0D01*
G01*
X277283Y1079500D02*
G03*
X277283Y1079500I-4233J0D01*
G01*
X296333Y1205230D02*
G03*
X296333Y1205230I-4233J0D01*
G01*
X707813Y1201420D02*
G03*
X707813Y1201420I-4233J0D01*
G01*
X604943D02*
G03*
X604943Y1201420I-4233J0D01*
G01*
X792903Y577850D02*
G03*
X792903Y577850I-4233J0D01*
G01*
X930846Y597535D02*
X934021Y594360D01*
X927671Y597535D02*
X930846D01*
X927671D02*
X930846Y600710D01*
X927671Y603885D02*
X930846Y600710D01*
X927671Y603885D02*
X930846D01*
X934021Y607060D01*
X937196Y603885D01*
X940371D01*
X937196Y600710D02*
X940371Y603885D01*
X937196Y600710D02*
X940371Y597535D01*
X937196D02*
X940371D01*
X934021Y594360D02*
X937196Y597535D01*
X934021Y556260D02*
X940371Y568960D01*
X927671D02*
X940371D01*
X927671D02*
X934021Y556260D01*
X927671Y524510D02*
X934021Y518160D01*
X940371Y524510D01*
X934021Y530860D02*
X940371Y524510D01*
X927671D02*
X934021Y530860D01*
X927671Y483235D02*
X930846D01*
X927671D02*
Y489585D01*
X930846D01*
Y492760D01*
X937196D01*
Y489585D02*
Y492760D01*
Y489585D02*
X940371D01*
Y483235D02*
Y489585D01*
X937196Y483235D02*
X940371D01*
X937196Y480060D02*
Y483235D01*
X930846Y480060D02*
X937196D01*
X930846D02*
Y483235D01*
X927671Y403860D02*
Y407035D01*
X930846Y410210D01*
X927671Y413385D02*
X930846Y410210D01*
X927671Y413385D02*
Y416560D01*
X930846D01*
X934021Y413385D01*
X937196Y416560D01*
X940371D01*
Y413385D02*
Y416560D01*
X937196Y410210D02*
X940371Y413385D01*
X937196Y410210D02*
X940371Y407035D01*
Y403860D02*
Y407035D01*
X937196Y403860D02*
X940371D01*
X934021Y407035D02*
X937196Y403860D01*
X930846D02*
X934021Y407035D01*
X927671Y403860D02*
X930846D01*
X927671Y365760D02*
X934021Y368935D01*
X940371Y365760D01*
X937196Y372110D02*
X940371Y365760D01*
X937196Y372110D02*
X940371Y378460D01*
X934021Y375285D02*
X940371Y378460D01*
X927671D02*
X934021Y375285D01*
X927671Y378460D02*
X930846Y372110D01*
X927671Y365760D02*
X930846Y372110D01*
X927671Y327660D02*
X940371D01*
Y340360D01*
X927671D02*
X940371D01*
X927671Y327660D02*
Y340360D01*
X539327Y728557D02*
X547793D01*
Y737023D01*
X539327D02*
X547793D01*
X539327Y728557D02*
Y737023D01*
X525357Y731097D02*
X533823D01*
Y739563D01*
X525357D02*
X533823D01*
X525357Y731097D02*
Y739563D01*
X484717Y723477D02*
X493183D01*
Y731943D01*
X484717D02*
X493183D01*
X484717Y723477D02*
Y731943D01*
Y733637D02*
X493183D01*
Y742103D01*
X484717D02*
X493183D01*
X484717Y733637D02*
Y742103D01*
X371687Y414867D02*
X380153D01*
Y423333D01*
X371687D02*
X380153D01*
X371687Y414867D02*
Y423333D01*
X309457Y550757D02*
X317923D01*
Y559223D01*
X309457D02*
X317923D01*
X309457Y550757D02*
Y559223D01*
X409787Y1071457D02*
X418253D01*
Y1079923D01*
X409787D02*
X418253D01*
X409787Y1071457D02*
Y1079923D01*
X560917Y1157817D02*
X569383D01*
Y1166283D01*
X560917D02*
X569383D01*
X560917Y1157817D02*
Y1166283D01*
X409787Y837777D02*
X418253D01*
Y846243D01*
X409787D02*
X418253D01*
X409787Y837777D02*
Y846243D01*
Y894927D02*
X418253D01*
Y903393D01*
X409787D02*
X418253D01*
X409787Y894927D02*
Y903393D01*
Y779357D02*
X418253D01*
Y787823D01*
X409787D02*
X418253D01*
X409787Y779357D02*
Y787823D01*
X616797Y548217D02*
X625263D01*
Y556683D01*
X616797D02*
X625263D01*
X616797Y548217D02*
Y556683D01*
X687917Y726017D02*
X696383D01*
Y734483D01*
X687917D02*
X696383D01*
X687917Y726017D02*
Y734483D01*
X643467Y416137D02*
X651933D01*
Y424603D01*
X643467D02*
X651933D01*
X643467Y416137D02*
Y424603D01*
X687917Y418677D02*
X696383D01*
Y427143D01*
X687917D02*
X696383D01*
X687917Y418677D02*
Y427143D01*
X634577Y479637D02*
X643043D01*
Y488103D01*
X634577D02*
X643043D01*
X634577Y479637D02*
Y488103D01*
X640927Y381847D02*
X649393D01*
Y390313D01*
X640927D02*
X649393D01*
X640927Y381847D02*
Y390313D01*
X402167Y532977D02*
X410633D01*
Y541443D01*
X402167D02*
X410633D01*
X402167Y532977D02*
Y541443D01*
X427567Y398357D02*
X436033D01*
Y406823D01*
X427567D02*
X436033D01*
X427567Y398357D02*
Y406823D01*
X392007Y399627D02*
X400473D01*
Y408093D01*
X392007D02*
X400473D01*
X392007Y399627D02*
Y408093D01*
X352637Y342477D02*
X361103D01*
Y350943D01*
X352637D02*
X361103D01*
X352637Y342477D02*
Y350943D01*
X666327Y418677D02*
X674793D01*
Y427143D01*
X666327D02*
X674793D01*
X666327Y418677D02*
Y427143D01*
X522817Y416137D02*
X531283D01*
Y424603D01*
X522817D02*
X531283D01*
X522817Y416137D02*
Y424603D01*
X583777Y728557D02*
X592243D01*
Y737023D01*
X583777D02*
X592243D01*
X583777Y728557D02*
Y737023D01*
Y692997D02*
X592243D01*
Y701463D01*
X583777D02*
X592243D01*
X583777Y692997D02*
Y701463D01*
X452967Y883497D02*
X461433D01*
Y891963D01*
X452967D02*
X461433D01*
X452967Y883497D02*
Y891963D01*
X496147Y802217D02*
X504613D01*
Y810683D01*
X496147D02*
X504613D01*
X496147Y802217D02*
Y810683D01*
X479637Y776817D02*
X488103D01*
Y785283D01*
X479637D02*
X488103D01*
X479637Y776817D02*
Y785283D01*
X433917Y706967D02*
X442383D01*
Y715433D01*
X433917D02*
X442383D01*
X433917Y706967D02*
Y715433D01*
X497417Y776817D02*
X505883D01*
Y785283D01*
X497417D02*
X505883D01*
X497417Y776817D02*
Y785283D01*
X451697Y706967D02*
X460163D01*
Y715433D01*
X451697D02*
X460163D01*
X451697Y706967D02*
Y715433D01*
X339080Y715000D02*
X347547D01*
Y723467D01*
X339080D02*
X347547D01*
X339080Y715000D02*
Y723467D01*
X345017Y1057487D02*
X353483D01*
Y1065953D01*
X345017D02*
X353483D01*
X345017Y1057487D02*
Y1065953D01*
X653627Y774277D02*
X662093D01*
Y782743D01*
X653627D02*
X662093D01*
X653627Y774277D02*
Y782743D01*
X639657Y774277D02*
X648123D01*
Y782743D01*
X639657D02*
X648123D01*
X639657Y774277D02*
Y782743D01*
X678307Y809287D02*
X686773D01*
Y817753D01*
X678307D02*
X686773D01*
X678307Y809287D02*
Y817753D01*
X624417Y954617D02*
X632883D01*
Y963083D01*
X624417D02*
X632883D01*
X624417Y954617D02*
Y963083D01*
X589407Y773007D02*
X597873D01*
Y781473D01*
X589407D02*
X597873D01*
X589407Y773007D02*
Y781473D01*
X563457Y773007D02*
X571923D01*
Y781473D01*
X563457D02*
X571923D01*
X563457Y773007D02*
Y781473D01*
X550757Y773007D02*
X559223D01*
Y781473D01*
X550757D02*
X559223D01*
X550757Y773007D02*
Y781473D01*
X516467Y1021927D02*
X524933D01*
Y1030393D01*
X516467D02*
X524933D01*
X516467Y1021927D02*
Y1030393D01*
X529167Y1021927D02*
X537633D01*
Y1030393D01*
X529167D02*
X537633D01*
X529167Y1021927D02*
Y1030393D01*
X792057Y1000337D02*
Y1002453D01*
X794173Y1004570D01*
X792057Y1006687D02*
X794173Y1004570D01*
X792057Y1006687D02*
Y1008803D01*
X794173D01*
X796290Y1006687D01*
X798407Y1008803D01*
X800523D01*
Y1006687D02*
Y1008803D01*
X798407Y1004570D02*
X800523Y1006687D01*
X798407Y1004570D02*
X800523Y1002453D01*
Y1000337D02*
Y1002453D01*
X798407Y1000337D02*
X800523D01*
X796290Y1002453D02*
X798407Y1000337D01*
X794173D02*
X796290Y1002453D01*
X792057Y1000337D02*
X794173D01*
X472017Y1180677D02*
X480483D01*
Y1189143D01*
X472017D02*
X480483D01*
X472017Y1180677D02*
Y1189143D01*
X484717Y1180677D02*
X493183D01*
Y1189143D01*
X484717D02*
X493183D01*
X484717Y1180677D02*
Y1189143D01*
X519007Y1119717D02*
X527473D01*
Y1128183D01*
X519007D02*
X527473D01*
X519007Y1119717D02*
Y1128183D01*
X544407Y684107D02*
Y686223D01*
X546523Y688340D01*
X544407Y690457D02*
X546523Y688340D01*
X544407Y690457D02*
Y692573D01*
X546523D01*
X548640Y690457D01*
X550757Y692573D01*
X552873D01*
Y690457D02*
Y692573D01*
X550757Y688340D02*
X552873Y690457D01*
X550757Y688340D02*
X552873Y686223D01*
Y684107D02*
Y686223D01*
X550757Y684107D02*
X552873D01*
X548640Y686223D02*
X550757Y684107D01*
X546523D02*
X548640Y686223D01*
X544407Y684107D02*
X546523D01*
X532977Y682837D02*
Y684953D01*
X535093Y687070D01*
X532977Y689187D02*
X535093Y687070D01*
X532977Y689187D02*
Y691303D01*
X535093D01*
X537210Y689187D01*
X539327Y691303D01*
X541443D01*
Y689187D02*
Y691303D01*
X539327Y687070D02*
X541443Y689187D01*
X539327Y687070D02*
X541443Y684953D01*
Y682837D02*
Y684953D01*
X539327Y682837D02*
X541443D01*
X537210Y684953D02*
X539327Y682837D01*
X535093D02*
X537210Y684953D01*
X532977Y682837D02*
X535093D01*
X525357Y675217D02*
Y677333D01*
X527473Y679450D01*
X525357Y681567D02*
X527473Y679450D01*
X525357Y681567D02*
Y683683D01*
X527473D01*
X529590Y681567D01*
X531707Y683683D01*
X533823D01*
Y681567D02*
Y683683D01*
X531707Y679450D02*
X533823Y681567D01*
X531707Y679450D02*
X533823Y677333D01*
Y675217D02*
Y677333D01*
X531707Y675217D02*
X533823D01*
X529590Y677333D02*
X531707Y675217D01*
X527473D02*
X529590Y677333D01*
X525357Y675217D02*
X527473D01*
X517737Y667597D02*
Y669713D01*
X519853Y671830D01*
X517737Y673947D02*
X519853Y671830D01*
X517737Y673947D02*
Y676063D01*
X519853D01*
X521970Y673947D01*
X524087Y676063D01*
X526203D01*
Y673947D02*
Y676063D01*
X524087Y671830D02*
X526203Y673947D01*
X524087Y671830D02*
X526203Y669713D01*
Y667597D02*
Y669713D01*
X524087Y667597D02*
X526203D01*
X521970Y669713D02*
X524087Y667597D01*
X519853D02*
X521970Y669713D01*
X517737Y667597D02*
X519853D01*
X512657Y657437D02*
Y659553D01*
X514773Y661670D01*
X512657Y663787D02*
X514773Y661670D01*
X512657Y663787D02*
Y665903D01*
X514773D01*
X516890Y663787D01*
X519007Y665903D01*
X521123D01*
Y663787D02*
Y665903D01*
X519007Y661670D02*
X521123Y663787D01*
X519007Y661670D02*
X521123Y659553D01*
Y657437D02*
Y659553D01*
X519007Y657437D02*
X521123D01*
X516890Y659553D02*
X519007Y657437D01*
X514773D02*
X516890Y659553D01*
X512657Y657437D02*
X514773D01*
X512657Y646642D02*
Y648758D01*
X514773Y650875D01*
X512657Y652992D02*
X514773Y650875D01*
X512657Y652992D02*
Y655108D01*
X514773D01*
X516890Y652992D01*
X519007Y655108D01*
X521123D01*
Y652992D02*
Y655108D01*
X519007Y650875D02*
X521123Y652992D01*
X519007Y650875D02*
X521123Y648758D01*
Y646642D02*
Y648758D01*
X519007Y646642D02*
X521123D01*
X516890Y648758D02*
X519007Y646642D01*
X514773D02*
X516890Y648758D01*
X512657Y646642D02*
X514773D01*
X512657Y635847D02*
Y637963D01*
X514773Y640080D01*
X512657Y642197D02*
X514773Y640080D01*
X512657Y642197D02*
Y644313D01*
X514773D01*
X516890Y642197D01*
X519007Y644313D01*
X521123D01*
Y642197D02*
Y644313D01*
X519007Y640080D02*
X521123Y642197D01*
X519007Y640080D02*
X521123Y637963D01*
Y635847D02*
Y637963D01*
X519007Y635847D02*
X521123D01*
X516890Y637963D02*
X519007Y635847D01*
X514773D02*
X516890Y637963D01*
X512657Y635847D02*
X514773D01*
X517737Y625687D02*
Y627803D01*
X519853Y629920D01*
X517737Y632037D02*
X519853Y629920D01*
X517737Y632037D02*
Y634153D01*
X519853D01*
X521970Y632037D01*
X524087Y634153D01*
X526203D01*
Y632037D02*
Y634153D01*
X524087Y629920D02*
X526203Y632037D01*
X524087Y629920D02*
X526203Y627803D01*
Y625687D02*
Y627803D01*
X524087Y625687D02*
X526203D01*
X521970Y627803D02*
X524087Y625687D01*
X519853D02*
X521970Y627803D01*
X517737Y625687D02*
X519853D01*
X525357Y618067D02*
Y620183D01*
X527473Y622300D01*
X525357Y624417D02*
X527473Y622300D01*
X525357Y624417D02*
Y626533D01*
X527473D01*
X529590Y624417D01*
X531707Y626533D01*
X533823D01*
Y624417D02*
Y626533D01*
X531707Y622300D02*
X533823Y624417D01*
X531707Y622300D02*
X533823Y620183D01*
Y618067D02*
Y620183D01*
X531707Y618067D02*
X533823D01*
X529590Y620183D02*
X531707Y618067D01*
X527473D02*
X529590Y620183D01*
X525357Y618067D02*
X527473D01*
X534247Y611717D02*
Y613833D01*
X536363Y615950D01*
X534247Y618067D02*
X536363Y615950D01*
X534247Y618067D02*
Y620183D01*
X536363D01*
X538480Y618067D01*
X540597Y620183D01*
X542713D01*
Y618067D02*
Y620183D01*
X540597Y615950D02*
X542713Y618067D01*
X540597Y615950D02*
X542713Y613833D01*
Y611717D02*
Y613833D01*
X540597Y611717D02*
X542713D01*
X538480Y613833D02*
X540597Y611717D01*
X536363D02*
X538480Y613833D01*
X534247Y611717D02*
X536363D01*
X545677D02*
Y613833D01*
X547793Y615950D01*
X545677Y618067D02*
X547793Y615950D01*
X545677Y618067D02*
Y620183D01*
X547793D01*
X549910Y618067D01*
X552027Y620183D01*
X554143D01*
Y618067D02*
Y620183D01*
X552027Y615950D02*
X554143Y618067D01*
X552027Y615950D02*
X554143Y613833D01*
Y611717D02*
Y613833D01*
X552027Y611717D02*
X554143D01*
X549910Y613833D02*
X552027Y611717D01*
X547793D02*
X549910Y613833D01*
X545677Y611717D02*
X547793D01*
X557107D02*
Y613833D01*
X559223Y615950D01*
X557107Y618067D02*
X559223Y615950D01*
X557107Y618067D02*
Y620183D01*
X559223D01*
X561340Y618067D01*
X563457Y620183D01*
X565573D01*
Y618067D02*
Y620183D01*
X563457Y615950D02*
X565573Y618067D01*
X563457Y615950D02*
X565573Y613833D01*
Y611717D02*
Y613833D01*
X563457Y611717D02*
X565573D01*
X561340Y613833D02*
X563457Y611717D01*
X559223D02*
X561340Y613833D01*
X557107Y611717D02*
X559223D01*
X568537D02*
Y613833D01*
X570653Y615950D01*
X568537Y618067D02*
X570653Y615950D01*
X568537Y618067D02*
Y620183D01*
X570653D01*
X572770Y618067D01*
X574887Y620183D01*
X577003D01*
Y618067D02*
Y620183D01*
X574887Y615950D02*
X577003Y618067D01*
X574887Y615950D02*
X577003Y613833D01*
Y611717D02*
Y613833D01*
X574887Y611717D02*
X577003D01*
X572770Y613833D02*
X574887Y611717D01*
X570653D02*
X572770Y613833D01*
X568537Y611717D02*
X570653D01*
X579967D02*
Y613833D01*
X582083Y615950D01*
X579967Y618067D02*
X582083Y615950D01*
X579967Y618067D02*
Y620183D01*
X582083D01*
X584200Y618067D01*
X586317Y620183D01*
X588433D01*
Y618067D02*
Y620183D01*
X586317Y615950D02*
X588433Y618067D01*
X586317Y615950D02*
X588433Y613833D01*
Y611717D02*
Y613833D01*
X586317Y611717D02*
X588433D01*
X584200Y613833D02*
X586317Y611717D01*
X582083D02*
X584200Y613833D01*
X579967Y611717D02*
X582083D01*
X591397D02*
Y613833D01*
X593513Y615950D01*
X591397Y618067D02*
X593513Y615950D01*
X591397Y618067D02*
Y620183D01*
X593513D01*
X595630Y618067D01*
X597747Y620183D01*
X599863D01*
Y618067D02*
Y620183D01*
X597747Y615950D02*
X599863Y618067D01*
X597747Y615950D02*
X599863Y613833D01*
Y611717D02*
Y613833D01*
X597747Y611717D02*
X599863D01*
X595630Y613833D02*
X597747Y611717D01*
X593513D02*
X595630Y613833D01*
X591397Y611717D02*
X593513D01*
X625687D02*
Y613833D01*
X627803Y615950D01*
X625687Y618067D02*
X627803Y615950D01*
X625687Y618067D02*
Y620183D01*
X627803D01*
X629920Y618067D01*
X632037Y620183D01*
X634153D01*
Y618067D02*
Y620183D01*
X632037Y615950D02*
X634153Y618067D01*
X632037Y615950D02*
X634153Y613833D01*
Y611717D02*
Y613833D01*
X632037Y611717D02*
X634153D01*
X629920Y613833D02*
X632037Y611717D01*
X627803D02*
X629920Y613833D01*
X625687Y611717D02*
X627803D01*
X614257D02*
Y613833D01*
X616373Y615950D01*
X614257Y618067D02*
X616373Y615950D01*
X614257Y618067D02*
Y620183D01*
X616373D01*
X618490Y618067D01*
X620607Y620183D01*
X622723D01*
Y618067D02*
Y620183D01*
X620607Y615950D02*
X622723Y618067D01*
X620607Y615950D02*
X622723Y613833D01*
Y611717D02*
Y613833D01*
X620607Y611717D02*
X622723D01*
X618490Y613833D02*
X620607Y611717D01*
X616373D02*
X618490Y613833D01*
X614257Y611717D02*
X616373D01*
X602827D02*
Y613833D01*
X604943Y615950D01*
X602827Y618067D02*
X604943Y615950D01*
X602827Y618067D02*
Y620183D01*
X604943D01*
X607060Y618067D01*
X609177Y620183D01*
X611293D01*
Y618067D02*
Y620183D01*
X609177Y615950D02*
X611293Y618067D01*
X609177Y615950D02*
X611293Y613833D01*
Y611717D02*
Y613833D01*
X609177Y611717D02*
X611293D01*
X607060Y613833D02*
X609177Y611717D01*
X604943D02*
X607060Y613833D01*
X602827Y611717D02*
X604943D01*
X635847Y618067D02*
Y620183D01*
X637963Y622300D01*
X635847Y624417D02*
X637963Y622300D01*
X635847Y624417D02*
Y626533D01*
X637963D01*
X640080Y624417D01*
X642197Y626533D01*
X644313D01*
Y624417D02*
Y626533D01*
X642197Y622300D02*
X644313Y624417D01*
X642197Y622300D02*
X644313Y620183D01*
Y618067D02*
Y620183D01*
X642197Y618067D02*
X644313D01*
X640080Y620183D02*
X642197Y618067D01*
X637963D02*
X640080Y620183D01*
X635847Y618067D02*
X637963D01*
X643467Y625687D02*
Y627803D01*
X645583Y629920D01*
X643467Y632037D02*
X645583Y629920D01*
X643467Y632037D02*
Y634153D01*
X645583D01*
X647700Y632037D01*
X649817Y634153D01*
X651933D01*
Y632037D02*
Y634153D01*
X649817Y629920D02*
X651933Y632037D01*
X649817Y629920D02*
X651933Y627803D01*
Y625687D02*
Y627803D01*
X649817Y625687D02*
X651933D01*
X647700Y627803D02*
X649817Y625687D01*
X645583D02*
X647700Y627803D01*
X643467Y625687D02*
X645583D01*
X648547Y635847D02*
Y637963D01*
X650663Y640080D01*
X648547Y642197D02*
X650663Y640080D01*
X648547Y642197D02*
Y644313D01*
X650663D01*
X652780Y642197D01*
X654897Y644313D01*
X657013D01*
Y642197D02*
Y644313D01*
X654897Y640080D02*
X657013Y642197D01*
X654897Y640080D02*
X657013Y637963D01*
Y635847D02*
Y637963D01*
X654897Y635847D02*
X657013D01*
X652780Y637963D02*
X654897Y635847D01*
X650663D02*
X652780Y637963D01*
X648547Y635847D02*
X650663D01*
X648547Y647277D02*
Y649393D01*
X650663Y651510D01*
X648547Y653627D02*
X650663Y651510D01*
X648547Y653627D02*
Y655743D01*
X650663D01*
X652780Y653627D01*
X654897Y655743D01*
X657013D01*
Y653627D02*
Y655743D01*
X654897Y651510D02*
X657013Y653627D01*
X654897Y651510D02*
X657013Y649393D01*
Y647277D02*
Y649393D01*
X654897Y647277D02*
X657013D01*
X652780Y649393D02*
X654897Y647277D01*
X650663D02*
X652780Y649393D01*
X648547Y647277D02*
X650663D01*
X648547Y658707D02*
Y660823D01*
X650663Y662940D01*
X648547Y665057D02*
X650663Y662940D01*
X648547Y665057D02*
Y667173D01*
X650663D01*
X652780Y665057D01*
X654897Y667173D01*
X657013D01*
Y665057D02*
Y667173D01*
X654897Y662940D02*
X657013Y665057D01*
X654897Y662940D02*
X657013Y660823D01*
Y658707D02*
Y660823D01*
X654897Y658707D02*
X657013D01*
X652780Y660823D02*
X654897Y658707D01*
X650663D02*
X652780Y660823D01*
X648547Y658707D02*
X650663D01*
X643467Y668867D02*
Y670983D01*
X645583Y673100D01*
X643467Y675217D02*
X645583Y673100D01*
X643467Y675217D02*
Y677333D01*
X645583D01*
X647700Y675217D01*
X649817Y677333D01*
X651933D01*
Y675217D02*
Y677333D01*
X649817Y673100D02*
X651933Y675217D01*
X649817Y673100D02*
X651933Y670983D01*
Y668867D02*
Y670983D01*
X649817Y668867D02*
X651933D01*
X647700Y670983D02*
X649817Y668867D01*
X645583D02*
X647700Y670983D01*
X643467Y668867D02*
X645583D01*
X635847Y676487D02*
Y678603D01*
X637963Y680720D01*
X635847Y682837D02*
X637963Y680720D01*
X635847Y682837D02*
Y684953D01*
X637963D01*
X640080Y682837D01*
X642197Y684953D01*
X644313D01*
Y682837D02*
Y684953D01*
X642197Y680720D02*
X644313Y682837D01*
X642197Y680720D02*
X644313Y678603D01*
Y676487D02*
Y678603D01*
X642197Y676487D02*
X644313D01*
X640080Y678603D02*
X642197Y676487D01*
X637963D02*
X640080Y678603D01*
X635847Y676487D02*
X637963D01*
X621877Y681567D02*
Y683683D01*
X623993Y685800D01*
X621877Y687917D02*
X623993Y685800D01*
X621877Y687917D02*
Y690033D01*
X623993D01*
X626110Y687917D01*
X628227Y690033D01*
X630343D01*
Y687917D02*
Y690033D01*
X628227Y685800D02*
X630343Y687917D01*
X628227Y685800D02*
X630343Y683683D01*
Y681567D02*
Y683683D01*
X628227Y681567D02*
X630343D01*
X626110Y683683D02*
X628227Y681567D01*
X623993D02*
X626110Y683683D01*
X621877Y681567D02*
X623993D01*
X262467Y288290D02*
X266700Y284057D01*
X270933Y288290D01*
X266700Y292523D02*
X270933Y288290D01*
X262467D02*
X266700Y292523D01*
X818727Y288290D02*
X822960Y284057D01*
X827193Y288290D01*
X822960Y292523D02*
X827193Y288290D01*
X818727D02*
X822960Y292523D01*
X818727Y1261110D02*
X822960Y1256877D01*
X827193Y1261110D01*
X822960Y1265343D02*
X827193Y1261110D01*
X818727D02*
X822960Y1265343D01*
X262467Y1261110D02*
X266700Y1256877D01*
X270933Y1261110D01*
X266700Y1265343D02*
X270933Y1261110D01*
X262467D02*
X266700Y1265343D01*
X733637Y724747D02*
X737870Y726863D01*
X742103Y724747D01*
X739987Y728980D02*
X742103Y724747D01*
X739987Y728980D02*
X742103Y733213D01*
X737870Y731097D02*
X742103Y733213D01*
X733637D02*
X737870Y731097D01*
X733637Y733213D02*
X735753Y728980D01*
X733637Y724747D02*
X735753Y728980D01*
X733637Y699347D02*
X737870Y701463D01*
X742103Y699347D01*
X739987Y703580D02*
X742103Y699347D01*
X739987Y703580D02*
X742103Y707813D01*
X737870Y705697D02*
X742103Y707813D01*
X733637D02*
X737870Y705697D01*
X733637Y707813D02*
X735753Y703580D01*
X733637Y699347D02*
X735753Y703580D01*
X733637Y673947D02*
X737870Y676063D01*
X742103Y673947D01*
X739987Y678180D02*
X742103Y673947D01*
X739987Y678180D02*
X742103Y682413D01*
X737870Y680297D02*
X742103Y682413D01*
X733637D02*
X737870Y680297D01*
X733637Y682413D02*
X735753Y678180D01*
X733637Y673947D02*
X735753Y678180D01*
X733637Y648547D02*
X737870Y650663D01*
X742103Y648547D01*
X739987Y652780D02*
X742103Y648547D01*
X739987Y652780D02*
X742103Y657013D01*
X737870Y654897D02*
X742103Y657013D01*
X733637D02*
X737870Y654897D01*
X733637Y657013D02*
X735753Y652780D01*
X733637Y648547D02*
X735753Y652780D01*
X733637Y623147D02*
X737870Y625263D01*
X742103Y623147D01*
X739987Y627380D02*
X742103Y623147D01*
X739987Y627380D02*
X742103Y631613D01*
X737870Y629497D02*
X742103Y631613D01*
X733637D02*
X737870Y629497D01*
X733637Y631613D02*
X735753Y627380D01*
X733637Y623147D02*
X735753Y627380D01*
X759037Y623147D02*
X763270Y625263D01*
X767503Y623147D01*
X765387Y627380D02*
X767503Y623147D01*
X765387Y627380D02*
X767503Y631613D01*
X763270Y629497D02*
X767503Y631613D01*
X759037D02*
X763270Y629497D01*
X759037Y631613D02*
X761153Y627380D01*
X759037Y623147D02*
X761153Y627380D01*
X759037Y648547D02*
X763270Y650663D01*
X767503Y648547D01*
X765387Y652780D02*
X767503Y648547D01*
X765387Y652780D02*
X767503Y657013D01*
X763270Y654897D02*
X767503Y657013D01*
X759037D02*
X763270Y654897D01*
X759037Y657013D02*
X761153Y652780D01*
X759037Y648547D02*
X761153Y652780D01*
X759037Y673947D02*
X763270Y676063D01*
X767503Y673947D01*
X765387Y678180D02*
X767503Y673947D01*
X765387Y678180D02*
X767503Y682413D01*
X763270Y680297D02*
X767503Y682413D01*
X759037D02*
X763270Y680297D01*
X759037Y682413D02*
X761153Y678180D01*
X759037Y673947D02*
X761153Y678180D01*
X759037Y699347D02*
X763270Y701463D01*
X767503Y699347D01*
X765387Y703580D02*
X767503Y699347D01*
X765387Y703580D02*
X767503Y707813D01*
X763270Y705697D02*
X767503Y707813D01*
X759037D02*
X763270Y705697D01*
X759037Y707813D02*
X761153Y703580D01*
X759037Y699347D02*
X761153Y703580D01*
X759037Y724747D02*
X763270Y726863D01*
X767503Y724747D01*
X765387Y728980D02*
X767503Y724747D01*
X765387Y728980D02*
X767503Y733213D01*
X763270Y731097D02*
X767503Y733213D01*
X759037D02*
X763270Y731097D01*
X759037Y733213D02*
X761153Y728980D01*
X759037Y724747D02*
X761153Y728980D01*
X733637Y959697D02*
X737870Y961813D01*
X742103Y959697D01*
X739987Y963930D02*
X742103Y959697D01*
X739987Y963930D02*
X742103Y968163D01*
X737870Y966047D02*
X742103Y968163D01*
X733637D02*
X737870Y966047D01*
X733637Y968163D02*
X735753Y963930D01*
X733637Y959697D02*
X735753Y963930D01*
X733637Y934297D02*
X737870Y936413D01*
X742103Y934297D01*
X739987Y938530D02*
X742103Y934297D01*
X739987Y938530D02*
X742103Y942763D01*
X737870Y940647D02*
X742103Y942763D01*
X733637D02*
X737870Y940647D01*
X733637Y942763D02*
X735753Y938530D01*
X733637Y934297D02*
X735753Y938530D01*
X733637Y908897D02*
X737870Y911013D01*
X742103Y908897D01*
X739987Y913130D02*
X742103Y908897D01*
X739987Y913130D02*
X742103Y917363D01*
X737870Y915247D02*
X742103Y917363D01*
X733637D02*
X737870Y915247D01*
X733637Y917363D02*
X735753Y913130D01*
X733637Y908897D02*
X735753Y913130D01*
X733637Y883497D02*
X737870Y885613D01*
X742103Y883497D01*
X739987Y887730D02*
X742103Y883497D01*
X739987Y887730D02*
X742103Y891963D01*
X737870Y889847D02*
X742103Y891963D01*
X733637D02*
X737870Y889847D01*
X733637Y891963D02*
X735753Y887730D01*
X733637Y883497D02*
X735753Y887730D01*
X733637Y858097D02*
X737870Y860213D01*
X742103Y858097D01*
X739987Y862330D02*
X742103Y858097D01*
X739987Y862330D02*
X742103Y866563D01*
X737870Y864447D02*
X742103Y866563D01*
X733637D02*
X737870Y864447D01*
X733637Y866563D02*
X735753Y862330D01*
X733637Y858097D02*
X735753Y862330D01*
X759037Y858097D02*
X763270Y860213D01*
X767503Y858097D01*
X765387Y862330D02*
X767503Y858097D01*
X765387Y862330D02*
X767503Y866563D01*
X763270Y864447D02*
X767503Y866563D01*
X759037D02*
X763270Y864447D01*
X759037Y866563D02*
X761153Y862330D01*
X759037Y858097D02*
X761153Y862330D01*
X759037Y883497D02*
X763270Y885613D01*
X767503Y883497D01*
X765387Y887730D02*
X767503Y883497D01*
X765387Y887730D02*
X767503Y891963D01*
X763270Y889847D02*
X767503Y891963D01*
X759037D02*
X763270Y889847D01*
X759037Y891963D02*
X761153Y887730D01*
X759037Y883497D02*
X761153Y887730D01*
X759037Y908897D02*
X763270Y911013D01*
X767503Y908897D01*
X765387Y913130D02*
X767503Y908897D01*
X765387Y913130D02*
X767503Y917363D01*
X763270Y915247D02*
X767503Y917363D01*
X759037D02*
X763270Y915247D01*
X759037Y917363D02*
X761153Y913130D01*
X759037Y908897D02*
X761153Y913130D01*
X759037Y934297D02*
X763270Y936413D01*
X767503Y934297D01*
X765387Y938530D02*
X767503Y934297D01*
X765387Y938530D02*
X767503Y942763D01*
X763270Y940647D02*
X767503Y942763D01*
X759037D02*
X763270Y940647D01*
X759037Y942763D02*
X761153Y938530D01*
X759037Y934297D02*
X761153Y938530D01*
X759037Y959697D02*
X763270Y961813D01*
X767503Y959697D01*
X765387Y963930D02*
X767503Y959697D01*
X765387Y963930D02*
X767503Y968163D01*
X763270Y966047D02*
X767503Y968163D01*
X759037D02*
X763270Y966047D01*
X759037Y968163D02*
X761153Y963930D01*
X759037Y959697D02*
X761153Y963930D01*
X421217Y480907D02*
X425450Y483023D01*
X429683Y480907D01*
X427567Y485140D02*
X429683Y480907D01*
X427567Y485140D02*
X429683Y489373D01*
X425450Y487257D02*
X429683Y489373D01*
X421217D02*
X425450Y487257D01*
X421217Y489373D02*
X423333Y485140D01*
X421217Y480907D02*
X423333Y485140D01*
X471217Y480907D02*
X475450Y483023D01*
X479683Y480907D01*
X477567Y485140D02*
X479683Y480907D01*
X477567Y485140D02*
X479683Y489373D01*
X475450Y487257D02*
X479683Y489373D01*
X471217D02*
X475450Y487257D01*
X471217Y489373D02*
X473333Y485140D01*
X471217Y480907D02*
X473333Y485140D01*
X446617Y385657D02*
X450850Y387773D01*
X455083Y385657D01*
X452967Y389890D02*
X455083Y385657D01*
X452967Y389890D02*
X455083Y394123D01*
X450850Y392007D02*
X455083Y394123D01*
X446617D02*
X450850Y392007D01*
X446617Y394123D02*
X448733Y389890D01*
X446617Y385657D02*
X448733Y389890D01*
X496617Y385657D02*
X500850Y387773D01*
X505083Y385657D01*
X502967Y389890D02*
X505083Y385657D01*
X502967Y389890D02*
X505083Y394123D01*
X500850Y392007D02*
X505083Y394123D01*
X496617D02*
X500850Y392007D01*
X496617Y394123D02*
X498733Y389890D01*
X496617Y385657D02*
X498733Y389890D01*
X320463Y307763D02*
X322580Y305647D01*
X318347Y307763D02*
X320463D01*
X318347D02*
X320463Y309880D01*
X318347Y311997D02*
X320463Y309880D01*
X318347Y311997D02*
X320463D01*
X322580Y314113D01*
X324697Y311997D01*
X326813D01*
X324697Y309880D02*
X326813Y311997D01*
X324697Y309880D02*
X326813Y307763D01*
X324697D02*
X326813D01*
X322580Y305647D02*
X324697Y307763D01*
X295063D02*
X297180Y305647D01*
X292947Y307763D02*
X295063D01*
X292947D02*
X295063Y309880D01*
X292947Y311997D02*
X295063Y309880D01*
X292947Y311997D02*
X295063D01*
X297180Y314113D01*
X299297Y311997D01*
X301413D01*
X299297Y309880D02*
X301413Y311997D01*
X299297Y309880D02*
X301413Y307763D01*
X299297D02*
X301413D01*
X297180Y305647D02*
X299297Y307763D01*
X446617D02*
X448733D01*
X446617D02*
Y311997D01*
X448733D01*
Y314113D01*
X452967D01*
Y311997D02*
Y314113D01*
Y311997D02*
X455083D01*
Y307763D02*
Y311997D01*
X452967Y307763D02*
X455083D01*
X452967Y305647D02*
Y307763D01*
X448733Y305647D02*
X452967D01*
X448733D02*
Y307763D01*
X395817D02*
X397933D01*
X395817D02*
Y311997D01*
X397933D01*
Y314113D01*
X402167D01*
Y311997D02*
Y314113D01*
Y311997D02*
X404283D01*
Y307763D02*
Y311997D01*
X402167Y307763D02*
X404283D01*
X402167Y305647D02*
Y307763D01*
X397933Y305647D02*
X402167D01*
X397933D02*
Y307763D01*
X709507Y496147D02*
X713740Y498263D01*
X717973Y496147D01*
X715857Y500380D02*
X717973Y496147D01*
X715857Y500380D02*
X717973Y504613D01*
X713740Y502497D02*
X717973Y504613D01*
X709507D02*
X713740Y502497D01*
X709507Y504613D02*
X711623Y500380D01*
X709507Y496147D02*
X711623Y500380D01*
X709507Y546147D02*
X713740Y548263D01*
X717973Y546147D01*
X715857Y550380D02*
X717973Y546147D01*
X715857Y550380D02*
X717973Y554613D01*
X713740Y552497D02*
X717973Y554613D01*
X709507D02*
X713740Y552497D01*
X709507Y554613D02*
X711623Y550380D01*
X709507Y546147D02*
X711623Y550380D01*
X268817Y800947D02*
X273050Y803063D01*
X277283Y800947D01*
X275167Y805180D02*
X277283Y800947D01*
X275167Y805180D02*
X277283Y809413D01*
X273050Y807297D02*
X277283Y809413D01*
X268817D02*
X273050Y807297D01*
X268817Y809413D02*
X270933Y805180D01*
X268817Y800947D02*
X270933Y805180D01*
X268817Y775547D02*
X273050Y777663D01*
X277283Y775547D01*
X275167Y779780D02*
X277283Y775547D01*
X275167Y779780D02*
X277283Y784013D01*
X273050Y781897D02*
X277283Y784013D01*
X268817D02*
X273050Y781897D01*
X268817Y784013D02*
X270933Y779780D01*
X268817Y775547D02*
X270933Y779780D01*
X268817Y750147D02*
X273050Y752263D01*
X277283Y750147D01*
X275167Y754380D02*
X277283Y750147D01*
X275167Y754380D02*
X277283Y758613D01*
X273050Y756497D02*
X277283Y758613D01*
X268817D02*
X273050Y756497D01*
X268817Y758613D02*
X270933Y754380D01*
X268817Y750147D02*
X270933Y754380D01*
X557107Y646007D02*
X561340Y648123D01*
X565573Y646007D01*
X563457Y650240D02*
X565573Y646007D01*
X563457Y650240D02*
X565573Y654473D01*
X561340Y652357D02*
X565573Y654473D01*
X557107D02*
X561340Y652357D01*
X557107Y654473D02*
X559223Y650240D01*
X557107Y646007D02*
X559223Y650240D01*
X605907Y646007D02*
X610140Y648123D01*
X614373Y646007D01*
X612257Y650240D02*
X614373Y646007D01*
X612257Y650240D02*
X614373Y654473D01*
X610140Y652357D02*
X614373Y654473D01*
X605907D02*
X610140Y652357D01*
X605907Y654473D02*
X608023Y650240D01*
X605907Y646007D02*
X608023Y650240D01*
X320887Y891963D02*
X323003D01*
X320887D02*
Y896197D01*
X323003D01*
Y898313D01*
X327237D01*
Y896197D02*
Y898313D01*
Y896197D02*
X329353D01*
Y891963D02*
Y896197D01*
X327237Y891963D02*
X329353D01*
X327237Y889847D02*
Y891963D01*
X323003Y889847D02*
X327237D01*
X323003D02*
Y891963D01*
X270087D02*
X272203D01*
X270087D02*
Y896197D01*
X272203D01*
Y898313D01*
X276437D01*
Y896197D02*
Y898313D01*
Y896197D02*
X278553D01*
Y891963D02*
Y896197D01*
X276437Y891963D02*
X278553D01*
X276437Y889847D02*
Y891963D01*
X272203Y889847D02*
X276437D01*
X272203D02*
Y891963D01*
X270087Y917363D02*
X272203D01*
X270087D02*
Y921597D01*
X272203D01*
Y923713D01*
X276437D01*
Y921597D02*
Y923713D01*
Y921597D02*
X278553D01*
Y917363D02*
Y921597D01*
X276437Y917363D02*
X278553D01*
X276437Y915247D02*
Y917363D01*
X272203Y915247D02*
X276437D01*
X272203D02*
Y917363D01*
X320887D02*
X323003D01*
X320887D02*
Y921597D01*
X323003D01*
Y923713D01*
X327237D01*
Y921597D02*
Y923713D01*
Y921597D02*
X329353D01*
Y917363D02*
Y921597D01*
X327237Y917363D02*
X329353D01*
X327237Y915247D02*
Y917363D01*
X323003Y915247D02*
X327237D01*
X323003D02*
Y917363D01*
X374227Y853017D02*
X378460Y855133D01*
X382693Y853017D01*
X380577Y857250D02*
X382693Y853017D01*
X380577Y857250D02*
X382693Y861483D01*
X378460Y859367D02*
X382693Y861483D01*
X374227D02*
X378460Y859367D01*
X374227Y861483D02*
X376343Y857250D01*
X374227Y853017D02*
X376343Y857250D01*
X374227Y827617D02*
X378460Y829733D01*
X382693Y827617D01*
X380577Y831850D02*
X382693Y827617D01*
X380577Y831850D02*
X382693Y836083D01*
X378460Y833967D02*
X382693Y836083D01*
X374227D02*
X378460Y833967D01*
X374227Y836083D02*
X376343Y831850D01*
X374227Y827617D02*
X376343Y831850D01*
X374227Y802217D02*
X378460Y804333D01*
X382693Y802217D01*
X380577Y806450D02*
X382693Y802217D01*
X380577Y806450D02*
X382693Y810683D01*
X378460Y808567D02*
X382693Y810683D01*
X374227D02*
X378460Y808567D01*
X374227Y810683D02*
X376343Y806450D01*
X374227Y802217D02*
X376343Y806450D01*
X374227Y776817D02*
X378460Y778933D01*
X382693Y776817D01*
X380577Y781050D02*
X382693Y776817D01*
X380577Y781050D02*
X382693Y785283D01*
X378460Y783167D02*
X382693Y785283D01*
X374227D02*
X378460Y783167D01*
X374227Y785283D02*
X376343Y781050D01*
X374227Y776817D02*
X376343Y781050D01*
X374227Y751417D02*
X378460Y753533D01*
X382693Y751417D01*
X380577Y755650D02*
X382693Y751417D01*
X380577Y755650D02*
X382693Y759883D01*
X378460Y757767D02*
X382693Y759883D01*
X374227D02*
X378460Y757767D01*
X374227Y759883D02*
X376343Y755650D01*
X374227Y751417D02*
X376343Y755650D01*
X374227Y726017D02*
X378460Y728133D01*
X382693Y726017D01*
X380577Y730250D02*
X382693Y726017D01*
X380577Y730250D02*
X382693Y734483D01*
X378460Y732367D02*
X382693Y734483D01*
X374227D02*
X378460Y732367D01*
X374227Y734483D02*
X376343Y730250D01*
X374227Y726017D02*
X376343Y730250D01*
X289560Y1057487D02*
X293793Y1065953D01*
X285327D02*
X293793D01*
X285327D02*
X289560Y1057487D01*
Y1044787D02*
X293793Y1053253D01*
X285327D02*
X293793D01*
X285327D02*
X289560Y1044787D01*
Y1019387D02*
X293793Y1027853D01*
X285327D02*
X293793D01*
X285327D02*
X289560Y1019387D01*
Y1032087D02*
X293793Y1040553D01*
X285327D02*
X293793D01*
X285327D02*
X289560Y1032087D01*
X273897Y955463D02*
X276013D01*
X273897D02*
Y959697D01*
X276013D01*
Y961813D01*
X280247D01*
Y959697D02*
Y961813D01*
Y959697D02*
X282363D01*
Y955463D02*
Y959697D01*
X280247Y955463D02*
X282363D01*
X280247Y953347D02*
Y955463D01*
X276013Y953347D02*
X280247D01*
X276013D02*
Y955463D01*
X324697D02*
X326813D01*
X324697D02*
Y959697D01*
X326813D01*
Y961813D01*
X331047D01*
Y959697D02*
Y961813D01*
Y959697D02*
X333163D01*
Y955463D02*
Y959697D01*
X331047Y955463D02*
X333163D01*
X331047Y953347D02*
Y955463D01*
X326813Y953347D02*
X331047D01*
X326813D02*
Y955463D01*
X637117Y930063D02*
X639233D01*
X637117D02*
Y934297D01*
X639233D01*
Y936413D01*
X643467D01*
Y934297D02*
Y936413D01*
Y934297D02*
X645583D01*
Y930063D02*
Y934297D01*
X643467Y930063D02*
X645583D01*
X643467Y927947D02*
Y930063D01*
X639233Y927947D02*
X643467D01*
X639233D02*
Y930063D01*
X637117Y980863D02*
X639233D01*
X637117D02*
Y985097D01*
X639233D01*
Y987213D01*
X643467D01*
Y985097D02*
Y987213D01*
Y985097D02*
X645583D01*
Y980863D02*
Y985097D01*
X643467Y980863D02*
X645583D01*
X643467Y978747D02*
Y980863D01*
X639233Y978747D02*
X643467D01*
X639233D02*
Y980863D01*
X433917Y1029547D02*
X438150Y1031663D01*
X442383Y1029547D01*
X440267Y1033780D02*
X442383Y1029547D01*
X440267Y1033780D02*
X442383Y1038013D01*
X438150Y1035897D02*
X442383Y1038013D01*
X433917D02*
X438150Y1035897D01*
X433917Y1038013D02*
X436033Y1033780D01*
X433917Y1029547D02*
X436033Y1033780D01*
X433917Y1054947D02*
X438150Y1057063D01*
X442383Y1054947D01*
X440267Y1059180D02*
X442383Y1054947D01*
X440267Y1059180D02*
X442383Y1063413D01*
X438150Y1061297D02*
X442383Y1063413D01*
X433917D02*
X438150Y1061297D01*
X433917Y1063413D02*
X436033Y1059180D01*
X433917Y1054947D02*
X436033Y1059180D01*
X440267Y980017D02*
X444500Y982133D01*
X448733Y980017D01*
X446617Y984250D02*
X448733Y980017D01*
X446617Y984250D02*
X448733Y988483D01*
X444500Y986367D02*
X448733Y988483D01*
X440267D02*
X444500Y986367D01*
X440267Y988483D02*
X442383Y984250D01*
X440267Y980017D02*
X442383Y984250D01*
X440267Y954617D02*
X444500Y956733D01*
X448733Y954617D01*
X446617Y958850D02*
X448733Y954617D01*
X446617Y958850D02*
X448733Y963083D01*
X444500Y960967D02*
X448733Y963083D01*
X440267D02*
X444500Y960967D01*
X440267Y963083D02*
X442383Y958850D01*
X440267Y954617D02*
X442383Y958850D01*
X541867Y973667D02*
X546100Y975783D01*
X550333Y973667D01*
X548217Y977900D02*
X550333Y973667D01*
X548217Y977900D02*
X550333Y982133D01*
X546100Y980017D02*
X550333Y982133D01*
X541867D02*
X546100Y980017D01*
X541867Y982133D02*
X543983Y977900D01*
X541867Y973667D02*
X543983Y977900D01*
X567267Y973667D02*
X571500Y975783D01*
X575733Y973667D01*
X573617Y977900D02*
X575733Y973667D01*
X573617Y977900D02*
X575733Y982133D01*
X571500Y980017D02*
X575733Y982133D01*
X567267D02*
X571500Y980017D01*
X567267Y982133D02*
X569383Y977900D01*
X567267Y973667D02*
X569383Y977900D01*
D98*
X910368Y621030D02*
X1895626D01*
X910368Y316230D02*
X1895626D01*
X910368Y278130D02*
X1895626D01*
Y659130D01*
X910368D02*
X1895626D01*
X910368Y278130D02*
Y659130D01*
X1697811Y278130D02*
Y659130D01*
X1569318Y278130D02*
Y659130D01*
X1227535Y278130D02*
Y659130D01*
X1050290Y278130D02*
Y659130D01*
D99*
X1709241Y650742D02*
Y632460D01*
Y641601D01*
X1721429D01*
Y650742D01*
Y632460D01*
X1730570D02*
X1736664D01*
X1739711Y635507D01*
Y641601D01*
X1736664Y644648D01*
X1730570D01*
X1727523Y641601D01*
Y635507D01*
X1730570Y632460D01*
X1745805D02*
X1751899D01*
X1748852D01*
Y650742D01*
X1745805D01*
X1770181Y632460D02*
X1764087D01*
X1761040Y635507D01*
Y641601D01*
X1764087Y644648D01*
X1770181D01*
X1773228Y641601D01*
Y638554D01*
X1761040D01*
X1797604Y650742D02*
X1809792D01*
X1803698D01*
Y632460D01*
X1815886Y644648D02*
Y635507D01*
X1818933Y632460D01*
X1828074D01*
Y629413D01*
X1825027Y626366D01*
X1821980D01*
X1828074Y632460D02*
Y644648D01*
X1834168Y626366D02*
Y644648D01*
X1843309D01*
X1846356Y641601D01*
Y635507D01*
X1843309Y632460D01*
X1834168D01*
X1861591D02*
X1855497D01*
X1852450Y635507D01*
Y641601D01*
X1855497Y644648D01*
X1861591D01*
X1864638Y641601D01*
Y638554D01*
X1852450D01*
X1580748Y632460D02*
Y650742D01*
X1589889D01*
X1592936Y647695D01*
Y641601D01*
X1589889Y638554D01*
X1580748D01*
X1599030Y632460D02*
X1605124D01*
X1602077D01*
Y650742D01*
X1599030D01*
X1617312Y644648D02*
X1623406D01*
X1626453Y641601D01*
Y632460D01*
X1617312D01*
X1614265Y635507D01*
X1617312Y638554D01*
X1626453D01*
X1635594Y647695D02*
Y644648D01*
X1632547D01*
X1638641D01*
X1635594D01*
Y635507D01*
X1638641Y632460D01*
X1656923D02*
X1650829D01*
X1647782Y635507D01*
Y641601D01*
X1650829Y644648D01*
X1656923D01*
X1659970Y641601D01*
Y638554D01*
X1647782D01*
X1678253Y650742D02*
Y632460D01*
X1669111D01*
X1666064Y635507D01*
Y641601D01*
X1669111Y644648D01*
X1678253D01*
X1251153Y650742D02*
X1238965D01*
Y641601D01*
X1245059D01*
X1238965D01*
Y632460D01*
X1257247D02*
X1263341D01*
X1260294D01*
Y644648D01*
X1257247D01*
X1272482Y632460D02*
Y644648D01*
X1281623D01*
X1284670Y641601D01*
Y632460D01*
X1290764D02*
X1296858D01*
X1293811D01*
Y644648D01*
X1290764D01*
X1305999Y632460D02*
X1315140D01*
X1318187Y635507D01*
X1315140Y638554D01*
X1309046D01*
X1305999Y641601D01*
X1309046Y644648D01*
X1318187D01*
X1324281Y650742D02*
Y632460D01*
Y641601D01*
X1327328Y644648D01*
X1333422D01*
X1336469Y641601D01*
Y632460D01*
X1351704D02*
X1345610D01*
X1342563Y635507D01*
Y641601D01*
X1345610Y644648D01*
X1351704D01*
X1354751Y641601D01*
Y638554D01*
X1342563D01*
X1373033Y650742D02*
Y632460D01*
X1363892D01*
X1360845Y635507D01*
Y641601D01*
X1363892Y644648D01*
X1373033D01*
X1397409Y650742D02*
Y632460D01*
Y641601D01*
X1409597D01*
Y650742D01*
Y632460D01*
X1418739D02*
X1424832D01*
X1427879Y635507D01*
Y641601D01*
X1424832Y644648D01*
X1418739D01*
X1415692Y641601D01*
Y635507D01*
X1418739Y632460D01*
X1433974D02*
X1440068D01*
X1437021D01*
Y650742D01*
X1433974D01*
X1458350Y632460D02*
X1452256D01*
X1449209Y635507D01*
Y641601D01*
X1452256Y644648D01*
X1458350D01*
X1461397Y641601D01*
Y638554D01*
X1449209D01*
X1497961Y647695D02*
X1494914Y650742D01*
X1488820D01*
X1485773Y647695D01*
Y644648D01*
X1488820Y641601D01*
X1494914D01*
X1497961Y638554D01*
Y635507D01*
X1494914Y632460D01*
X1488820D01*
X1485773Y635507D01*
X1504055Y632460D02*
X1510149D01*
X1507102D01*
Y644648D01*
X1504055D01*
X1519290D02*
X1531478D01*
X1519290Y632460D01*
X1531478D01*
X1546713D02*
X1540619D01*
X1537572Y635507D01*
Y641601D01*
X1540619Y644648D01*
X1546713D01*
X1549760Y641601D01*
Y638554D01*
X1537572D01*
X1061720Y650742D02*
Y632460D01*
Y641601D01*
X1073908D01*
Y650742D01*
Y632460D01*
X1080002D02*
X1086096D01*
X1083049D01*
Y644648D01*
X1080002D01*
X1098284Y647695D02*
Y644648D01*
X1095237D01*
X1101331D01*
X1098284D01*
Y635507D01*
X1101331Y632460D01*
X1140942Y647695D02*
X1137895Y650742D01*
X1131801D01*
X1128754Y647695D01*
Y635507D01*
X1131801Y632460D01*
X1137895D01*
X1140942Y635507D01*
X1150083Y632460D02*
X1156177D01*
X1159224Y635507D01*
Y641601D01*
X1156177Y644648D01*
X1150083D01*
X1147036Y641601D01*
Y635507D01*
X1150083Y632460D01*
X1165319Y644648D02*
Y635507D01*
X1168365Y632460D01*
X1177506D01*
Y644648D01*
X1183601Y632460D02*
Y644648D01*
X1192742D01*
X1195789Y641601D01*
Y632460D01*
X1204930Y647695D02*
Y644648D01*
X1201883D01*
X1207977D01*
X1204930D01*
Y635507D01*
X1207977Y632460D01*
X945416Y647695D02*
X942369Y650742D01*
X936275D01*
X933228Y647695D01*
Y644648D01*
X936275Y641601D01*
X942369D01*
X945416Y638554D01*
Y635507D01*
X942369Y632460D01*
X936275D01*
X933228Y635507D01*
X951510Y644648D02*
Y635507D01*
X954557Y632460D01*
X963698D01*
Y629413D01*
X960651Y626366D01*
X957604D01*
X963698Y632460D02*
Y644648D01*
X969792Y632460D02*
Y644648D01*
X972839D01*
X975886Y641601D01*
Y632460D01*
Y641601D01*
X978933Y644648D01*
X981980Y641601D01*
Y632460D01*
X988074Y650742D02*
Y632460D01*
X997215D01*
X1000262Y635507D01*
Y638554D01*
Y641601D01*
X997215Y644648D01*
X988074D01*
X1009403Y632460D02*
X1015497D01*
X1018544Y635507D01*
Y641601D01*
X1015497Y644648D01*
X1009403D01*
X1006356Y641601D01*
Y635507D01*
X1009403Y632460D01*
X1024638D02*
X1030732D01*
X1027685D01*
Y650742D01*
X1024638D01*
M02*
