%FSLAX44Y44*%
%MOMM*%
G71*
G01*
G75*
G04 Layer_Color=8421504*
%ADD10R,2.1590X2.7430*%
%ADD11R,3.5000X1.0000*%
%ADD12R,2.5000X1.7000*%
%ADD13R,1.6000X3.0000*%
%ADD14R,1.2500X1.2500*%
%ADD15O,0.7200X1.7800*%
%ADD16R,0.7200X1.7800*%
%ADD17R,1.2500X1.2500*%
%ADD18R,1.4500X0.4000*%
%ADD19O,1.4500X0.4000*%
%ADD20R,1.4000X1.0000*%
%ADD21R,0.6000X1.5000*%
%ADD22R,0.6000X2.0000*%
%ADD23R,0.9000X2.0000*%
%ADD24R,2.0000X0.7000*%
%ADD25R,2.0000X0.8000*%
%ADD26R,1.0000X2.0000*%
G04:AMPARAMS|DCode=27|XSize=2mm|YSize=1mm|CornerRadius=0.25mm|HoleSize=0mm|Usage=FLASHONLY|Rotation=90.000|XOffset=0mm|YOffset=0mm|HoleType=Round|Shape=RoundedRectangle|*
%AMROUNDEDRECTD27*
21,1,2.0000,0.5000,0,0,90.0*
21,1,1.5000,1.0000,0,0,90.0*
1,1,0.5000,0.2500,0.7500*
1,1,0.5000,0.2500,-0.7500*
1,1,0.5000,-0.2500,-0.7500*
1,1,0.5000,-0.2500,0.7500*
%
%ADD27ROUNDEDRECTD27*%
%ADD28R,1.5500X0.6000*%
%ADD29O,1.5500X0.6000*%
%ADD30C,0.7000*%
%ADD31C,1.0000*%
%ADD32C,1.5000*%
%ADD33C,0.3000*%
%ADD34C,0.5000*%
%ADD35C,0.4000*%
%ADD36R,1.5240X1.5240*%
%ADD37C,1.5240*%
%ADD38C,2.0000*%
%ADD39R,1.5000X1.5000*%
%ADD40C,1.5000*%
%ADD41C,1.8500*%
%ADD42R,1.8500X1.8500*%
%ADD43R,2.0000X2.0000*%
%ADD44R,2.0000X2.0000*%
%ADD45O,1.5000X0.9000*%
%ADD46R,1.5000X0.9000*%
%ADD47R,1.8500X1.8500*%
%ADD48C,0.7000*%
%ADD49C,1.0000*%
%ADD50C,1.2700*%
%ADD51C,0.2540*%
%ADD52C,0.2000*%
%ADD53C,0.2500*%
%ADD54C,0.2560*%
%ADD55C,0.1500*%
D10*
X326390Y586740D02*
D03*
X370590D02*
D03*
D11*
X322850Y646430D02*
D03*
X375850D02*
D03*
D12*
X687070Y483870D02*
D03*
X647070D02*
D03*
D13*
X533400Y396240D02*
D03*
Y440240D02*
D03*
Y524510D02*
D03*
Y480510D02*
D03*
D14*
X290920Y372110D02*
D03*
X312420D02*
D03*
X290920Y349250D02*
D03*
X312420D02*
D03*
X333920Y490220D02*
D03*
X312420D02*
D03*
X310970Y444500D02*
D03*
X289470D02*
D03*
X353060Y439420D02*
D03*
X374560D02*
D03*
X431710Y561340D02*
D03*
X410210D02*
D03*
X676820Y527050D02*
D03*
X655320D02*
D03*
X676820Y509270D02*
D03*
X655320D02*
D03*
X768260Y398780D02*
D03*
X746760D02*
D03*
X746850Y448310D02*
D03*
X768350D02*
D03*
X746850Y425450D02*
D03*
X768350D02*
D03*
X745490Y374650D02*
D03*
X766990D02*
D03*
X696050Y430530D02*
D03*
X717550D02*
D03*
X435700Y842010D02*
D03*
X457200D02*
D03*
X457110Y806450D02*
D03*
X435610D02*
D03*
X514530Y876300D02*
D03*
X536030D02*
D03*
X614860D02*
D03*
X636360D02*
D03*
X675550Y718820D02*
D03*
X654050D02*
D03*
X389800Y925830D02*
D03*
X368300D02*
D03*
X600800Y1240790D02*
D03*
X622300D02*
D03*
D15*
X391160Y537020D02*
D03*
X378460D02*
D03*
X365760D02*
D03*
X353060D02*
D03*
X391160Y490220D02*
D03*
X378460D02*
D03*
X365760D02*
D03*
D16*
X353060D02*
D03*
D17*
X410210Y336640D02*
D03*
Y358140D02*
D03*
X330200Y423000D02*
D03*
Y444500D02*
D03*
X632930Y420280D02*
D03*
Y398780D02*
D03*
X597370Y420280D02*
D03*
Y398780D02*
D03*
X615150Y420280D02*
D03*
Y398780D02*
D03*
X614680Y349340D02*
D03*
Y370840D02*
D03*
X663410Y345350D02*
D03*
Y323850D02*
D03*
X614680Y306160D02*
D03*
Y327660D02*
D03*
X716750Y318860D02*
D03*
Y340360D02*
D03*
X318770Y777330D02*
D03*
Y798830D02*
D03*
X568960Y718730D02*
D03*
Y697230D02*
D03*
X609600Y718730D02*
D03*
Y697230D02*
D03*
X457200Y783500D02*
D03*
Y762000D02*
D03*
X436880Y783500D02*
D03*
Y762000D02*
D03*
X336550Y1071790D02*
D03*
Y1050290D02*
D03*
Y1002120D02*
D03*
Y1023620D02*
D03*
X675640Y971640D02*
D03*
Y993140D02*
D03*
X392430Y1012280D02*
D03*
Y1033780D02*
D03*
X396240Y957670D02*
D03*
Y979170D02*
D03*
X510540Y1004480D02*
D03*
Y982980D02*
D03*
D18*
X341630Y393700D02*
D03*
D19*
Y387200D02*
D03*
Y380700D02*
D03*
Y374200D02*
D03*
X385630Y393700D02*
D03*
Y387200D02*
D03*
Y380700D02*
D03*
Y374200D02*
D03*
D20*
X330200Y838200D02*
D03*
Y857200D02*
D03*
X308200Y847700D02*
D03*
D21*
X427990Y868680D02*
D03*
X440690D02*
D03*
X453390D02*
D03*
X466090D02*
D03*
X427990Y923180D02*
D03*
X440690D02*
D03*
X453390D02*
D03*
X466090D02*
D03*
D22*
X517440Y751460D02*
D03*
X530140D02*
D03*
X542840D02*
D03*
X555540D02*
D03*
X568240D02*
D03*
X580940D02*
D03*
X593640D02*
D03*
X606340D02*
D03*
X619040D02*
D03*
X631740D02*
D03*
X644440D02*
D03*
X657140D02*
D03*
X669840D02*
D03*
X682540D02*
D03*
Y845460D02*
D03*
X669840D02*
D03*
X657140D02*
D03*
X644440D02*
D03*
X631740D02*
D03*
X619040D02*
D03*
X606340D02*
D03*
X593640D02*
D03*
X580940D02*
D03*
X568240D02*
D03*
X555540D02*
D03*
X542840D02*
D03*
X530140D02*
D03*
X517440D02*
D03*
D23*
X425370Y1237630D02*
D03*
X293370D02*
D03*
X305370D02*
D03*
X317370D02*
D03*
X329370D02*
D03*
X341370D02*
D03*
X353370D02*
D03*
X365370D02*
D03*
X377370D02*
D03*
X389370D02*
D03*
X401370D02*
D03*
X413370D02*
D03*
Y1103630D02*
D03*
X401370D02*
D03*
X389370D02*
D03*
X377370D02*
D03*
X365370D02*
D03*
X353370D02*
D03*
X341370D02*
D03*
X329370D02*
D03*
X317370D02*
D03*
X305370D02*
D03*
X293370D02*
D03*
X425370D02*
D03*
D24*
X453370Y1201630D02*
D03*
Y1139630D02*
D03*
Y1129630D02*
D03*
Y1211630D02*
D03*
D25*
Y1188630D02*
D03*
Y1176630D02*
D03*
Y1164630D02*
D03*
Y1152630D02*
D03*
D26*
X523240Y1211580D02*
D03*
D27*
X535940D02*
D03*
X548640D02*
D03*
X561340D02*
D03*
X574040D02*
D03*
X586740D02*
D03*
X650240D02*
D03*
X662940D02*
D03*
X675640D02*
D03*
X808990D02*
D03*
Y1046480D02*
D03*
X637540D02*
D03*
X624840D02*
D03*
X612140D02*
D03*
X599440D02*
D03*
X586740D02*
D03*
X574040D02*
D03*
X561340D02*
D03*
X548640D02*
D03*
X535940D02*
D03*
X523240D02*
D03*
D28*
X663410Y411480D02*
D03*
D29*
Y398780D02*
D03*
Y386080D02*
D03*
Y373380D02*
D03*
X717410Y411480D02*
D03*
Y398780D02*
D03*
Y386080D02*
D03*
Y373380D02*
D03*
M02*
