%FSLAX44Y44*%
%MOMM*%
G71*
G01*
G75*
G04 Layer_Color=32768*
%ADD10R,3.5000X0.7500*%
%ADD11O,1.5500X0.6000*%
%ADD12R,1.5500X0.6000*%
G04:AMPARAMS|DCode=13|XSize=2mm|YSize=1mm|CornerRadius=0.25mm|HoleSize=0mm|Usage=FLASHONLY|Rotation=90.000|XOffset=0mm|YOffset=0mm|HoleType=Round|Shape=RoundedRectangle|*
%AMROUNDEDRECTD13*
21,1,2.0000,0.5000,0,0,90.0*
21,1,1.5000,1.0000,0,0,90.0*
1,1,0.5000,0.2500,0.7500*
1,1,0.5000,0.2500,-0.7500*
1,1,0.5000,-0.2500,-0.7500*
1,1,0.5000,-0.2500,0.7500*
%
%ADD13ROUNDEDRECTD13*%
%ADD14R,1.0000X2.0000*%
%ADD15R,0.9000X2.0000*%
%ADD16R,2.0000X0.7000*%
%ADD17R,2.0000X0.8000*%
%ADD18R,1.2500X1.2500*%
%ADD19R,1.2500X1.2500*%
%ADD20R,0.6000X2.0000*%
%ADD21R,0.6000X1.5000*%
%ADD22R,1.4000X1.0000*%
%ADD23R,2.5000X1.7000*%
%ADD24R,3.0000X1.6000*%
%ADD25O,1.4500X0.4000*%
%ADD26R,1.4500X0.4000*%
%ADD27R,0.7200X1.7800*%
%ADD28O,0.7200X1.7800*%
%ADD29R,2.1590X2.7430*%
%ADD30C,0.7000*%
%ADD31C,1.5000*%
%ADD32C,0.3000*%
%ADD33C,0.5000*%
%ADD34C,0.4000*%
%ADD35C,1.5000*%
%ADD36R,1.8500X1.8500*%
%ADD37C,1.8500*%
%ADD38R,1.8500X1.8500*%
%ADD39R,1.5000X0.9000*%
%ADD40O,1.5000X0.9000*%
%ADD41R,2.0000X2.0000*%
%ADD42C,2.0000*%
%ADD43R,2.0000X2.0000*%
%ADD44C,1.5240*%
%ADD45R,1.5240X1.5240*%
%ADD46R,1.5000X1.5000*%
%ADD47R,1.5240X1.5240*%
%ADD48C,1.2700*%
%ADD49C,1.0000*%
%ADD50C,0.7000*%
%ADD51C,0.2000*%
%ADD52C,0.2540*%
%ADD53C,0.2500*%
%ADD54C,0.2560*%
%ADD55C,0.1500*%
%ADD56R,3.7032X0.9532*%
%ADD57O,1.7532X0.8032*%
%ADD58R,1.7532X0.8032*%
G04:AMPARAMS|DCode=59|XSize=2.2032mm|YSize=1.2032mm|CornerRadius=0.3516mm|HoleSize=0mm|Usage=FLASHONLY|Rotation=90.000|XOffset=0mm|YOffset=0mm|HoleType=Round|Shape=RoundedRectangle|*
%AMROUNDEDRECTD59*
21,1,2.2032,0.5000,0,0,90.0*
21,1,1.5000,1.2032,0,0,90.0*
1,1,0.7032,0.2500,0.7500*
1,1,0.7032,0.2500,-0.7500*
1,1,0.7032,-0.2500,-0.7500*
1,1,0.7032,-0.2500,0.7500*
%
%ADD59ROUNDEDRECTD59*%
%ADD60R,1.2032X2.2032*%
%ADD61R,1.1032X2.2032*%
%ADD62R,2.2032X0.9032*%
%ADD63R,2.2032X1.0032*%
%ADD64R,1.4532X1.4532*%
%ADD65R,1.4532X1.4532*%
%ADD66R,0.8032X2.2032*%
%ADD67R,0.8032X1.7032*%
%ADD68R,1.6032X1.2032*%
%ADD69R,2.7032X1.9032*%
%ADD70R,3.2032X1.8032*%
%ADD71O,1.6532X0.6032*%
%ADD72R,1.6532X0.6032*%
%ADD73R,0.9232X1.9832*%
%ADD74O,0.9232X1.9832*%
%ADD75R,2.3622X2.9462*%
%ADD76C,1.7032*%
%ADD77R,2.0532X2.0532*%
%ADD78C,2.0532*%
%ADD79R,2.0532X2.0532*%
%ADD80R,1.7032X1.1032*%
%ADD81O,1.7032X1.1032*%
%ADD82R,2.2032X2.2032*%
%ADD83C,2.2032*%
%ADD84R,2.2032X2.2032*%
%ADD85C,1.7272*%
%ADD86R,1.7272X1.7272*%
%ADD87R,1.7032X1.7032*%
%ADD88R,1.7272X1.7272*%
%ADD89C,0.2032*%
%ADD90C,1.4732*%
%ADD91C,1.2032*%
%ADD92C,0.9032*%
%ADD93R,2.4000X2.2000*%
%ADD94R,2.1000X2.3000*%
%ADD95R,2.9000X3.6000*%
%ADD96C,0.1524*%
D52*
X251460Y220980D02*
X464591D01*
X625070D02*
X838200D01*
X251460D02*
X266700Y226060D01*
X251460Y220980D02*
X266700Y215900D01*
X822960Y226060D02*
X838200Y220980D01*
X822960Y215900D02*
X838200Y220980D01*
X251460Y218440D02*
Y223520D01*
X838200Y218440D02*
Y223520D01*
X838200D02*
Y270510D01*
X251460Y223520D02*
Y270510D01*
X201678Y273280D02*
X248690D01*
X201679Y1276580D02*
X248668D01*
X199138Y273280D02*
X199139Y695960D01*
X199139Y853900D02*
X199139Y1276580D01*
X194058Y288520D02*
X199138Y273280D01*
X204218Y288520D01*
X194058Y1261340D02*
X199139Y1276580D01*
X204219Y1261340D01*
X196598Y273280D02*
X201678D01*
X196598Y1276580D02*
X201679D01*
D96*
X477287Y227073D02*
X467131D01*
Y219456D01*
X472209Y221995D01*
X474748D01*
X477287Y219456D01*
Y214378D01*
X474748Y211838D01*
X469670D01*
X467131Y214378D01*
X482366Y224534D02*
X484905Y227073D01*
X489983D01*
X492523Y224534D01*
Y221995D01*
X489983Y219456D01*
X492523Y216917D01*
Y214378D01*
X489983Y211838D01*
X484905D01*
X482366Y214378D01*
Y216917D01*
X484905Y219456D01*
X482366Y221995D01*
Y224534D01*
X484905Y219456D02*
X489983D01*
X497601Y211838D02*
Y214378D01*
X500140D01*
Y211838D01*
X497601D01*
X520453Y227073D02*
X515375Y224534D01*
X510297Y219456D01*
Y214378D01*
X512836Y211838D01*
X517914D01*
X520453Y214378D01*
Y216917D01*
X517914Y219456D01*
X510297D01*
X525532Y227073D02*
X535689D01*
Y224534D01*
X525532Y214378D01*
Y211838D01*
X548385D02*
Y227073D01*
X540767Y219456D01*
X550924D01*
X576315Y211838D02*
X571237Y216917D01*
Y221995D01*
X576315Y227073D01*
X583933Y211838D02*
Y221995D01*
X586472D01*
X589011Y219456D01*
Y211838D01*
Y219456D01*
X591550Y221995D01*
X594090Y219456D01*
Y211838D01*
X599168D02*
Y221995D01*
X601707D01*
X604246Y219456D01*
Y211838D01*
Y219456D01*
X606786Y221995D01*
X609325Y219456D01*
Y211838D01*
X614403D02*
X619482Y216917D01*
Y221995D01*
X614403Y227073D01*
X208280Y698500D02*
Y703578D01*
Y701039D01*
X193045D01*
X195584Y698500D01*
Y711196D02*
X193045Y713735D01*
Y718813D01*
X195584Y721353D01*
X205741D01*
X208280Y718813D01*
Y713735D01*
X205741Y711196D01*
X195584D01*
Y726431D02*
X193045Y728970D01*
Y734048D01*
X195584Y736588D01*
X205741D01*
X208280Y734048D01*
Y728970D01*
X205741Y726431D01*
X195584D01*
X208280Y741666D02*
X205741D01*
Y744205D01*
X208280D01*
Y741666D01*
X195584Y754362D02*
X193045Y756901D01*
Y761980D01*
X195584Y764519D01*
X198123D01*
X200662Y761980D01*
Y759440D01*
Y761980D01*
X203202Y764519D01*
X205741D01*
X208280Y761980D01*
Y756901D01*
X205741Y754362D01*
X195584Y769597D02*
X193045Y772136D01*
Y777215D01*
X195584Y779754D01*
X198123D01*
X200662Y777215D01*
Y774675D01*
Y777215D01*
X203202Y779754D01*
X205741D01*
X208280Y777215D01*
Y772136D01*
X205741Y769597D01*
X208280Y805145D02*
X203202Y800067D01*
X198123D01*
X193045Y805145D01*
X208280Y812763D02*
X198123D01*
Y815302D01*
X200662Y817841D01*
X208280D01*
X200662D01*
X198123Y820381D01*
X200662Y822920D01*
X208280D01*
Y827998D02*
X198123D01*
Y830537D01*
X200662Y833076D01*
X208280D01*
X200662D01*
X198123Y835616D01*
X200662Y838155D01*
X208280D01*
Y843233D02*
X203202Y848311D01*
X198123D01*
X193045Y843233D01*
M02*
