%FSLAX44Y44*%
%MOMM*%
G71*
G01*
G75*
G04 Layer_Color=255*
%ADD10R,2.1590X2.7430*%
%ADD11R,3.5000X1.0000*%
%ADD12R,2.5000X1.7000*%
%ADD13R,1.6000X3.0000*%
%ADD14R,1.2500X1.2500*%
%ADD15O,0.7200X1.7800*%
%ADD16R,0.7200X1.7800*%
%ADD17R,1.2500X1.2500*%
%ADD18R,1.4500X0.4000*%
%ADD19O,1.4500X0.4000*%
%ADD20R,1.4000X1.0000*%
%ADD21R,0.6000X1.5000*%
%ADD22R,0.6000X2.0000*%
%ADD23R,0.9000X2.0000*%
%ADD24R,2.0000X0.7000*%
%ADD25R,2.0000X0.8000*%
%ADD26R,1.0000X2.0000*%
G04:AMPARAMS|DCode=27|XSize=2mm|YSize=1mm|CornerRadius=0.25mm|HoleSize=0mm|Usage=FLASHONLY|Rotation=90.000|XOffset=0mm|YOffset=0mm|HoleType=Round|Shape=RoundedRectangle|*
%AMROUNDEDRECTD27*
21,1,2.0000,0.5000,0,0,90.0*
21,1,1.5000,1.0000,0,0,90.0*
1,1,0.5000,0.2500,0.7500*
1,1,0.5000,0.2500,-0.7500*
1,1,0.5000,-0.2500,-0.7500*
1,1,0.5000,-0.2500,0.7500*
%
%ADD27ROUNDEDRECTD27*%
%ADD28R,1.5500X0.6000*%
%ADD29O,1.5500X0.6000*%
%ADD30C,0.7000*%
%ADD31C,1.0000*%
%ADD32C,1.5000*%
%ADD33C,0.3000*%
%ADD34C,0.5000*%
%ADD35C,0.4000*%
%ADD36R,1.5240X1.5240*%
%ADD37C,1.5240*%
%ADD38C,2.0000*%
%ADD39R,1.5000X1.5000*%
%ADD40C,1.5000*%
%ADD41C,1.8500*%
%ADD42R,1.8500X1.8500*%
%ADD43R,2.0000X2.0000*%
%ADD44R,2.0000X2.0000*%
%ADD45O,1.5000X0.9000*%
%ADD46R,1.5000X0.9000*%
%ADD47R,1.8500X1.8500*%
%ADD48C,0.7000*%
%ADD49C,1.0000*%
%ADD50C,1.2700*%
D36*
X755650Y486410D02*
D03*
X454660Y462280D02*
D03*
X445770Y598170D02*
D03*
D37*
X755650Y536410D02*
D03*
X454660Y512280D02*
D03*
X445770Y648170D02*
D03*
D38*
X737870Y728980D02*
D03*
Y703580D02*
D03*
Y678180D02*
D03*
Y652780D02*
D03*
Y627380D02*
D03*
X763270D02*
D03*
Y652780D02*
D03*
Y678180D02*
D03*
Y703580D02*
D03*
Y728980D02*
D03*
X737870Y963930D02*
D03*
Y938530D02*
D03*
Y913130D02*
D03*
Y887730D02*
D03*
Y862330D02*
D03*
X763270D02*
D03*
Y887730D02*
D03*
Y913130D02*
D03*
Y938530D02*
D03*
Y963930D02*
D03*
X273050Y805180D02*
D03*
Y779780D02*
D03*
X610140Y650240D02*
D03*
X378460Y857250D02*
D03*
Y831850D02*
D03*
Y806450D02*
D03*
Y781050D02*
D03*
Y755650D02*
D03*
D39*
X322580Y309880D02*
D03*
D40*
X297180D02*
D03*
X438150Y1033780D02*
D03*
Y1059180D02*
D03*
X444500Y984250D02*
D03*
Y958850D02*
D03*
X546100Y977900D02*
D03*
X571500D02*
D03*
D41*
X450850Y309880D02*
D03*
X274320Y894080D02*
D03*
Y919480D02*
D03*
X325120D02*
D03*
X278130Y957580D02*
D03*
X641350Y932180D02*
D03*
D42*
X400050Y309880D02*
D03*
X325120Y894080D02*
D03*
X328930Y957580D02*
D03*
D43*
X273050Y754380D02*
D03*
X378460Y730250D02*
D03*
D44*
X561340Y650240D02*
D03*
D45*
X289560Y1061720D02*
D03*
Y1049020D02*
D03*
Y1023620D02*
D03*
D46*
Y1036320D02*
D03*
D47*
X641350Y982980D02*
D03*
M02*
