%FSLAX44Y44*%
%MOMM*%
G71*
G01*
G75*
G04 Layer_Color=8421504*
%ADD10O,1.5500X0.6000*%
%ADD11R,1.5500X0.6000*%
G04:AMPARAMS|DCode=12|XSize=2mm|YSize=1mm|CornerRadius=0.25mm|HoleSize=0mm|Usage=FLASHONLY|Rotation=90.000|XOffset=0mm|YOffset=0mm|HoleType=Round|Shape=RoundedRectangle|*
%AMROUNDEDRECTD12*
21,1,2.0000,0.5000,0,0,90.0*
21,1,1.5000,1.0000,0,0,90.0*
1,1,0.5000,0.2500,0.7500*
1,1,0.5000,0.2500,-0.7500*
1,1,0.5000,-0.2500,-0.7500*
1,1,0.5000,-0.2500,0.7500*
%
%ADD12ROUNDEDRECTD12*%
%ADD13R,1.0000X2.0000*%
%ADD14R,0.9000X2.0000*%
%ADD15R,2.0000X0.7000*%
%ADD16R,2.0000X0.8000*%
%ADD17R,1.2500X1.2500*%
%ADD18R,1.2500X1.2500*%
%ADD19R,0.6000X2.0000*%
%ADD20R,0.6000X1.5000*%
%ADD21R,1.4000X1.0000*%
%ADD22R,1.6000X3.0000*%
%ADD23O,1.4500X0.4000*%
%ADD24R,1.4500X0.4000*%
%ADD25R,0.7200X1.7800*%
%ADD26O,0.7200X1.7800*%
%ADD27R,2.5000X1.7000*%
%ADD28R,3.5000X1.0000*%
%ADD29R,2.1590X2.7430*%
%ADD30C,1.0000*%
%ADD31C,1.5000*%
%ADD32C,0.7000*%
%ADD33C,0.3000*%
%ADD34C,0.5000*%
%ADD35C,0.4000*%
%ADD36C,1.5000*%
%ADD37R,1.8500X1.8500*%
%ADD38C,1.8500*%
%ADD39R,1.8500X1.8500*%
%ADD40R,1.5000X0.9000*%
%ADD41O,1.5000X0.9000*%
%ADD42R,2.0000X2.0000*%
%ADD43C,2.0000*%
%ADD44R,2.0000X2.0000*%
%ADD45R,1.5000X1.5000*%
%ADD46C,1.5240*%
%ADD47R,1.5240X1.5240*%
%ADD48C,1.2700*%
%ADD49C,1.0000*%
%ADD50C,0.7000*%
%ADD51C,0.2000*%
%ADD52C,0.2540*%
%ADD53C,0.2500*%
%ADD54C,0.2560*%
%ADD55C,0.1500*%
D10*
X717410Y373380D02*
D03*
Y386080D02*
D03*
Y398780D02*
D03*
Y411480D02*
D03*
X663410Y373380D02*
D03*
Y386080D02*
D03*
Y398780D02*
D03*
D11*
Y411480D02*
D03*
D12*
X523240Y1046480D02*
D03*
X535940D02*
D03*
X548640D02*
D03*
X561340D02*
D03*
X574040D02*
D03*
X586740D02*
D03*
X599440D02*
D03*
X612140D02*
D03*
X624840D02*
D03*
X637540D02*
D03*
X808990D02*
D03*
Y1211580D02*
D03*
X675640D02*
D03*
X662940D02*
D03*
X650240D02*
D03*
X586740D02*
D03*
X574040D02*
D03*
X561340D02*
D03*
X548640D02*
D03*
X535940D02*
D03*
D13*
X523240D02*
D03*
D14*
X425370Y1103630D02*
D03*
X293370D02*
D03*
X305370D02*
D03*
X317370D02*
D03*
X329370D02*
D03*
X341370D02*
D03*
X353370D02*
D03*
X365370D02*
D03*
X377370D02*
D03*
X389370D02*
D03*
X401370D02*
D03*
X413370D02*
D03*
Y1237630D02*
D03*
X401370D02*
D03*
X389370D02*
D03*
X377370D02*
D03*
X365370D02*
D03*
X353370D02*
D03*
X341370D02*
D03*
X329370D02*
D03*
X317370D02*
D03*
X305370D02*
D03*
X293370D02*
D03*
X425370D02*
D03*
D15*
X453370Y1211630D02*
D03*
Y1129630D02*
D03*
Y1139630D02*
D03*
Y1201630D02*
D03*
D16*
Y1152630D02*
D03*
Y1164630D02*
D03*
Y1176630D02*
D03*
Y1188630D02*
D03*
D17*
X510540Y982980D02*
D03*
Y1004480D02*
D03*
X396240Y979170D02*
D03*
Y957670D02*
D03*
X392430Y1033780D02*
D03*
Y1012280D02*
D03*
X675640Y993140D02*
D03*
Y971640D02*
D03*
X336550Y1023620D02*
D03*
Y1002120D02*
D03*
Y1050290D02*
D03*
Y1071790D02*
D03*
X436880Y762000D02*
D03*
Y783500D02*
D03*
X457200Y762000D02*
D03*
Y783500D02*
D03*
X609600Y697230D02*
D03*
Y718730D02*
D03*
X568960Y697230D02*
D03*
Y718730D02*
D03*
X318770Y798830D02*
D03*
Y777330D02*
D03*
X716750Y340360D02*
D03*
Y318860D02*
D03*
X614680Y327660D02*
D03*
Y306160D02*
D03*
X663410Y323850D02*
D03*
Y345350D02*
D03*
X614680Y370840D02*
D03*
Y349340D02*
D03*
X615150Y398780D02*
D03*
Y420280D02*
D03*
X597370Y398780D02*
D03*
Y420280D02*
D03*
X632930Y398780D02*
D03*
Y420280D02*
D03*
X330200Y444500D02*
D03*
Y423000D02*
D03*
X410210Y358140D02*
D03*
Y336640D02*
D03*
D18*
X622300Y1240790D02*
D03*
X600800D02*
D03*
X368300Y925830D02*
D03*
X389800D02*
D03*
X654050Y718820D02*
D03*
X675550D02*
D03*
X636360Y876300D02*
D03*
X614860D02*
D03*
X536030D02*
D03*
X514530D02*
D03*
X435610Y806450D02*
D03*
X457110D02*
D03*
X457200Y842010D02*
D03*
X435700D02*
D03*
X717550Y430530D02*
D03*
X696050D02*
D03*
X766990Y374650D02*
D03*
X745490D02*
D03*
X768350Y425450D02*
D03*
X746850D02*
D03*
X768350Y448310D02*
D03*
X746850D02*
D03*
X746760Y398780D02*
D03*
X768260D02*
D03*
X655320Y509270D02*
D03*
X676820D02*
D03*
X655320Y527050D02*
D03*
X676820D02*
D03*
X410210Y561340D02*
D03*
X431710D02*
D03*
X374560Y439420D02*
D03*
X353060D02*
D03*
X289470Y444500D02*
D03*
X310970D02*
D03*
X312420Y490220D02*
D03*
X333920D02*
D03*
X312420Y349250D02*
D03*
X290920D02*
D03*
X312420Y372110D02*
D03*
X290920D02*
D03*
D19*
X517440Y845460D02*
D03*
X530140D02*
D03*
X542840D02*
D03*
X555540D02*
D03*
X568240D02*
D03*
X580940D02*
D03*
X593640D02*
D03*
X606340D02*
D03*
X619040D02*
D03*
X631740D02*
D03*
X644440D02*
D03*
X657140D02*
D03*
X669840D02*
D03*
X682540D02*
D03*
Y751460D02*
D03*
X669840D02*
D03*
X657140D02*
D03*
X644440D02*
D03*
X631740D02*
D03*
X619040D02*
D03*
X606340D02*
D03*
X593640D02*
D03*
X580940D02*
D03*
X568240D02*
D03*
X555540D02*
D03*
X542840D02*
D03*
X530140D02*
D03*
X517440D02*
D03*
D20*
X466090Y923180D02*
D03*
X453390D02*
D03*
X440690D02*
D03*
X427990D02*
D03*
X466090Y868680D02*
D03*
X453390D02*
D03*
X440690D02*
D03*
X427990D02*
D03*
D21*
X308200Y847700D02*
D03*
X330200Y857200D02*
D03*
Y838200D02*
D03*
D22*
X533400Y480510D02*
D03*
Y524510D02*
D03*
Y440240D02*
D03*
Y396240D02*
D03*
D23*
X385630Y374200D02*
D03*
Y380700D02*
D03*
Y387200D02*
D03*
Y393700D02*
D03*
X341630Y374200D02*
D03*
Y380700D02*
D03*
Y387200D02*
D03*
D24*
Y393700D02*
D03*
D25*
X353060Y490220D02*
D03*
D26*
X365760D02*
D03*
X378460D02*
D03*
X391160D02*
D03*
X353060Y537020D02*
D03*
X365760D02*
D03*
X378460D02*
D03*
X391160D02*
D03*
D27*
X647070Y483870D02*
D03*
X687070D02*
D03*
D28*
X375850Y646430D02*
D03*
X322850D02*
D03*
D29*
X370590Y586740D02*
D03*
X326390D02*
D03*
M02*
