%FSLAX44Y44*%
%MOMM*%
G71*
G01*
G75*
G04 Layer_Color=16711935*
%ADD10O,1.5500X0.6000*%
%ADD11R,1.5500X0.6000*%
G04:AMPARAMS|DCode=12|XSize=2mm|YSize=1mm|CornerRadius=0.25mm|HoleSize=0mm|Usage=FLASHONLY|Rotation=90.000|XOffset=0mm|YOffset=0mm|HoleType=Round|Shape=RoundedRectangle|*
%AMROUNDEDRECTD12*
21,1,2.0000,0.5000,0,0,90.0*
21,1,1.5000,1.0000,0,0,90.0*
1,1,0.5000,0.2500,0.7500*
1,1,0.5000,0.2500,-0.7500*
1,1,0.5000,-0.2500,-0.7500*
1,1,0.5000,-0.2500,0.7500*
%
%ADD12ROUNDEDRECTD12*%
%ADD13R,1.0000X2.0000*%
%ADD14R,0.9000X2.0000*%
%ADD15R,2.0000X0.7000*%
%ADD16R,2.0000X0.8000*%
%ADD17R,1.2500X1.2500*%
%ADD18R,1.2500X1.2500*%
%ADD19R,0.6000X2.0000*%
%ADD20R,0.6000X1.5000*%
%ADD21R,1.4000X1.0000*%
%ADD22R,1.6000X3.0000*%
%ADD23O,1.4500X0.4000*%
%ADD24R,1.4500X0.4000*%
%ADD25R,0.7200X1.7800*%
%ADD26O,0.7200X1.7800*%
%ADD27R,2.5000X1.7000*%
%ADD28R,3.5000X1.0000*%
%ADD29R,2.1590X2.7430*%
%ADD30C,1.0000*%
%ADD31C,1.5000*%
%ADD32C,0.7000*%
%ADD33C,0.3000*%
%ADD34C,0.5000*%
%ADD35C,0.4000*%
%ADD36C,1.5000*%
%ADD37R,1.8500X1.8500*%
%ADD38C,1.8500*%
%ADD39R,1.8500X1.8500*%
%ADD40R,1.5000X0.9000*%
%ADD41O,1.5000X0.9000*%
%ADD42R,2.0000X2.0000*%
%ADD43C,2.0000*%
%ADD44R,2.0000X2.0000*%
%ADD45R,1.5000X1.5000*%
%ADD46C,1.5240*%
%ADD47R,1.5240X1.5240*%
%ADD48C,1.2700*%
%ADD49C,1.0000*%
%ADD50C,0.7000*%
%ADD51C,0.2000*%
%ADD52C,0.2540*%
%ADD53C,0.2500*%
%ADD54C,0.2560*%
%ADD55C,0.1500*%
%ADD56O,1.7532X0.8032*%
%ADD57R,1.7532X0.8032*%
G04:AMPARAMS|DCode=58|XSize=2.2032mm|YSize=1.2032mm|CornerRadius=0.3516mm|HoleSize=0mm|Usage=FLASHONLY|Rotation=90.000|XOffset=0mm|YOffset=0mm|HoleType=Round|Shape=RoundedRectangle|*
%AMROUNDEDRECTD58*
21,1,2.2032,0.5000,0,0,90.0*
21,1,1.5000,1.2032,0,0,90.0*
1,1,0.7032,0.2500,0.7500*
1,1,0.7032,0.2500,-0.7500*
1,1,0.7032,-0.2500,-0.7500*
1,1,0.7032,-0.2500,0.7500*
%
%ADD58ROUNDEDRECTD58*%
%ADD59R,1.2032X2.2032*%
%ADD60R,1.1032X2.2032*%
%ADD61R,2.2032X0.9032*%
%ADD62R,2.2032X1.0032*%
%ADD63R,1.4532X1.4532*%
%ADD64R,1.4532X1.4532*%
%ADD65R,0.8032X2.2032*%
%ADD66R,0.8032X1.7032*%
%ADD67R,1.6032X1.2032*%
%ADD68R,1.8032X3.2032*%
%ADD69O,1.6532X0.6032*%
%ADD70R,1.6532X0.6032*%
%ADD71R,0.9232X1.9832*%
%ADD72O,0.9232X1.9832*%
%ADD73R,2.7032X1.9032*%
%ADD74R,3.7032X1.2032*%
%ADD75R,2.3622X2.9462*%
%ADD76C,1.7032*%
%ADD77R,2.0532X2.0532*%
%ADD78C,2.0532*%
%ADD79R,2.0532X2.0532*%
%ADD80R,1.7032X1.1032*%
%ADD81O,1.7032X1.1032*%
%ADD82R,2.2032X2.2032*%
%ADD83C,2.2032*%
%ADD84R,2.2032X2.2032*%
%ADD85R,1.7032X1.7032*%
%ADD86C,1.7272*%
%ADD87R,1.7272X1.7272*%
%ADD88C,0.2032*%
%ADD89C,1.4732*%
%ADD90C,1.2032*%
%ADD91C,0.9032*%
D76*
X571500Y977900D02*
D03*
X546100D02*
D03*
X444500Y958850D02*
D03*
Y984250D02*
D03*
X438150Y1059180D02*
D03*
Y1033780D02*
D03*
X297180Y309880D02*
D03*
D77*
X641350Y982980D02*
D03*
D78*
Y932180D02*
D03*
X278130Y957580D02*
D03*
X325120Y919480D02*
D03*
X274320D02*
D03*
Y894080D02*
D03*
X450850Y309880D02*
D03*
D79*
X328930Y957580D02*
D03*
X325120Y894080D02*
D03*
X400050Y309880D02*
D03*
D80*
X289560Y1036320D02*
D03*
D81*
Y1023620D02*
D03*
Y1049020D02*
D03*
Y1061720D02*
D03*
D82*
X378460Y730250D02*
D03*
X273050Y754380D02*
D03*
D83*
X378460Y755650D02*
D03*
Y781050D02*
D03*
Y806450D02*
D03*
Y831850D02*
D03*
Y857250D02*
D03*
X610140Y650240D02*
D03*
X273050Y779780D02*
D03*
Y805180D02*
D03*
X763270Y963930D02*
D03*
Y938530D02*
D03*
Y913130D02*
D03*
Y887730D02*
D03*
Y862330D02*
D03*
X737870D02*
D03*
Y887730D02*
D03*
Y913130D02*
D03*
Y938530D02*
D03*
Y963930D02*
D03*
X763270Y728980D02*
D03*
Y703580D02*
D03*
Y678180D02*
D03*
Y652780D02*
D03*
Y627380D02*
D03*
X737870D02*
D03*
Y652780D02*
D03*
Y678180D02*
D03*
Y703580D02*
D03*
Y728980D02*
D03*
D84*
X561340Y650240D02*
D03*
D85*
X322580Y309880D02*
D03*
D86*
X445770Y648170D02*
D03*
X454660Y512280D02*
D03*
X755650Y536410D02*
D03*
D87*
X445770Y598170D02*
D03*
X454660Y462280D02*
D03*
X755650Y486410D02*
D03*
D88*
X266700Y1261110D02*
D03*
X822960D02*
D03*
Y288290D02*
D03*
X266700D02*
D03*
D89*
X788670Y577850D02*
D03*
X600710Y1201420D02*
D03*
X703580D02*
D03*
X292100Y1205230D02*
D03*
X273050Y1079500D02*
D03*
X643890Y811530D02*
D03*
X657860Y821690D02*
D03*
X756920Y781050D02*
D03*
X694690Y795020D02*
D03*
X273050Y372110D02*
D03*
X314960Y1131570D02*
D03*
Y1156970D02*
D03*
X273050Y680720D02*
D03*
X426720Y1201420D02*
D03*
X274320Y490220D02*
D03*
X271780Y444500D02*
D03*
X295910Y867410D02*
D03*
X664210Y288290D02*
D03*
X716280Y289560D02*
D03*
D90*
X626110Y685800D02*
D03*
X640080Y680720D02*
D03*
X647700Y673100D02*
D03*
X652780Y662940D02*
D03*
Y651510D02*
D03*
Y640080D02*
D03*
X647700Y629920D02*
D03*
X640080Y622300D02*
D03*
X607060Y615950D02*
D03*
X618490D02*
D03*
X629920D02*
D03*
X595630D02*
D03*
X584200D02*
D03*
X572770D02*
D03*
X561340D02*
D03*
X549910D02*
D03*
X538480D02*
D03*
X529590Y622300D02*
D03*
X521970Y629920D02*
D03*
X516890Y640080D02*
D03*
Y650875D02*
D03*
Y661670D02*
D03*
X521970Y671830D02*
D03*
X796290Y1004570D02*
D03*
X414020Y783590D02*
D03*
Y842010D02*
D03*
X375920Y419100D02*
D03*
X597370Y434340D02*
D03*
X615150D02*
D03*
X632930D02*
D03*
X414020Y923290D02*
D03*
X614680Y288290D02*
D03*
X692150D02*
D03*
X549910Y688340D02*
D03*
X538480Y687070D02*
D03*
X529590Y680720D02*
D03*
D91*
X523240Y1123950D02*
D03*
X488950Y1184910D02*
D03*
X476250D02*
D03*
X533400Y1026160D02*
D03*
X520700D02*
D03*
X554990Y777240D02*
D03*
X567690D02*
D03*
X593640D02*
D03*
X628650Y958850D02*
D03*
X682540Y813520D02*
D03*
X643890Y778510D02*
D03*
X657860D02*
D03*
X349250Y1061720D02*
D03*
X343314Y719234D02*
D03*
X455930Y711200D02*
D03*
X501650Y781050D02*
D03*
X438150Y711200D02*
D03*
X483870Y781050D02*
D03*
X500380Y806450D02*
D03*
X457200Y887730D02*
D03*
X588010Y697230D02*
D03*
Y732790D02*
D03*
X356870Y346710D02*
D03*
X692150Y730250D02*
D03*
X414020Y1075690D02*
D03*
X488950Y737870D02*
D03*
Y727710D02*
D03*
X529590Y735330D02*
D03*
X543560Y732790D02*
D03*
X571500Y529590D02*
D03*
Y510540D02*
D03*
Y485140D02*
D03*
X787400Y447040D02*
D03*
Y397510D02*
D03*
M02*
