M48
;Layer_Color=9474304
;FILE_FORMAT=2:4
INCH,LZ
T9F00S00C0.0787
%
G90
G05
T09
G00X033123Y010376
M15
G01X033234Y010434
G01X033322Y010524
G01X033377Y010636
G01X033394Y01075
G01X033394Y05025
G01X033374Y050373
G01X033316Y050484
G01X033226Y050572
G01X033114Y050627
G01X033Y050644
G01X0099Y050644
G01X009777Y050624
G01X009666Y050566
G01X009578Y050476
G01X009523Y050364
G01X009506Y05025
G01X009506Y01075
G01X009526Y010627
G01X009584Y010516
G01X009674Y010428
G01X009786Y010373
G01X0099Y010356
G01X033Y010356
G01X033123Y010376
M16
M17
M30
