M48
;Layer_Color=9474304
;FILE_FORMAT=2:4
INCH,LZ
;TYPE=PLATED
T1F00S00C0.0118
T2F00S00C0.0236
T3F00S00C0.0280
T4F00S00C0.0300
T5F00S00C0.0354
T6F00S00C0.0394
T7F00S00C0.0433
T8F00S00C0.0591
;TYPE=NON_PLATED
%
T01
X01405Y01365
X0225Y0191
Y0201
Y02085
X02315Y02745
Y02885
X0214
X02085Y02895
X01925Y02905
Y02865
X01795Y028
X01725
X01905Y03075
X01975
X02185Y0306
X02235
X023372
X02535Y03065
X0259
X02725Y02875
X031Y0176
Y01565
X0148Y0165
X013516Y028316
X01375Y0418
X0163Y04235
X0205Y0404
X021
X0206Y04425
X01925Y04665
X01875
X018Y03495
X0197Y03175
X026872Y032028
X02475Y03775
T02
X0242Y01135
X02725
X024918Y0171
X024218
X023519
X02345Y02425
X0239
X02435
X0248
X0252Y0245
X0255Y0248
X0257Y0252
Y02565
Y0261
X0255Y0265
X0252Y0268
X02465Y027
X02165Y0271
X0212Y02705
X02085Y0268
X02055Y02645
X02035Y02605
Y025625
Y0252
X02055Y0248
X02085Y0245
X0212Y02425
X02165
X0221
X02255
X023
X0163Y03085
Y03315
Y03635
X03135Y03955
T03
X01075Y01465
X02615Y01135
X0282Y0114
X03105Y02275
X0298Y03075
X01075Y0268
X0108Y0193
X0107Y0175
X01165Y03415
X01075Y0425
X0124Y04455
Y04555
X02535Y03195
X0259Y03235
X02735Y0313
X0277Y0473
X02365
X0168
X0115Y04745
T04
X0114Y0403
Y0408
Y0413
Y0418
T05
X0117Y0122
X0127
T06
X0179Y0182
Y020168
X01755Y02355
Y025519
X0221Y0256
X024021
X02905Y0257
X03005
Y0267
Y0277
Y0287
X02905
Y0277
Y0267
Y0247
X03005
X02975Y021119
Y01915
X0149Y02875
Y02975
Y03075
X01075Y0307
Y0297
Y0317
X0149Y03175
Y03275
Y03375
X0175Y03775
Y03875
X01725Y0407
Y0417
X0215Y0385
X0225
X02905Y03795
X03005
Y03695
Y03595
Y03495
Y03395
X02905
Y03495
Y03595
Y03695
T07
X01575Y0122
X01775
X0128Y0352
Y0362
X01295Y0377
X01095
X0108Y0362
Y0352
X02525Y0367
Y0387
T08
X0105Y01135
X0324
Y04965
X0105
M30
