M48
;Layer_Color=9474304
;FILE_FORMAT=4:4
METRIC,LZ
;TYPE=PLATED
T1F00S00C0.7112
T2F00S00C0.7620
T3F00S00C0.9000
T4F00S00C1.2000
%
T01
X00143Y00246
X00164Y00248
X00179Y00212
X00206Y00197
X00148Y00285
X00161Y00318
X0017Y0036
X00144Y00364
X00222Y00367
X00223Y00428
X00178Y0042
X00307Y00325
X00321Y00288
X004Y00302
X00381Y00335
X00363Y00358
X00383Y0051
X00426Y00526
X00338Y00529
X00128Y00518
X00059Y00527
X00127Y0042
X00085Y0037
X00091Y00278
X00112Y00293
X00101Y00246
X00117Y00185
X00055
T02
X00346Y00073
X00311Y00123
X00409
X00444Y00073
T03
X000597Y000906
X000851
X001105
X000978Y00116
X000724
X00047
T04
X00206Y00616
X00256
X00306
M30
