M48
;Layer_Color=9474304
;FILE_FORMAT=2:5
INCH,LZ
;TYPE=PLATED
T1F00S00C0.02800
T2F00S00C0.03000
T3F00S00C0.03543
T4F00S00C0.04724
%
T01
X0056299Y009685
X0064567Y0097638
X0070472Y0083465
X0081496Y008937
X0100787Y0111811
X0126378Y0113386
X0143307Y0127165
X0142913Y0140945
X015748Y0118898
X0150787Y0200787
X0167717Y0207087
X0133071Y0208268
X009685Y0149213
X0086221Y0138583
X0064173Y0142913
X0056693Y0143307
X0063386Y0125197
X0058268Y0112205
X0070079Y0165354
X005
X0023622Y0175197
X0033465Y0145669
X0035827Y0116142
X0043307
X0039764Y009685
X0046063Y0072835
X0022835Y0072441
X0050394Y0203937
T02
X0136221Y002874
X0122441Y0048425
X0161024
X0174803Y002874
T03
X0023504Y0035669
X0033504
X0043504
X0038504Y0045669
X0028504
X0018504
T04
X0081102Y024252
X0100787
X0120472
M30
